/* XPM */
static char *c33ae76ae3e548df978c01fd99cd0e21AW5hz5Sc2I7N0Naj[] = {
/* columns rows colors chars-per-pixel */
"50 50 240 2 ",
"   c #030101",
".  c #0B0100",
"X  c #0C0A04",
"o  c #060409",
"O  c #0C040B",
"+  c #0B0A0A",
"@  c #030A06",
"#  c #130202",
"$  c #1C0000",
"%  c #120903",
"&  c #140B0A",
"*  c #1B0B0B",
"=  c #190A09",
"-  c #081108",
";  c #17110C",
":  c #140B12",
">  c #141514",
",  c #1A191A",
"<  c #181616",
"1  c #0B0A10",
"2  c #240101",
"3  c #260808",
"4  c #340102",
"5  c #360406",
"6  c #241A13",
"7  c #291917",
"8  c #2B2418",
"9  c #35241E",
"0  c #362A1E",
"q  c #371F22",
"w  c #282628",
"e  c #382624",
"r  c #2E2D32",
"t  c #393838",
"y  c #3B302A",
"u  c #460100",
"i  c #4E0300",
"p  c #520000",
"a  c #580000",
"s  c #4C160C",
"d  c #5B1314",
"f  c #6B0100",
"g  c #640A01",
"h  c #640805",
"j  c #760406",
"k  c #6D1411",
"l  c #511F20",
"z  c #502F28",
"x  c #433626",
"c  c #443638",
"v  c #5A3933",
"b  c #4D2F2B",
"n  c #703128",
"m  c #6B2C23",
"M  c #49423A",
"N  c #53433B",
"B  c #524527",
"V  c #6A4F38",
"C  c #77413F",
"Z  c #685B3F",
"A  c #454243",
"S  c #4E4D4D",
"D  c #575757",
"F  c #5C5F44",
"G  c #684C45",
"H  c #764645",
"J  c #66584A",
"K  c #784E50",
"L  c #695856",
"P  c #5C635C",
"I  c #696359",
"U  c #766458",
"Y  c #777857",
"T  c #676664",
"R  c #776D67",
"E  c #6D7466",
"W  c #7D7D7B",
"Q  c #7E7976",
"!  c #810000",
"~  c #8B0000",
"^  c #84090B",
"/  c #950000",
"(  c #9B050A",
")  c #9F120B",
"_  c #961317",
"`  c #A70004",
"'  c #B6040C",
"]  c #B01E0F",
"[  c #AA1814",
"{  c #AF1608",
"}  c #BB1A25",
"|  c #8D232C",
" . c #A3262A",
".. c #B52429",
"X. c #A82C39",
"o. c #B42935",
"O. c #A43039",
"+. c #CD080B",
"@. c #D80505",
"#. c #D60C15",
"$. c #C71A19",
"%. c #DC1610",
"&. c #E00000",
"*. c #EB0100",
"=. c #E20A0C",
"-. c #E4000C",
";. c #F30201",
":. c #FD0A02",
">. c #F5010A",
",. c #F70806",
"<. c #E21507",
"1. c #EF0F19",
"2. c #E71317",
"3. c #FD1618",
"4. c #FB0F0F",
"5. c #D01E23",
"6. c #CB2225",
"7. c #E6222E",
"8. c #81413F",
"9. c #8B4F52",
"0. c #A05C67",
"q. c #967268",
"w. c #976F70",
"e. c #AB7A75",
"r. c #87876A",
"t. c #98856D",
"y. c #83807D",
"u. c #999176",
"i. c #AF997C",
"p. c #C68379",
"a. c #D38B7C",
"s. c #7C8187",
"d. c #838685",
"f. c #8A8988",
"g. c #99999A",
"h. c #968C8D",
"j. c #B8998A",
"k. c #BB9B9A",
"l. c #A18C86",
"z. c #9BA19D",
"x. c #ADA78A",
"c. c #B1B18F",
"v. c #B8AA9C",
"b. c #ABA690",
"n. c #9E9DA5",
"m. c #A99FA0",
"M. c #A8A8AB",
"N. c #B1A4AC",
"B. c #B9ADA5",
"V. c #B5BAB3",
"C. c #D3998B",
"Z. c #C89995",
"A. c #C2A699",
"S. c #D3A49C",
"D. c #C8B39D",
"F. c #CDAC92",
"G. c #DCBBA4",
"H. c #CBBDB0",
"J. c #CDB4A3",
"K. c #EFABA0",
"L. c #EDB7A8",
"P. c #D0C09C",
"I. c #CEC1B0",
"U. c #D7CBB6",
"Y. c #F9CAB5",
"T. c #EBDCBD",
"R. c #E9D4BA",
"E. c #F7D6B5",
"W. c #F3DABC",
"Q. c #FDDCBC",
"!. c #FAD6BB",
"~. c #E7C7B2",
"^. c #FCE4BD",
"/. c #F4E3BB",
"(. c #C2C5C5",
"). c #CCCCCA",
"_. c #C6C7C8",
"`. c #DDD0C0",
"'. c #D7D8D9",
"]. c #D3D3CB",
"[. c #FFCEC7",
"{. c #E5D4C3",
"}. c #E6DACA",
"|. c #F4D5C4",
" X c #FDD6C3",
".X c #F5DAC4",
"XX c #FCDCC4",
"oX c #FBDDCB",
"OX c #F8D7C9",
"+X c #E9D9D5",
"@X c #FFDED4",
"#X c #FFD7D4",
"$X c #F4E1C4",
"%X c #FEE3C3",
"&X c #FEE9C3",
"*X c #F6E5CA",
"=X c #FDE3CB",
"-X c #F6EBCD",
";X c #FEEACC",
":X c #FFF2CF",
">X c #F4E5D4",
",X c #FEE5D3",
"<X c #F4EBD3",
"1X c #FEEAD4",
"2X c #FDE5DA",
"3X c #FEEDDA",
"4X c #F7EBDD",
"5X c #FFF3DD",
"6X c #FAF5D9",
"7X c #E9E7CD",
"8X c #E3D8E0",
"9X c #E5E5E5",
"0X c #ECE6E4",
"qX c gray92",
"wX c #EBE9E8",
"eX c #FFECE2",
"rX c #F5EDEC",
"tX c #FCEFE8",
"yX c #F3E7E8",
"uX c #ECF4EE",
"iX c #E7F6E8",
"pX c #FFF3E3",
"aX c #FEF4EE",
"sX c #FFFEEF",
"dX c #F6F9E9",
"fX c #EDEEF1",
"gX c #FFEEF4",
"hX c #F5E8F1",
"jX c #EDF5F3",
"kX c #ECFCF5",
"lX c #ECFFFE",
"zX c #E9FCF9",
"xX c #F4F4F3",
"cX c #FDF5F3",
"vX c #F3FBF4",
"bX c #FCFBF5",
"nX c #F5F5F9",
"mX c #FCF5FA",
"MX c #F4FEFD",
"NX c #FEFEFE",
/* pixels */
"NXNXNXNXNXNXNXNXNXNXNXNXNXNXNXNXNXNXNXNXNXNXNXNXNXMXNXMXNXNXNXNXNXNXNXNXNXNXNXNXNXNXMXNXNXNXNXNXNXNX",
"NXNXNXNXNXNXNXNXNXNXNXNXNXNXNXNXNXNXNXNXNXNXNXMXNXNXNXNXNXNXNXNXNXNXNXNXNXNXNXNXNXMXNXMXNXNXNXNXNXNX",
"NXNXNXNXNXNXNXNXNXNXNXNXNXNXNXNXNXNXNXNXNXNXbXNXNXNXNXNXNXNXNXNXNXNXNXNXNXNXNXNXNXMXMXNXNXNXNXNXNXNX",
"NXNXNXNXNXNXNXNXNXNXNXNXNXNXNXNXNXNXbXNXNXNXNXNXNXNXNXNXNXNXNXNXNXNXNXNXNXNXNXNXNXNXMXMXNXNXNXNXNXNX",
"NXNXNXNXNXNXNXNXNXNXNXNXNXNXMXNXNXNXNXNXNXNXNXNXbXNXNXNXNXNXNXbXNXNXNXNXNXNXNXNXNXMXMXNXNXNXNXNXNXNX",
"NXNXNXNXNXNXNXNXMXNXNXMXMXMXNXNXNXNXNXNXNXNXNXbXNXNXbXmXNXNXNXNXNXMXNXNXNXNXNXNXMXNXNXMXNXNXNXNXNXNX",
"NXNXNXNXNXNXNXNXMXNXNXMXNXNXMXNXNXNXNXNXNXNXNXNXNXbXNXNXNXNXNXNXMXNXNXNXNXNXNXNXNXMXNXNXMXNXNXNXNXNX",
"NXNXNXNXNXNXNXNXNXNXNXNXNXMXNXNXNXMXNXNXmXNXNXNXNXNXNXNXNXNXNXNXNXMXNXNXNXNXNXNXNXNXMXNXNXNXNXNXNXNX",
"NXNXNXNXNXNXNXqXg.D S y.).MXNXNXNXlXMXfX(.f.S A t M A S h._.fXNXvXMXNXNX0X).Q S P z.qXMXxXNXNXNXNXNX",
"NXxXNXNXNXxX_.w +   o   @ w.MXNXnXnXs.w o                   r W dXNXsXxXf.%       @ w V.NXNXNXnXNXNX",
"NXNXNXxXNXwX+         >     f.NXg.,       &   X % .   . & X     < z.NXy.. . %         > 9XNXmXNXNXNX",
"NXNXNXNXNXT   +   &     . . < c o o o +     % e 9 x e ;     . +     M 6 . #   . X   +   T NXmXNXNXNX",
"NXMXNXNX9X, >   &     . # = . .       6 U I.>X}.eX3X2X{.B.R 0 .     % . . . = .       o , NXNXNXNXNX",
"MXNXxXNX9X,   . . . & . * 7 . .   7 v.4X>X3X>X,XoX*X=X*X,XpX.Xv.8 . . # 7 3 . . . +     < 9XNXNXNXNX",
"NXNXjXnXNX+ &     X . . c 7 . = . J J v.3X.X1X!.Q.=X1XXXoX=XD.U N % . # q x . & .     > < MXNXxXNXNX",
"MXNXNXNXNXD   . . . . q q # 3 G }.R.J.T.%XW.%X^.&XE.Q.%X%X=XE.D.{.+XJ # # q q . .   @   D NXfXNXNXNX",
"NXbXNXxXNX(.    + o   7 6 . x 3X-X$X1XE.%X&X^.^.^.^.Q.^.&X&X=X;X=X,X@Xz $ $ q . .       (.xXNXnXNXNX",
"NXxXNXNXxXNXg.    O   & #   I.1X*XT.;XXX&X/./.^.E.%X;X%XT./.XXXXT.&X1XJ.# 3 # . ;   - d.MXNXnXNXNXNX",
"NXxXNXNXbXbXNX_.D w < q . 0 <X{.|.XX,XXX*X=X-X*X;X*X.XoX=X,X,X1X<X}.<X7X8   ; w > P V.NXbXNXmXNXNXNX",
"bXNXNXxXNXxXNXNXmXgXNXh.. R pX<X5X,X,X|.|.,X*X1X=X=X1X=X,X|.OXOX6X<X<X4XI X g.xXbXbXNXMXnXNXNXNXNXNX",
"NXNXNXnXNXbXNXfXmXmXmXm.= L U.U U t.U.1X5X2X|.oXoXOX,X.X5X6X<X{.u.Y F 7XI   N.NXbXxXbXvXNXvXMXNXNXNX",
"NXnXNXNXNXbXNXNXNXnXmX'.. M bXU.x.r.Z V q.XX2XoX2X|.,X=XR.t.F B Y x.U.bXy . +XrXNXNXbXbXNXMXlXMXNXNX",
"NXNXNXxXNXNXrXnXnXNXNXyX  8 }.>X&X:X%XF.F.W.oXXX,X!.;X=XW.x.P.:X1XXXtX@X9 $ yXNXcXmXaXNXMXNXMXNXNXNX",
"NXNXNXNXNXNXNXNXNXNXmXNXR   B.*X$XR.E.=X%X1XXX;XoX X;XE.:X^.^.E.Y.@XyXj.# L NXxXNXbXNXNXNXNXNXMXNXNX",
"NXNXNXNXNXbXNXNXmXNXmXNX0X% 8 pX XC.p.L.=X*X6Xu.~.G.i.&X&X%XL.a.C. X@Xb X '.lXzXMXMXMXNXNXNXNXmXNXNX",
"NXNXNXNXNXNXNXNXNXNXnXNXrXN.; G eXS.p.L.5XT.6Xc.v V Z.oXXX=XK.a.C.*XG   I.MXzXlXlXMXbXbXNXmXmXNXNXNX",
"NXNXNXNXNXNXNXNXNXMXmXNXNXNX].6 b k.#XtX1X<X7X-XR.G.2X,X*XpXeX[.c.B 8 ].lXzXzXlXMXNXNXNXNXmXNXNXNXNX",
"mXNXNXNXbXbXNXNXNXNXmXNXxXcXaXbXw.v G w.S.~. X^.XXQ.XX!.L.Z.e.v x r.iXvXzXzXlXlXNXNXNXNXNXNXNXMXNXNX",
"NXNXNXNXNXNXNXNXMXNXNXNXNXNXNXmXbXv.2 2 i g f f f k g g d p 4 $ D.dXdXiXNXMXfXNXNXNXmXNXNXNXMXMXNXNX",
"NXNXNXNXNXbXNXbXNXnXNXNXmXNX0XcX0.4 m i  .] $.$.{ ] ] ) [  .i n 2 q.bXaXcXNXNXNXNXmXmXNXNXNXMXMXNXNX",
"NXNXNXNXNXbXNXNXNXfXNXNXNXbXNXK f o.^ j $.@.3.@.<.<.<.=.2.7.j ^ X.p 9.gXmXNXfXNXNXNXNXNXNXNXNXNXNXNX",
"NXNXNXNXbXNXbXNXnXNXNXNXmXNXR 5  .} / / @.,.*.4.*.,.;.;.>.-.` / o.X.a 0.gXgXNXMXNXNXNXNXNXNXNXNXNXNX",
"NXNXNXNXNXNXNXNXNXbXNXNXNXNXw 5 | } ^ ' 2.;.*.:.:.;.:.,.,.@.+.! X.| 5 z cXNXNXvXNXNXNXNXNXNXNXMXNXNX",
"NXNXNXNXNXNXNXNXnXNXNXMXnXwXt k.h ^ ~ 6.+.=.3.@.;.;.:.&.@.5.5.~ j d S.z }.bXbXMXNXNXNXNXNXNXNXbXNXNX",
"NXNXNXNXNXNXNXNXNXfXNXbXNXMXS L C u f o.$.#.-.3.>.>.1.#.5.} _ f 4 H C v bXNXjXMXNXNXNXNXNXNXMXMXNXNX",
"NXNXNXNXNXNXNXNXNXbXbXNXNXjX9XR U Z.9.i j ) ` ' ' ' ( ) _ a m 8.S.9.R rXNXuXMXMXNXNXNXNXNXNXbXNXNXNX",
"NXNXNXNXNXNXNXNXNXxXNXnXNXnXNXNXMXxXNXl.# $ 2 2 s d 2 2 2 # l.bXxXaXbXbXvXMXMXMXNXNXNXNXNXNXNXNXNXNX",
"NXNXNXNXNXNXNXNXNXNXxXMXNXNXbXNXiXMXMXV.-   -   E E -       N.MXbXbXvXjXMXlXMXNXNXNXmXmXNXNXNXbXNXNX",
"NXNXNXNXNXNXNXNXNXbXNXbXnXNXnXNXNXnXMX(.  @ @   s.s.o   + 1 _.nXbXMXMXMXkXMXNXMXNXNXmXNXNXNXNXbXNXNX",
"NXNXNXNXNXNXNXNXMXNXNXnXNXxXNXbXNXNXNX'.    1   M.n.o o o   '.NXNXMXuXNXMXMXNXnXNXmXNXNXNXNXMXNXNXNX",
"NXNXNXNXNXNXNXNXNXNXNXNXNXNXNXNXNXbXbX'.* o O O m.N.: X   , '.NXNXNXNXNXNXNXNXNXNXmXmXNXNXNXNXMXNXNX",
"NXNXNXNXNXNXNXNXNXNXNXNXNXNXNXNXNXrXNXNXc . & + hX8X:   + t NXNXNXNXNXNXNXNXNXmXmXNXNXNXNXNXNXNXNXNX",
"NXNXNXNXNXNXNXNXNXNXNXNXNXNXNXNXcXbXaXNX0XW T (.NXfX).T W 0XNXcXNXNXNXmXmXNXNXNXNXmXNXNXNXNXMXNXNXNX",
"NXNXNXNXNXNXNXNXNXNXNXNXNXNXNXNXNXaXNXbXbXvXMXvXkXMXvXNXNXrXNXbXNXNXNXNXNXmXmXNXNXNXNXNXNXNXNXNXNXNX",
"NXNXNXNXNXNXNXNXNXNXNXNXNXNXNXNXNXNXvXNXbXvXiXbXMXbXMXuXuXNXNXMXNXNXNXNXNXbXNXNXNXNXNXNXNXNXNXNXNXNX",
"NXNXNXNXNXNXNXNXNXNXNXNXNXNXNXNXnXMXMXMXuXMXMXvXNXvXvXNXNXvXvXNXNXNXNXNXNXNXNXNXNXNXNXNXNXNXNXNXNXNX",
"NXNXNXNXNXNXNXNXNXNXNXNXNXNXNXNXNXlXnXNXnXNXNXbXcXNXbXNXNXnXNXMXNXbXNXbXNXNXNXNXNXMXMXNXNXNXNXNXNXNX",
"NXNXNXNXNXNXNXNXNXNXNXNXNXNXNXNXMXMXNXMXNXNXmXNXNXcXbXNXNXNXMXNXMXMXNXMXNXbXMXbXNXNXNXNXNXNXNXNXNXNX",
"NXNXNXNXNXNXNXNXNXNXNXNXNXNXNXNXNXNXNXNXNXNXNXNXNXNXNXNXNXNXNXNXNXNXNXNXNXNXNXNXNXNXNXNXNXNXNXNXNXNX",
"NXNXNXNXNXNXNXNXNXNXNXNXNXNXNXNXNXNXNXNXNXNXNXNXNXNXNXNXNXNXNXNXNXNXNXNXNXNXNXNXNXNXNXNXNXNXNXNXNXNX"
};
