/* XPM */
static char *result[] = {
/* columns rows colors chars-per-pixel */
"80 80 6 1 ",
"  c black",
". c gray12",
"X c #2A663A",
"o c #358F4E",
"O c white",
"+ c None",
/* pixels */
"++++++++++++++++++++++++++++++++++++++++++++++++++++++++++++++++++++++++++++++++",
"++++++++++++++++++++++++++++++++++++++++++++++++++++++++++++++++++++++++++++++++",
"++++++++++++++++++++++++++++++++++++++++++++++++++++++++++++++++++++++++++++++++",
"++++++++++++++++++++++++++++++++++++++++++++++++++++++++++++++++++++++++++++++++",
"++++++++++++++++++++++++++++++++++++++++++++++++++++++++++++++++++++++++++++++++",
"++++++++++++++++++++++++++++++++++++++++++++++++++++++++++++++++++++++++++++++++",
"++++++++++++++++++++++++++++++++++++++++++++++++++++++++++++++++++++++++++++++++",
"++++++++++++++++++++++++++++++++++++++++++++++++++++++++++++++++++++++++++++++++",
"++++++++++++++++++++++++++++++++++++++++++++++++++++++++++++++++++++++++++++++++",
"++++++++++++++++++++++++++++++++++++++++++++++++++++++++++++++++++++++++++++++++",
"++++++++++++++++++++++++++++++++++++++++++++++++++++++++++++++++++++++++++++++++",
"++++++++++++++++++++++++++++++++++++++++++++++++++++++++++++++++++++++++++++++++",
"+++++++++++++++++++++++++++++++++++++++        +++++++++++++++++++++++++++++++++",
"+++++++++++++++++++++++++++++++++++++            +++++++++++++++++++++++++++++++",
"++++++++++++++++++++++++++++++++++++    XXXXXX    ++++++++++++++++++++++++++++++",
"++++++++++++++++++++++++++       ++   XXXXXXXXXX   +++++++++++++++++++++++++++++",
"++++++++++++++++++++++++             XXXXXXXXXXXX   ++++++++++++++++++++++++++++",
"++++++++++++++++++++++     XXXX     XXXXXXXXXXXXXX   +++++++++++++++++++++++++++",
"+++++++++++++++++++++    XXXXXXXXXXXXXooooXXXXXXXXX  +++++++++++++++++++++++++++",
"+++++++++++++++++++++  XXXXXXXXXXXXXoooooooooooXXXX         ++++++++++++++++++++",
"++++++++++++++++++++   XXXXXooooXXXooooooooooooooXXX          ++++++++++++++++++",
"++++++++++++++++++++  XXXooooooooXooooooooooooooooXXXXXXXXX    +++++++++++++++++",
"+++++++++++++++++++   XXoooooooooooooooooooooooooXXXXXXXXXXXX   ++++++++++++++++",
"+++++++++++++++++++  XXooooooooooooooooooooooooooXXoooooXXXXXX   +++++++++++++++",
"+++++++++++++++++++  XXooooooooooooXXXXXooooooooXooooooooXXXXXX   ++++++++++++++",
"+++++++++++++        XoooooooooooXXXXXXXXoooooooooooooooooXXXXXX  ++++++++++++++",
"++++++++++          XXooooooooooXXXXXXXXXXooooooooooooooooooXXXX   +++++++++++++",
"+++++++++     XXXXXXXooooooooooXXXooooooXXXoXXXXXXooooooooooooXXX  +++++++++++++",
"++++++++   XXXXXXXXXoXoooooooooXXooooooooXXXXXXXXXXoooooooooooXXX  +++++++++++++",
"+++++++   XXXXXXXooooooooooooooXXoooooooooXXoooooXXXoooooooooooXX  +++++++++++++",
"+++++++  XXXXXXXoooooooooooooooXooooooooooXXooooooXXoooooooooooXX  +++++++++++++",
"++++++   XXXXXXooooooooo....oooXooooooooooXoooooooXX....ooooooooX  +++++++++++++",
"++++++  XXXXXooooooooooo.......oooooooooooooooooo.......ooooooooX  +++++++++++++",
"+++++   XXXXoooooooooooooo........oooooooooooo........ooooooooooX  +++++++++++++",
"+++++  XXXXXoooooooooooooo.OOO......oooooooo......OOO.ooooooooooX   ++++++++++++",
"+++++  XXXXoooooooooooooo.OOOOOOO...oooooooo...OOOOOOO.oooooooooX   ++++++++++++",
"+++++  XXXXoooooooooooooo.OOO..OO.oooooooooooo.OO..OOO.ooooooooXXX   +++++++++++",
"+++++  XXXXoooooooooooooo.OOO..OO.oooooooooooo.OO..OOO.oooooooXooXX   ++++++++++",
"+++++  XXXXooooooooooooooo.OOOOO.oooooooooooooo.OOOOO.XooooooooooXXX  ++++++++++",
"+++++  XXXXXoooooooooooooo..OOO..oooooooooooooo..OOO..XXoooooooooXXX   +++++++++",
"+++++   XXXXoooooooooooooooo...oooooooooooooooooo...ooXXoooooooooXXXX  +++++++++",
"++++++  XXXXooooooooooooooooooooooooooooooooooooooooooXXXoooooooooXXX  +++++++++",
"++++++   XXXXoooooooooooooXXooooooooooooooooooooooooooXXXoooooooooXXX  +++++++++",
"+++++++  XXXXXoooooooooooXXoooooooooooooooooooooooooooXXXoooooooooXXX  +++++++++",
"+++++++   XXXXXoooooooooXXooooooooooooooooooooooooooooXXXoooooooooXXX  +++++++++",
"++++++++   XXXXXooooooooXXooooooooooo......ooooooooooXXXXoooooooooXXX  +++++++++",
"+++++++++     XXXoooooooXXXooooooooooooooooooooXXoooXXXXoooooooooXXX   +++++++++",
"++++++++++      XXooooooXXXooooooooooooooooooooXXXXXXXXXoooooooooXXX  ++++++++++",
"+++++++++++++   XXXoooooXXXXoooooXoooooooooooooXXXXXXXXoooooooooXXX   ++++++++++",
"++++++++++++++  XXXXooooXXXXXXXXXXooooooooooooooXXXXXXooooooooooXX   +++++++++++",
"++++++++++++++  XXXooooooXXXXXXXXooooooooooooooooooooooooXooooXXX   ++++++++++++",
"+++++++++++++   XXoooooooooXXXXoooooooooooooooooooooooooooXoXXXX    ++++++++++++",
"+++++++++++++  XXXoooooooooooooooooooooooooooooooooooooooooXXX    ++++++++++++++",
"+++++++++++++  XXXoooooooooooooooooooooooooooooooooooooooooXX    +++++++++++++++",
"+++++++++++++  XXXooooooooooooooooooooooooooooooooooooooooXXX  +++++++++++++++++",
"+++++++++++++  XXXooooooooooooooooooooooooooooooooooooooooXXX  +++++++++++++++++",
"+++++++++++++  XXXXooooooooooooooooooooooooooooooooooooooXXX   +++++++++++++++++",
"+++++++++++++  XXXXXooooooooooooooooooooooooooooooooooooXXXX  ++++++++++++++++++",
"+++++++++++++   XXXXoooooooooooooooXooooooooooooooooooXXXXX   ++++++++++++++++++",
"++++++++++++++  XXXXXoooooooooooooXXXoooooooooooooooXXXXXX   +++++++++++++++++++",
"++++++++++++++   XXXXXoooooooooooXXXXooooooooooXXXXXXXXXX   ++++++++++++++++++++",
"+++++++++++++++   XXXXXoooooXXXXXXXXXXoooooooooXXXXXXXX    +++++++++++++++++++++",
"++++++++++++++++   XXXXXXXXXXXXXX   XXXoooooooXXX         ++++++++++++++++++++++",
"++++++++++++++++    XXXXXXXXX        XXXXXXXXXXX        ++++++++++++++++++++++++",
"++++++++++++++++++    XXXXX       +   XXXXXXXXXX   +++++++++++++++++++++++++++++",
"+++++++++++++++++++            +++++  XXXXXXXXXX  ++++++++++++++++++++++++++++++",
"+++++++++++++++++++++        +++++++   XXXXXXXX   ++++++++++++++++++++++++++++++",
"+++++++++++++++++++++++++++++++++++++    XXXX    +++++++++++++++++++++++++++++++",
"++++++++++++++++++++++++++++++++++++++          ++++++++++++++++++++++++++++++++",
"++++++++++++++++++++++++++++++++++++++++      ++++++++++++++++++++++++++++++++++",
"++++++++++++++++++++++++++++++++++++++++++++++++++++++++++++++++++++++++++++++++",
"++++++++++++++++++++++++++++++++++++++++++++++++++++++++++++++++++++++++++++++++",
"++++++++++++++++++++++++++++++++++++++++++++++++++++++++++++++++++++++++++++++++",
"++++++++++++++++++++++++++++++++++++++++++++++++++++++++++++++++++++++++++++++++",
"++++++++++++++++++++++++++++++++++++++++++++++++++++++++++++++++++++++++++++++++",
"++++++++++++++++++++++++++++++++++++++++++++++++++++++++++++++++++++++++++++++++",
"++++++++++++++++++++++++++++++++++++++++++++++++++++++++++++++++++++++++++++++++",
"++++++++++++++++++++++++++++++++++++++++++++++++++++++++++++++++++++++++++++++++",
"++++++++++++++++++++++++++++++++++++++++++++++++++++++++++++++++++++++++++++++++",
"++++++++++++++++++++++++++++++++++++++++++++++++++++++++++++++++++++++++++++++++"
};
