/* XPM */
static char *result[] = {
/* columns rows colors chars-per-pixel */
"60 60 23 1 ",
"  c #331A19",
". c #341A25",
"X c #3C1E2B",
"o c #4D2D2C",
"O c #452432",
"+ c #4F2A3A",
"@ c #5C3747",
"# c #442B61",
"$ c #745663",
"% c #7C5969",
"& c red",
"* c #CE2038",
"= c #8A0B41",
"- c #8A767E",
"; c #331685",
": c #432792",
"> c #5F4181",
", c #9A7686",
"< c #9E7688",
"1 c #97828A",
"2 c #97828B",
"3 c #BEACB3",
"4 c None",
/* pixels */
"444444444444444444444444444444444444444444444444444444444444",
"444444444444444444444444444444444444444444444444444444444444",
"444444444444444444444444444444444444444444444444444444444444",
"444444444444444444444444444444444444444444444444444444444444",
"444444444444444444444444444444444444444444444444444444444444",
"444444444444444444444444444444444444444444444444444444444444",
"444444444444444444444444444444444444444444444444444444444444",
"44444444444444444444444444+OO4444444444444444444444444444444",
"4444444444444444444444444++OOOO44444444444444444444444444444",
"4444444444444444444444444+++OOOO4444444444444444444444444444",
"4444444444444444444444444++++OOOOO44444444444444444444444444",
"44444444444444444444444444++++OOOOOO444444444444444444444444",
"444444444444444444444444444++++OOOOOO44444444444444444444444",
"4444444444444444444444444444++++OOOOOO4444444444444444444444",
"44444444444444444444444444444++++OOOOOOO44444444444444444444",
"444444444444444444444444444444++++OOOOOOO4444444444444444444",
"4444444444444444444444444444444+XXXOOOOOOO444444444444444444",
"44444444444444444444444444444444X-XXXOOOOOO44444444444444444",
"44444444444444444444444444444444X&-XXXOOOOOO4444444444444444",
"44444444444444444444444444444444X32-XXXXOOOOO444444444444444",
"44444444444444444444444444444**=XX3244XXXXXXX444444444444444",
"44444444444444444444444444*****===X==*44XXXX4444444444444444",
"444444444444444444444444***=**=**==****444444444444444444444",
"44444444444444444444444*=============***44444444444444444444",
"44444444444444444444444==@@XXX111======**4444444444444444444",
"44444444444444444444444=@@@XX1111 11111=**444444444444444444",
"4444444444444444444444@@@@XX11111 1111@@@.444444444444444444",
"444444444444444444444@@@XXXX13333 3111@@@.444444444444444444",
"44444444444444444444@@@@@X@X33333 3111@@..444444444444444444",
"44444444444444444444X@@@@@XX1333 33111@@@..44444444444444444",
"44444444444444444444XX@@@@@@X133 31111@@@@.44444444444444444",
"44444444444444444444XXX@@@@XX113 3111@..@@.44444444444444444",
"44444444444444444444XXXXXXXXX111 3111......44444444444444444",
"444444444444444444444XXXXXXX%<11 31,$$.....44444444444444444",
"4444444444444444444444XXXXX%%<    ,,$$$...444444444444444444",
"44444444444444444444444XXX%%%<<   ,$:$$444444444444444444444",
"4444444444444444444444444XX%%%<33,,$;33344444444444444444444",
"4444444444444444444444444441%%<<<,$$133334444444444444444444",
"444444444444444444444444441111%%%:$$113334444444444444444444",
"444444444444444444444444443333%%%; 1111333444444444444444444",
"44444444444444444444444443333>###   111133344444444444444444",
"444444444444444444444444433>>>##1 oo  1113344444444444444444",
"4444444444444444444444444>>>>#31  oooo 111334444444444444444",
"444444444444444444444444>>>##311  ooooo  1113444444444444444",
"4444444444444444444444>>>##3311  oo  ooo   11444444444444444",
"44444444444444444444>>>##333311  oo   ooooo  444444444444444",
"444444444444444444>>>##4333311  oo o o ooooooo44444444444444",
"4444444444444444>>>##44333311 ooo    o   ooooo44444444444444",
"444444444444444>>##444433311 oooo      o ooooo44444444444444",
"4444444444444>>>#4444433311 oo  oo            44444444444444",
"44444444444>>>##4444443311  o     o           44444444444444",
"444444444>>>##444444433111                   444444444444444",
"444444444###4444444443111               oo o 444444444444444",
"44444444444444444444311  o             oo    444444444444444",
"444444444444444444441 33  o           oo 133 444444444444444",
"44444444444444444444 1111                1113444444444444444",
"444444444444444444444444444444444444444444444444444444444444",
"444444444444444444444444444444444444444444444444444444444444",
"444444444444444444444444444444444444444444444444444444444444",
"444444444444444444444444444444444444444444444444444444444444"
};
