/* XPM */
static char *_0d752b09d0c488beabf908981bf7fc15CcErjtIilbzgDVa[] = {
/* columns rows colors chars-per-pixel */
"60 60 3 1 ",
"  c #BA9865",
". c #D4B07B",
"X c #F5CE93",
/* pixels */
"............................................................",
"............................................................",
"............................................................",
"             .........................................X.....",
"............................................................",
"............................................................",
"............................................................",
"..............................                              ",
"............................................................",
"...........X................................................",
"............................................................",
"............................................................",
".....................................X......................",
"..                        ..................................",
"..                         .................................",
"............................................................",
"............................................................",
"............................................................",
".......................................            .........",
"......................................              ........",
"............................X...............................",
"............................................................",
"...                    .....................................",
"............................................................",
"............................................................",
"............................................................",
"....................                                  ......",
"............................................................",
"............................................................",
"............................................................",
"............................................................",
"......................................................X.....",
"............................................................",
"............................................................",
".................                     ......................",
"..................                 .........................",
"............................................................",
"..........X.................................................",
"............................................            ....",
"............................................................",
"............................................................",
"............................................................",
"............................................................",
"............................................................",
"                  ...............X..........................",
"............................................................",
"............................................................",
"............................................................",
"............................................................",
"............................................................",
"............................................................",
"............................................................",
"..................X.........................................",
".............................                           ....",
"..............................                        ......",
"............................................................",
"............................................................",
"...X........................................................",
"............................................................",
"............................................................"
};
