/* XPM */
static char *result[] = {
/* columns rows colors chars-per-pixel */
"80 80 3 1 ",
"  c #BA9865",
". c #D4B07B",
"X c #F5CE93",
/* pixels */
"................................................................................",
"................................................................................",
"................................................................................",
"            .........................................X..........................",
"................................................................................",
"................................................................................",
"................................................................................",
".............................                                   ............    ",
".............................................................................   ",
"..........X.....................................................................",
"................................................................................",
"................................................................................",
"....................................X...........................................",
".                        .......................................................",
".                         ......................................................",
"................................................................................",
"................................................................................",
"................................................................................",
"......................................            ..............................",
"................................................................................",
"................................................................................",
"................................................................................",
"..                          .........................................X..........",
"................................................................................",
"................................................................................",
"................................................................................",
".............................................                              .....",
"................................................................................",
"..........................X.....................................................",
"................................................................................",
"................................................................................",
"....................................................X...........................",
".................                        .......................................",
"................                          ......................................",
"................................................................................",
"................................................................................",
"................................................................................",
".........X............................................            ..............",
".....................................................              .............",
"...........................................X....................................",
"................................................................................",
"..................                    ..........................................",
"................................................................................",
"................................................................................",
"               .................................................................",
"...................................                                  ...........",
"................................................................................",
"................................................................................",
"................................................................................",
"................................................................................",
".....................................................................X..........",
"................................................................................",
"................................................................................",
"................................                     ...........................",
".................................                   ............................",
"................................................................................",
".........................X......................................................",
"..X........................................................            .........",
"................................................................................",
"................................................................................",
"................................................................................",
"................................................................................",
"................................................................................",
"...............                  ...............X...............................",
"................................................................................",
"................................................................................",
"................................................................................",
"        ...............................................................         ",
"       .................................................................        ",
"................................................................................",
"................................................................................",
".................................X..............................................",
"............................................                      ..............",
".............................................                    ...............",
"................................................................................",
"................................................................................",
"..................X.............................................................",
"................................................................................",
"................................................................................",
"................................................................................"
};
