/* XPM */
static char *result[] = {
/* columns rows colors chars-per-pixel */
"80 80 9 1 ",
"  c #2A663A",
". c #CF597B",
"X c #358F4E",
"o c #BA9865",
"O c #D4B07B",
"+ c #F283A4",
"@ c #F5CE93",
"# c #FFA8C2",
"$ c #FFCCDB",
/* pixels */
"OOOOOOOOOOOOOOOOOOOOOOOOOOOOOOOOOOOOOOOOOOOOOOOOOOOOOOOOOOOOOOOOOOOOOOOOOOOOOOOO",
"OOOOOOOOOOOOOOOOOOOOOOOOOOOOOOOOOOOOOOOOOOOOOooooooooooooooOOOOOOOOOOOOOOOOOOOOO",
"OOOOOOOOOOOOOOOOOOOOOOOOOOOOOOOOOOOOOOOOoooooo         oooooooOOOOOOOOOOOOOOOOOO",
"OOOOOOOOOOOOOOOOOOOO.........OOOOOOOOooooo                   oooOOOOOOOOOOOOOOOO",
"OOOOOOOOOOOOOOOOoo....+.#$.$.....oooooo         XXXXX          oooOOOOOOOOOOOOOO",
"OOOOOOOOOoooooo....+++++.#$++++++..        XXXXXXXXXXXXXXXX      oOOOOOOOOOOOOOO",
"OOOOOOOoooooo....++.##++++++.##++++..   XXXXXXXXXXXXXXXXXX........oOOOOOO@OOOOOO",
"OOOOOooooo  ..++++.#+$#++++.#+$#++.##.XXXX.##.XXX XXXX.....##.++#..ooOOOOOOOOOOO",
"OOOOooo    X.++.##.#$.$.##+.#$.$+.#+......#$+#  X X ...+++#$+#.#$+#.oOOOOOOOOOOO",
"OOOOoo    XX.+.#+$+.#$+#+$#+.#$++.#+......$.$#... ...+++++$.$#.$.$#..ooOOOOOOOOO",
"OOOoo    XX..+.#$.$+++.#$.$++++++..+....+++$#+.....++++++++$#.++$#.+..oOOOOOOOOO",
"OOOoo   XX..##+.#$+++++.#+.##+++.##..+++++++++++...+..+++#$+#.+##.+...oOOOOOOOOO",
"OOOo   XXX.#+$#++++++++++.#+$#+.#+$#++..++++..+++++.##.++$.$#.#$+#.+.+ooOOOOOOOO",
"OOOo  XXXX.#+.##++++++.##+#$.$..#$.$+.##.++.##.++++#$+#+++$#.+$.$#.++#$+oOOOOOOO",
"OOoo  XXXX...#+$#.##+.#+$#.#$+..+#$+.#+$#++#$+#++++$.$#++++++++$+##.+$.$oOOOOOOO",
"OOo   XXXX.+.#$.$#+$#.#$.$+++..+++.###$.$++$.$#+++++$#+.++++++++#$+#.+$#oOOOOOOO",
"OOo   XXXX.++.#$+#$.$+.#$+++..++++#+$##$++++$#+.+++++++..+++++++$.$#.++..OOOOOOO",
"Ooo  XXXX..++++++.#$++++.##+.+++++#$.$+++++++.##.++..+++.++##.+++$#.+##.+OOOOOOO",
"Oo   XXXX.##++.##++++++.#+$#+++..++#$+++..+++#$+#+.##.++..#$+#.+++++#$+#.OOOOOOO",
"Oo   XXXX.+$#.#+$#+++++.#$.$++.##.+++++.##.++$.$#+#$+#+++.$.$#.+++++$.$#.OOOOOOO",
"Oo  XXXXX.$.$.#$.$++++++.#$+++#$+#+++..#$+#+++$#++$.$#+++.+$#+##.++++$#.+OOOOOOO",
"Oo  XXXXX.#$++.#$+++++++....++$.$#++.##$.$#+..+++++$#+++++.++#$+#.+##.++.oOOOOOO",
"O   XXXXX.$++++++++++...+++..++$#+++#+$+$#+.##.++++++..+++.++$.$#.#$+#.+.oOOOOOO",
"O   XXXXXX.+.##+++++..++++.##.++++++#$.$+++#$+#+++..+##.++.+++$#.+$.$#.+.ooOOOOO",
"O  XXXXXXX..#+$#+++..+++..#$+#+#$++++#$++..+.$#++.##.$+#++.$#.+++++$#.++.ooOOOOO",
"O  XXXXXXXX.#$.$++..+++.##$.$##$.$++++++.##.$#+++#$+#.$#++..$#.++##.+++. oooOOOO",
"O   XXXXXXX..#$++.#$+++#+$+$#+#+$#++++++#$+#+++++$.$#$#++++.+#.+#$+#.++.  ooOOOO",
"OO   XXXXXX..+++.#$.$++#$.$+++.##.##++++$.$#++++++$#+++++++.#.++$.$#.++.  oooOOO",
"OO   XXXXXXX..+..#+$#+++#$+++++..+$.#++++$+$#++$#+++++++++++.++++$#.++.X  oooOOO",
"OOO    XXXXXX.+.+.##++++++++##$++$+$#+#$++$.$#$.$#+++++++$#+..+++++++.XX  oooOOO",
"OOOo   XXXXXX.....+++++++++#.$#$+.$#.#$.$+#$+##$+#+$#+++$.$#....+++++.XX  oooOOO",
"OOOoo   XXXXXX....+++++++++#++$+++..+#+$#+.##..##.$.$#++#$+#.#...+++.XXX  ooOOOO",
"OOOOo   XX XXX....+.##+++++.##.++++++.##.++..++..+#$+#++.##...+...+.XXXX  ooOOOO",
"OOOOoo   X XX ...+.#+$#$++++..+++#$+++..+$++++++++.##.+++..+..+#...XXXX  oooOOOO",
"OOOOooo  X X  ...+.#$.$.$+++++++#$.$++#+$#++++++$#+..$#+++++.##....XXXX  oooOOOO",
"OOOOOoo  XXX  ...++.#$+$#++++#$+#+$#++.##.+$#++$.$#+$.$#++$#+++++...XXX  ooOOOOO",
"OOOOOoo  XXXXX...++++.##.+++#$.$.##.+#$+.+$.$#+#$+#+#$+#+$.$#++++....XX  ooOOOOO",
"OOOOOoo  XXXXX....++++..++++#+$#+..+#$.$++#$+#+.##.+.##.+#$+#++++....XX  ooOOOOO",
"OOOOOoo  XXX..+.+.#$++++.#$+.##.++++#+$#++.##.$+..+++..++.##.++$#...+.X  ooooOOO",
"OOOOOoo  XX..#+..#$.$++.#$.$+..+.+++.##.+++..+#$+#++++++.+..++$.$...+..  ooooOOO",
"OOOOooo +.#$+.#..#+$#++.#+$#++##...++..+++++++.##.+++++..+$#++#$+...+..  ooooOOO",
"OOOooo  .#$.$++++.##++#+.##++++++....++++++++++..++++...+$.$#++##...+..   ooooOO",
"OOooo   .#+$#++.#$+.+#$.$+++.#$+++......+++$#+++.......++#$+#++++...$#..   oooOO",
"OOoo  XX+.##++.#$.$.+#+$#++.#$.$+++.......$.$#.+$#+...+++.##.+$#+..$.$..XX  ooOO",
"Ooo   XX.+++++.#+$#..+##+++.#+$##$+++.....#$+#.$.$#.+++$#+..+$.$#..#$+..XX   oOO",
"Ooo  XX.+++.#$+.##++..++++++.##+$.$+++++...##..#$+#.++$.$#.++#$+#.++##..XXX  oOO",
"Ooo  XX.++.#$.$+++++.#$++.#$+++#+$#++++++++..++.##.+++#$+#+$#+##..++++..XXX  oOO",
"Ooo  XX.++.#+$#++++.#$.$.#$.$++.##.+++++++++++++..+$#++##.$.$#..++++++..XXX  oOO",
"Ooo  XX+.#$+##+++++.#+$#.#+$#+++..++.#$++++$#+++++$.$#++++#$+#..++$#++..XXX  ooO",
"oo  XXX.#$.$++++.#$+.##++.##+++++++.#$.$++$.$#++++#$+#++++.##.+++$.$#..XXXXX  oo",
"o   XXX.#+$#+++.#$.$+++++++++++#$++.#+$#++#$+#+++..##.+++++..++++#$+#..XXXXX   o",
"o  XXXX+.##++++.#+$#+++.#$++++#$.$++.##+++.##.+++++..+....++++$#..##...XXXXXX  o",
"o  XXXXX..#$++++.##+++.#$.$+++#+$#+++++++++..++$#++++..+#.+++$.$#+..+.XXXXXXX  o",
"oo  XXXX..$.$+.#$+++++.#+$#+++.##.+++#$+++$#++$.$#+++.##.++++#$+#.++.XXXXXXX  oo",
"oo  XXXXX..$#.#$.$+++++.##+.#$+..+++#$.$+$.$#+#$+#+++.++++++++##.+++.X XXXXX  oO",
"oo  XXXXX...+.#+$#+++.#$++.#$.$+++++#+$#+#$+#+.##.++.+$#++$#.++++++.XX XX  X  oO",
"oo   XXXXX...+.##+++.#$.$+.#+$#+++++.##.+.##.++..+++.$.$#$.$#.++++.XXX X  X   oO",
"ooo  XXXXXX....+.#$+.#+$#++.##++#$+++..+++..+#++++++.#$+##$++$#++.XXXXXX  X  ooO",
"Ooo  XXXXXXX....#$.$+.##+++.+++#$.$++++++++$.$#+$#+.+.##.+##$.$#+.XXXXXXXXX  oOO",
"Ooo  XXXXXXXXX....$#++++++++.++#+$#++++++++#$+#$.$#+++..++++#$+#++.XXXXXXXX  oOO",
"Ooo  XXXXXXXXXXX.....+++++++..+.##.++++++++.##.#$+#+$#.+++++.##.+++.XXXXXXX  oOO",
"Ooo  XXXXXXXXXXXXXXX.+++++++.#$+..++++++$#++..+.##.$.$#.+++++..++$#+XXXXXXX  oOO",
"Ooo  XXXXXXXXXXXXXXX.++.#$+.#$.$.++++++$.$#+++.+..+#$+#+$#++++++$.$#XXXXXXX  oOO",
"Ooo   XXXXXXXXX XXXX.+.#$+$.#+$#.....++#$+#....+++++##.$.$#+++++#$+#XXXXXX   oOO",
"OOoo   XXXX  XX XX  .+.#+$#+.##++.......##....+$#+++$#+#$+#+$#.+.##.XXXXX   ooOO",
"OOOoo    XXX  X X  X.++.##++.#$+++.X...+..++++$.$#+$.$#.##.$.$#.+..+XXXX   ooOOO",
"OOOOooo   XX  XXX  XX.+++++.#$.$+.XXXXXXXXX.++#$+#+#$+#+..+#$+#.++..XXXX  ooOOOO",
"OOOOOooo  XXXXXXXXXXXX..+++.#+$#.XXXXXXXXXXX.+.##.+.##.+++++##.++..XXXX  ooOOOOO",
"OOOOOOooo  XXXXXXXXXXXX...++.##+XXXXXXXXXXXX.++..+++..+$#.++++++...XX    oOOOOOO",
"OOOOOOOoo   XXXXXXXXXXXXX.....XXXX           .++++++++$.$#.++++...XX    ooOOOOOO",
"OOOOOOOOoo   XXXXXXXXXXXXXXXXXXXX             .+++++++#$+#.+++...XX   oooOOOOOOO",
"OOOOOOOOooo             XXXXXXX    oooooooooooo.+++++++##.+++...     oooOOOOOOOO",
"OOOOOOOOOOooo                     oooooooooooooo.+++++++++++...    oooOOOOOOOOOO",
"OOOOOOOOOOOoooooooooo           oooooooooooOOOOOO...++++++....oooooooOOOOOOOOOOO",
"OOOOOOOOOOOOooooooooooooooooooooOOOOOOOOOOOOOOOOOOOO.......OOOOOOoooOOOOOOOOOOOO",
"OOOOOOOOOOOOOOOOOOOOOOOOOOOOOOOOOOOOOOOOOOOOOOOOOOOOOOOOOOOOOOOOOOOOOOOOOOOOOOOO",
"OOOOOOOOOOOOOOOOOOOOOOOOOOOOOOOOOOOOOOOOOOOOOOOOOO@OOOOOOOOOOOOOOOOOOOOOOOOOOOOO",
"OOOOOOOOOOOOOOOOOOOOOOOOOOOOOOOOOOOOOOOOOOOOOOOOOOOOOOOOOOOOOOOOOOOOOOOOOOOOOOOO",
"OOOOOOOOOOOOOOOOOOOOOOOOOOOOOOOOOOOOOOOOOOOOOOOOOOOOOOOOOOOOOOOOOOOOOOOOOOOOOOOO",
"OOOOOOOOOOOOOOOOOOOOOOOOOOOOOOOOOOOOOOOOOOOOOOOOOOOOOOOOOOOOOOOOOOOOOOOOOOOOOOOO"
};
