/* XPM */
static char *_46075bb36a5495181f88366d8536b968NgNqMdIIiMn65k4[] = {
/* columns rows colors chars-per-pixel */
"60 60 7 1 ",
"  c #0D171F",
". c #3D1D16",
"X c #452113",
"o c #573129",
"O c #2E4659",
"+ c #EBC48A",
"@ c #F5D9A6",
/* pixels */
".XooooooooooooooooooooooooooooooooooooooooooooooooooooooooX.",
".XooooooooooooooooooooooooooooooooooooooooooooooooooooooooX.",
".XooOOOOOOOOOOOOOOOOOOOOOOOOOOOOOOOOOOOOOOOOOOOOOOOOOOOOooX.",
".XooO                                                  OooX.",
".XooO                                                  OooX.",
".XooO                                                  OooX.",
".XooO                                                  OooX.",
".XooO                                                  OooX.",
".XooOOOOOOOOOOOOOOOOOOOOOOOOOOOOOOOOOOOOOOOOOOOOOOOOOOOOooX.",
".XooooooooooooooooooooooooooooooooooooooooooooooooooooooooX.",
".XooooooooooooooooooooooooooooooooooooooooooooooooooooooooX.",
".XXXXXXXXXXXXXXXXXXXXXXXXXXXXXXXXXXXXXXXXXXXXXXXXXXXXXXXXXX.",
".XXXX.XX.XXX..XXXXX.XXX...XXXX..XXX..XXX..XXXXX.XXXX......X.",
".X+++++++XX++++++++++++++++++++++++++++++++++++++XX+++++++X.",
".X+@+++@@XX++++@@++++++@@+@++++++@@@@@@@@@@@@@@@@XX+++@+++X.",
".X@@@@@@@XX++@@@@@@@@@@@@@@@@@@@@@@@@@@@@@@@@@@@@XX++@@@@@X.",
".X@@@@@@@XX++@@@@@@@@@@@@@@@@@@@@@@@@@@@@@@@@@@@@XX++@@@@@X.",
".X@@@@@@@XX+@@@@@@@@@@@@@@@@@@@@@@@@@@@@@@@@@@@@@XX+@@@@@@X.",
".X@@@@@@@XX+@@@@@@@@@@@@@@@@@@@@@@@@@@@@@@@@@@@@@XX+@@@@@@X.",
".X@@@@@@@XX+@@@@@@@@@@@@@@@@@@@@@@@@@@@@@@@@@@@@@XX+@@@@@@X.",
".X@@@@@@@XX+@@@@@@@@@@@@@@@@@@@@@@@@@@@@@@@@@@@@@XX+@@@@@@X.",
".X@@@@@@@XX+@@@@@@@@@@@@@@@@@@@@@@@@@@@@@@@@@@@@@XX+@@@@@@X.",
".XXXXXXXXXXXXXXXXXXXXXXXXXXXXXXXXXXXXXXXXXXXXXXXXXXXXXXXXXX.",
".X.X.....X....X.X...XXX...XXXX...XXX...XX...XXXX.X..XXXX..X.",
".X+++++++.X++++++++++++++++++++++++++++++++++++++XX+++++++X.",
".X+@@@@+@.X+++++++++@@@++@++++++++@@@++++@@@+@@++.X+++++@+X.",
".X++++@@@.X++@+++++@@+++++++++++++@+++@+++++++@@@.X++++++@X.",
".X@@@@@@@XX++++++@++++++++@@@@@@@@@@@@@@@@@@@@@@@..+++++++X.",
".X@@@@@@@XX+@++++++@++++@@@@@@@@@@@@@@@@@@@@@@@@@X.+@++@@@X.",
".X@@@@@@@XX+++++++@@@@@@@@@@@@@@@@@@@@@@@@@@@@@@@X.+@++@@@X.",
".X@@@@@@@X.+++++@@@@@@@@@@@@@@@@@@@@@@@@@@@@@@@@@XX+++@@@@X.",
".X@@@@@@@.X+++++@@@@@@@@@@@@@@@@@@@@@@@@@@@@@@@@@XX+++@@@@X.",
".X@@@@@@@.X++@+@@@@@@@@@@@@@@@@@@@@@@@@@@@@@@@@@@XX+++@@@@X.",
".X@@@@@@@XX+@@@@@@@@@@@@@@@@@@@@@@@@@@@@@@@@@@@@@.X+++@@@@X.",
".X@@@@@@@X.+@+@@@@@@@@@@@@@@@@@@@@@@@@@@@@@@@@@@@.X++@@@@@X.",
".X@@@@@@@..+@+@@@@@@@@@@@@@@@@@@@@@@@@@@@@@@@@@@@XX+++@@@@X.",
".X@@@@@@@X.++++@@@@@@@@@@@@@@@@@@@@@@@@@@@@@@@@@@.X+@+@@@@X.",
".X@@@@@@@XX+++@@@@@@@@@@@@@@@@@@@@@@@@@@@@@@@@@@@.X+++@@@@X.",
".X@@@@@@@.X++@@@@@@@@@@@@@@@@@@@@@@@@@@@@@@@@@@@@.X+@+@@@@X.",
".X@@@@@@@.X+++@@@@@@@@@@@@@@@@@@@@@@@@@@@@@@@@@@@XX+@+@@@@X.",
".X@@@@@@@.X+@+@@@@@@@@@@@@@@@@@@@@@@@@@@@@@@@@@@@XX+++@@@@X.",
".X@@@@@@@.X+@+@@@@@@@@@@@@@@@@@@@@@@@@@@@@@@@@@@@.X++@@@@@X.",
".X@@@@@@@X.+++@@@@@@@@@@@@@@@@@@@@@@@@@@@@@@@@@@@X.++@@@@@X.",
".X@@@@@@@.X+@+@@@@@@@@@@@@@@@@@@@@@@@@@@@@@@@@@@@X.+++@@@@X.",
".X@@@@@@@XX+++@@@@@@@@@@@@@@@@@@@@@@@@@@@@@@@@@@@XX+++@@@@X.",
".X@@@@@@@XX+++@@@@@@@@@@@@@@@@@@@@@@@@@@@@@@@@@@@XX+++@@@@X.",
".X@@@@@@@X.+++@@@@@@@@@@@@@@@@@@@@@@@@@@@@@@@@@@@.X+++@@@@X.",
".X@@@@@@@XX+@@@@@@@@@@@@@@@@@@@@@@@@@@@@@@@@@@@@@XX+@@@@@@X.",
".X@@@@@@@XX+@+@@@@@@@@@@@@@@@@@@@@@@@@@@@@@@@@@@@.X++@@@@@X.",
".X@@@@@@@XX+@+@@@@@@@@@@@@@@@@@@@@@@@@@@@@@@@@@@@..+@+@@@@X.",
".X@@@@@@@X.++@@@@@@@@@@@@@@@@@@@@@@@@@@@@@@@@@@@@X.+@+@@@@X.",
".X@@@@@@@.X++@@@@@@@@@@@@@@@@@@@@@@@@@@@@@@@@@@@@X.++@@@@@X.",
".X@@@@@@@.X++@@@@@@@@@@@@@@@@@@@@@@@@@@@@@@@@@@@@.X++@@@@@X.",
".X@@@@@@@.X++@@@@@@@@@@@@@@@@@@@@@@@@@@@@@@@@@@@@XX++@@@@@X.",
".X@@@@@@@.X++@@@@@@@@@@@@@@@@@@@@@@@@@@@@@@@@@@@@X.++@@@@@X.",
".X@@@@@@@.X++@@@@@@@@@@@@@@@@@@@@@@@@@@@@@@@@@@@@X.++@@@@@X.",
".XXXXXXXX.XXXXXXXXXXXXXXXXXXXXXXXXXXXXXXXXXXXXXXXXXXXXXXXXX.",
".XXXXXXXX..XXXXXXXXXXXXXXXXXXXXXXXXXXXXXXXXXXXXXXX.XXXXXXXX.",
".......XXX.X..XXXX......XXX.XX..XXXXX....XX...XX...XX...XXX.",
"............XXXX....XX...XXX......XXXXXXXXXX........XX.X.X.."
};
