/* XPM */
static char *result[] = {
/* columns rows colors chars-per-pixel */
"80 80 10 1 ",
"  c black",
". c gray12",
"X c #2A663A",
"o c #4E6353",
"O c #358F4E",
"+ c #65806B",
"@ c #BA9865",
"# c #D4B07B",
"$ c #839C88",
"% c #F5CE93",
/* pixels */
"#####@@XXOOOOO  $$$$$$$$$$$$$$$$$$  oo++++oo  $$$$$$$$$$$$$$$$$$  OOOOOXX@######",
"####@@@XXOOOOO  ++++++++++++++++++  oo++++oo  ++++++++++++++++++  OOOOXXX@######",
"####@@XXXOOOOO   +++++++++++++++++  oo++++oo  +++++++++++++++++  OOOOOXX@@######",
"####@@XXXOOOOOO                     oo++++oo                     OOOXXX@@@######",
"####@@XXOOOOOOOO                    oo++++oo                    OOOOXX@@@@######",
"#%##@@XXOOOOOOOOO  ooooooooooooooo  oo++++oo  ooooooooooooooo  OOOOXX@@@@#######",
"####@@XXOOOOXOOOOO  +++++++++++++o  oo++++oo  o+++++++++++++  OOOOOXX@@@@#######",
"####@@XXXXOOXOOXXO   ++++++++++++o  oo++++oo  o++++++++++++   OOOOOXX@@@@#######",
"####@@XXOXXOXOXXOOO  ++++$$$$++++o  oo++++oo  o++++$$$$++++  OOOOOOXXX@@@#######",
"####@@XXOXXOOOXXOOO  +++++$$$$+++o  oo++++oo  o+++$$$$+++++  OOOOOOOXX@@@#######",
"####@@XXOOOOOOOOOOO  +++++$$$$+++o  oo++++oo  o+++$$$$+++++  OOOOOOOXX@@@#######",
"####@@XXOOOOOOOOOOO  ++++$$$$++++o  oo++++oo  o++++$$$$++++  OOOOOOOXXX@@#######",
"####@@XXXOOOOOOOOO  +++++++++++++o  oo++++oo  o+++++++++++++  OOOOOOOXX@@#######",
"####@@XXXOOOOOOOOO  +++++++++++++o  oo++++oo  o+++++++++++++  OOOOOOOXX@@#######",
"####@@XXXOOOOOOOO  ooooooooooooooo  oo++++oo  ooooooooooooooo  OOOOOOXX@@#######",
"####@@@XXOOOOOOO                    oo++++oo                    OOOOXXX@@#######",
"####@@@XXOOOOOO                     oo++++oo                     OOOXX@@@#######",
"####@@@XXXOOOO   +++++++++++++++++  oo++++oo  +++++++++++++++++   OOXX@@@#######",
"####@@@@XXOOOO  ++++++++++++++++++  oo++++oo  ++++++++++++++++++  OOXX@@@#######",
"#####@@@XXXOOO  $$$$$$$$$$$$$$$$$$  oo++++oo  $$$$$$$$$$$$$$$$$$  OOXX@@@#######",
"######@@XXXOOO  $$$$$$$$$$$$$$$$$$  oo++++oo  $$$$$$$$$$$$$$$$$$  OOXXX@@##%####",
"######@@@XXOOO  ++++++++++++++++++  oo++++oo  ++++++++++++++++++  OOOXX@@#######",
"######@@@XXOOO   +++++++++++++++++  oo++++oo  +++++++++++++++++   OOOXX@@#######",
"######@@@XXOOOO                     oo++++oo                     OOOOXX@@#######",
"######@@@XXOOOOO                    oo++++oo                    OOOOXXX@@#######",
"#######@@XXXOOOOO  ooooooooooooooo  oo++++oo  ooooooooooooooo  OOOOOXX@@@#######",
"#######@@@XXOOOOOO  +++++++++++++o  oo++++oo  o+++++++++++++  OOOOOOXX@@@#######",
"########@@XXOOOOOO  +++++++++++++o  oo++++oo  o+++++++++++++  OOOOOOXX@@@@######",
"########@@XXXOOOOOO  ++++$$$$++++o  oo++++oo  o++++$$$$++++  OOOOOOOXXX@@@######",
"########@@@XXOOOOOO  +++++$$$$+++o  oo++++oo  o+++$$$$+++++  OOOOOOOOXXX@@######",
"########@@@XXOOOOOO  +++++$$$$+++o  oo++++oo  o+++$$$$+++++  OOOOOOOOXXXX@@@####",
"#######@@@@XXOOOOOO  ++++$$$$++++o  oo++++oo  o++++$$$$++++  OOOOOOOOOOXXXX@@###",
"#######@@@@XXOOOOO  +++++++++++++o  oo++++oo  o+++++++++++++  OOOOOOOOOOOXXX@###",
"#######@@@XXXOOOOO  +++++++++++++o  oo++++oo  o+++++++++++++  OOOOOOOOOOOOXX@###",
"######@@@XXXOOOOO  ooooooooooooooo  oo++++oo  ooooooooooooooo  OOOOOOOOOOOXX@###",
"######@@XXXOOOOO                    oo++++oo                    OOOOOOOOOOXX@###",
"######@@XXOOOOO                     oo++++oo                     OOOOOOOOOXX@###",
"######@@XXOOOO   +++++++++++++++++  oo++++oo  +++++++++++++++++   OOOOOOOOXX@###",
"######@@XXXOOO  ++++++++++++++++++  oo++++oo  ++++++++++++++++++  OOOOOOOOXX@###",
"######@@@XXOOO  $$$$$$$$$$$$$$$$$$  oo++++oo  $$$$$$$$$$$$$$$$$$  OOOOOOOOXX@###",
"######@@@XXOOO  $$$$$$$$$$$$$$$$$$  oo++++oo  $$$$$$$$$$$$$$$$$$  OOOOOOOOXX@###",
"######@@@XXOOO  ++++++++++++++++++  oo++++oo  ++++++++++++++++++  OOOOOOOOXX@###",
"#######@@XXOOO   +++++++++++++++++  oo++++oo  +++++++++++++++++   OOOOOOOOXX@###",
"#######@@XXOOOO                     oo++++oo                     OOOOOOOOXXX@###",
"########@XXXOOOO                    oo++++oo                    OOOOOOOOOXX@@###",
"########@@XXOOOOO  ooooooooooooooo   o++++o   ooooooooooooooo  OOOOOOOOOOXX@@###",
"########@@XXOOOOOO  ++++++++++++o  ++ ++++ ++  o++++++++++++  OOOOOOOOOOOXX@@###",
"########@@XXOOOOOO  +++++++++++o  ++++ ++ ++++  o+++++++++++  OOOOOOOOOOOXX@@###",
"########@@XXOOOOOOO  ++++$$$++o  ++++$$  $$++++  o++$$$++++  OOOOOOOOOOOOXX@@###",
"########@@XXOOOOOOO  +++++$++o  ++++$$    $$++++  o++$+++++  OOOOOXOOOOOOXX@@###",
"########@@XXOOOOOOO  +++++++o  ++++$$  ++  $$++++  o+++++++  OXXOOXOOXXOOXX@@###",
"########@@XXOOOOOOO  ++++++o  ++++$$  ++++  $$++++  o++++++  OOXXOXOXXOOOXX@@###",
"#######@@@XXOOOOOO  ++++++o  ++++$$  ++++++  $$++++  o++++++  OXXOOOXXOOOXX@@###",
"#######@@@XXOOOOOO  +++++o  ++++$$  ++++++++  $$++++  o+++++  OOOOOOOOOOXX@@@###",
"#######@@XXOOOOOO  oooooo  ++++$$  o+++$$+++o  $$++++  oooooo  OOOOOOOOOXX@@####",
"#######@@XXOOOOO          ++++$$   o+++$$+++o   $$++++          OOOOOOOOXX@@####",
"#######@XXXOOOO          ++++$$    o++$$$$++o    $$++++          OOOOOOXX@@@####",
"######@@XXOOOO   +++++  ++++$$  +  o++$$$$++o  +  $$++++  +++++   OOOOOXX@@@####",
"######@@XXOOOO  +++++  ++++$$  ++  o++$$$$++o  ++  $$++++  +++++  OOOOOXX@@@####",
"######@XXXOOOO  $$$$  ++++$$  $++  o++$$$$++o  ++$  $$++++  $$$$  OOOOXXX@@@####",
"######@XXOOOOO  $$$  ++++$$  $$++  o++$++$++o  ++$$  $$++++  $$$  OOOXXX@@@@####",
"######@XXOOOOO  ++  ++++$$  +$$++  o++++++++o  ++$$+  $$++++  ++  OOOXX@@@@@####",
"######@XXOOOOO     ++++$$  ++$$++  o++++++++o  ++$$++  $$++++     OOOXX@@@@@####",
"######@XXOOOOOO   ++++$$   ++$$++  o++++++++o  ++$$++   $$++++   OOOOXX@@@@@####",
"######@XXOOOOOO  ++++$$    ++$$++  o++++++++o  ++$$++    $$++++  OOOOXX@@@@@####",
"######@XXOOOOOO ++++$$  o  ++$$++  o++    ++o  ++$$++  o  $$++++ OOOOXX@@@@@####",
"######@XXOOOOO  +++$$   o  ++$$++  o        o  ++$$++  o   $$+++  OOXXX@@@@@####",
"######@@XXOOOO +++$$  O    ++$$++     OOOO     ++$$++    O  $$+++ OXXX@@@@@#####",
"######@@XXXOOO ++$$  OOO   ++$$++   OOOOOOOO   ++$$++   OOO  $$++ XXX@@@@@@#####",
"#######@@XXXOO  $$. OOOOO   +$$+   OOOOOOOOOO   +$$+   OOOOO .$$  XX@@@@@@######",
"########@@XXXXO    OOXOOOO        OOOOOOOOOOOO        OOOOOOO    XXX@@@@@#######",
"########@@@@XXXOOOOOOOXOOOO      OOOOOXXXXXXXXX      XXXXXXXXXXXXXX@@###########",
"###########@@XXOOOOOOOXOOOOOOOOOOOOOOXXXXXXXXXXXXXXXXXXXXXXXXXXXX###############",
"############@@XXOOOOOOOOOOOOOOOOOOOOOXX@@@@@@@@XXXXXXX@@@@@#####################",
"############@@XXXXXXXXXXXXXXXXXOOOOXXX@@@@@@@@@@@@@@@@@@@###################%###",
"#############@@XXXXXXXXXXXXXXXXXXXXXX@@@@@###@@@@@@@@@@#########################",
"#####%########@@@@@@@@@@@@@@@@XXXXXX@@@@@@######################################",
"#################@@@@@@@@@@@@@@@@@@@@@@#########################################",
"################################################################################",
"################################################################################"
};
