/* XPM */
static char *result[] = {
/* columns rows colors chars-per-pixel */
"80 80 11 1 ",
"  c black",
". c gray12",
"X c #0C6624",
"o c #2A663A",
"O c #4E6353",
"+ c #358F4E",
"@ c #65806B",
"# c #BA9865",
"$ c #D4B07B",
"% c #839C88",
"& c #F5CE93",
/* pixels */
"$$$$$$$$$$$$$$$$$$$$$$$$$$$$$$$$$$$$$$$$$$$$$$$$$$$$$$$$$$$$$$$$$$$$$$$$$$$$$$$$",
"$$$$$$$$$$$$$$$$$$$$$$$$$$$$$$$$$$$$$#######$$$$$$$$$$$$$$$$$$$$$$$$$$$$$$$$$$$$",
"$$$$$$$$$$$$$$$$$$$$$$$$$$$$$$$$$$$$#########$$$$$$$$$$$$$$$$$$$$$$$$$$$$$$$$$$$",
"$$$$$&$$$$$$$$$$$$$$$$$$$$#######$$####oooo#####$$$$$$$$$$$$$$$$$$$$$$$$$$$$$$$$",
"$$$$$$$$$$$$$########################oooooooo######$$$$$$$$&$$$$$$$$$$$$$$$$$$$$",
"$$$$$$$$$$$################ooooooo##oooo++oooo#######$$$$$$$$$$$$$$$$$$$$$$$$$$$",
"$$$$$$$$$$##############oooooooooooooo++++++oo#############$$$$$$$$$$$$$$$$#####",
"$$$$$$$$$###########ooooooo++++++oooo++++++++oo###############################oo",
"$$$$$$$$$##########ooooo++++++++++++++++++o++oooo############################ooo",
"$$$$$$$$$#########ooo++++++++++++++++++++++o++ooooo####ooooo####ooooo#######ooo+",
"$$$$$$$$$########ooo+++++++++++++++++++++++o++++oooooooooooooooooooooooo###oooo+",
"$$$$$$$$########ooo++++++++++++++++++++++++++++++++ooooo+++oooooo+++ooooooooo+++",
"$$$$$$$$########ooo++++++++++++++++++++++++++++++++++++++++++++++++++++oooo+++++",
"$$$$$$$$#######ooo++++++o+++++++++++++++++++++++++++++++++++++++++++++++++++++++",
"$$$$$$$$##    #oo      +o++oo++++++++      ++++++++++++++      +++++++++++++++  ",
"$$$$$$$##  @@           o+oo++++++++        ++++++++++++        ++++++++++++    ",
"$$$$$$$## %@@@@   @%%@   +oo+++++++   @%%@   ++++++++++   @%%@   ++++++++++   @%",
"$$$$$$$## %%@@@@  @%%@@   ++++++++   @@%%@@   ++++++++   @@%%@@   +++o++++   @@%",
"$$$$$$$## .%%@@@@  %%@@     ++++     @@%%@@     ++++     @@%%@@     +o+o     @@%",
"$$$$$$$###  %%@@@@  %@@  O        O  @@%%@@  O        O  @@%%@@  O        O  @@%",
"$$$$$$$####  %%@@@@  @@  O@@    @@O  @@%%@@  O@@    @@O  @@%%@@  O@@     @O  @@%",
"$$$$$$#####o  %%@@@@  @  O@@@@@@@@O  @@%%@@  O@@@@@@@@O  @@%%@@  O@@@@@@@@O  @@%",
"$$$$$$####ooo  %%@@@@    O@@@@@@@@O  @@%%@@  O@@@@@@@@O  @@%%@@  O@@@@@@@@O  @@%",
"$$$$$####ooX    %%@@@@   O@@@@@@@@O  @@%%@@  O@@@@@@@@O  @@%%@@  O@@@@@@@@O  @@%",
"$$$$$####oo  OO  %%@@@@  O@@@@@@@@O  @@%%@@  O@@@@@@@@O  @@%%@@  O@@@@@@@@O  @@%",
"$$$$###ooo        %%@@@@  O@@@@%@@O  @@%%@@  O@@%@@%@@O  @@%%@@  O@@%@@%@@O  @@%",
"$$$$##ooo          %%@@@@  O@@%%@@O  @@%%@@  O@@%%%%@@O  @@%%@@  O@@%%%%@@O  @@%",
"$$$###oo   @@@@@@@  %%@@@@  O@@%@@O  @@%%@@  O@@%%%%@@O  @@%%@@  O@@%%%%@@O  @@%",
"$$$###oo  @@@@@@@@@  %%@@@@  O@@@@O  @@%%@@  O@@%%%%@@O  @@%%@@  O@@%%%%@@O  @@%",
"$$$###oo  %%%%%%%%%%  %%@@@@  O@@@O  @@%%@@  O@@@%%@@@O  @@%%@@  O@@@%%@@@O  @@%",
"$$$###oo  %%%%%%%%%%%  %%@@@@  O@@O  @@%%@@  O@@@@@@@@O  @@%%@@  O@@@@@@@@O  @@%",
"$$$$##oo  @@@@@@@@@@@@  %%@@@@  O@O  @@%%@@  O@@@@@@@@O  @@%%@@  O@@@@@@@@O  @@%",
"$$$$##oo   @@@@@@@@@@@@  %%@@@@  OO  @@%%@@  O@@@@@@@@O  @@%%@@  O@@@@@@@@O  @@%",
"$$$$###oo                 %%@@@@  O  @@%%@@  OOOOOOOOOO  @@%%@@  OOOOOOOOOO  @@%",
"$$$$###oo+                 %%@@@@                                               ",
"$$$$$##oo++  OOOOOOOOOOOOO  %%@@@@                                              ",
"$$$$$##oo+++  @@@@@@@@@@@@@  %%@@@ OOOOOOOOOOOOOOOOOOOOOOOOOOOOOOOOOOOOOOOOOOOOO",
"$$$$$##oo+++  @@@@@@@@@@@@@@  %%@ OOOOOOOOOOOOOOOOOOOOOOOOOOOOOOOOOOOOOOOOOOOOOO",
"$$$####oo++++  @@@@%%%%%@@@@@  % @@@@@@@@@@@@@@@@@@@@@@@@@@@@@@@@@@@@@@@@@@@@@@@",
"$$$####oo++++  @@@@@%%%%%%@@@@  @@@@@@@@@@@@@@@@@@@@@@@@@@@@@@@@@@@@@@@@@@@@@@@@",
"$$$####oo++++  @@@@@%%%%%%@@@@  @@@@@@@@@@@@@@@@@@@@@@@@@@@@@@@@@@@@@@@@@@@@@@@@",
"$$####ooo++++  @@@@%%%%%@@@@@  % @@@@@@@@@@@@@@@@@@@@@@@@@@@@@@@@@@@@@@@@@@@@@@@",
"$$###ooo++++  @@@@@@@@@@@@@@  %%@ OOOOOOOOOOOOOOOOOOOOOOOOOOOOOOOOOOOOOOOOOOOOOO",
"$$##oo++++++  @@@@@@@@@@@@@  %%@@@ OOOOOOOOOOOOOOOOOOOOOOOOOOOOOOOOOOOOOOOOOOOOO",
"$$#ooo+++++  OOOOOOOOOOOOO  %%@@@@                                              ",
"$$#oo+++++                 %%@@@@                                               ",
"$$#oo++++                 %%@@@@  O  @@%%@@  OOOOOOOOOO  @@%%@@  OOOOOOOOOO  @@%",
"$$#oo+++   @@@@@@@@@@@@  %%@@@@  OO  @@%%@@  O@@@@@@@@O  @@%%@@  O@@@@@@@@O  @@%",
"$##oo+++  @@@@@@@@@@@@  %%@@@@  O@O  @@%%@@  O@@@@@@@@O  @@%%@@  O@@@@@@@@O  @@%",
"##oo++++  %%%%%%%%%%%  %%@@@@  O@@O  @@%%@@  O@@@@@@@@O  @@%%@@  O@@@@@@@@O  @@%",
"#ooo++++  %%%%%%%%%%  %%@@@@  O@@@O  @@%%@@  O@@@%%@@@O  @@%%@@  O@@@%%@@@O  @@%",
"#oo+++++  @@@@@@@@@  %%@@@@  O@@@@O  @@%%@@  O@@%%%%@@O  @@%%@@  O@@%%%%@@O  @@%",
"#oo++++o   @@@@@@@  %%@@@@  O@@%@@O  @@%%@@  O@@%%%%@@O  @@%%@@  O@@%%%%@@O  @@%",
"##oo+++o+          %%@@@@  O@@%%@@O  @@%%@@  O@@%%%%@@O  @@%%@@  O@@%%%%@@O  @@%",
"$#oo++++++        %%@@@@  O@@@@%@@O  @@%%@@  O@@%@@%@@O  @@%%@@  O@@%@@%@@O  @@%",
"$#oo+++++++  OO  %%@@@@  O@@@@@@@@O  @@%%@@  O@@@@@@@@O  @@%%@@  O@@@@@@@@O  @@%",
"$#ooo+++++++    %%@@@@   O@@@@@@@@O  @@%%@@  O@@@@@@@@O  @@%%@@  O@@@@@@@@O  @@%",
"$##oo++++++++  %%@@@@    O@@@@@@@@O  @@%%@@  O@@@@@@@@O  @@%%@@  O@@@@@@@@O  @@%",
"$$#oo+++++++  %%@@@@  @  O@@@@@@@@O  @@%%@@  O@@@@@@@@O  @@%%@@  O@@@@@@@@O  @@%",
"$$#oo++++++  %%@@@@  @@  O@@    @@O  @@%%@@  O@@    @@O  @@%%@@  O@@     @O  @@%",
"$$#oo+++++  %%@@@@  %@@  O        O  @@%%@@  O        O  @@%%@@  O        O  @@%",
"$$#oo++++ .%%@@@@  %%@@     ++++     @@%%@@     ++++     @@%%@@     ++++     @@%",
"$$#oo++++ %%@@@@  @%%@@   ++++++++   @@%%@@   ++++++++   @@%%@@   ++++++++   @@%",
"$$#ooo+++ %@@@@   @%%@   ++++++++++   @%%@   +++o++++++   @%%@   ++++++++++   @%",
"$$##ooo++  @@           ++++++++++++        +++++o++++++        ++++++++++++    ",
"$$$##oooo+    +++      ++++++++++++++      ++++++o+++++++      o++oo+++++++++   ",
"$$$$###ooo+++o++++++++++++++++++++++++++++++++++++++++++++++oo+o+oo+++++++++++++",
"$$$$$###oo+++o++oo++++++++++++++++++++++++++++oooooo++++++++oo+++oo+++++++++++++",
"$$$$$$$##oo++o+oo+++++++++oooooooooo+++++++++oooooooooo+++++++++++++++++++++++++",
"$$$$$$$$#ooo+++oo++++++ooooooooooooooooooo++ooo####oooooo+++++++++++++++++++++++",
"$$$$$$$$##ooo+++++++oooooo#########ooooooooooo########ooooo+++++++++++++++++++++",
"$$$$$$$$###ooooooooooooo#################oooo###########oooo++++++++++++++++oooo",
"$$$$$$$$$$###oooooooo####################################oooo++ooooooooooooooooo",
"$$$$$$$$$$$############$$$$$$$$$$$$$$###########$$$$$######ooooooooooooooooooo##",
"$$$&$$$$$$$$###$$$$$$$$$$$$$$$$$$$$$$$$$$$$$$$$$$$$$$$$#####oooo################",
"$$$$$$$$$$$$$$$$$$$$$$$$$$$$$$$$$$$$$$$$$$$$$$$$$$$$$$$$$######################$",
"$$$$$$$$$$$$$$$$$$$$$$$$$$$$$$$$$$$$$$$$$$$$$$$$$$$$$$$$$$$######$$$$$$$$$$$$$$$",
"$$$$$$$$$$$$$$$$$$$$$$$$$$$$$$$$$$$$$$$$$$$$$$$$$$$$$$$$$$$$$$$$$$$$$$$$$$$$$$$$",
"$$$$$$$$$$$$$$$$$$$$$$$$$$$$$$$$$$$$$$$$$$$$$$$$$$$$$$$$$$$$$$$$$$$$$$$$$$&$$$$$",
"$$$$$$$$$$$$$$$$$$$$$$$$$$$$$$$$$$$$$$$$$$$$$$$$$$$$$$$$$$$$$$$$$$$$$$$$$$$$$$$$"
};
