/* XPM */
static char *a1ff9b83c33f42caa0f0dc1f96bc544d1EeTrLfXzIimpWoW[] = {
/* columns rows colors chars-per-pixel */
"60 60 7 1 ",
"  c #0D171F",
". c #3D1D16",
"X c #452113",
"o c #573129",
"O c #2E4659",
"+ c #EBC48A",
"@ c #F5D9A6",
/* pixels */
".Xoooooooooooooooooooooooooooooooooooooooooooooooooooooooooo",
".Xoooooooooooooooooooooooooooooooooooooooooooooooooooooooooo",
".XooOOOOOOOOOOOOOOOOOOOOOOOOOOOOOOOOOOOOOOOOOOOOOOOOOOOOOOOO",
".XooO                                                       ",
".XooO                                                       ",
".XooO                                                       ",
".XooO                                                       ",
".XooO                                                       ",
".XooOOOOOOOOOOOOOOOOOOOOOOOOOOOOOOOOOOOOOOOOOOOOOOOOOOOOOOOO",
".Xoooooooooooooooooooooooooooooooooooooooooooooooooooooooooo",
".Xoooooooooooooooooooooooooooooooooooooooooooooooooooooooooo",
".XXXXXXXXXXXXXXXXXXXXXXXXXXXXXXXXXXXXXXXXXXXXXXXXXXXXXXXXXXX",
".XXXX.XX.XXX..XXXXX.XXX...XXXX..XXX..XXX..XXXXX.XXXX.......X",
".X+++++++++++++++++++++++++++++++++++++++++++++++XX+++++++++",
".X++@@+@++++++@@@++++++@@+@++++++@@@@@@@@@@@@@@@@XX+++@+++@@",
".X@@@@@@@@@@@@@@@@@@@@@@@@@@@@@@@@@@@@@@@@@@@@@@@XX++@@@@@@@",
".X@@@@@@@@@@@@@@@@@@@@@@@@@@@@@@@@@@@@@@@@@@@@@@@XX++@@@@@@@",
".X@@@@@@@@@@@@@@@@@@@@@@@@@@@@@@@@@@@@@@@@@@@@@@@XX+@@@@@@@@",
".X@@@@@@@@@@@@@@@@@@@@@@@@@@@@@@@@@@@@@@@@@@@@@@@XX+@@@@@@@@",
".X@@@@@@@@@@@@@@@@@@@@@@@@@@@@@@@@@@@@@@@@@@@@@@@XX+@@@@@@@@",
".X@@@@@@@@@@@@@@@@@@@@@@@@@@@@@@@@@@@@@@@@@@@@@@@XX+@@@@@@@@",
".X@@@@@@@@@@@@@@@@@@@@@@@@@@@@@@@@@@@@@@@@@@@@@@@XX+@@@@@@@@",
".XXXXXXXXXXXXXXXXXXXXXXXXXXXXXXXXXXXXXXXXXXXXXXXXXXXXXXXXXXX",
".XXX...XXXX...XXX...XXX...XXXX...XXX...XX...XXXX.X..XXXX....",
".X+++++++++++++++++++++++++++++++++++++++++++++++XX+++++++++",
".X@@++@++++++++@@+++@@@++@++++++++@@@++++@@@+@@++.X+++++@+++",
".X+++++++++++++@+++@@+++++++++++++@+++@+++++++@@@.X++++++@+@",
".X@@@@@@@@@@@@@@@@@@@@@@@@@@@@@@@@@@@@@@@@@@@@@@@..+++++++@+",
".X@@@@@@@@@@@@@@@@@@@@@@@@@@@@@@@@@@@@@@@@@@@@@@@X.+@++@@@@@",
".X@@@@@@@@@@@@@@@@@@@@@@@@@@@@@@@@@@@@@@@@@@@@@@@X.+@++@@@@@",
".X@@@@@@@@@@@@@@@@@@@@@@@@@@@@@@@@@@@@@@@@@@@@@@@XX+++@@@@@@",
".X@@@@@@@@@@@@@@@@@@@@@@@@@@@@@@@@@@@@@@@@@@@@@@@.X++@@@@@@@",
".X@@@@@@@@@@@@@@@@@@@@@@@@@@@@@@@@@@@@@@@@@@@@@@@XX+++@@@@@@",
".X@@@@@@@@@@@@@@@@@@@@@@@@@@@@@@@@@@@@@@@@@@@@@@@.X+@+@@@@@@",
".X@@@@@@@@@@@@@@@@@@@@@@@@@@@@@@@@@@@@@@@@@@@@@@@X.+@+@@@@@@",
".X@@@@@@@@@@@@@@@@@@@@@@@@@@@@@@@@@@@@@@@@@@@@@@@XX+@+@@@@@@",
".X@@@@@@@@@@@@@@@@@@@@@@@@@@@@@@@@@@@@@@@@@@@@@@@XX+++@@@@@@",
".X@@@@@@@@@@@@@@@@@@@@@@@@@@@@@@@@@@@@@@@@@@@@@@@.X+++@@@@@@",
".X@@@@@@@@@@@@@@@@@@@@@@@@@@@@@@@@@@@@@@@@@@@@@@@.X+@+@@@@@@",
".X@@@@@@@@@@@@@@@@@@@@@@@@@@@@@@@@@@@@@@@@@@@@@@@XX+@+@@@@@@",
".X@@@@@@@@@@@@@@@@@@@@@@@@@@@@@@@@@@@@@@@@@@@@@@@XX+++@@@@@@",
".X@@@@@@@@@@@@@@@@@@@@@@@@@@@@@@@@@@@@@@@@@@@@@@@.X++@@@@@@@",
".X@@@@@@@@@@@@@@@@@@@@@@@@@@@@@@@@@@@@@@@@@@@@@@@X.++@@@@@@@",
".X@@@@@@@@@@@@@@@@@@@@@@@@@@@@@@@@@@@@@@@@@@@@@@@X.+++@@@@@@",
".X@@@@@@@@@@@@@@@@@@@@@@@@@@@@@@@@@@@@@@@@@@@@@@@XX+++@@@@@@",
".X@@@@@@@@@@@@@@@@@@@@@@@@@@@@@@@@@@@@@@@@@@@@@@@XX+++@@@@@@",
".X@@@@@@@@@@@@@@@@@@@@@@@@@@@@@@@@@@@@@@@@@@@@@@@.X+++@@@@@@",
".X@@@@@@@@@@@@@@@@@@@@@@@@@@@@@@@@@@@@@@@@@@@@@@@XX+@@@@@@@@",
".X@@@@@@@@@@@@@@@@@@@@@@@@@@@@@@@@@@@@@@@@@@@@@@@.X++@@@@@@@",
".X@@@@@@@@@@@@@@@@@@@@@@@@@@@@@@@@@@@@@@@@@@@@@@@..+@+@@@@@@",
".X@@@@@@@@@@@@@@@@@@@@@@@@@@@@@@@@@@@@@@@@@@@@@@@X.+@+@@@@@@",
".X@@@@@@@@@@@@@@@@@@@@@@@@@@@@@@@@@@@@@@@@@@@@@@@X.++@@@@@@@",
".X@@@@@@@@@@@@@@@@@@@@@@@@@@@@@@@@@@@@@@@@@@@@@@@.X++@@@@@@@",
".X@@@@@@@@@@@@@@@@@@@@@@@@@@@@@@@@@@@@@@@@@@@@@@@XX++@@@@@@@",
".X@@@@@@@@@@@@@@@@@@@@@@@@@@@@@@@@@@@@@@@@@@@@@@@X.++@@@@@@@",
".X@@@@@@@@@@@@@@@@@@@@@@@@@@@@@@@@@@@@@@@@@@@@@@@X.++@@@@@@@",
".XXXXXXXX.XXXXXXXXXXXXXXXXXXXXXXXXXXXXXXXXXXXXXXXXXXXXXXXXXX",
".XXXXXXXX..XXXXXXXXXXXXXXXXXXXXXXXXXXXXXXXXXXXXXXX.XXXXXXXXX",
".......XXX.X..XXXX......XXX.XX..XXXXX....XX...XX...XX...XXX.",
"............XXXX....XX...XXX......XXXXXXXXXX........XX.X.X.."
};
