/* XPM */
static char *result[] = {
/* columns rows colors chars-per-pixel */
"80 80 12 1 ",
"  c black",
". c #1F2133",
"X c #2A663A",
"o c #2C2E45",
"O c #41445C",
"+ c #4E6353",
"@ c #358F4E",
"# c #65806B",
"$ c #BA9865",
"% c #D4B07B",
"& c #839C88",
"* c #F5CE93",
/* pixels */
"%%%$$$XX@@@@@@  &&&&&&&&&&&&&&&&&&  ++####++  &&&&&&&&&&&&&&&&&&  @@@@@XX$$%%%%%",
"%%%$$$XX@@@@@@  ##################  ++####++  ##################  @@@@@XX$$%%%%%",
"%%%$$$XX@@@@@@@  #################  ++####++  #################   @@@@@XX$$%%%%%",
"%%%$$XXX@@@@@@@                     ++####++                     @@@@@@XX$$$%%%%",
"%%%$$XXX@@@@@@@@                    ++####++                    @@@@@@@XX$$$%%%%",
"%%%$$XX@@@@@@@@@@  +++++++++++++++  ++####++  +++++++++++++++  @@@@@@@@XX$$$$$$$",
"%%$$$XX@@@@@@@@@@@  #############+  ++####++  +#############  @@@@@@@@@XX$$$$$$$",
"%%$$$XX@@@@@@@@@@@   ############+  ++####++  +############   @@@@@@@@@XXXXX$XXX",
"%%$$$XX@@@X@@@@@@@@  ####&&&&####+  ++####++  +####&&&&####  @@@@@@@@@@@XXXXXXXX",
"%%$$$XX@@@X@@XX@@@@  #####&&&&###+  ++####++  +###&&&&#####  @@@@@@@@@@@@@XXXX@@",
"%%$$$XX@@@X@XX@@@@@  #####&&&&###+  ++####++  +###&&&&#####  @@@@@@@@@@@@@@@@@@@",
"%%$$$XX@@@@@XX@@@@@  ####&&&&####+  ++####++  +####&&&&####  @@@@@@@@@@@@@@@@@@@",
"%%$$$XX@@@@@@@@@@@  #############+  ++####++  +#############  @@@@@@@@@@@@@@@@@@",
"%%$$$XX@@@@@@                                                      @@@@@@@@@@@@@",
"%%$$$XXX@@@@@                                                      @@@@@@@@@@   ",
"%%$$$XXX@@@@@   ................................................   @@@@@@@@@    ",
"%%%$$$XX@@@@@  . .............................................. .  @@@@@@@@   #&",
"%%%$$$XX@@@@@  .. ...oooooooooooooooooooooooooooooooooooooo... ..  @@@@@@@   ##&",
"%%%$$$$XX@@@@  ... ...oooooooooooooooooooooooooooooooooooo... ...   @@@@     ##&",
"%%%%$$$XX@@@@  .... ........................................ ....         +  ##&",
"%%%%$$$XX@@@@  .....                                        .....  #     #+  ##&",
"%%%%%$$XX@@@@  ..o.. Ooo  ............................  ooO ..o..  #######+  ##&",
"%%%%%$$XX@@@@  ..oo. oOoo  oooooooooooooooooooooooooo  ooOo .oo..  #######+  ##&",
"%%%%%$$XXX@@@  ..oo. ooOoo  oooooooooooooooooooooooo  ooOoo .oo..  #######+  ##&",
"%%%%%$$XXX@@@  ..oo.  ooOoo  oooooooooooooooooooooo  ooOoo  .oo..  #######+  ##&",
"%%%%%$$XXX@@@  ..oo.   ooOoo  oooooooooooooooooooo  ooOoo   .oo..  #&##&##+  ##&",
"%%%%%$$XXX@@@  ..oo. .  ooOoo  oooooOOOOOOOOooooo  ooOoo  . .oo..  #&&&&##+  ##&",
"%%%%%%$XXX@@@  ..oo. .o  ooOoo  oooooOOOOOOooooo  ooOoo  o. .oo..  #&&&&##+  ##&",
"%%%%%%$XXX@@@  ..oo. .oo  ooOoo  oooooooooooooo  ooOoo  oo. .oo..  #&&&&##+  ##&",
"%%%%%%$XXX@@@  ..oo. .ooo  ooOoo  ooooOOOOoooo  ooOoo  ooo. .oo..  ##&&###+  ##&",
"%%%%%%$XXX@@@  ..oo. .oooo  ooOoo  ooooOOoooo  ooOoo  oooo. .oo..  #######+  ##&",
"%%%%%%$XX@@@@  ..oo. .ooooo  ooOoo  oooooooo  ooOoo  ooooo. .oo..  #######+  ##&",
"%%%%%%$XX@@@@  ..oo. .oooooo  ooOoo  oooooo  ooOoo  oooooo. .oo..  #######+  ##&",
"%%%%%%%XX@@@@  ..oo. .ooooooo  ooOoo  oooo  ooOoo  ooooooo. .oo..  ++++++++  ##&",
"%%%%%%XXX@@@@  ..oo. .oooooooo  oo            oo  oooooooo. .oo..               ",
"%%%%%%XX@@@@@  ..oo. .ooooooooo  o  oooooooo  o  ooooooooo. .oo..               ",
"%%%%%XXX@@@@@  ..oo. .ooooOooooo   o oOOOOo o   oooooOoooo. .oo..  +++++++++++++",
"%%%%%XXX@@@@@  ..oo. .ooooOOooooo  oo oOOo oo  oooooOOoooo. .oo..  +++++++++++++",
"%%%%%XX@@@@@@  ..oo. .ooooOOoOoooo oOo oo oOo ooooOoOOoooo. .oo..  #############",
"%%%%XXX@@@@@@  ..oo. .ooooOOoOOooo oOOo  oOOo oooOOoOOoooo. .oo..  #############",
"%%%%XXX@@@@@@  ..oo. .ooooOOoOOooo oOOo  oOOo oooOOoOOoooo. .oo..  #############",
"%%%%XX@@@@@@@  ..oo. .ooooOOoOoooo oOo oo oOo ooooOoOOoooo. .oo..  #############",
"%%%%XX@@@@@@@  ..oo. .ooooOOooooo  oo oOOo oo  oooooOOoooo. .oo..  +++++++++++++",
"%%%%XX@@@@@@@  ..oo. .ooooOooooo   o oOOOOo o   oooooOoooo. .oo..  +++++++++++++",
"%%%%XX@@@@@@@  ..oo. .ooooooooo  o  oooooooo  o  ooooooooo. .oo..               ",
"%%%XXX@@@@@@@  ..oo. .oooooooo  oo            oo  oooooooo. .oo..               ",
"%%*XX@@@@@@@@  ..oo. .ooooooo  ooOoo  oooo  ooOoo  ooooooo. .oo..  ++++++++  ##&",
"%%%XX@@@@@@@@  ..oo. .oooooo  ooOoo  oooooo  ooOoo  oooooo. .oo..  #######+  ##&",
"%%%XX@@@@@@@@  ..oo. .ooooo  ooOoo  oooooooo  ooOoo  ooooo. .oo..  #######+  ##&",
"%%%XX@@@@@@@@  ..oo. .oooo  ooOoo  ooooOOoooo  ooOoo  oooo. .oo..  #######+  ##&",
"%%%XX@@@@@X@@  ..oo. .ooo  ooOoo  ooooOOOOoooo  ooOoo  ooo. .oo..  ##&&###+  ##&",
"%%%XX@@@@@@X@  ..oo. .oo  ooOoo  oooooooooooooo  ooOoo  oo. .oo..  #&&&&##+  ##&",
"%%%XX@@@@@@X@  ..oo. .o  ooOoo  oooooOOOOOOooooo  ooOoo  o. .oo..  #&&&&##+  ##&",
"%%%XX@@@@@@@@  ..oo. .  ooOoo  oooooOOOOOOOOooooo  ooOoo  . .oo..  #&&&&##+  ##&",
"%%%XXX@@@@@@@  ..oo.   ooOoo  oooooooooooooooooooo  ooOoo   .oo..  #&##&##+  ##&",
"%%%%XX@@@@@@@  ..oo.  ooOoo  oooooooooooooooooooooo  ooOoo  .oo..  #######+  ##&",
"%%%%XXX@@@@@@  ..oo. ooOoo  oooooooooooooooooooooooo  ooOoo .oo..  #######+  ##&",
"%%%%$XXX@@@@@  ..oo. oOoo  oooooooooooooooooooooooooo  ooOo .oo..  #######+  ##&",
"%%%%$$XX@@@@@  ..o.. Ooo  ............................  ooO ..o..  #######+  ##&",
"%%%%$$XX@@@@@  .....                                        .....  #     #+  ##&",
"%%%%$$XX@@@@@  .... ........................................ ....         +  ##&",
"%%%%$$XX@@@@@  ... ...oooooooooooooooooooooooooooooooooooo... ...   @@@@     ##&",
"%%%%$$XX@@@@@  .. ...oooooooooooooooooooooooooooooooooooooo... ..  @@@@@@@   ##&",
"%%%%$$XX@@@@@  . .............................................. .  @@@@@@@@   #&",
"%%%%$$XX@@@@@   ................................................   @@@@@@@@@    ",
"%%%%%$XXX@@@@                                                      @@@@@@@@@@   ",
"%%%%%$XXXX@@@                                                      @@@@X@@@@@@@@",
"%%%%%$$$XX@@@@@@@@@@@@@@@@@@@@@@@@@@@@@@@@@@@@@@@@@@@@@@@@@@@@@@@@@@@@X@@@@@@@@@",
"%%%%%%$$$XX@@@@@@@@@@@@@@@@@@@@@@@@@@@@@@@@@@@@@@@@@@@@@@@@@@@@@@@@@@@X@@@@@@@@@",
"%%%%%%%$$XXX@@@@@@@@@@@@@@@@@@@@@@@@@@@@@@@@@@@@@@@@@@@@@@@@@@@@@@@@@@@@@@@@@@@@",
"%%%%%%%%$$XX@@@@@@@@@@@@@@@@@@@@@@@@@@@@@@@@@@@@@@@@@@@@@@@@@@@@@@@@@@@@@@@@@@@@",
"%%%%%%%%$$$XX@@@@@@@@@@@@@@@@@@@@@@@@@@@@@@@@@@@@@@@@@@@@@@@@@@@@@@@@@@XXXXXXXXX",
"%%%%%%%%$$$XXX@@@@@@@@@@@@@@@@@@@@@@@@@@@@@@@@@@@@@@@@@@@@@@@@@@@@@@XXXXXXXXXXXX",
"%%%%%%%%$$$$XXX@@@@@@@@@@@@@XXXXXXXXXXXXXXXXXX@@@@@@@@@@@@@@@@@@@@XXXXXXX$$$$$$$",
"%%%%%%%%%$$$$XXXX@@@@@@XXXXXXXXXXXXXXXXXXXXXXXXXXXXX@@@@@@@@@@@XXXXXXX$$$$$$$$$$",
"%%%%%%%%%%%$$$XXXXXXXXXXXXXXXXX$$$$$$$$$$$$$XXXXXXXXXXXXXXXXXXXXXXX$$$$$$$$$$$%%",
"%%%%%%%%%%%%%$$$XXXXXXXXX$$$$$$$$$$$$$$$$$$$$$$$$$$XXXXXXXXXXXXX$$$$$$$$$$$$$%%%",
"%%*%%%%%%%%%%%$$$$$$$$$$$$$$$$$$$$%%%%$$$$$$$$$$$$$$$$$$$$$$$$$$$$$$$%%%%%%%%%%%",
"%%%%%%%%%%%%%%%%%%%%%%%%%%%%%%%%%%%%%%%%%%%%%%%%%%%$$$$$$$$$$$$$$$%%%%%%%%%%%%%%",
"%%%%%%%%%%%%%%%%%%%%%%%%%%%%%%%%%%%%%%%%%%%%%%%%%%%%%%%%%%%%%%%%%%%%%%%%%%%%%%%%"
};
