/* XPM */
static char *ae7df2dbe3cc448b85b5474259e7361ficHNenSMbcwcg3tB[] = {
/* columns rows colors chars-per-pixel */
"60 60 9 1 ",
"  c black",
". c #2A663A",
"X c #4E6353",
"o c #358F4E",
"O c #65806B",
"+ c #BA9865",
"@ c #D4B07B",
"# c #839C88",
"$ c #F5CE93",
/* pixels */
"@@@@@++..oo   OOOOOOOOOOOO XOOX OOOOOOOOOOOOO   oo..++@@@@@@",
"@@@+++...oo  ############# XOOX ##############  oo..+++@@@@@",
"@@+++....oo  ############# XOOX ##############  oo..+++@@@@@",
"@+++...oooo   OOOOOOOOOOOO XOOX OOOOOOOOOOOOO   oo...+++@@@@",
"+++...oooooo               XOOX                ooo...+++@@@@",
"++...oooooooo  OOOOOOOOOOO XOOX OOOOOOOOOOOO  ooooo...+++@@@",
"++..oooooooooo  OOOOOOOOOO XOOX OOOOOOOOOOO  oooooo...++++++",
"++..oooooooooo  OOOOOOOOOO XOOX OOOOOOOOOOO  ooooooo....++++",
"++..oooo.oo.oo  OOOOOOOOOO XOOX OOOOOOOOOOO  ooooooo........",
"++..ooooo.o.o.  OOOOOOOOOO XOOX OOOOOOOOOOO  oo.oo.oo.......",
"++..ooooo.ooo  OOOOOOOOOOO XOOX OOOOOOOOOOOO  o.o.ooooo..ooo",
"++...ooooooo               XOOX                oo.oooooooooo",
"+++..oooooo   OOOOOOOOOOOO XOOX OOOOOOOOOOOOO   oooooooo    ",
"@+++...oooo  ############# XOOX ############OO   oooooo     ",
"@@@++..oooo  ############# XOOX ############# O   oooo   ## ",
"@@@++...ooo   OOOOOOOOOOOO XOOX OOOOOOOOOOOO #OO        O##O",
"@@@@++..oooo               XOOX             O##O O    O O##O",
"@@@@++..ooooo  OOOOOOOOOOO XOOX OOOOOOOOOO  O##O OOOOOO O##O",
"@@@@++..oooooo  OOOOOOOOOO XOOX OOOOOOOOO O O##O OOOOOO O##O",
"@$@@++..oooooo  OOOOOOOOOO XOOX OOOOOOOO OO O##O OOOOOO O##O",
"@@@++...oooooo  OOOOOOOOOO XOOX OOOOOOO OOO O##O OOOOOO O##O",
"@@@++..ooooooo  OOOOOOOOOO XOOX OOOOOO OOOO O##O OOOOOO O##O",
"@@@++..oooooo  OOOOOOOOOOO XOOX OOOOO OOOOO O##O OOOOOO O##O",
"@@++...ooooo               XOOX      OOOOOO O##O OOOOOO O##O",
"@@++..ooooo   OOOOOOOOOOOO XOOX OOO  OOOOOO O##O OOOOOO O##O",
"@@++..ooooo  ############# XOOX ## O OOOOOO O##O OOOOOO O##O",
"@@++..ooooo  ############# XOOX # #O OOOOOO O##O OOOOOO O##O",
"@+++..ooooo   OOOOOOOOOOOO XOOX  ##O OOOOOO O##O OOOOOO O##O",
"@++...oooooo               XOOX                             ",
"@++..oooooooo  OOOOOOOOOOO XOO XXXXXXXXXXXXXXXXXXXXXXXXXXXXX",
"@++..ooooooooo  OOOOOOOOOO XO OOOOOOOOOOOOOOOOOOOOOOOOOOOOOO",
"++...ooooooooo  OOOOOOOOOO X OOOOOOOOOOOOOOOOOOOOOOOOOOOOOOO",
"++..oooooooooo  OOOOOOOOOO  XXXXXXXXXXXXXXXXXXXXXXXXXXXXXXXX",
"++.ooooooooooo  OOOOOOOOOO                                  ",
"+..oooooooooo  OOOOOOOOOO OOOOO O##O OOOOOO O##O OOOOOO O##O",
"+..o.oo.oo.o             OOOOOO O##O OOOOOO O##O OOOOOO O##O",
"+..oo.o.o.o   OOOOOOOOO  OOOOOO O##O OOOOOO O##O OOOOOO O##O",
"+..oo.ooo.o  ######### O OOOOOO O##O OOOOOO O##O OOOOOO O##O",
"++..ooooooo  ######## #O OOOOOO O##O OOOOOO O##O OOOOOO O##O",
"++..ooooooo   OOOOOO ##O OOOOOO O##O OOOOOO O##O OOOOOO O##O",
"++..oooooooo        O##O OOOOOO O##O OOOOOO O##O OOOOOO O##O",
"++...oooooooo  OOOO O##O OOOOOO O##O OOOOOO O##O OOOOOO O##O",
"++...oooooooo  OOOO O##O OOOOOO O##O OOOOOO O##O OOOOOO O##O",
"+++...ooooooo  OOOO O##O OOOOOO O##O OOOOOO O##O OOOOOO O##O",
"@+++..oooooo  OOOOO O##O O    O O##O O    O O##O O    O O##O",
"@+++..oooooo  OO    O##O        O##O        O##O        O##O",
"@@+++..oooo  O       ##  ooooo   ##   oooo   ##   oooo   ## ",
"@@+++..ooo  O   ooo      oooooo      oooooo      oooooo     ",
"@@@++..ooo    oooooo    oooooooo    oooooooo    oooooooo    ",
"@@@++..ooo   ooooooooooooooooooooooooooooooooooooooooooooooo",
"@@@++..oooooooooooooooooooo.oo.oo.oooooooooooooooooooooooooo",
"@@@++..ooooooooooooooooooooo.o.o.ooooooooo..................",
"@@+++..ooooooooooooooooooooo.ooo.ooooooo....................",
"@@+++...ooooooooooooooooooooooooooooooo.....++++++++++++++++",
"@@+++......ooooooooooo........oooooooo...+++++++++++++++++++",
"@@++++.....ooooooooo..............o.....+++++@@@@@@@@@@@@@@@",
"@@@++++++...oooooo....++++++++.........+++@@@@@@@@@@@@@@@@$@",
"@@$@+++++............++++++++++++++++++++@@@@@@@@@@@@@@@@@@@",
"@@@@@@@++++........++++@@@@@++++++++++++@@@@@@@@@@@@@@@@@@@@",
"@@@@@@@@@+++++++++++++@@@@@@@@@@@@@@@@@@@@@@@@@$@@@@@@@@@@@@"
};
