/* XPM */
static char *_a8b87a031ea4045c38a9be8708249215O1Wgr4HbQOjE7z6[] = {
/* columns rows colors chars-per-pixel */
"60 60 8 1 ",
"  c #0D171F",
". c #3D1D16",
"X c #452113",
"o c #573129",
"O c #253847",
"+ c #2E4659",
"@ c #576F8C",
"# c #7092BE",
/* pixels */
".XooooooooooooooooooooooooooooooooooooooooooooooooooooooooX.",
".XooooooooooooooooooooooooooooooooooooooooooooooooooooooooX.",
".Xoo++++++++++++++++++++++++++++++++++++++++++++++++++++ooX.",
".Xoo+                                                  +ooX.",
".Xoo+                                                  +ooX.",
".Xoo+                                                  +ooX.",
".Xoo+                                                  +ooX.",
".Xoo+                                                  +ooX.",
".Xoo++++++++++++++++++++++++++++++++++++++++++++++++++++ooX.",
".XooooooooooooooooooooooooooooooooooooooooooooooooooooooooX.",
".XooooooooooooooooooooooooooooooooooooooooooooooooooooooooX.",
".Xoo++++++++++++++++++++++++++++++++++++++++++++++++++++ooX.",
".Xoo++O++++OOOO+++O++++O+++O++++OOOO++++O++OOO+++++++O++ooX.",
".Xoo+@@@@++@@@@@@@@@@@@@@@@@@@@@@@@@@@@@@@@@@@@@@++@@@@+ooX.",
".Xoo+@@##O+@@@@##@@@@@@##@#@@@@@@################++@@@#+ooX.",
".Xoo+####O+@@####################################++@@##+ooX.",
".Xoo+####++@@####################################++@@##+ooX.",
".Xoo+####++@#####################################++@###+ooX.",
".Xoo+####++@#####################################++@###+ooX.",
".Xoo+####++@#####################################++@###+ooX.",
".Xoo+####++@#####################################O+@###+ooX.",
".Xoo+####++@#####################################++@###+ooX.",
".Xoo++++++++++++O++++++++++++++++++++++++++++O++++++++++ooX.",
".Xoo+++++O+++++O++++++OO+++++O+++++++O+++++OO+++++++++++ooX.",
".Xoo+@@@@++@@@@@@@@@@@@@@@@@@@@@@@@@@@@@@@@@@@@@@++@@@@+ooX.",
".Xoo+##@#++@@@@@@@@@###@@#@@@@@@@@###@@@@###@##@@O+@@@@+ooX.",
".Xoo+@###++@@#@@@@@##@@@@@@@@@@@@@#@@@#@@@@@@@###O+@@@@+ooX.",
".Xoo+####++@@@@@@#@@@@@@@@#######################++@@@@+ooX.",
".Xoo+####++@#@@@@@@#@@@@#########################++@#@@+ooX.",
".Xoo+####++@@@@@@@###############################++@#@@+ooX.",
".Xoo+####++@@@@@#################################++@@@#+ooX.",
".Xoo+####++@@@@@#################################++@@@#+ooX.",
".Xoo+####O+@@#@##################################++@@@#+ooX.",
".Xoo+####O+@#####################################++@@@#+ooX.",
".Xoo+####O+@#@###################################O+@@##+ooX.",
".Xoo+####O+@#@###################################O+@@@#+ooX.",
".Xoo+####++@@@@##################################O+@#@#+ooX.",
".Xoo+####++@@@###################################O+@@@#+ooX.",
".Xoo+####++@@####################################++@#@#+ooX.",
".Xoo+####++@@@###################################++@#@#+ooX.",
".Xoo+####++@#@###################################++@@@#+ooX.",
".Xoo+####O+@#@###################################++@@##+ooX.",
".Xoo+####++@@@###################################++@@##+ooX.",
".Xoo+####++@#@###################################++@@@#+ooX.",
".Xoo+####++@@@###################################O+@@@#+ooX.",
".Xoo+####++@@@###################################++@@@#+ooX.",
".Xoo+####++@@@###################################++@@@#+ooX.",
".Xoo+####++@#####################################++@###+ooX.",
".Xoo+####++@#@###################################++@@##+ooX.",
".Xoo+####O+@#@###################################++@#@#+ooX.",
".Xoo+####++@@####################################O+@#@#+ooX.",
".Xoo+####++@@####################################++@@##+ooX.",
".Xoo+####++@@####################################++@@##+ooX.",
".Xoo+####++@@####################################++@@##+ooX.",
".Xoo+####O+@@####################################O+@@##+ooX.",
".Xoo+####O+@@####################################O+@@##+ooX.",
".Xoo++++++++++++++++++++++++++++++++++++++++++++++++++++ooX.",
".Xoo++++++++++++++++++++++++++++++++++++++++++++++++++++ooX.",
"..oo+++O++OOOOO++++OOO+OO+OOOOOO++++++++OO+++++++OO++++OooX.",
"..ooOOO++OOO+OO+OO+++OO+++++OOOOO++OOO+O++OOOOOOO++++OOOoo.."
};
