/* XPM */
static char *result[] = {
/* columns rows colors chars-per-pixel */
"80 80 10 1 ",
"  c black",
". c gray12",
"X c #2A663A",
"o c #4E6353",
"O c #358F4E",
"+ c #65806B",
"@ c #BA9865",
"# c #D4B07B",
"$ c #839C88",
"% c #F5CE93",
/* pixels */
"################################################################################",
"################################################################################",
"#################@@@@@@@@@@@@@@@@@@@@@@##########XXXXXXXXXXXXXX#################",
"############@@@@@@@@@@@@@@@@@@XXXXXXXXXXXXXXXXXXXXXXXXXXXXXXXXXXXX##############",
"###########@@@XXXXXXXXXXXXXXXXXXXXXXXXXXXXXXXXXXXOOOOOOOOOOOOOOXXXXXX###########",
"#####%#####@@XXXXXXXXXXXXXXXXXXOOOOOOOOOOOOOOOOOOOOOOOOOOOXOOOOOOXXXXXX#########",
"##########@@XXXOOOOOOOOOOOOOOOOOOOOOOOOOOOOOOOOOOOOOOOXXOOXOOXXOOOOOXXXXX#######",
"#########@@XXXOOOOOOOOOOOOOOOOOOOOOOOOOOOOOOOOOOOOOOOOOXXOXOXXOOOOOOOOXXXX######",
"########@@XXXOOOOOOOOOOOOOO      OOOOOOOOOOOOOO      OOXXOOOXXOOOOOOOOOXXX######",
"########@@XXOOO    OOOOOOO        OOOOOOOOOOOO        OOOOOOO    OOOOOOOXX######",
"#######@@XXOOO  $$. OOOOO   +$$+   OOOOOOOOOO   +$$+   OOOOO .$$  OOOOOOXXX#####",
"######@@XXXOOO ++$$  OOO   ++$$++   OOOOOOOO   ++$$++   OOO  $$++ OOOOOOXXX#####",
"######@@XXOOOO +++$$  O    ++$$++     OOOO     ++$$++    O  $$+++ OOOOOOOXX#####",
"#####@@XXXOOOO  +++$$   o  ++$$++  o        o  ++$$++  o   $$+++  OOOOOOOXXX####",
"#####@@XXOOOOOO ++++$$  o  ++$$++  o++    ++o  ++$$++  o  $$++++ OOOOOOOOXXX####",
"#####@@XXOOOOOO  ++++$$    ++$$++  o++++++++o  ++$$++    $$++++  OOOOOOOOOXX####",
"#####@@XXOOOOOO   ++++$$   ++$$++  o++++++++o  ++$$++   $$++++   OOOOOOOOOXX####",
"#####@@XXOOOOO     ++++$$  ++$$++  o++++++++o  ++$$++  $$++++     OOOOOOOOXX####",
"#####@@XXOOOOO  ++  ++++$$  +$$++  o++++++++o  ++$$+  $$++++  ++  OOOOOOOOXX####",
"#####@@XXOOOOO  $$$  ++++$$  $$++  o++$++$++o  ++$$  $$++++  $$$  OOOOOOOOXX####",
"#####@@XXXOOOO  $$$$  ++++$$  $++  o++$$$$++o  ++$  $$++++  $$$$  OOOOOOOXXX####",
"######@@XXOOOO  +++++  ++++$$  ++  o++$$$$++o  ++  $$++++  +++++  OOOOOOXXXX####",
"######@@XXOOOO   +++++  ++++$$  +  o++$$$$++o  +  $$++++  +++++   OOOOOOXXX@####",
"#######@XXXOOOO          ++++$$    o++$$$$++o    $$++++          OOOOOOXXXX@####",
"#######@@XXOOOOO          ++++$$   o+++$$+++o   $$++++          OOOOOOOXX@@@####",
"#######@@XXOOOOOO  oooooo  ++++$$  o+++$$+++o  $$++++  oooooo  OOOOOOOXXX@@#####",
"#######@@@XXOOOOOO  +++++o  ++++$$  ++++++++  $$++++  o+++++  OOOOOOOOXXX@@#####",
"#######@@@XXOOOOOO  ++++++o  ++++$$  ++++++  $$++++  o++++++  OOOOOOOOXX@@@#####",
"########@@XXOOOXOOO  ++++++o  ++++$$  ++++  $$++++  o++++++  OOOOOOOOXXX@@######",
"########@@XXOOXOOOO  +++++++o  ++++$$  ++  $$++++  o+++++++  OOOOOOOOXXX@@######",
"########@@XXOOXOOOO  +++++$++o  ++++$$    $$++++  o++$+++++  OOOOOOOXXX@@#######",
"########@@XXOOOOOOO  ++++$$$++o  ++++$$  $$++++  o++$$$++++  OOOOOOOXXX@@#######",
"########@@XXOOOOOO  +++++++++++o  ++++ ++ ++++  o+++++++++++  OOOOOOXX@@@#######",
"########@@XXOOOOOO  ++++++++++++o  ++ ++++ ++  o++++++++++++  OOOOOXXX@@########",
"########@@XXOOOOO  ooooooooooooooo   o++++o   ooooooooooooooo  OOOOXX@@@########",
"########@XXXOOOO                    oo++++oo                    OOOXX@@@########",
"#######@@XXOOOO                     oo++++oo                     OOXXX@@########",
"#######@@XXOOO   +++++++++++++++++  oo++++oo  +++++++++++++++++   OXXX@@########",
"######@@@XXOOO  ++++++++++++++++++  oo++++oo  ++++++++++++++++++  OOXX@@########",
"######@@@XXOOO  $$$$$$$$$$$$$$$$$$  oo++++oo  $$$$$$$$$$$$$$$$$$  OOXX@@########",
"######@@@XXOOO  $$$$$$$$$$$$$$$$$$  oo++++oo  $$$$$$$$$$$$$$$$$$  OOXX@@@#######",
"######@@XXXOOO  ++++++++++++++++++  oo++++oo  ++++++++++++++++++  OOXXX@@#######",
"######@@XXOOOO   +++++++++++++++++  oo++++oo  +++++++++++++++++   OOOXX@@#######",
"######@@XXOOOOO                     oo++++oo                     OOOOXX@@#######",
"######@@XXXOOOOO                    oo++++oo                    OOOOOXX@@#######",
"######@@@XXXOOOOO  ooooooooooooooo  oo++++oo  ooooooooooooooo  OOOOOOXX@@#######",
"#######@@@XXXOOOOO  +++++++++++++o  oo++++oo  o+++++++++++++  OOOOOOOXX@@#######",
"#######@@@@XXOOOOO  +++++++++++++o  oo++++oo  o+++++++++++++  OOOOOOOXX@@#######",
"#######@@@@XXOOOOOO  ++++$$$$++++o  oo++++oo  o++++$$$$++++  OOOOOXOOXX@@#######",
"########@@@XXOOOOOO  +++++$$$$+++o  oo++++oo  o+++$$$$+++++  OXXOOXOOXX@@#######",
"########@@@XXOOOOOO  +++++$$$$+++o  oo++++oo  o+++$$$$+++++  OOXXOXOOXX@@#######",
"########@@XXXOOOOOO  ++++$$$$++++o  oo++++oo  o++++$$$$++++  OOXXOOOXXX@@#######",
"####%###@@XXOOOOOO  +++++++++++++o  oo++++oo  o+++++++++++++  OOOOOOXX@@@#######",
"#######@@@XXOOOOOO  +++++++++++++o  oo++++oo  o+++++++++++++  OOOOOOXX@@@#######",
"#######@@XXXOOOOO  ooooooooooooooo  oo++++oo  ooooooooooooooo  OOOOOXX@@@#######",
"######@@@XXOOOOO                    oo++++oo                    OOOOXXX@@#######",
"######@@@XXOOOO                     oo++++oo                     OOOOXX@@##%####",
"######@@@XXOOO   +++++++++++++++++  oo++++oo  +++++++++++++++++   OOOXX@@##%####",
"######@@@XXOOO  ++++++++++++++++++  oo++++oo  ++++++++++++++++++  OOOXX@@#######",
"######@@XXXOOO  $$$$$$$$$$$$$$$$$$  oo++++oo  $$$$$$$$$$$$$$$$$$  OOXXX@@#######",
"#####@@@XXXOOO  $$$$$$$$$$$$$$$$$$  oo++++oo  $$$$$$$$$$$$$$$$$$  OOXX@@@#######",
"####@@@@XXOOOO  ++++++++++++++++++  oo++++oo  ++++++++++++++++++  OOXX@@@#######",
"####@@@XXXOOOO   +++++++++++++++++  oo++++oo  +++++++++++++++++   OOXX@@@#######",
"####@@@XXOOOOOO                     oo++++oo                     OOOXX@@@#######",
"####@@@XXOOOOOOO                    oo++++oo                    OOOOXXX@@#######",
"####@@XXXOOOOOOOO  ooooooooooooooo  oo++++oo  ooooooooooooooo  OOOOOOXX@@#######",
"####@@XXXOOOOOOOOO  +++++++++++++o  oo++++oo  o+++++++++++++  OOOOOOOXX@@#######",
"####@@XXXOOOOOOOOO  +++++++++++++o  oo++++oo  o+++++++++++++  OOOOOOOXX@@#######",
"####@@XXOOOOOOOOOOO  ++++$$$$++++o  oo++++oo  o++++$$$$++++  OOOOOOOXXX@@#######",
"####@@XXOOOOOOOOOOO  +++++$$$$+++o  oo++++oo  o+++$$$$+++++  OOOOOOOXXX@@#######",
"####@@XXOOOXOOOOOOO  +++++$$$$+++o  oo++++oo  o+++$$$$+++++  OOOOOOOXXX@@#######",
"####@@XXOOOOXOOOOOO  ++++$$$$++++o  oo++++oo  o++++$$$$++++  OOOOOOOOXX@@#######",
"####@@XXOOOOXOOOOO   ++++++++++++o  oo++++oo  o++++++++++++   OOOOOOOXXX@@######",
"####@@XXOOOOOOOOOO  +++++++++++++o  oo++++oo  o+++++++++++++  OOOOOOOXXX@@@#####",
"####@@XXOOOOOOOOO  ooooooooooooooo  oo++++oo  ooooooooooooooo  OOOOOOXXXX@@#####",
"####@@XXOOOOOOOO                    oo++++oo                    OOOOOOXXX@@#####",
"####@@XXXOOOOOO                     oo++++oo                     OOOOOOXX@@#####",
"####@@XXXOOOOO   +++++++++++++++++  oo++++oo  +++++++++++++++++  OOOOOOXX@@#####",
"####@@@XXOOOOO  ++++++++++++++++++  oo++++oo  ++++++++++++++++++  OOOOOXX@@#####",
"#####@@XXOOOOO  $$$$$$$$$$$$$$$$$$  oo++++oo  $$$$$$$$$$$$$$$$$$  OOOOOXX@@#####"
};
