/* XPM */
static char *_f5af0c2340343aaef81203569df88b2lB01ZqfeJB7DE4La[] = {
/* columns rows colors chars-per-pixel */
"60 60 9 1 ",
"  c black",
". c #2A663A",
"X c #4E6353",
"o c #358F4E",
"O c #65806B",
"+ c #BA9865",
"@ c #D4B07B",
"# c #839C88",
"$ c #F5CE93",
/* pixels */
"@@@@@@@@++..oo               XOOX               ooo..++@@@@@",
"@@@@@@++....ooo  OOOOOOOOOOO XOOX OOOOOOOOOOO  oooo...++@@@@",
"@@$@@++.....oooo  OOOOOOOOOO XOOX OOOOOOOOOO  oooooo...++@@@",
"@@@@@++..ooooooo  OOOOOOOOOO XOOX OOOOOOOOOO  ooooooo..++@@@",
"@@@@@+...ooooooo  OOOOOOOOOO XOOX OOOOOOOOOO  ooooooo..++@@@",
"@@@@++..oooooooo  OOOOOOOOOO XOOX OOOOOOOOOO  ooooooo..++@@@",
"@@@+++..ooooooo  OOOOOOOOOOO XOOX OOOOOOOOOOO  ooooo...+@@@@",
"@@++....oooooo               XOOX               ooo...++@@@@",
"@++.....ooooo   OOOOOOOOOOOO XOOX OOOOOOOOOOOO   oo...++@@$@",
"@++..oooooooo  ############# XOOX #############  oo...++@@@@",
"@++..oooooooo  ############# XOOX #############  ooo..++@@@@",
"@++..oooooooo   OOOOOOOOOOOO XOOX OOOOOOOOOOOO   ooo..++@@@@",
"@++..ooooooooo               XOOX               ooo...++@@@@",
"@++..ooo.oo.oo.  OOOOOOOOOOO XOOX OOOOOOOOOOO  ooo...++@@@@@",
"@++...ooo.o.o.oo  OOOOOOOOOO XOOX OOOOOOOOOO  oooo..+++@@@@@",
"@@++...oo.ooo.oo  OOOOOOOOOO XOOX OOOOOOOOOO  oooo..++@@@@@@",
"@@@++..ooooooooo  OOOOOOOOOO XOOX OOOOOOOOOO  oooo..++@@@@@@",
"@@@++..ooooooooo  OOOOOOOOOO XOOX OOOOOOOOOO  oooo..++@@@@@@",
"@@@+++..ooooooo  OOOOOOOOOOO XOOX OOOOOOOOOOO  ooo..++@@@@@@",
"@@@+++..oooooo               XOOX               oo..++@@$@@@",
"@@@@++...oooo   OOOOOOOOOOOO XOOX OOOOOOOOOOOO   o..++@@@@@@",
"@@@@@++...ooo  ############# XOOX #############  o..++@@@@@@",
"@@$@@++...ooo  ############# XOOX #############  o..++@@@@@@",
"@@@@@++...ooo   OOOOOOOOOOOO XOOX OOOOOOOOOOOO   o..++@@@@@@",
"@@@@@++...ooo                XOOX               ooo..+@@@@@@",
"@@@@@++..ooooo  OOOOOOOOOOOO XOOX OOOOOOOOOOO  oooo..+@@@@@@",
"@@@@@+..ooooooo  OOOOOOOOOOO XOOX OOOOOOOOOO  ooo.o..++@@@@@",
"@@@@++..oo.oooo  OOOOOOOOOOO XOOX OOOOOOOOOO  .o.oo..++@@@@@",
"@@@@++..o.ooooo  OOOOOOOOOOO XOOX OOOOOOOOOO  .o.oo..++@@@@@",
"@@@@++..o.ooooo  OOOOOOOOOOO XOOX OOOOOOOOOO  ooooo..++@@@@$",
"@@@@++..oooooo  OOOOOOOOOOOO XOOX OOOOOOOOOOO  oooo..+++@@@@",
"@@@@++...oooo                XOOX               oooo..++@@@@",
"@@@@@++..ooo   OOOOOOOOOOOOO XOOX OOOOOOOOOOOO   ooo..++@@@@",
"@@@@@++..ooo  ############## XOOX #############  ooo..++@@@@",
"@@@@@++..ooo  ############## XOOX #############  ooo..++@@@@",
"@@@@@+...ooo   OOOOOOOOOOOOO XOOX OOOOOOOOOOOO   ooo..++@@@@",
"@@@@++..ooooo                XOOX               oooo..++@@@@",
"@@@@++..oooooo  OOOOOOOOOOOO XOOX OOOOOOOOOOO  oooo..+++@@@@",
"@@@@++..ooooooo  OOOOOOOOOOO XOOX OOOOOOOOOO  ooooo..++@@@@@",
"@@@@++...oooooo  OOOOOOOOOOO XOOX OOOOOOOOOO  ooooo..+@@@@@@",
"@@@@@++....oooo  OOOOOOOOOOO XOOX OOOOOOOOOO  ooooo..+@@@$@@",
"@@@@@@+....oooo  OOOOOOOOOOO XOOX OOOOOOOOOO  oooo...+@@@@@@",
"@@@@@@+++..ooo  OOOOOOOOOOOO XOOX OOOOOOOOOOO  ooo...+@@@@@@",
"@@@@@@+++..oo                XOOX               oo..++@@@@@@",
"$@@@@@++...o   OOOOOOOOOOOOO XOOX OOOOOOOOOOOO   o...++@@@@@",
"@@@@@@++..oo  ############## XOOX #############  oo..++@@@@@",
"@@@@@@++..oo  ############## XOOX #############  oo...++@@@@",
"@@@@@@++..oo   OOOOOOOOOOOOO XOOX OOOOOOOOOOOO   oo....++@@@",
"@@@@@@++..ooo                XOOX               ooooo..++@@@",
"@@@@@+++..oooo  OOOOOOOOOOOO XOOX OOOOOOOOOOO  oooooo..++@@@",
"@@@@@+++..ooooo  OOOOOOOOOOO XOOX OOOOOOOOOO  ooooooo..++@@@",
"@@@@@++...ooooo  OOOOOOOOOOO XOOX OOOOOOOOOO  oo.oooo..++@@@",
"@@@$@++..oooooo  OOOOOOOOOOO XOOX OOOOOOOOOO  ooo.oo...++@@@",
"@@@@@++..oooooo  OOOOOOOOOOO XOOX OOOOOOOOOO  ooo.oo..++@@@@",
"@@@@@++..ooooo  OOOOOOOOOOOO XOOX OOOOOOOOOOO  ooooo..++@@@@",
"@@@@@++..oooo                XOOX               oooo..++@@@@",
"@@@@@++...oo   OOOOOOOOOOOOO XOOX OOOOOOOOOOOO   ooo..++@@@@",
"@@@@@++...oo  ############## XOOX #############  oo...++@@@$",
"@@@@@@++..oo  ############## XOOX #############  oo..+++@@@@",
"@@@@@@++..oo   OOOOOOOOOOOOO XOOX OOOOOOOOOOOO   oo..++@@@@@"
};
