/* XPM */
static char *result[] = {
/* columns rows colors chars-per-pixel */
"80 80 9 1 ",
"  c black",
". c #2A663A",
"X c #4E6353",
"o c #358F4E",
"O c #65806B",
"+ c #BA9865",
"@ c #D4B07B",
"# c #839C88",
"$ c #F5CE93",
/* pixels */
"@@@@@++..ooooo  ##################  XXOOOOXX  ##################  ooooo..++@@@@@",
"@@@@@++..ooooo  OOOOOOOOOOOOOOOOOO  XXOOOOXX  OOOOOOOOOOOOOOOOOO  ooooo..++@@@@@",
"@@@@@++..ooooo   OOOOOOOOOOOOOOOOO  XXOOOOXX  OOOOOOOOOOOOOOOOO  oooooo..++@@@@@",
"@@@@@++..oooooo                     XXOOOOXX                     oooooo..++@@@@@",
"@@@@@@+...oooooo                    XXOOOOXX                    ooooooo..++@@@@@",
"@@@@@@++..oooooo.  XXXXXXXXXXXXXXX  XXOOOOXX  XXXXXXXXXXXXXXX  oooooooo..++@@@@@",
"@@@@@@++..oo..oo.o  OOOOOOOOOOOOOX  XXOOOOXX  XOOOOOOOOOOOOO  ooooooooo..++@@@@@",
"@@@@@@++...oo..o.o   OOOOOOOOOOOOX  XXOOOOXX  XOOOOOOOOOOOO   ooooooooo..++@@@@@",
"@@@@@@+++..oo..oooo  OOOO####OOOOX  XXOOOOXX  XOOOO####OOOO  oooooooooo..++@@@@@",
"@@@@@@+++...ooooooo  OOOOO####OOOX  XXOOOOXX  XOOO####OOOOO  oooooooooo..++@@@@@",
"@@@@@@+++...ooooooo  OOOOO####OOOX  XXOOOOXX  XOOO####OOOOO  oooooooooo..++@@@@@",
"@@@@@@++++..ooooooo  OOOO####OOOOX  XXOOOOXX  XOOOO####OOOO  oooooooooo..++@@@@@",
"@@@@@@@+++..oooooo  OOOOOOOOOOOOOX  XXOOOOXX  XOOOOOOOOOOOOO  ooooooooo..++@@@@@",
"@@@@@@@+++..oooooo  OOOOOOOOOOOOOX  XXOOOOXX  XOOOOOOOOOOOOO  ooooooooo...+@@@@@",
"@@@@@@@+++..ooooo  XXXXXXXXXXXXXXX  XXOOOOXX  XXXXXXXXXXXXXXX  oooooooo...++@@@@",
"@@@@@@@+++..oooo                    XXOOOOXX                    oooooooo...+@@@@",
"@@@@@@@+++..ooo                     XXOOOOXX                     ooooooo...++@@@",
"@@@@@@@++...oo   OOOOOOOOOOOOOOOOO  XXOOOOXX  OOOOOOOOOOOOOOOOO   ooooooo...+@@@",
"@@@@@@@++..ooo  OOOOOOOOOOOOOOOOOO  XXOOOOXX  OOOOOOOOOOOOOOOOOO  ooooooo...+@$@",
"@@@@@@@++..ooo  ##################  XXOOOOXX  ##################  oooooooo..+@@@",
"@@@@@@@++..ooo  ##################  XXOOOOXX  ##################  oooooooo...@@@",
"@@@@@@@++..ooo  OOOOOOOOOOOOOOOOOO  XXOOOOXX  OOOOOOOOOOOOOOOOOO  oooooooo...@@@",
"@@@$@@@++..ooo   OOOOOOOOOOOOOOOOO  XXOOOOXX  OOOOOOOOOOOOOOOOO   ooooooooo...@@",
"@@@@@@@++..oooo                     XXOOOOXX                     oooooooooo...@@",
"@@@@@@@++..ooooo                    XXOOOOXX                    oooooooooooo..@@",
"@@@@@@@++..oooooo  XXXXXXXXXXXXXXX  XXOOOOXX  XXXXXXXXXXXXXXX  ooooooooooooo...@",
"@@@@@@@++..ooooooo  OOOOOOOOOOOOOX  XXOOOOXX  XOOOOOOOOOOOOO  oooooooooooooo...@",
"@@@@@@@++..ooooooo  OOOOOOOOOOOOOX  XXOOOOXX  XOOOOOOOOOOOOO  ooooooooooooooo..@",
"@@@@@@@++..oooooooo  OOOO####OOOOX  XXOOOOXX  XOOOO####OOOO  oooooooo.ooooooo..@",
"@@@@@@@++..oooooooo  OOOOO####OOOX  XXOOOOXX  XOOO####OOOOO  oooo..oo.oo..ooo..@",
"@@@@@@@++..oooooooo  OOOOO####OOOX  XXOOOOXX  XOOO####OOOOO  ooooo..o.o..oooo..@",
"@@@@@@+++..oooooooo  OOOO####OOOOX  XXOOOOXX  XOOOO####OOOO  ooooo..ooo..oooo..@",
"@@@@@@+++..ooooooo  OOOOOOOOOOOOOX  XXOOOOXX  XOOOOOOOOOOOOO  ooooooooooooooo..@",
"@@@@@@+++..ooooooo  OOOOOOOOOOOOOX  XXOOOOXX  XOOOOOOOOOOOOO  ooooooooooooooo..@",
"@@@@@@++...oooooo  XXXXXXXXXXXXXXX  XXOOOOXX  XXXXXXXXXXXXXXX  oooooooooooooo..@",
"@@@@@+++...ooooo                    XXOOOOXX                    oooooooooooo...@",
"@@@@@+++..ooooo                     XXOOOOXX                     ooooooooooo..@@",
"@@@@+++...oooo   OOOOOOOOOOOOOOOOO  XXOOOOXX  OOOOOOOOOOOOOOOOO   oooooooooo..@@",
"@@@@+++..ooooo  OOOOOOOOOOOOOOOOOO  XXOOOOXX  OOOOOOOOOOOOOOOOOO  ooooooooo...@@",
"@@@@++...ooooo  ##################  XXOOOOXX  ##################  ooooooooo..@@@",
"@@@@++..oooooo  ##################  XXOOOOXX  ##################  ooooooooo..@@@",
"@@@+++..oooooo  OOOOOOOOOOOOOOOOOO  XXOOOOXX  OOOOOOOOOOOOOOOOOO  ooooooooo..@@@",
"@@@++...oooooo   OOOOOOOOOOOOOOOOO  XXOOOOXX  OOOOOOOOOOOOOOOOO   ooooooooo..@@@",
"@@@++..oooooooo                     XXOOOOXX                     ooooooooo...@@@",
"@@@++..ooooooooo                    XXOOOOXX                    oooooooooo..+@@@",
"@@@++..oooooooooo  XXXXXXXXXXXXXXX  XXOOOOXX  XXXXXXXXXXXXXXX  ooooooooooo..+@@@",
"@@@++..ooooooooooo  OOOOOOOOOOOOOX  XXOOOOXX  XOOOOOOOOOOOOO  oooooooooooo..+@@@",
"@@@++..ooooooooooo  OOOOOOOOOOOOOX  XXOOOOXX  XOOOOOOOOOOOOO  oooooooooooo..+@@@",
"@@@++..oooooooooooo  OOOO####OOOOX  XXOOOOXX  XOOOO####OOOO  ooooooooooooo..+@@@",
"@@@++..o.oooooooooo  OOOOO####OOOX  XXOOOOXX  XOOO####OOOOO  oooooooooooo...+@@@",
"@@@++..o.oo..oooooo  OOOOO####OOOX  XXOOOOXX  XOOO####OOOOO  oooooooooooo..++@@@",
"@@@++..o.o..ooooooo  OOOO####OOOOX  XXOOOOXX  XOOOO####OOOO  oooooooooooo..++@@@",
"@@@++..ooo..oooooo  OOOOOOOOOOOOOX  XXOOOOXX  XOOOOOOOOOOOOO  ooooooooooo..++@@@",
"@@@++..ooooooooooo  OOOOOOOOOOOOOX  XXOOOOXX  XOOOOOOOOOOOOO  ooooooooooo..++@@@",
"@@@++..oooooooooo  XXXXXXXXXXXXXXX  XXOOOOXX  XXXXXXXXXXXXXXX  ooooooooo...++@@@",
"@@@++..ooooooooo                    XXOOOOXX                    oooooooo..+++@@@",
"@@@++..oooooooo                     XXOOOOXX                     ooooooo..+++@@@",
"@@@++..ooooooo   OOOOOOOOOOOOOOOOO  XXOOOOXX  OOOOOOOOOOOOOOOOO   oooooo..+++@@@",
"@@@++...oooooo  OOOOOOOOOOOOOOOOOO  XXOOOOXX  OOOOOOOOOOOOOOOOOO  oooooo..++@@@@",
"@@@++...oooooo  ##################  XXOOOOXX  ##################  oooooo..++@@@@",
"@@@+++..oooooo  ##################  XXOOOOXX  ##################  ooooo...++@@@@",
"@@@@++..oooooo  OOOOOOOOOOOOOOOOOO  XXOOOOXX  OOOOOOOOOOOOOOOOOO  ooooo...++@@@@",
"@@@@++..oooooo   OOOOOOOOOOOOOOOOO  XXOOOOXX  OOOOOOOOOOOOOOOOO   ooooo..+++@@@@",
"@@@@++..ooooooo                     XXOOOOXX                     oooooo..++@@@@@",
"@@@@++..oooooooo                    XXOOOOXX                    oooooo...++@@@@@",
"@@@@++..ooooooooo  XXXXXXXXXXXXXXX  XXOOOOXX  XXXXXXXXXXXXXXX  ooooooo..+++@@@@@",
"@@@@++..oooooooooo  OOOOOOOOOOOOOX  XXOOOOXX  XOOOOOOOOOOOOO  oooooooo..+++@@@@@",
"@@@@++..oooooooooo  OOOOOOOOOOOOOX  XXOOOOXX  XOOOOOOOOOOOOO  oooooooo..+++@@@@@",
"@@@@++..ooooooooooo  OOOO####OOOOX  XXOOOOXX  XOOOO####OOOO  ooooooooo...++@@@@@",
"@@@@++..ooooooooooo  OOOOO####OOOX  XXOOOOXX  XOOO####OOOOO  ooooooooo...++@@@@@",
"@@@@++..ooooooooooo  OOOOO####OOOX  XXOOOOXX  XOOO####OOOOO  oooooooooo..++@@@@@",
"@@@@++..ooooooooooo  OOOO####OOOOX  XXOOOOXX  XOOOO####OOOO  o.oooooooo..++@@@@@",
"@@@@++..oooooooooo   OOOOOOOOOOOOX  XXOOOOXX  XOOOOOOOOOOOO   .oo..oooo..++@@@@@",
"@@@@++..oooooooooo  OOOOOOOOOOOOOX  XXOOOOXX  XOOOOOOOOOOOOO  .o..ooooo..++@@@@@",
"@@@@++..ooooooooo  XXXXXXXXXXXXXXX  XXOOOOXX  XXXXXXXXXXXXXXX  o..ooooo..++@@@@@",
"@@@@++..oooooooo                    XXOOOOXX                    ooooooo..++@@@@@",
"@@@@++...oooooo                     XXOOOOXX                     oooooo..++@@@@@",
"@@@@++...ooooo   OOOOOOOOOOOOOOOOO  XXOOOOXX  OOOOOOOOOOOOOOOOO  oooooo..++@@@@@",
"@@@@+++..ooooo  OOOOOOOOOOOOOOOOOO  XXOOOOXX  OOOOOOOOOOOOOOOOOO  ooooo..++@@@$@",
"@@@@@++..ooooo  ##################  XXOOOOXX  ##################  ooooo..++@@@@@"
};
