/* XPM */
static char *result[] = {
/* columns rows colors chars-per-pixel */
"80 80 13 1 ",
"  c black",
". c #1F2133",
"X c #0C6624",
"o c #2A663A",
"O c #2C2E45",
"+ c #41445C",
"@ c #4E6353",
"# c #358F4E",
"$ c #65806B",
"% c #BA9865",
"& c #D4B07B",
"* c #839C88",
"= c #F5CE93",
/* pixels */
"&&&&&&&&&&&&&&&&&&&&&&&&&&&&&&&&&&&&&&&&&&&&&&&&&&&&&&&&&&&&&&&&&&&&&&&&&&&&&&&&",
"&&&&&&&&&&&&&&&&&&&&&&&&&&&&&&&&&&&&&&&&&&&&&&&&&&&&&&&&&&&&&&&&&&&&&&&&&&&&&&&&",
"&&=&&&&&&&&&&&&&&&&&&&&&&&&&&&&&&=&&&&&&&&&&&&&&&&&&&&&&&&&&&&&&%%%%%%%%%%&&&&&&",
"&&&&&&&&&&&&&&&&&&&&&&&&&&&&&&&&&&&&&&&&&&&&&&&&&&&&&&&&&&&&&%%%%%%%%%%%%%%%%%%%",
"&&&&&&&&&&&&&&&%%%%%%%%%%&&&&&&&&&&&&&&&&&&&&&&&&&&&&&&&&&&%%%%%%%%%%%%%%%%%%%%%",
"&&&&&&&&&&&&%%%%%%%%%%%%%%%%%%%&&&&&&&&&&&&&&&&&&&&&&%%%%%%%%%%%ooooooooooooo%%%",
"&&&&&&&&&&&%%oooooooooo%%%%%%%%%%%%%&&&&&&&&&&&%%%%%%%%%%%%%%%oooooooooooooooooo",
"&&&&&&&&&&%%%oooooooooooooo%%%%%%%%%%%&&&&&&&%%%%%%%%%%ooooooooooo#########ooooo",
"&&&&&&%%%%%%ooo########ooooooo%%%%%%%%%%%%%%%%%%%%oooooooooooo##################",
"&&&&&%%%%%oooo############oooooooo%%%%%%%%%%%%%%ooooooooo#######################",
"&&&&&%%%%ooo#################oooooooooooo%%%oooooooo############################",
"&&&&%%%oooo######################ooooooooooooooooo##############################",
"&&&&%%ooo##############################ooooooo##################################",
"&&&%%ooo#####                                                      #############",
"&&%%ooo######                                                      ###########  ",
"&&%%Xo#######   ................................................   #########    ",
"&&%ooo#######  . .............................................. .  ########   $*",
"&&%oo########  .. ...OOOOOOOOOOOOOOOOOOOOOOOOOOOOOOOOOOOOOO... ..  #######   $$*",
"&&%oX######o#  ... ...OOOOOOOOOOOOOOOOOOOOOOOOOOOOOOOOOOOO... ...   ####     $$*",
"&&%oX##oo##o#  .... ........................................ ....         @  $$*",
"&&%oX###oo#o#  .....                                        .....  $     $@  $$*",
"&&%oX###oo###  ..O.. +OO  ............................  OO+ ..O..  $$$$$$$@  $$*",
"&&%oX########  ..OO. O+OO  OOOOOOOOOOOOOOOOOOOOOOOOOO  OO+O .OO..  $$$$$$$@  $$*",
"&&%oXX#######  ..OO. OO+OO  OOOOOOOOOOOOOOOOOOOOOOOO  OO+OO .OO..  $$$$$$$@  $$*",
"&&%ooX#######  ..OO.  OO+OO  OOOOOOOOOOOOOOOOOOOOOO  OO+OO  .OO..  $$$$$$$@  $$*",
"&&%%oX#######  ..OO.   OO+OO  OOOOOOOOOOOOOOOOOOOO  OO+OO   .OO..  $*$$*$$@  $$*",
"&&%%oX#######  ..OO. .  OO+OO  OOOOO++++++++OOOOO  OO+OO  . .OO..  $****$$@  $$*",
"&&%%oX#######  ..OO. .O  OO+OO  OOOOO++++++OOOOO  OO+OO  O. .OO..  $****$$@  $$*",
"&&%%oXX######  ..OO. .OO  OO+OO  OOOOOOOOOOOOOO  OO+OO  OO. .OO..  $****$$@  $$*",
"&&%%oXX######  ..OO. .OOO  OO+OO  OOOO++++OOOO  OO+OO  OOO. .OO..  $$**$$$@  $$*",
"&&%%ooX######  ..OO. .OOOO  OO+OO  OOOO++OOOO  OO+OO  OOOO. .OO..  $$$$$$$@  $$*",
"&&%%%oX######  ..OO. .OOOOO  OO+OO  OOOOOOOO  OO+OO  OOOOO. .OO..  $$$$$$$@  $$*",
"&&%%%oX######  ..OO. .OOOOOO  OO+OO  OOOOOO  OO+OO  OOOOOO. .OO..  $$$$$$$@  $$*",
"&&%%%oX######  ..OO. .OOOOOOO  OO+OO  OOOO  OO+OO  OOOOOOO. .OO..  @@@@@@@@  $$*",
"&&&%%oX######  ..OO. .OOOOOOOO  OO            OO  OOOOOOOO. .OO..               ",
"&&&%%oX######  ..OO. .OOOOOOOOO  O  OOOOOOOO  O  OOOOOOOOO. .OO..               ",
"&&&%%oX######  ..OO. .OOOO+OOOOO   O O++++O O   OOOOO+OOOO. .OO..  @@@@@@@@@@@@@",
"&&&%%oX######  ..OO. .OOOO++OOOOO  OO O++O OO  OOOOO++OOOO. .OO..  @@@@@@@@@@@@@",
"&&%%%oX######  ..OO. .OOOO++O+OOOO O+O OO O+O OOOO+O++OOOO. .OO..  $$$$$$$$$$$$$",
"&&%%%oX######  ..OO. .OOOO++O++OOO O++O  O++O OOO++O++OOOO. .OO..  $$$$$$$$$$$$$",
"&&%%%oX######  ..OO. .OOOO++O++OOO O++O  O++O OOO++O++OOOO. .OO..  $$$$$$$$$$$$$",
"&&%%%oX######  ..OO. .OOOO++O+OOOO O+O OO O+O OOOO+O++OOOO. .OO..  $$$$$$$$$$$$$",
"&&%%%oX######  ..OO. .OOOO++OOOOO  OO O++O OO  OOOOO++OOOO. .OO..  @@@@@@@@@@@@@",
"&&%%%oX######  ..OO. .OOOO+OOOOO   O O++++O O   OOOOO+OOOO. .OO..  @@@@@@@@@@@@@",
"&&%%ooX######  ..OO. .OOOOOOOOO  O  OOOOOOOO  O  OOOOOOOOO. .OO..               ",
"&&%%oXX######  ..OO. .OOOOOOOO  OO            OO  OOOOOOOO. .OO..               ",
"&&%%oX#######  ..OO. .OOOOOOO  OO+OO  OOOO  OO+OO  OOOOOOO. .OO..  @@@@@@@@  $$*",
"&&%%oX#######  ..OO. .OOOOOO  OO+OO  OOOOOO  OO+OO  OOOOOO. .OO..  $$$$$$$@  $$*",
"&&%%oX#######  ..OO. .OOOOO  OO+OO  OOOOOOOO  OO+OO  OOOOO. .OO..  $$$$$$$@  $$*",
"&&%%oX#######  ..OO. .OOOO  OO+OO  OOOO++OOOO  OO+OO  OOOO. .OO..  $$$$$$$@  $$*",
"&&%%oX#######  ..OO. .OOO  OO+OO  OOOO++++OOOO  OO+OO  OOO. .OO..  $$**$$$@  $$*",
"&%%ooX#######  ..OO. .OO  OO+OO  OOOOOOOOOOOOOO  OO+OO  OO. .OO..  $****$$@  $$*",
"&%%oX########  ..OO. .O  OO+OO  OOOOO++++++OOOOO  OO+OO  O. .OO..  $****$$@  $$*",
"&%%oX########  ..OO. .  OO+OO  OOOOO++++++++OOOOO  OO+OO  . .OO..  $****$$@  $$*",
"&%%oX########  ..OO.   OO+OO  OOOOOOOOOOOOOOOOOOOO  OO+OO   .OO..  $*$$*$$@  $$*",
"&%%oX########  ..OO.  OO+OO  OOOOOOOOOOOOOOOOOOOOOO  OO+OO  .OO..  $$$$$$$@  $$*",
"&%%oX########  ..OO. OO+OO  OOOOOOOOOOOOOOOOOOOOOOOO  OO+OO .OO..  $$$$$$$@  $$*",
"&%%oX########  ..OO. O+OO  OOOOOOOOOOOOOOOOOOOOOOOOOO  OO+O .OO..  $$$$$$$@  $$*",
"&%%oX########  ..O.. +OO  ............................  OO+ ..O..  $$$$$$$@  $$*",
"&%%oX########  .....                                        .....  $     $@  $$*",
"&%%oX########  .... ........................................ ....         @  $$*",
"&%%oX########  ... ...OOOOOOOOOOOOOOOOOOOOOOOOOOOOOOOOOOOO... ...   ####     $$*",
"&%%oX########  .. ...OOOOOOOOOOOOOOOOOOOOOOOOOOOOOOOOOOOOOO... ..  #######   $$*",
"&%%ooX#######  . .............................................. .  ########   $*",
"&%%%oX#######   ................................................   #########    ",
"&%%%oX#######                                                      ##########   ",
"&&%%ooX######                                                      #############",
"&&%%%oX###########  $$$$$$$$$$$$$@  @@$$$$@@  @$$$$$$$$$$$$$  ##################",
"&&%%%oXX###########  $$$$****$$$$@  @@$$$$@@  @$$$$****$$$$  ###################",
"&&&%%ooX###########  $$$$$****$$$@  @@$$$$@@  @$$$****$$$$$  ####o##############",
"&&&%%%oX###########  $$$$$****$$$@  @@$$$$@@  @$$$****$$$$$  ####o##oo##########",
"&&&%%%oXX##########  $$$$****$$$$@  @@$$$$@@  @$$$$****$$$$  ####o#oo########ooo",
"&&&%%%ooX#########   $$$$$$$$$$$$@  @@$$$$@@  @$$$$$$$$$$$$   #####oo#####oooooo",
"&&&%%%%oX#########  $$$$$$$$$$$$$@  @@$$$$@@  @$$$$$$$$$$$$$  ############oooo%%",
"&&&%%%%oX########  @@@@@@@@@@@@@@@  @@$$$$@@  @@@@@@@@@@@@@@@  ########ooooo%%%%",
"&&&%%%%oX#######                    @@$$$$@@                    ######oooooo%%&&",
"&&&%%%%oo######                     @@$$$$@@                     #####oo%%%%%%&&",
"&&&&%%%oo#####   $$$$$$$$$$$$$$$$$  @@$$$$@@  $$$$$$$$$$$$$$$$$   ####ooo%%%%&&&",
"&&&&&%%oo#####  $$$$$$$$$$$$$$$$$$  @@$$$$@@  $$$$$$$$$$$$$$$$$$  #####oo%%&&&&&",
"&&&&&%%oo#####  ******************  @@$$$$@@  ******************  #####oo%%&&&&&"
};
