/* XPM */
static char *_acf9ebcb63240d8826154298554bbbd4BPvMOv3rhybUt8S[] = {
/* columns rows colors chars-per-pixel */
"60 60 9 1 ",
"  c black",
". c #2A663A",
"X c #4E6353",
"o c #358F4E",
"O c #65806B",
"+ c #BA9865",
"@ c #D4B07B",
"# c #839C88",
"$ c #F5CE93",
/* pixels */
"@@@@@@@@@@@@@@@@+++++++++++++@@@@@@@@@@@@@@@@@@+++++++++@@@@",
"@@@@@@@@@@@@@@++++++++....+++++++@@@@@@@$@@@@@+++++++++++@@@",
"@@$@++++@@@@+++++............++++++++@@@@@@@@@++.......+++@@",
"@@@+++++++++++++......ooooo.....++++++++@@@@+++.........+++@",
"@@++++++++++++.....ooooooooo.........+++++++++...ooooo...++@",
"@@+++............oooooooooooooo.........++++...oooooooo...++",
"@@++..........oooooooooooooooooooooo...........ooooooooo...+",
"@+++...ooooooooooo.oo.oo.oooooooooooooo......oooooooooooo...",
"@+++..ooooooooooooo.o.o.ooooooooooooooooooooooooooooooooo...",
"++....ooooooooooooo.ooo.ooooooooooooooooooooooooo.oo.oo.oooo",
"++....oooo   ooooooooooooooooooooooooooooooooooooo.o.o.ooooo",
"+...oooooo    oooooo    oooooooo    oooooooo    oo.ooo.o    ",
"+..ooooooo  O   ooo      oooooo      oooooo      oooooo     ",
"+..oooooooo  O       ##   oooo   ##   oooo   ##   oooo   ## ",
"+..ooooooooo  OO    O##O        O##O        O##O        O##O",
"+..ooooooooo  OOOOO O##O O    O O##O O    O O##O O    O O##O",
"+..oooooooooo  OOOO O##O OOOOOO O##O OOOOOO O##O OOOOOO O##O",
"+..oooooooooo  OOOO O##O OOOOOO O##O OOOOOO O##O OOOOOO O##O",
"+...ooooooooo  OOOO O##O OOOOOO O##O OOOOOO O##O OOOOOO O##O",
"++..oooooooo        O##O OOOOOO O##O OOOOOO O##O OOOOOO O##O",
"++...oooooo   OOOOOO ##O OOOOOO O##O OOOOOO O##O OOOOOO O##O",
"+++..oooooo  ######## #O OOOOOO O##O OOOOOO O##O OOOOOO O##O",
"@+++..ooooo  ######### O OOOOOO O##O OOOOOO O##O OOOOOO O##O",
"@@++..ooooo   OOOOOOOOO  OOOOOO O##O OOOOOO O##O OOOOOO O##O",
"@@++..oooooo             OOOOOO O##O OOOOOO O##O OOOOOO O##O",
"@@++..oooooooo OOOOOOOOOO OOOOO O##O OOOOOO O##O OOOOOO O##O",
"@@++..oooooooo  OOOOOOOOOO                                  ",
"@@++..o.oo.oo.  OOOOOOOOOO  XXXXXXXXXXXXXXXXXXXXXXXXXXXXXXXX",
"@+++..oo.o.o.o  OOOOOOOOOO X OOOOOOOOOOOOOOOOOOOOOOOOOOOOOOO",
"@+++..oo.ooo.o  OOOOOOOOOO XO OOOOOOOOOOOOOOOOOOOOOOOOOOOOOO",
"@++..oooooooo  OOOOOOOOOOO XOO XXXXXXXXXXXXXXXXXXXXXXXXXXXXX",
"@++..ooooooo               XOOX                             ",
"@++..oooooo   OOOOOOOOOOOO XOOX  ##O OOOOOO O##O OOOOOO O##O",
"@++..oooooo  ############# XOOX # #O OOOOOO O##O OOOOOO O##O",
"@++.ooooooo  ############# XOOX ## O OOOOOO O##O OOOOOO O##O",
"@++..oooooo   OOOOOOOOOOOO XOOX OOO  OOOOOO O##O OOOOOO O##O",
"@++..ooooooo               XOOX      OOOOOO O##O OOOOOO O##O",
"@++..oooooooo  OOOOOOOOOOO XOOX OOOOO OOOOO O##O OOOOOO O##O",
"@++...oooooooo  OOOOOOOOOO XOOX OOOOOO OOOO O##O OOOOOO O##O",
"@+++...ooooooo  OOOOOOOOOO XOOX OOOOOOO OOO O##O OOOOOO O##O",
"@@+++...oooooo  OOOOOOOOOO XOOX OOOOOOOO OO O##O OOOOOO O##O",
"@@@+++..oooooo  OOOOOOOOOO XOOX OOOOOOOOO O O##O OOOOOO O##O",
"@@@@++...oooo  OOOOOOOOOOO XOOX OOOOOOOOOO  O##O OOOOOO O##O",
"@@@@++...ooo               XOOX             O##O O    O O##O",
"@@@@+++..oo   OOOOOOOOOOOO XOOX OOOOOOOOOOOO #OO        O##O",
"@@@@@++..oo  ############# XOOX ############# O   oooo   ## ",
"@@@@@++..oo  ############# XOOX ############OO   oooooo     ",
"$@@@@++..oo   OOOOOOOOOOOO XOOX OOOOOOOOOOOOO   oooooooo    ",
"@@@@@++..ooo               XOOX                ooooooooooooo",
"@@@@@++..oooo  OOOOOOOOOOO XOOX OOOOOOOOOOOO  oooooooooooooo",
"@@@@@++..ooooo  OOOOOOOOOO XOOX OOOOOOOOOOO  oooooooooo.....",
"@@@@@++..ooo.o  OOOOOOOOOO XOOX OOOOOOOOOOO  oooooooo.......",
"@@@@@++..oooo.  OOOOOOOOOO XOOX OOOOOOOOOOO  oooooo......+++",
"@@@@@++..oooo.  OOOOOOOOOO XOOX OOOOOOOOOOO  ooooo.....+++++",
"@@@@@++..oooo  OOOOOOOOOOO XOOX OOOOOOOOOOOO  oooo...++++++@",
"@@@@@++..ooo               XOOX                oo....++++@@@",
"@@@@@++..oo   OOOOOOOOOOOO XOOX OOOOOOOOOOOOO   o...+++@@@@@",
"@@@@@++..oo  ############# XOOX ##############  oo..++@@@@@@",
"@@@$@++..oo  ############# XOOX ##############  oo..++@@@@@@",
"@@@@@++..oo   OOOOOOOOOOOO XOOX OOOOOOOOOOOOO   oo..++@@@@@@"
};
