/* XPM */
static char *result[] = {
/* columns rows colors chars-per-pixel */
"80 80 13 1 ",
"  c black",
". c gray12",
"X c #1F2133",
"o c #2A663A",
"O c #2C2E45",
"+ c #41445C",
"@ c #4E6353",
"# c #358F4E",
"$ c #65806B",
"% c #BA9865",
"& c #D4B07B",
"* c #839C88",
"= c #F5CE93",
/* pixels */
"&&&%%%oo######  ******************  @@$$$$@@  ******************  #####oo%%&&&&&",
"&&&%%%oo######  $$$$$$$$$$$$$$$$$$  @@$$$$@@  $$$$$$$$$$$$$$$$$$  #####oo%%&&&&&",
"&&&%%%oo#######  $$$$$$$$$$$$$$$$$  @@$$$$@@  $$$$$$$$$$$$$$$$$   #####ooo%%%&&&",
"&&&%%ooo#######                     @@$$$$@@                     #######oo%%%%&&",
"&&&%%ooo########                    @@$$$$@@                    ########oooo%%&&",
"&&&%%oo##########  @@@@@@@@@@@@@@@  @@$$$$@@  @@@@@@@@@@@@@@@  ##########ooo%%%%",
"&&%%%oo###########  $$$$$$$$$$$$$@  @@$$$$@@  @$$$$$$$$$$$$$  ############ooo%%%",
"&&%%%oo###########   $$$$$$$$$$$$@  @@$$$$@@  @$$$$$$$$$$$$   #############ooooo",
"&&%%%oo########o###  $$$$****$$$$@  @@$$$$@@  @$$$$****$$$$  ###############oooo",
"&&%%%oo#########o##  $$$$$****$$$@  @@$$$$@@  @$$$****$$$$$  ###################",
"&&%%%oo#########o##  $$$$$****$$$@  @@$$$$@@  @$$$****$$$$$  ###################",
"&&%%%oo#########o##  $$$$****$$$$@  @@$$$$@@  @$$$$****$$$$  ###################",
"&&%%%oo###########  $$$$$$$$$$$$$@  @@$$$$@@  @$$$$$$$$$$$$$  ##################",
"&&%%%oo######                                                      #############",
"&&%%%oo######                                                      ##########   ",
"&&%%%oo######   XXXXXXXXXXXXXXXXXXXXXXXXXXXXXXXXXXXXXXXXXXXXXXXX   #########    ",
"&&&%%oo######  X XXXXXXXXXXXXXXXXXXXXXXXXXXXXXXXXXXXXXXXXXXXXXX X  ########   $*",
"&&&%%oo######  XX XXXOOOOOOOOOOOOOOOOOOOOOOOOOOOOOOOOOOOOOOXXX XX  #######   $$*",
"&&&%%oo######  XXX XXXOOOOOOOOOOOOOOOOOOOOOOOOOOOOOOOOOOOOXXX XXX   ####     $$*",
"&&&&%oo######  XXXX XXXXXXXXXXXXXXXXXXXXXXXXXXXXXXXXXXXXXXXX XXXX         @  $$*",
"&&&&%oo######  XXXXX                                        XXXXX  $     $@  $$*",
"&&&&&oo######  XXOXX +OO  XXXXXXXXXXXXXXXXXXXXXXXXXXXX  OO+ XXOXX  $$$$$$$@  $$*",
"&&&&&oo######  XXOOX O+OO  OOOOOOOOOOOOOOOOOOOOOOOOOO  OO+O XOOXX  $$$$$$$@  $$*",
"&&&&&oo######  XXOOX OO+OO  OOOOOOOOOOOOOOOOOOOOOOOO  OO+OO XOOXX  $$$$$$$@  $$*",
"&&&&&oo######  XXOOX  OO+OO  OOOOOOOOOOOOOOOOOOOOOO  OO+OO  XOOXX  $$$$$$$@  $$*",
"&&&&ooo######  XXOOX   OO+OO  OOOOOOOOOOOOOOOOOOOO  OO+OO   XOOXX  $*$$*$$@  $$*",
"&&&&ooo######  XXOOX X  OO+OO  OOOOO++++++++OOOOO  OO+OO  X XOOXX  $****$$@  $$*",
"&&&&oo#######  XXOOX XO  OO+OO  OOOOO++++++OOOOO  OO+OO  OX XOOXX  $****$$@  $$*",
"&&&ooo#######  XXOOX XOO  OO+OO  OOOOOOOOOOOOOO  OO+OO  OOX XOOXX  $****$$@  $$*",
"&&&oo########  XXOOX XOOO  OO+OO  OOOO++++OOOO  OO+OO  OOOX XOOXX  $$**$$$@  $$*",
"&&&oo########  XXOOX XOOOO  OO+OO  OOOO++OOOO  OO+OO  OOOOX XOOXX  $$$$$$$@  $$*",
"&&&oo########  XXOOX XOOOOO  OO+OO  OOOOOOOO  OO+OO  OOOOOX XOOXX  $$$$$$$@  $$*",
"&&&oo########  XXOOX XOOOOOO  OO+OO  OOOOOO  OO+OO  OOOOOOX XOOXX  $$$$$$$@  $$*",
"&&&oo########  XXOOX XOOOOOOO  OO+OO  OOOO  OO+OO  OOOOOOOX XOOXX  @@@@@@@@  $$*",
"&&&oo########  XXOOX XOOOOOOOO  OO            OO  OOOOOOOOX XOOXX               ",
"&&&oo########  XXOOX XOOOOOOOOO  O  OOOOOOOO  O  OOOOOOOOOX XOOXX               ",
"&&&oo########  XXOOX XOOOO+OOOOO   O O++++O O   OOOOO+OOOOX XOOXX  @@@@@@@@@@@@@",
"&&&ooo#######  XXOOX XOOOO++OOOOO  OO O++O OO  OOOOO++OOOOX XOOXX  @@@@@@@@@@@@@",
"&&&&oo#######  XXOOX XOOOO++O+OOOO O+O OO O+O OOOO+O++OOOOX XOOXX  $$$$$$$$$$$$$",
"&&&&oo#######  XXOOX XOOOO++O++OOO O++O  O++O OOO++O++OOOOX XOOXX  $$$$$$$$$$$$$",
"&&&&oo#######  XXOOX XOOOO++O++OOO O++O  O++O OOO++O++OOOOX XOOXX  $$$$$$$$$$$$$",
"&&&&oo#######  XXOOX XOOOO++O+OOOO O+O OO O+O OOOO+O++OOOOX XOOXX  $$$$$$$$$$$$$",
"&&&&oo#######  XXOOX XOOOO++OOOOO  OO O++O OO  OOOOO++OOOOX XOOXX  @@@@@@@@@@@@@",
"&&&&oo#######  XXOOX XOOOO+OOOOO   O O++++O O   OOOOO+OOOOX XOOXX  @@@@@@@@@@@@@",
"&&&&oo#######  XXOOX XOOOOOOOOO  O  OOOOOOOO  O  OOOOOOOOOX XOOXX               ",
"&&&&oo#######  XXOOX XOOOOOOOO  OO            OO  OOOOOOOOX XOOXX               ",
"&&=&oo#######  XXOOX XOOOOOOO  OO+OO  OOOO  OO+OO  OOOOOOOX XOOXX  @@@@@@@@  $$*",
"&&&&oo#######  XXOOX XOOOOOO  OO+OO  OOOOOO  OO+OO  OOOOOOX XOOXX  $$$$$$$@  $$*",
"&&&&oo#######  XXOOX XOOOOO  OO+OO  OOOOOOOO  OO+OO  OOOOOX XOOXX  $$$$$$$@  $$*",
"&&&&ooo######  XXOOX XOOOO  OO+OO  OOOO++OOOO  OO+OO  OOOOX XOOXX  $$$$$$$@  $$*",
"&&&&&oo######  XXOOX XOOO  OO+OO  OOOO++++OOOO  OO+OO  OOOX XOOXX  $$**$$$@  $$*",
"&&&&&oo######  XXOOX XOO  OO+OO  OOOOOOOOOOOOOO  OO+OO  OOX XOOXX  $****$$@  $$*",
"&&&&&oo######  XXOOX XO  OO+OO  OOOOO++++++OOOOO  OO+OO  OX XOOXX  $****$$@  $$*",
"&&&&&ooo#####  XXOOX X  OO+OO  OOOOO++++++++OOOOO  OO+OO  X XOOXX  $****$$@  $$*",
"&&&&&ooo#####  XXOOX   OO+OO  OOOOOOOOOOOOOOOOOOOO  OO+OO   XOOXX  $*$$*$$@  $$*",
"&&&&%ooo#####  XXOOX  OO+OO  OOOOOOOOOOOOOOOOOOOOOO  OO+OO  XOOXX  $$$$$$$@  $$*",
"&&&&%ooo#####  XXOOX OO+OO  OOOOOOOOOOOOOOOOOOOOOOOO  OO+OO XOOXX  $$$$$$$@  $$*",
"&&&&%%oo#####  XXOOX O+OO  OOOOOOOOOOOOOOOOOOOOOOOOOO  OO+O XOOXX  $$$$$$$@  $$*",
"&&&&%%oo#####  XXOXX +OO  XXXXXXXXXXXXXXXXXXXXXXXXXXXX  OO+ XXOXX  $$$$$$$@  $$*",
"&&&%%%oo#####  XXXXX                                        XXXXX  $     $@  $$*",
"&&&%%%oo#####  XXXX XXXXXXXXXXXXXXXXXXXXXXXXXXXXXXXXXXXXXXXX XXXX         @  $$*",
"&&&%%%oo#####  XXX XXXOOOOOOOOOOOOOOOOOOOOOOOOOOOOOOOOOOOOXXX XXX   #o##     $$*",
"&&&%%%oo#####  XX XXXOOOOOOOOOOOOOOOOOOOOOOOOOOOOOOOOOOOOOOXXX XX  o#o#oo#   $$*",
"&&%%%%oo#####  X XXXXXXXXXXXXXXXXXXXXXXXXXXXXXXXXXXXXXXXXXXXXXX X  o###oo##   $*",
"&&%%%%oo#####   XXXXXXXXXXXXXXXXXXXXXXXXXXXXXXXXXXXXXXXXXXXXXXXX   #########    ",
"&&%%%%oo#####                                                      ##########   ",
"&&%%%%oo#####                                                      #############",
"&&%%%%oo##########  $$$$$$$$$$$$$@  @@$$$$@@  @$$$$$$$$$$$$$ .##################",
"&&&%%%oo###########  $$$$****$$$$@  @@$$$$@@  @$$$$****$$$$  ###################",
"&&&%%%ooo##########  $$$$$****$$$@  @@$$$$@@  @$$$****$$$$$  ###################",
"&&&%%%ooo######o###  $$$$$****$$$@  @@$$$$@@  @$$$****$$$$$  ###################",
"&&&%%%%oo##oo##o###  $$$$****$$$$@  @@$$$$@@  @$$$$****$$$$  ###############oooo",
"&&&&%%%oo###oo#o#o   $$$$$$$$$$$$@  @@$$$$@@  @$$$$$$$$$$$$   ############oooooo",
"&&&&%%%oo###oo###o  $$$$$$$$$$$$$@  @@$$$$@@  @$$$$$$$$$$$$$  ###########ooo%%%%",
"&&&&%%%oo########  @@@@@@@@@@@@@@@  @@$$$$@@  @@@@@@@@@@@@@@@ #########oooo%%%%%",
"&&&&%%%oo#######                    @@$$$$@@                    #######ooo%%%%&&",
"&&&&&%%oo######                     @@$$$$@@                     ######oo%%%%&&&",
"&&&&&%%oo#####   $$$$$$$$$$$$$$$$$  @@$$$$@@  $$$$$$$$$$$$$$$$$   #####oo%%%&&&&",
"&&&&&%%oo#####  $$$$$$$$$$$$$$$$$$  @@$$$$@@  $$$$$$$$$$$$$$$$$$  #####oo%%&&&&&",
"&&&&&%%oo#####  ******************  @@$$$$@@  ******************  #####oo%%&&&&&"
};
