/* XPM */
static char *result[] = {
/* columns rows colors chars-per-pixel */
"80 80 10 1 ",
"  c black",
". c gray12",
"X c #2A663A",
"o c #4E6353",
"O c #358F4E",
"+ c #65806B",
"@ c #BA9865",
"# c #D4B07B",
"$ c #839C88",
"% c #F5CE93",
/* pixels */
"################################################################################",
"################################################################################",
"################################################################################",
"###############################################@@@@@@@####################%#####",
"####################%#####################@@@@@@@@@@@@@@@@@@@@@@@@@#############",
"#########################################@@@@@XXXXXXX@@@@@@@@@@@@@@@@###########",
"@@@@@#########################@@@@@@####@@@XXXXXXXXXXXXX@@@@@@@@@@@@@@##########",
"XX@@@@@@@@@@@@@@@@@@@@@@@@##@@@@@@@@@##@@@XXXXXOOOOOOXXXXXXX@@@@@@@@@@@#########",
"XXX@@@@@@@@@@@@@@@@@@@@@@@@@@@@XXXX@@@@@@XXXOOOOOOOOOOOOXXXXX@@@@@@@@@@#########",
"OXXX@@@@@@@XXXXX@@@@XXXXX@@@@XXXXXXXX@@XXXXOOOOOOOOOOOOOOOOXXXXXXXX@@@@#########",
"OOXXX@@@XXXXXXXXXXXXXXXXXXXXXXXXOOXXXXXXXXOOOOOOOOOOOOOOOOOOXXXXXXXX@@@#########",
"OOOXXXXXXXXXOOOXXXXXXOOOXXXXXOOOOOOOXXXXXOOOOOOOXOOOOOOOOOOOOOOOOOXXX@@@########",
"OOOOOXXXXOOOOOOOOOOOOOOOOOOOOOOOOOOOOOOOOOOOXXOOXOOXXOOOOOOOOOOOOOOXXXX@########",
"OOOOOOOOOOOOOOOOOOOOOOOOOOOOOOOOOOOOOOOOOOOOOXXOOOXXOOOOOOOOOOOOOOOOXXXX########",
"  OOOOOOOOOOOOOOO      OOOOOOOOOOOOOO      OOXXOOOXXOOOOO      OOO    XX########",
"    OOOOOOOOOOOO        OOOOOOOOOOOO        OOOOOOOOOOOO           ++  XX#######",
"$+   OOOOOOOOOO   +$$+   OOOOOOOOOO   +$$+   OOOOOOOOOO   +$$+   ++++$ XX#######",
"$++   OOOOXOOO   ++$$++   OOOOOOOO   ++$$++   OOOOOOOO   ++$$+  ++++$$ XX#######",
"$++     XOXO     ++$$++     OOOO     ++$$++     OOOO     ++$$  ++++$$. XX#######",
"$++  o        o  ++$$++  o        o  ++$$++  o        o  ++$  ++++$$  OXX#######",
"$++  o+     ++o  ++$$++  o++    ++o  ++$$++  o++    ++o  ++  ++++$$  OOXX#######",
"$++  o++++++++o  ++$$++  o++++++++o  ++$$++  o++++++++o  +  ++++$$  OOOXX@######",
"$++  o++++++++o  ++$$++  o++++++++o  ++$$++  o++++++++o    ++++$$  OOOOXX@######",
"$++  o++++++++o  ++$$++  o++++++++o  ++$$++  o++++++++o   ++++$$    OOOXX@@#####",
"$++  o++++++++o  ++$$++  o++++++++o  ++$$++  o++++++++o  ++++$$  oo  OOXX@@#####",
"$++  o++$++$++o  ++$$++  o++$++$++o  ++$$++  o++$++++o  ++++$$        OXX@@@####",
"$++  o++$$$$++o  ++$$++  o++$$$$++o  ++$$++  o++$$++o  ++++$$          XXX@@####",
"$++  o++$$$$++o  ++$$++  o++$$$$++o  ++$$++  o++$++o  ++++$$  +++++++   XX@@@###",
"$++  o++$$$$++o  ++$$++  o++$$$$++o  ++$$++  o++++o  ++++$$  +++++++++  XX@@@###",
"$++  o+++$$+++o  ++$$++  o+++$$+++o  ++$$++  o+++o  ++++$$  $$$$$$$$$$  XX@@@###",
"$++  o++++++++o  ++$$++  o++++++++o  ++$$++  o++o  ++++$$  $$$$$$$$$$$  XX@@@###",
"$++  o++++++++o  ++$$++  o++++++++o  ++$$++  o+o  ++++$$  ++++++++++++  XX@@####",
"$++  o++++++++o  ++$$++  o++++++++o  ++$$++  oo  ++++$$  ++++++++++++   XX@@####",
"$++  oooooooooo  ++$$++  oooooooooo  ++$$++  o  ++++$$                 XX@@@####",
"                                               ++++$$                 OXX@@@####",
"                                              ++++$$  ooooooooooooo  OOXX@@#####",
"ooooooooooooooooooooooooooooooooooooooooooooo +++$$  +++++++++++++  OOOXX@@#####",
"oooooooooooooooooooooooooooooooooooooooooooooo +$$  ++++++++++++++  OOOXX@@#####",
"+++++++++++++++++++++++++++++++++++++++++++++++ $  +++++$$$$$++++  OOOOXX@@@@###",
"++++++++++++++++++++++++++++++++++++++++++++++++  ++++$$$$$$+++++  OOOOXX@@@@###",
"++++++++++++++++++++++++++++++++++++++++++++++++  ++++$$$$$$+++++  OOOOXX@@@@###",
"+++++++++++++++++++++++++++++++++++++++++++++++ $  +++++$$$$$++++  OOOOXXX@@@@##",
"oooooooooooooooooooooooooooooooooooooooooooooo +$$  ++++++++++++++  OOOOXXX@@@##",
"ooooooooooooooooooooooooooooooooooooooooooooo +++$$  +++++++++++++  OOOOOOXX@@##",
"                                              ++++$$  ooooooooooooo  OOOOOXXX@##",
"                                               ++++$$                 OOOOOXX@##",
"$++  oooooooooo  ++$$++  oooooooooo  ++$$++  o  ++++$$                 OOOOXX@##",
"$++  o++++++++o  ++$$++  o++++++++o  ++$$++  oo  ++++$$  ++++++++++++   OOOXX@##",
"$++  o++++++++o  ++$$++  o++++++++o  ++$$++  o+o  ++++$$  ++++++++++++  OOOXX@@#",
"$++  o++++++++o  ++$$++  o++++++++o  ++$$++  o++o  ++++$$  $$$$$$$$$$$  OOOOXX@@",
"$++  o+++$$+++o  ++$$++  o+++$$+++o  ++$$++  o+++o  ++++$$  $$$$$$$$$$  OOOOXXX@",
"$++  o++$$$$++o  ++$$++  o++$$$$++o  ++$$++  o++++o  ++++$$  +++++++++  OOOOOXX@",
"$++  o++$$$$++o  ++$$++  o++$$$$++o  ++$$++  o++$++o  ++++$$  +++++++   OOOOOXX@",
"$++  o++$$$$++o  ++$$++  o++$$$$++o  ++$$++  o++$$++o  ++++$$          OOOOOXX@@",
"$++  o++$++$++o  ++$$++  o++$++$++o  ++$$++  o++$++++o  ++++$$        OOOOOOXX@#",
"$++  o++++++++o  ++$$++  o++++++++o  ++$$++  o++++++++o  ++++$$  oo  OOOOOOOXX@#",
"$++  o++++++++o  ++$$++  o++++++++o  ++$$++  o++++++++o   ++++$$    OOOXOOOXXX@#",
"$++  o++++++++o  ++$$++  o++++++++o  ++$$++  o++++++++o    ++++$$  OOOOOXOOXX@@#",
"$++  o++++++++o  ++$$++  o++++++++o  ++$$++  o++++++++o  +  ++++$$  OOOOXOOXX@##",
"$++  o+     ++o  ++$$++  o++    ++o  ++$$++  o++    ++o  ++  ++++$$  OOOOOOXX@##",
"$++  o        o  ++$$++  o        o  ++$$++  o        o  ++$  ++++$$  OOOOOXX@##",
"$++     OOOO     ++$$++     OOOO     ++$$++     OOOO     ++$$  ++++$$. OOOOXX@##",
"$++   OOOOOOOO   ++$$++   OOOOOOOO   ++$$++   OOOOOOOO   ++$$+  ++++$$ OOOOXX@##",
"$+   OOOOOOOOOO   +$$+   OOOOOOOOOO   +$$+   OOOOOOOOOO   +$$+   ++++$ OOOXXX@##",
"    OOOOOOOOOOOO        OOOOOOOOOOOO        OOOOOOOOOOOO           ++  OOXXX@@##",
"   OOOOXOOOOOOOOO      OOOOOOOOOOOOOO      OOOOOOOOOOOOOO      OOO    OXXXX@@###",
"OOOXXOOXOOXXOOOOOOOOOOOOOOOOOOOOOOOOOOOOOOOOOOOOOOOOOOOOOOOOOOOOOOOOOOXXX@@@####",
"OOOOXXOXOXXOOOOOOOOOOOOOOOOOXXXXXXOOOOOOOOOOOOOOOOOOOOOOOOOOOOOOOOOOOOXX@@@#####",
"OOOOXXOOOXXOOOOOOOOOOOOOOXXXXXXXXXXOOOOOOOOOXXXXXXXXXXOOOOOOOOOOOOOOOXX@@#######",
"OOOOOOOOOOOOOOOOOOOXXXXXXXXXX@@@@XXXOOXXXXXXXXXXXXXXXXXXXOOOOOOOOOOOXXX@########",
"OOOOOOOOOOOOOOOOOXXXXXXXXX@@@@@@@@XXXXXXXXXXX@@@@@@@@@XXXXXXOOOOOOOXXX@@########",
"XXXXOOOOOOOOXXXXXXXXX@@@@@@@@@@@@@@XXXX@@@@@@@@@@@@@@@@@XXXXXXXXXXXXX@@@########",
"XXXXXXXXXXXXXXXXXX@@@@@@@@@@@@@@@@@@@@@@@@@@@@@@@@@@@@@@@@@XXXXXXXX@@@##########",
"@@XXXXXXXXXXXXX@@@@@@@@@@@@#####@@@@@@@@@@@##############@@@@@@@@@@@@###########",
"@@@@@@@@@@@@@@@@@@@@@@@@@########################################@@@########%###",
"#@@@@@@@@@@@@@@@@@@@@@@#########################################################",
"###############@@@@@@###########################################################",
"################################################################################",
"#####%##########################################################################",
"################################################################################"
};
