/* XPM */
static char *Sw__[] = {
/* columns rows colors chars-per-pixel */
"60 60 7 1 ",
"  c #0D171F",
". c #3D1D16",
"X c #452113",
"o c #573129",
"O c #2E4659",
"+ c #EBC48A",
"@ c #F5D9A6",
/* pixels */
"ooooO                                                  OooX.",
"ooooO                                                  OooX.",
"OOOOO                                                  OooX.",
"                                                       OooX.",
"                                                       OooX.",
"                                                       OooX.",
"                                                       OooX.",
"                                                       OooX.",
"OOOOOOOOOOOOOOOOOOOOOOOOOOOOOOOOOOOOOOOOOOOOOOOOOOOOOOOOooX.",
"ooooooooooooooooooooooooooooooooooooooooooooooooooooooooooX.",
"ooooooooooooooooooooooooooooooooooooooooooooooooooooooooooX.",
"XXXXXXXXXXXXXXXXXXXXXXXXXXXXXXXXXXXXXXXXXXXXXXXXXXXXXXXXXXX.",
"..XXX.XX.XXX..XXXXX.XXX...XXXX..XXX..XXX..XXXXX.XXXX......X.",
"+++++++++XX++++++++++++++++++++++++++++++++++++++@@+++++++X.",
"+++@+++@@XX++++@@++++++@@+@++++++@@@@@@@@@@@@@@@@@@+++@+++X.",
"@@@@@@@@@XX++@@@@@@@@@@@@@@@@@@@@@@@@@@@@@@@@@@@@@@@@@@@@@X.",
"@@@@@@@@@XX++@@@@@@@@@@@@@@@@@@@@@@@@@@@@@@@@@@@@@@@@@@@@@X.",
"@@@@@@@@@XX+@@@@@@@@@@@@@@@@@@@@@@@@@@@@@@@@@@@@@@@@@@@@@@X.",
"@@@@@@@@@XX+@@@@@@@@@@@@@@@@@@@@@@@@@@@@@@@@@@@@@@@@@@@@@@X.",
"@@@@@@@@@XX+@@@@@@@@@@@@@@@@@@@@@@@@@@@@@@@@@@@@@@@@@@@@@@X.",
"@@@@@@@@@XX+@@@@@@@@@@@@@@@@@@@@@@@@@@@@@@@@@@@@@@@@@@@@@@X.",
"@@@@@@@@@XX+@@@@@@@@@@@@@@@@@@@@@@@@@@@@@@@@@@@@@@@@@@@@@@X.",
"XXXXXXXXXXXXXXXXXXXXXXXXXXXXXXXXXXXXXXXXXXXXXXXXXXXXXXXXXXX.",
"XX.X.....X....X.X...XXX...XXXX...XXX...XX...XXXX.X..XXXX..X.",
"+++++++++.X+++++++++++++++++++++++++++++++++++++++++++++++X.",
"+++@@@@+@.X+++++++++@@@++@++++++++@@@++++@@@+@@+++@+++++@+X.",
"@+++++@@@.X++@+++++@@+++++++++++++@+++@+++++++@+++++@@+@+@X.",
"++++@@@@@XX++++++@++++++++@@@@@@@@@@@@@@@@@@@@@@@@@@@@@@@@X.",
"@@@@@@@@@XX+@++++++@++++@@@@@@@@@@@@@@@@@@@@@@@@@@@@@@@@@@X.",
"@@@@@@@@@XX+++++++@@@@@@@@@@@@@@@@@@@@@@@@@@@@@@@@@@@@@@@@X.",
"@@@@@@@@@X.+++++@@@@@@@@@@@@@@@@@@@@@@@@@@@@@@@@@@@@@@@@@@X.",
"@@@@@@@@@.X+++++@@@@@@@@@@@@@@@@@@@@@@@@@@@@@@@@@@@@@@@@@@X.",
"@@@@@@@@@.X++@+@@@@@@@@@@@@@@@@@@@@@@@@@@@@@@@@@@@@@@@@@@@X.",
"@@@@@@@@@XX+@@@@@@@@@@@@@@@@@@@@@@@@@@@@@@@@@@@@@@@@@@@@@@X.",
"@@@@@@@@@X.+@+@@@@@@@@@@@@@@@@@@@@@@@@@@@@@@@@@@@@@@@@@@@@X.",
"@@@@@@@@@..+@+@@@@@@@@@@@@@@@@@@@@@@@@@@@@@@@@@@@@@@@@@@@@X.",
"@@@@@@@@@X.+++@@@@@@@@@@@@@@@@@@@@@@@@@@@@@@@@@@@@@@@@@@@@X.",
"@@@@@@@@@XX+++@@@@@@@@@@@@@@@@@@@@@@@@@@@@@@@@@@@@@@@@@@@@X.",
"@@@@@@@@@.X++@@@@@@@@@@@@@@@@@@@@@@@@@@@@@@@@@@@@@@@@@@@@@X.",
"@@@@@@@@@.X+++@@@@@@@@@@@@@@@@@@@@@@@@@@@@@@@@@@@@@@@@@@@@X.",
"@@@@@@@@@.X+@+@@@@@@@@@@@@@@@@@@@@@@@@@@@@@@@@@@@@@@@@@@@@X.",
"@@@@@@@@@.X+@+@@@@@@@@@@@@@@@@@@@@@@@@@@@@@@@@@@@@@@@@@@@@X.",
"@@@@@@@@@X.+++@@@@@@@@@@@@@@@@@@@@@@@@@@@@@@@@@@@@@@@@@@@@X.",
"@@@@@@@@@.X+@+@@@@@@@@@@@@@@@@@@@@@@@@@@@@@@@@@@@@@@@@@@@@X.",
"@@@@@@@@@XX+++@@@@@@@@@@@@@@@@@@@@@@@@@@@@@@@@@@@@@@@@@@@@X.",
"@@@@@@@@@XX+++@@@@@@@@@@@@@@@@@@@@@@@@@@@@@@@@@@@@@@@@@@@@X.",
"@@@@@@@@@X.+++@@@@@@@@@@@@@@@@@@@@@@@@@@@@@@@@@@@@@@@@@@@@X.",
"@@@@@@@@@XX+@@@@@@@@@@@@@@@@@@@@@@@@@@@@@@@@@@@@@@@@@@@@@@X.",
"@@@@@@@@@XX+@+@@@@@@@@@@@@@@@@@@@@@@@@@@@@@@@@@@@@@@@@@@@@X.",
"@@@@@@@@@XX+@+@@@@@@@@@@@@@@@@@@@@@@@@@@@@@@@@@@@@@@@@@@@@X.",
"@@@@@@@@@X.+++@@@@@@@@@@@@@@@@@@@@@@@@@@@@@@@@@@@@@@@@@@@@X.",
"@@@@@@@@@.X+++@@@@@@@@@@@@@@@@@@@@@@@@@@@@@@@@@@@@@@@@@@@@X.",
"@@@@@@@@@.X++@@@@@@@@@@@@@@@@@@@@@@@@@@@@@@@@@@@@@@@@@@@@@X.",
"@@@@@@@@@.X+++@@@@@@@@@@@@@@@@@@@@@@@@@@@@@@@@@@@@@@@@@@@@X.",
"@@@@@@@@@.X+++@@@@@@@@@@@@@@@@@@@@@@@@@@@@@@@@@@@@@@@@@@@@X.",
"@@@@@@@@@.X+++@@@@@@@@@@@@@@@@@@@@@@@@@@@@@@@@@@@@@@@@@@@@X.",
"XXXXXXXXX.XXXXXXXXXXXXXXXXXXXXXXXXXXXXXXXXXXXXXXXXXXXXXXXXX.",
"XXXXXXXXX..XXXXXXXXXXXXXXXXXXXXXXXXXXXXXXXXXXXXXXX.XXXXXXXX.",
"X......XXX.X..XXXX......XXX.XX..XXXXX....XX...XX...XX...XXX.",
"............XXXX....XX...XXX......XXXXXXXXXX........XX.X.X.."
};
