/* XPM */
static char *_b8fd04e8bd040f69984c276171866del5bVcVIhPKZtcu5d[] = {
/* columns rows colors chars-per-pixel */
"60 60 9 1 ",
"  c black",
". c #2A663A",
"X c #4E6353",
"o c #358F4E",
"O c #65806B",
"+ c #BA9865",
"@ c #D4B07B",
"# c #839C88",
"$ c #F5CE93",
/* pixels */
"@@@@@@@@@@@@@@@@@@@@@@@@@@@@@$@@@@@@@@@@@@@@@@@@@@@@@@@@@$@@",
"@@@@@@@@$@@@@@@@@@@@@@@@@@@@@@@@@@@@@@@@@@@@@@@@@@@@@@@@@@@@",
"@@@@@@@@@@@@@@@@@@@@@@@@@@@@@@@@@@@@@@@@$@@@@@@@@@@@@@@@@@@@",
"@@++++@@@@@@@@@@@@@$@@@@@@@@@@@@@@@@@@@@@@@@@@@++++++@@@@@@@",
"@++++++++++++@@@@@@@@@@@@@@@@@++++++++@@@@@@@@+++++++++++++@",
"++.....++++++++@@@@@@@@@@@+++++++++++++@@@@@+++......+++++++",
"+............++++++++++++++++++......+++++++++............++",
"...ooo........++++++++++...................+....oooo........",
"..ooooo...oo...................oooooo...........ooooooooo...",
"ooooooooooooo...........ooooooooooooooooo....oooo.oo.oo.oooo",
"oooooooooooooooooooooooooooooooooooooooooooooooooo.o.o.ooooo",
".oo.oo.o    oooooooo    oo.oo.oo    oooooooo    oo.ooo.o    ",
" .o.o.o      oooooo      o.o.oo      oooooo      oooooo     ",
"  ooo.   ##   oooo   ##   oo.o   ##   oooo   ##   oooo   ## ",
"        O##O        O##O        O##O        O##O        O##O",
" O    O O##O O    O O##O O    O O##O O    O O##O O    O O##O",
" OOOOOO O##O OOOOOO O##O OOOOOO O##O OOOOOO O##O OOOOOO O##O",
" OOOOOO O##O OOOOOO O##O OOOOOO O##O OOOOOO O##O OOOOOO O##O",
" OOOOOO O##O OOOOOO O##O OOOOOO O##O OOOOOO O##O OOOOOO O##O",
" OOOOOO O##O OOOOOO O##O OOOOOO O##O OOOOOO O##O OOOOOO O##O",
" OOOOOO O##O OOOOOO O##O OOOOOO O##O OOOOOO O##O OOOOOO O##O",
" OOOOOO O##O OOOOOO O##O OOOOOO O##O OOOOOO O##O OOOOOO O##O",
" OOOOOO O##O OOOOOO O##O OOOOOO O##O OOOOOO O##O OOOOOO O##O",
" OOOOOO O##O OOOOOO O##O OOOOOO O##O OOOOOO O##O OOOOOO O##O",
" OOOOOO O##O OOOOOO O##O OOOOOO O##O OOOOOO O##O OOOOOO O##O",
" OOOOOO O##O OOOOOO O##O OOOOOO O##O OOOOOO O##O OOOOOO O##O",
"                                                            ",
"XXXXXXXXXXXXXXXXXXXXXXXXXXXXXXXXXXXXXXXXXXXXXXXXXXXXXXXXXXXX",
"OOOOOOOOOOOOOOOOOOOOOOOOOOOOOOOOOOOOOOOOOOOOOOOOOOOOOOOOOOOO",
"OOOOOOOOOOOOOOOOOOOOOOOOOOOOOOOOOOOOOOOOOOOOOOOOOOOOOOOOOOOO",
"XXXXXXXXXXXXXXXXXXXXXXXXXXXXXXXXXXXXXXXXXXXXXXXXXXXXXXXXXXXX",
"                                                            ",
" OOOOOO O##O OOOOOO O##O OOOOOO O##O OOOOOO O##O OOOOOO O##O",
" OOOOOO O##O OOOOOO O##O OOOOOO O##O OOOOOO O##O OOOOOO O##O",
" OOOOOO O##O OOOOOO O##O OOOOOO O##O OOOOOO O##O OOOOOO O##O",
" OOOOOO O##O OOOOOO O##O OOOOOO O##O OOOOOO O##O OOOOOO O##O",
" OOOOOO O##O OOOOOO O##O OOOOOO O##O OOOOOO O##O OOOOOO O##O",
" OOOOOO O##O OOOOOO O##O OOOOOO O##O OOOOOO O##O OOOOOO O##O",
" OOOOOO O##O OOOOOO O##O OOOOOO O##O OOOOOO O##O OOOOOO O##O",
" OOOOOO O##O OOOOOO O##O OOOOOO O##O OOOOOO O##O OOOOOO O##O",
" OOOOOO O##O OOOOOO O##O OOOOOO O##O OOOOOO O##O OOOOOO O##O",
" OOOOOO O##O OOOOOO O##O OOOOOO O##O OOOOOO O##O OOOOOO O##O",
" O    O O##O O    O O##O OOOOOO O##O OOOOOO O##O OOOOOO O##O",
"        O##O        O##O O    O O##O O    O O##O O    O O##O",
"  oooo   ##   oooo   ##         O##O        O##O        O##O",
" oooooo      oooooo       oooo   ##   oooo   ##   oooo   ## ",
"oooooooo    oooooooo     o.oooo      oooooo      oooooo     ",
"ooooooooooooooooooooooooooo.o.o.    oooooooo    oooooooo    ",
"...oooooooooooooooooooooooo.o.o.oooooooooooooooooooooooo.oo.",
"...oooooo.oo.oo.oooooooooooooooooooooooo.....ooooooooooooooo",
"+..ooooooo.o.o.oooooo....ooooooooooooooo............oooo....",
"+....ooooo.ooo.ooooo......ooooo.....ooo...++................",
"@+.......ooooooooo........................+++++++++.......++",
"@+++.....oooooo......+++++......+++.....++++++++++++++++++++",
"@@+++++..ooooo....+++++++++++++++++++++++@@@@@@@@+++++++++@@",
"@@@@@++....oo...+++++@@@@@@+++++@@@@++++@@@@@@@@@@@@@@@@@@@@",
"@@@@@@++.......+++++@@@@@@@@@@@@@@@@@@@@@@@@@@@@@@@@$@@@@@@@",
"@@$@@@@+++....++@@@@@@$@@@@@@@@@@@@@@@@@@@@@@@@@@@@@@@@@@@@@",
"@@@@@@@@+++++++@@@@@@@@@@@@@@@@@@@@@@@@@@@@@@@@@@@@@@@@@@@@@",
"@@@@@@@@@+++++@@@@@@@@@@@@@@@@@@@@@@@@@@@@@@$@@@@@@@@@@@@@@@"
};
