/* XPM */
static char *result[] = {
/* columns rows colors chars-per-pixel */
"80 80 9 1 ",
"  c black",
". c #2A663A",
"X c #4E6353",
"o c #358F4E",
"O c #65806B",
"+ c #BA9865",
"@ c #D4B07B",
"# c #839C88",
"$ c #F5CE93",
/* pixels */
"@@@@@@@@@@@@@@@@@@@@@@@@@@@@@@@@@@@@@@@@@@@@@@@@@@@@@@@@@@@@@@@@@@@@@@@@@@@@@@@@",
"@@@@@@@@@@@@@@@@@@@@@@@@@@@@@@@@@@@@@+++++++@@@@@@@@@@@@@@@@@@@@@@@@@@@@@@@@@@@@",
"@@@@@@@@@@@@@@@@@@@@@@@@@@@@@@@@@@@@+++++++++@@@@@@@@@@@@@@@@@@@@@@@@@@@@@@@@@@@",
"@@@@@@@@@@@@@@@@@$@@@@@@@@@@@@@@@@+++++....+++++@@@@@@@@@@@@@@@@@@@@@@@@@@@@@@@@",
"+++++++++@@@@@@@@@@@@@@@@@@@@@@@@@+++........++++++@@@@@@@@$@@@@@@@@@@@@@@@@@@@@",
"+++++++++++++@@@@@@@@@@@@@@@@@@+++++....oo....+++++++@@@@@@@@@@@@@@@@@@@@@@@@@@+",
"+++.....++++++++++@@@@@@@@@@@+++++....oooooo..+++++++++++++@@@@@@@@@@@@@@@@+++++",
"..........+++++++++++++++++++++++....oooooooo..++++++++++++++++++++++++++++++++.",
"...oooo......++++++++++++++++++....ooooooo.oo....+++++++++++++++++++++++++++++..",
"ooooooooo.......++++.....++++.....ooooooooo.oo.....++++.....++++.....+++++++...o",
"oooooooooooo....................ooooooooooo.oooo........................+++....o",
"ooooooooooooooo......ooo.....oooooooooooooooooooooo.....ooo......ooo.........ooo",
"oooooo.oooooooooooooooooooooooooooooooooooooooooooooooooooooooooooooooo....ooooo",
"oo..oo.oo..ooooooooooooooooooooooooooooooooooooooooooooooooooooooooooooooooooooo",
"   ..o.o..ooooooo      ooooooo.oooooo      oooooooooooooo      ooooooooooooooo  ",
"    .ooo..oooooo        ooooo.oooooo        oooooooooooo        oooooooooooo    ",
"#O   oooooooooo   O##O   oooo.ooooo   O##O   oooooooooo   O##O   oooooooooo   O#",
"#OO   oooooooo   OO##OO   oooooooo   OO##OO   oooooooo   OO##OO   ooo.oooo   OO#",
"#OO     oooo     OO##OO     oooo     OO##OO     oooo     OO##OO     o.o.     OO#",
"#OO  X        X  OO##OO  X        X  OO##OO  X        X  OO##OO  X        X  OO#",
"#OO  XO     OOX  OO##OO  XOO    OOX  OO##OO  XOO    OOX  OO##OO  XOO     OX  OO#",
"#OO  XOOOOOOOOX  OO##OO  XOOOOOOOOX  OO##OO  XOOOOOOOOX  OO##OO  XOOOOOOOOX  OO#",
"#OO  XOOOOOOOOX  OO##OO  XOOOOOOOOX  OO##OO  XOOOOOOOOX  OO##OO  XOOOOOOOOX  OO#",
"#OO  XOOOOOOOOX  OO##OO  XOOOOOOOOX  OO##OO  XOOOOOOOOX  OO##OO  XOOOOOOOOX  OO#",
"#OO  XOOOOOOOOX  OO##OO  XOOOOOOOOX  OO##OO  XOOOOOOOOX  OO##OO  XOOOOOOOOX  OO#",
"#OO  XOO#OO#OOX  OO##OO  XOO#OO#OOX  OO##OO  XOO#OO#OOX  OO##OO  XOO#OO#OOX  OO#",
"#OO  XOO####OOX  OO##OO  XOO####OOX  OO##OO  XOO####OOX  OO##OO  XOO####OOX  OO#",
"#OO  XOO####OOX  OO##OO  XOO####OOX  OO##OO  XOO####OOX  OO##OO  XOO####OOX  OO#",
"#OO  XOO####OOX  OO##OO  XOO####OOX  OO##OO  XOO####OOX  OO##OO  XOO####OOX  OO#",
"#OO  XOOO##OOOX  OO##OO  XOOO##OOOX  OO##OO  XOOO##OOOX  OO##OO  XOOO##OOOX  OO#",
"#OO  XOOOOOOOOX  OO##OO  XOOOOOOOOX  OO##OO  XOOOOOOOOX  OO##OO  XOOOOOOOOX  OO#",
"#OO  XOOOOOOOOX  OO##OO  XOOOOOOOOX  OO##OO  XOOOOOOOOX  OO##OO  XOOOOOOOOX  OO#",
"#OO  XOOOOOOOOX  OO##OO  XOOOOOOOOX  OO##OO  XOOOOOOOOX  OO##OO  XOOOOOOOOX  OO#",
"#OO  XXXXXXXXXX  OO##OO  XXXXXXXXXX  OO##OO  XXXXXXXXXX  OO##OO  XXXXXXXXXX  OO#",
"                                                                                ",
"                                                                                ",
"XXXXXXXXXXXXXXXXXXXXXXXXXXXXXXXXXXXXXXXXXXXXXXXXXXXXXXXXXXXXXXXXXXXXXXXXXXXXXXXX",
"XXXXXXXXXXXXXXXXXXXXXXXXXXXXXXXXXXXXXXXXXXXXXXXXXXXXXXXXXXXXXXXXXXXXXXXXXXXXXXXX",
"OOOOOOOOOOOOOOOOOOOOOOOOOOOOOOOOOOOOOOOOOOOOOOOOOOOOOOOOOOOOOOOOOOOOOOOOOOOOOOOO",
"OOOOOOOOOOOOOOOOOOOOOOOOOOOOOOOOOOOOOOOOOOOOOOOOOOOOOOOOOOOOOOOOOOOOOOOOOOOOOOOO",
"OOOOOOOOOOOOOOOOOOOOOOOOOOOOOOOOOOOOOOOOOOOOOOOOOOOOOOOOOOOOOOOOOOOOOOOOOOOOOOOO",
"OOOOOOOOOOOOOOOOOOOOOOOOOOOOOOOOOOOOOOOOOOOOOOOOOOOOOOOOOOOOOOOOOOOOOOOOOOOOOOOO",
"XXXXXXXXXXXXXXXXXXXXXXXXXXXXXXXXXXXXXXXXXXXXXXXXXXXXXXXXXXXXXXXXXXXXXXXXXXXXXXXX",
"XXXXXXXXXXXXXXXXXXXXXXXXXXXXXXXXXXXXXXXXXXXXXXXXXXXXXXXXXXXXXXXXXXXXXXXXXXXXXXXX",
"                                                                                ",
"                                                                                ",
"#OO  XXXXXXXXXX  OO##OO  XXXXXXXXXX  OO##OO  XXXXXXXXXX  OO##OO  XXXXXXXXXX  OO#",
"#OO  XOOOOOOOOX  OO##OO  XOOOOOOOOX  OO##OO  XOOOOOOOOX  OO##OO  XOOOOOOOOX  OO#",
"#OO  XOOOOOOOOX  OO##OO  XOOOOOOOOX  OO##OO  XOOOOOOOOX  OO##OO  XOOOOOOOOX  OO#",
"#OO  XOOOOOOOOX  OO##OO  XOOOOOOOOX  OO##OO  XOOOOOOOOX  OO##OO  XOOOOOOOOX  OO#",
"#OO  XOOO##OOOX  OO##OO  XOOO##OOOX  OO##OO  XOOO##OOOX  OO##OO  XOOO##OOOX  OO#",
"#OO  XOO####OOX  OO##OO  XOO####OOX  OO##OO  XOO####OOX  OO##OO  XOO####OOX  OO#",
"#OO  XOO####OOX  OO##OO  XOO####OOX  OO##OO  XOO####OOX  OO##OO  XOO####OOX  OO#",
"#OO  XOO####OOX  OO##OO  XOO####OOX  OO##OO  XOO####OOX  OO##OO  XOO####OOX  OO#",
"#OO  XOO#OO#OOX  OO##OO  XOO#OO#OOX  OO##OO  XOO#OO#OOX  OO##OO  XOO#OO#OOX  OO#",
"#OO  XOOOOOOOOX  OO##OO  XOOOOOOOOX  OO##OO  XOOOOOOOOX  OO##OO  XOOOOOOOOX  OO#",
"#OO  XOOOOOOOOX  OO##OO  XOOOOOOOOX  OO##OO  XOOOOOOOOX  OO##OO  XOOOOOOOOX  OO#",
"#OO  XOOOOOOOOX  OO##OO  XOOOOOOOOX  OO##OO  XOOOOOOOOX  OO##OO  XOOOOOOOOX  OO#",
"#OO  XOOOOOOOOX  OO##OO  XOOOOOOOOX  OO##OO  XOOOOOOOOX  OO##OO  XOOOOOOOOX  OO#",
"#OO  XO     OOX  OO##OO  XOO    OOX  OO##OO  XOO    OOX  OO##OO  XOO     OX  OO#",
"#OO  X        X  OO##OO  X        X  OO##OO  X        X  OO##OO  X        X  OO#",
"#OO     oooo     OO##OO     oooo     OO##OO     oooo     OO##OO     oooo     OO#",
"#OO   oooooooo   OO##OO   oooooooo   OO##OO   oooooooo   OO##OO   oooooooo   OO#",
"#O   oooooooooo   O##O   oooooooooo   O##O   ooo.oooooo   O##O   oooooooooo   O#",
"    oooooooooooo        oooooooooooo        ooooo.oooooo        oooooooooooo    ",
"   oooooooooooooo      oooooooooooooo      oooooo.ooooooo      .oo..ooooooooo   ",
"oooooooooooooooooooooooooooooooooooooooooooooooooooooooooooo..o.o..ooooooooooooo",
"ooooooooooooooo.oooooooooooo......oooooooooooo......oooooooo..ooo..ooooooooooooo",
"ooooooooooo..oo.oo..ooooo...........ooooooooo..........ooooooooooooooooooooooooo",
"oooooooooooo..o.o..oooo......++++.........oo...++++......ooooooooooooooooooooooo",
"oooooooooooo..ooo..oo.....+++++++++...........++++++++.....ooooooooooooooooooooo",
".ooooooooooooooooooo....+++++++++++++++++....+++++++++++....oooooooooooooooo....",
"..ooooooooooooooooo....++++++++++++++++++++++++++++++++++....oo.................",
"+....ooooooooooooo...++++++++++@@@@@@+++++++++++@@@@@++++++...................++",
"++.......ooooooo....+++++++++@@@@@@@@@@@@@@@@@@@@@@@@@@+++++....++++++++++++++++",
"@++++..............++++++++@@@@$@@@@@@@@@@@@@@@@@@@@@@@@@++++++++++++++++++++++@",
"@@++++++.........+++++@@@@@@@@@@@@@@@@@@@@@@@@@@@@@@@@@@@@@++++++@@@@@@@@@@@@@@@",
"@@@@+++++++++++++++++@@@@@@@@@@@@@@@@@@@@@@@@@@@@@@@@@@@@@@@@@@@@@@@@@@@@@@@@@@@",
"@@@@@@@+++++++++++@@@@@@@@@@@@@@@@@@@@@@@@@@@@@@@@@@@@@@@@@@@@@@@@@@@@@@@@$@@@@@",
"@@@@@@@@@@@@@@@@@@@@@@@@@@@@@@@@@@@@@@@@@@@@@@@@@@@@@@@@@@@@@@@@@@@@@@@@@@@@@@@@"
};
