/* XPM */
static char *TA__[] = {
/* columns rows colors chars-per-pixel */
"60 60 7 1 ",
"  c #0D171F",
". c #3D1D16",
"X c #452113",
"o c #573129",
"O c #2E4659",
"+ c #EBC48A",
"@ c #F5D9A6",
/* pixels */
"ooooO                                                  Ooooo",
"ooooO                                                  Ooooo",
"OOOOO                                                  OOOOO",
"                                                            ",
"                                                            ",
"                                                            ",
"                                                            ",
"                                                            ",
"OOOOOOOOOOOOOOOOOOOOOOOOOOOOOOOOOOOOOOOOOOOOOOOOOOOOOOOOOOOO",
"oooooooooooooooooooooooooooooooooooooooooooooooooooooooooooo",
"oooooooooooooooooooooooooooooooooooooooooooooooooooooooooooo",
"XXXXXXXXXXXXXXXXXXXXXXXXXXXXXXXXXXXXXXXXXXXXXXXXXXXXXXXXXXXX",
"..XXX.XX.XXX..XXXXX.XXX...XXXX..XXX..XXX..XXXXX.XXXX.......X",
"+++++++++XX++++++++++++++++++++++++++++++++++++++XX+++++++++",
"+++@+++@@XX++++@@++++++@@+@++++++@@@@@@@@@@@@@@@@XX+++@+++@@",
"@@@@@@@@@XX++@@@@@@@@@@@@@@@@@@@@@@@@@@@@@@@@@@@@XX++@@@@@@@",
"@@@@@@@@@XX++@@@@@@@@@@@@@@@@@@@@@@@@@@@@@@@@@@@@XX++@@@@@@@",
"@@@@@@@@@XX+@@@@@@@@@@@@@@@@@@@@@@@@@@@@@@@@@@@@@XX+@@@@@@@@",
"@@@@@@@@@XX+@@@@@@@@@@@@@@@@@@@@@@@@@@@@@@@@@@@@@XX+@@@@@@@@",
"@@@@@@@@@XX+@@@@@@@@@@@@@@@@@@@@@@@@@@@@@@@@@@@@@XX+@@@@@@@@",
"@@@@@@@@@XX+@@@@@@@@@@@@@@@@@@@@@@@@@@@@@@@@@@@@@XX+@@@@@@@@",
"@@@@@@@@@XX+@@@@@@@@@@@@@@@@@@@@@@@@@@@@@@@@@@@@@XX+@@@@@@@@",
"XXXXXXXXXXXXXXXXXXXXXXXXXXXXXXXXXXXXXXXXXXXXXXXXXXXXXXXXXXXX",
"XX.X.....X....X.X...XXX...XXXX...XXX...XX...XXXX.X..XXXX....",
"+++++++++.X++++++++++++++++++++++++++++++++++++++XX+++++++++",
"+++@@@@+@.X+++++++++@@@++@++++++++@@@++++@@@+@@++.X+++++@+++",
"@+++++@@@.X++@+++++@@+++++++++++++@+++@+++++++@@@.X++++++@+@",
"@@@@@@@@@XX++++++@++++++++@@@@@@@@@@@@@@@@@@@@@@@..+++++++@+",
"@@@@@@@@@XX+@++++++@++++@@@@@@@@@@@@@@@@@@@@@@@@@X.+@++@@@@@",
"@@@@@@@@@XX+++++++@@@@@@@@@@@@@@@@@@@@@@@@@@@@@@@X.+@++@@@@@",
"@@@@@@@@@X.+++++@@@@@@@@@@@@@@@@@@@@@@@@@@@@@@@@@XX+++@@@@@@",
"@@@@@@@@@.X+++++@@@@@@@@@@@@@@@@@@@@@@@@@@@@@@@@@XX+++@@@@@@",
"@@@@@@@@@.X++@+@@@@@@@@@@@@@@@@@@@@@@@@@@@@@@@@@@XX+++@@@@@@",
"@@@@@@@@@XX+@@@@@@@@@@@@@@@@@@@@@@@@@@@@@@@@@@@@@.X+++@@@@@@",
"@@@@@@@@@X.+@+@@@@@@@@@@@@@@@@@@@@@@@@@@@@@@@@@@@.X++@@@@@@@",
"@@@@@@@@@..+@+@@@@@@@@@@@@@@@@@@@@@@@@@@@@@@@@@@@XX+++@@@@@@",
"@@@@@@@@@X.++++@@@@@@@@@@@@@@@@@@@@@@@@@@@@@@@@@@.X+@+@@@@@@",
"@@@@@@@@@XX+++@@@@@@@@@@@@@@@@@@@@@@@@@@@@@@@@@@@.X+++@@@@@@",
"@@@@@@@@@.X++@@@@@@@@@@@@@@@@@@@@@@@@@@@@@@@@@@@@.X+@+@@@@@@",
"@@@@@@@@@.X+++@@@@@@@@@@@@@@@@@@@@@@@@@@@@@@@@@@@XX+@+@@@@@@",
"@@@@@@@@@.X+@+@@@@@@@@@@@@@@@@@@@@@@@@@@@@@@@@@@@XX+++@@@@@@",
"@@@@@@@@@.X+@+@@@@@@@@@@@@@@@@@@@@@@@@@@@@@@@@@@@.X++@@@@@@@",
"@@@@@@@@@X.+++@@@@@@@@@@@@@@@@@@@@@@@@@@@@@@@@@@@X.++@@@@@@@",
"@@@@@@@@@.X+@+@@@@@@@@@@@@@@@@@@@@@@@@@@@@@@@@@@@X.+++@@@@@@",
"@@@@@@@@@XX+++@@@@@@@@@@@@@@@@@@@@@@@@@@@@@@@@@@@XX+++@@@@@@",
"@@@@@@@@@XX+++@@@@@@@@@@@@@@@@@@@@@@@@@@@@@@@@@@@XX+++@@@@@@",
"@@@@@@@@@X.+++@@@@@@@@@@@@@@@@@@@@@@@@@@@@@@@@@@@.X+++@@@@@@",
"@@@@@@@@@XX+@@@@@@@@@@@@@@@@@@@@@@@@@@@@@@@@@@@@@XX+@@@@@@@@",
"@@@@@@@@@XX+@+@@@@@@@@@@@@@@@@@@@@@@@@@@@@@@@@@@@.X++@@@@@@@",
"@@@@@@@@@XX+@+@@@@@@@@@@@@@@@@@@@@@@@@@@@@@@@@@@@..+@+@@@@@@",
"@@@@@@@@@X.++@@@@@@@@@@@@@@@@@@@@@@@@@@@@@@@@@@@@X.+@+@@@@@@",
"@@@@@@@@@.X++@@@@@@@@@@@@@@@@@@@@@@@@@@@@@@@@@@@@X.++@@@@@@@",
"@@@@@@@@@.X++@@@@@@@@@@@@@@@@@@@@@@@@@@@@@@@@@@@@.X++@@@@@@@",
"@@@@@@@@@.X++@@@@@@@@@@@@@@@@@@@@@@@@@@@@@@@@@@@@XX++@@@@@@@",
"@@@@@@@@@.X++@@@@@@@@@@@@@@@@@@@@@@@@@@@@@@@@@@@@X.++@@@@@@@",
"@@@@@@@@@.X++@@@@@@@@@@@@@@@@@@@@@@@@@@@@@@@@@@@@X.++@@@@@@@",
"XXXXXXXXX.XXXXXXXXXXXXXXXXXXXXXXXXXXXXXXXXXXXXXXXXXXXXXXXXXX",
"XXXXXXXXX..XXXXXXXXXXXXXXXXXXXXXXXXXXXXXXXXXXXXXXX.XXXXXXXXX",
"X......XXX.X..XXXX......XXX.XX..XXXXX....XX...XX...XX...XXX.",
"............XXXX....XX...XXX......XXXXXXXXXX........XX.X.X.."
};
