/* XPM */
static char *result[] = {
/* columns rows colors chars-per-pixel */
"80 80 12 1 ",
"  c black",
". c #1F2133",
"X c #2A663A",
"o c #2C2E45",
"O c #41445C",
"+ c #4E6353",
"@ c #358F4E",
"# c #65806B",
"$ c #BA9865",
"% c #D4B07B",
"& c #839C88",
"* c #F5CE93",
/* pixels */
"%%%%%%%%%%%%%%%%%%%%%%%%%%%%%%%%%%%%%%%%%%%%%%%%%%%%%%%%%%%%%%%%%%%%%%%%%%%%%%%%",
"%%%%%%%%%%%%%%%%%%%%%%%%%%%%%%%%%%%%%%%%%%%%%%%%%%%%%%%%%%%%%%%%%%%%%%%%%%%%%%%%",
"%%%%%%$$$$$$$$$$%%%%%*%%%%%%%%%%%%%%%%%%%%%%%%%%%%%%%%%%%%%%%%%%%%%%%%%%%%%%%%%%",
"$$$$$$$$$$$$$$$$$$$%%%%%%%%%%%%%%%%%%%%%%%%%%%%%%%%%%%%%%%%%%%%%%%%%%%%%%%%%%%%%",
"$$$$$$$$$$$$$$$$$$$$$%%%%%%%%%%%%%XXXXXXXXXXXXXXXXXXXXX%%%%%%%%%%%%%%%%%%%%%%%%%",
"$$$XXXXXXXXXXXXX$$$$$$$$$XXXXXXXXXXXXXXXXXXXXXXXXXXXXXXX$$$$$$$$$%%%%%%%*%%%%%%%",
"XXXXXXXXXXXXXXXXXX$$$$XXXXXXXXXXXXX@@@@@@@@@@@@@@@@@@XXXXXXXXXX$$$$%%%%%%%%%%%%%",
"XXXXX@@@@@@@@@XXXXXXXXXXXXX@@@@@@@@@@@@@@@@@@@@@@@@@@@XXXXXXXXXX$$$$%%%%%%%%%%%%",
"@@@@@@@@@@@@@@@@@XXXXXXXXX@@@@@@@@@@@@@@@@@@@@@@@@@@@@@@@@@@@XXXXX$$$$%%%%%%%%%%",
"@@@@@@@@@@@@@@@@@@@@@@@@@@@@@@@@@@@@@@@@@@@@@@@@@@@@@@@@@@@@@@XXXXX$$$$%%%%%%%%%",
"@@@@@@@@@@@@@@@@@@@@@@@@@@@@@@@@@@@@@@@@@@@@@@@@@@@@@@@@@@@@@@@@XXXX$$$$%%%%%%%%",
"@@@@@@@@@@@@@@@@@@@@@@@@@@@@@@@@@@@@@@@@@@@@@@@@@@@@@@@@@@@@@@@@@XXXXX$$%%%%%%%%",
"@@@@@@@X@@@@@@@@@@@@@@@@@@@@@@@@@@@@@@@@@@@@@@@@@@@@@@@@@@@@@@@@@@@XXX$$$%%%%%%%",
"@@@XX@@X@@XX@                                                      @XXX$$$%%%%%%",
"  @@XX@X@XX@@                                                      @@XXX$$$%%%%%",
"    XX@@@XX@@   ................................................   @@XXXX$$$%%%%",
"&#   @@@@@@@@  . .............................................. .  @@@XXXX$$$%%%",
"&##   @@@@@@@  .. ...oooooooooooooooooooooooooooooooooooooo... ..  @@@@XXX$$$$%%",
"&##     @@@@   ... ...oooooooooooooooooooooooooooooooooooo... ...  @@@@XXXX$$$%%",
"&##  +         .... ........................................ ....  @@@@@XXXX$$%%",
"&##  +#     #  .....                                        .....  @@@@@XXXX$$%%",
"&##  +#######  ..o.. Ooo  ............................  ooO ..o..  @@@@@@XXX$$%%",
"&##  +#######  ..oo. oOoo  oooooooooooooooooooooooooo  ooOo .oo..  @@@@@@XXX$$%%",
"&##  +#######  ..oo. ooOoo  oooooooooooooooooooooooo  ooOoo .oo..  @@@@@@@XX$$%%",
"&##  +#######  ..oo.  ooOoo  oooooooooooooooooooooo  ooOoo  .oo..  @@@@@@@XX$$%%",
"&##  +##&##&#  ..oo.   ooOoo  oooooooooooooooooooo  ooOoo   .oo..  @@@@@@@XX$$%%",
"&##  +##&&&&#  ..oo. .  ooOoo  oooooOOOOOOOOooooo  ooOoo  . .oo..  @@@@@@@XX$$%%",
"&##  +##&&&&#  ..oo. .o  ooOoo  oooooOOOOOOooooo  ooOoo  o. .oo..  @@@@@@@XX$$%%",
"&##  +##&&&&#  ..oo. .oo  ooOoo  oooooooooooooo  ooOoo  oo. .oo..  @@@@@@XXX$$%%",
"&##  +###&&##  ..oo. .ooo  ooOoo  ooooOOOOoooo  ooOoo  ooo. .oo..  @@@@@@XXX$$%%",
"&##  +#######  ..oo. .oooo  ooOoo  ooooOOoooo  ooOoo  oooo. .oo..  @@@@@@XXX$$%%",
"&##  +#######  ..oo. .ooooo  ooOoo  oooooooo  ooOoo  ooooo. .oo..  @@@@@@XX$$$%%",
"&##  +#######  ..oo. .oooooo  ooOoo  oooooo  ooOoo  oooooo. .oo..  @@@@@@XX$$$%%",
"&##  ++++++++  ..oo. .ooooooo  ooOoo  oooo  ooOoo  ooooooo. .oo..  @@@@@@XX$$$%%",
"               ..oo. .oooooooo  oo            oo  oooooooo. .oo..  @@@@@@XX$$%%%",
"               ..oo. .ooooooooo  o  oooooooo  o  ooooooooo. .oo..  @@@@@@XX$$%%%",
"+++++++++++++  ..oo. .ooooOooooo   o oOOOOo o   oooooOoooo. .oo..  @@@@@@XX$$%%%",
"+++++++++++++  ..oo. .ooooOOooooo  oo oOOo oo  oooooOOoooo. .oo..  @@@@@@XX$$%%%",
"#############  ..oo. .ooooOOoOoooo oOo oo oOo ooooOoOOoooo. .oo..  @@@@@@XX$$$%%",
"#############  ..oo. .ooooOOoOOooo oOOo  oOOo oooOOoOOoooo. .oo..  @@@@@@XX$$$%%",
"#############  ..oo. .ooooOOoOOooo oOOo  oOOo oooOOoOOoooo. .oo..  @@@@@@XX$$$%%",
"#############  ..oo. .ooooOOoOoooo oOo oo oOo ooooOoOOoooo. .oo..  @@@@@@XX$$$%%",
"+++++++++++++  ..oo. .ooooOOooooo  oo oOOo oo  oooooOOoooo. .oo..  @@@@@@XX$$$%%",
"+++++++++++++  ..oo. .ooooOooooo   o oOOOOo o   oooooOoooo. .oo..  @@@@@@XX$$$%%",
"               ..oo. .ooooooooo  o  oooooooo  o  ooooooooo. .oo..  @@@@@@XXX$$%%",
"               ..oo. .oooooooo  oo            oo  oooooooo. .oo..  @@@@@@XXX$$%%",
"&##  ++++++++  ..oo. .ooooooo  ooOoo  oooo  ooOoo  ooooooo. .oo..  @@@@@@@XX$$%%",
"&##  +#######  ..oo. .oooooo  ooOoo  oooooo  ooOoo  oooooo. .oo..  @@@@@@@XX$$%%",
"&##  +#######  ..oo. .ooooo  ooOoo  oooooooo  ooOoo  ooooo. .oo..  @@@@@@@XX$$%%",
"&##  +#######  ..oo. .oooo  ooOoo  ooooOOoooo  ooOoo  oooo. .oo..  @@@@@@@XX$$%%",
"&##  +###&&##  ..oo. .ooo  ooOoo  ooooOOOOoooo  ooOoo  ooo. .oo..  @@@@@@@XX$$%%",
"&##  +##&&&&#  ..oo. .oo  ooOoo  oooooooooooooo  ooOoo  oo. .oo..  @@@@@@@XXX$$%",
"&##  +##&&&&#  ..oo. .o  ooOoo  oooooOOOOOOooooo  ooOoo  o. .oo..  @@@@@@@@XX$$%",
"&##  +##&&&&#  ..oo. .  ooOoo  oooooOOOOOOOOooooo  ooOoo  . .oo..  @@@@@@@@XX$$%",
"&##  +##&##&#  ..oo.   ooOoo  oooooooooooooooooooo  ooOoo   .oo..  @@@@@@@@XX$$%",
"&##  +#######  ..oo.  ooOoo  oooooooooooooooooooooo  ooOoo  .oo..  @@@@@X@@XX$$%",
"&##  +#######  ..oo. ooOoo  oooooooooooooooooooooooo  ooOoo .oo..  @XX@@X@@XX$$%",
"&##  +#######  ..oo. oOoo  oooooooooooooooooooooooooo  ooOo .oo..  @@XX@X@@XX$$%",
"&##  +#######  ..o.. Ooo  ............................  ooO ..o..  @@XX@@@@XX$$%",
"&##  +#     #  .....                                        .....  @@@@@@@@XX$$%",
"&##  +         .... ........................................ ....  @@@@@@@@XX$$%",
"&##     @@@@   ... ...oooooooooooooooooooooooooooooooooooo... ...  @@@@@@@@XX$$%",
"&##   @@@@@@@  .. ...oooooooooooooooooooooooooooooooooooooo... ..  @@@@@@@@XX$$%",
"&#   @@@@@@@@  . .............................................. .  @@@@@@@XXX$$%",
"    @@@@@@@@@   ................................................   @@@@@@@XX$$$%",
"   @@@@@@@@@@                                                      @@@@@@@XX$$$%",
"@@@@@@@@@@@@@                                                      @@@@@@XXX$$%%",
"@@@@@@@@@@@@@XX@@X  #############+  ++####++  +#############  @@@@@@@@@@@XX$$%%%",
"@@@@@@@@@@@@@@XX@X@  ####&&&&####+  ++####++  +####&&&&####  @@@@@@@@@@@XXX$$%%%",
"@@@@@@@@@@@@@@XX@@@  #####&&&&###+  ++####++  +###&&&&#####  @@@@@@@@@@@XXX$%%%%",
"@@@@@@@@@@@@@@@@@@@  #####&&&&###+  ++####++  +###&&&&#####  @@@@@@@@@@@XX$$%%%%",
"XXX@@@@@@@@@@@@@@@@  ####&&&&####+  ++####++  +####&&&&####  @@@@@@@@@@XXX$$%%%%",
"XXXXXX@@@@@@@@@@@@   ############+  ++####++  +############   @@@@@@@@@XXX$$%%%%",
"$$XXXX@@@@@@@@@@@@  #############+  ++####++  +#############  @@@@@@@@@XX$$$%%%%",
"$$$$XXXX@@@@@@@@@  +++++++++++++++  ++####++  +++++++++++++++  @@@@@@@@XX$$$%%%%",
"%%$$$$XXX@@@@@@@                    ++####++                    @@@@@@@XX$$$%%%%",
"%%%$$$$XX@@@@@@                     ++####++                     @@@@@@XX$$$%%%%",
"%%%%%$$XX@@@@@   #################  ++####++  #################   @@@@@XX$$$%%%%",
"%%%%%$$XX@@@@@  ##################  ++####++  ##################  @@@@@XX$$%%%%%",
"%%%%%$$XX@@@@@  &&&&&&&&&&&&&&&&&&  ++####++  &&&&&&&&&&&&&&&&&&  @@@@@XX$$%%%%%"
};
