/* XPM */
static char *Tw__[] = {
/* columns rows colors chars-per-pixel */
"60 60 5 1 ",
"  c #0D171F",
". c #3D1D16",
"X c #452113",
"o c #573129",
"O c #2E4659",
/* pixels */
"ooooO                                                  OooX.",
"ooooO                                                  OooX.",
"OOOOO                                                  OooX.",
"                                                       OooX.",
"                                                       OooX.",
"                                                       OooX.",
"                                                       OooX.",
"                                                       OooX.",
"OOOOO                                                  OooX.",
"ooooO                                                  OooX.",
"ooooO                                                  OooX.",
"XXooO                                                  OooX.",
".XooO                                                  OooX.",
".XooO                                                  OooX.",
".XooO                                                  OooX.",
".XooO                                                  OooX.",
".XooO                                                  OooX.",
".XooO                                                  OooX.",
".XooO                                                  OooX.",
".XooO                                                  OooX.",
".XooO                                                  OooX.",
".XooO                                                  OooX.",
".XooO                                                  OooX.",
".XooO                                                  OooX.",
".XooO                                                  OooX.",
".XooO                                                  OooX.",
".XooO                                                  OooX.",
".XooO                                                  OooX.",
".XooO                                                  OooX.",
".XooO                                                  OooX.",
".XooO                                                  OooX.",
".XooO                                                  OooX.",
".XooO                                                  OooX.",
".XooO                                                  OooX.",
".XooO                                                  OooX.",
".XooO                                                  OooX.",
".XooO                                                  OooX.",
".XooO                                                  OooX.",
".XooO                                                  OooX.",
".XooO                                                  OooX.",
".XooO                                                  OooX.",
".XooO                                                  OooX.",
".XooO                                                  OooX.",
".XooO                                                  OooX.",
".XooO                                                  OooX.",
".XooO                                                  OooX.",
".XooO                                                  OooX.",
".XooO                                                  OooX.",
".XooO                                                  OooX.",
".XooO                                                  OooX.",
".XooO                                                  OooX.",
".XooO                                                  OooX.",
".XooO                                                  OooX.",
".XooO                                                  OooX.",
".XooO                                                  OooX.",
".XooO                                                  OooX.",
".XooO                                                  OooX.",
".XooO                                                  OooX.",
".XooO                                                  OooX.",
".XooO                                                  OooX."
};
