/* XPM */
static char *result[] = {
/* columns rows colors chars-per-pixel */
"80 80 12 1 ",
"  c black",
". c gray12",
"X c #1F2133",
"o c #2A663A",
"O c #2C2E45",
"+ c #41445C",
"@ c #4E6353",
"# c #358F4E",
"$ c #65806B",
"% c #BA9865",
"& c #D4B07B",
"* c #839C88",
/* pixels */
"&&&&&%%oo#####  ******************  @@$$$$@@  ******************  ######oo%%%&&&",
"&&&&&%%oo#####  $$$$$$$$$$$$$$$$$$  @@$$$$@@  $$$$$$$$$$$$$$$$$$  ######oo%%%&&&",
"&&&%%%ooo#####   $$$$$$$$$$$$$$$$$  @@$$$$@@  $$$$$$$$$$$$$$$$$  #######oo%%%&&&",
"&&%%%%oo#######                     @@$$$$@@                     #######ooo%%&&&",
"&&%%oooo########                    @@$$$$@@                    ########ooo%%&&&",
"%%%%ooo##########  @@@@@@@@@@@@@@@  @@$$$$@@  @@@@@@@@@@@@@@@  ##########oo%%&&&",
"%%%ooo############  $$$$$$$$$$$$$@  @@$$$$@@  @$$$$$$$$$$$$$  ###########oo%%&&&",
"ooooo#############   $$$$$$$$$$$$@  @@$$$$@@  @$$$$$$$$$$$$   ###########oo%%&&&",
"oooo###############  $$$$****$$$$@  @@$$$$@@  @$$$$****$$$$  ###o########oo%%&&&",
"###################  $$$$$****$$$@  @@$$$$@@  @$$$****$$$$$  ##o#########oo%%&&&",
"#######o###########  $$$$$****$$$@  @@$$$$@@  @$$$****$$$$$  ##o########ooo%%&&&",
"###oo##o##oo#######  $$$$****$$$$@  @@$$$$@@  @$$$$****$$$$  ##o########oo%%%&&&",
"####oo#o#oo#######  $$$$$$$$$$$$$@  @@$$$$@@  @$$$$$$$$$$$$$  ##########oo%%%&&&",
"####oo###oo##                                                      #####oo%%%&&&",
"   ##########                                                      #####oo%%%&&&",
"    #########   XXXXXXXXXXXXXXXXXXXXXXXXXXXXXXXXXXXXXXXXXXXXXXXX   #####oo%%%&&&",
"*$   ########  X XXXXXXXXXXXXXXXXXXXXXXXXXXXXXXXXXXXXXXXXXXXXXX X  ####ooo%%%&&&",
"*$$   #######  XX XXXOOOOOOOOOOOOOOOOOOOOOOOOOOOOOOOOOOOOOOXXX XX  ####ooo%%%&&&",
"*$$     ####   XXX XXXOOOOOOOOOOOOOOOOOOOOOOOOOOOOOOOOOOOOXXX XXX  ###ooo%%%%&&&",
"*$$  @         XXXX XXXXXXXXXXXXXXXXXXXXXXXXXXXXXXXXXXXXXXXX XXXX  ###ooo%%%&&&&",
"*$$  @$     $  XXXXX                                        XXXXX  ###oo%%%%&&&&",
"*$$  @$$$$$$$  XXOXX +OO  XXXXXXXXXXXXXXXXXXXXXXXXXXXX  OO+ XXOXX  ###oo%%&&&&&&",
"*$$  @$$$$$$$  XXOOX O+OO  OOOOOOOOOOOOOOOOOOOOOOOOOO  OO+O XOOXX  ###oo%%&&&&&&",
"*$$  @$$$$$$$  XXOOX OO+OO  OOOOOOOOOOOOOOOOOOOOOOOO  OO+OO XOOXX  ###oo%%&&&&&&",
"*$$  @$$$$$$$  XXOOX  OO+OO  OOOOOOOOOOOOOOOOOOOOOO  OO+OO  XOOXX  ###oo%%&&&&&&",
"*$$  @$$*$$*$  XXOOX   OO+OO  OOOOOOOOOOOOOOOOOOOO  OO+OO   XOOXX  ###oo%%%&&&&&",
"*$$  @$$****$  XXOOX X  OO+OO  OOOOO++++++++OOOOO  OO+OO  X XOOXX  ###oo%%%&&&&&",
"*$$  @$$****$  XXOOX XO  OO+OO  OOOOO++++++OOOOO  OO+OO  OX XOOXX  ###ooo%%&&&&&",
"*$$  @$$****$  XXOOX XOO  OO+OO  OOOOOOOOOOOOOO  OO+OO  OOX XOOXX  ###ooo%%&&&&&",
"*$$  @$$$**$$  XXOOX XOOO  OO+OO  OOOO++++OOOO  OO+OO  OOOX XOOXX  ####oo%%&&&&&",
"*$$  @$$$$$$$  XXOOX XOOOO  OO+OO  OOOO++OOOO  OO+OO  OOOOX XOOXX  ####oo%%&&&&&",
"*$$  @$$$$$$$  XXOOX XOOOOO  OO+OO  OOOOOOOO  OO+OO  OOOOOX XOOXX  ####oo%%%&&&&",
"*$$  @$$$$$$$  XXOOX XOOOOOO  OO+OO  OOOOOO  OO+OO  OOOOOOX XOOXX  ####ooo%%&&&&",
"*$$  @@@@@@@@  XXOOX XOOOOOOO  OO+OO  OOOO  OO+OO  OOOOOOOX XOOXX  #####oo%%&&&&",
"               XXOOX XOOOOOOOO  OO            OO  OOOOOOOOX XOOXX  #####oo%%&&&&",
"               XXOOX XOOOOOOOOO  O  OOOOOOOO  O  OOOOOOOOOX XOOXX  #####oo%%&&&&",
"@@@@@@@@@@@@@  XXOOX XOOOO+OOOOO   O O++++O O   OOOOO+OOOOX XOOXX  ####ooo%%&&&&",
"@@@@@@@@@@@@@  XXOOX XOOOO++OOOOO  OO O++O OO  OOOOO++OOOOX XOOXX  ####oo%%%&&&&",
"$$$$$$$$$$$$$  XXOOX XOOOO++O+OOOO O+O OO O+O OOOO+O++OOOOX XOOXX  ###ooo%%&&&&&",
"$$$$$$$$$$$$$  XXOOX XOOOO++O++OOO O++O  O++O OOO++O++OOOOX XOOXX  ###ooo%%&&&&&",
"$$$$$$$$$$$$$  XXOOX XOOOO++O++OOO O++O  O++O OOO++O++OOOOX XOOXX  ###oo%%%&&&&&",
"$$$$$$$$$$$$$  XXOOX XOOOO++O+OOOO O+O OO O+O OOOO+O++OOOOX XOOXX  ###oo%%%&&&&&",
"@@@@@@@@@@@@@  XXOOX XOOOO++OOOOO  OO O++O OO  OOOOO++OOOOX XOOXX  ##ooo%%&&&&&&",
"@@@@@@@@@@@@@  XXOOX XOOOO+OOOOO   O O++++O O   OOOOO+OOOOX XOOXX  ##ooo%%&&&&&&",
"               XXOOX XOOOOOOOOO  O  OOOOOOOO  O  OOOOOOOOOX XOOXX  ##oo%%%&&&&&&",
"               XXOOX XOOOOOOOO  OO            OO  OOOOOOOOX XOOXX  ##oo%%%&&&&&&",
"*$$  @@@@@@@@  XXOOX XOOOOOOO  OO+OO  OOOO  OO+OO  OOOOOOOX XOOXX  ##oo%%&&&&&&&",
"*$$  @$$$$$$$  XXOOX XOOOOOO  OO+OO  OOOOOO  OO+OO  OOOOOOX XOOXX  ##oo%%&&&&&&&",
"*$$  @$$$$$$$  XXOOX XOOOOO  OO+OO  OOOOOOOO  OO+OO  OOOOOX XOOXX  ##oo%%&&&&&&&",
"*$$  @$$$$$$$  XXOOX XOOOO  OO+OO  OOOO++OOOO  OO+OO  OOOOX XOOXX  ##oo%%&&&&&&&",
"*$$  @$$$**$$  XXOOX XOOO  OO+OO  OOOO++++OOOO  OO+OO  OOOX XOOXX  ##oo%%&&&&&&&",
"*$$  @$$****$  XXOOX XOO  OO+OO  OOOOOOOOOOOOOO  OO+OO  OOX XOOXX  ##oo%%&&&&&&&",
"*$$  @$$****$  XXOOX XO  OO+OO  OOOOO++++++OOOOO  OO+OO  OX XOOXX  ##oo%%&&&&&&&",
"*$$  @$$****$  XXOOX X  OO+OO  OOOOO++++++++OOOOO  OO+OO  X XOOXX  ##oo%%&&&&&&&",
"*$$  @$$*$$*$  XXOOX   OO+OO  OOOOOOOOOOOOOOOOOOOO  OO+OO   XOOXX  ##oo%%&&&&&&&",
"*$$  @$$$$$$$  XXOOX  OO+OO  OOOOOOOOOOOOOOOOOOOOOO  OO+OO  XOOXX  ##oo%%&&&&&&&",
"*$$  @$$$$$$$  XXOOX OO+OO  OOOOOOOOOOOOOOOOOOOOOOOO  OO+OO XOOXX  ##oo%%&&&&&&&",
"*$$  @$$$$$$$  XXOOX O+OO  OOOOOOOOOOOOOOOOOOOOOOOOOO  OO+O XOOXX  ##oo%%%&&&&&&",
"*$$  @$$$$$$$  XXOXX +OO  XXXXXXXXXXXXXXXXXXXXXXXXXXXX  OO+ XXOXX  ##ooo%%%&&&&&",
"*$$  @$     $  XXXXX                                        XXXXX  ##ooo%%%&&&&&",
"*$$  @         XXXX XXXXXXXXXXXXXXXXXXXXXXXXXXXXXXXXXXXXXXXX XXXX  ###oo%%%&&&&&",
"*$$     ##o#   XXX XXXOOOOOOOOOOOOOOOOOOOOOOOOOOOOOOOOOOOOXXX XXX  ###oo%%%%&&&&",
"*$$   #oo#o#o  XX XXXOOOOOOOOOOOOOOOOOOOOOOOOOOOOOOOOOOOOOOXXX XX  ###oo%%%%&&&&",
"*$   ##oo###o  X XXXXXXXXXXXXXXXXXXXXXXXXXXXXXXXXXXXXXXXXXXXXXX X  ###ooo%%%&&&&",
"    #########   XXXXXXXXXXXXXXXXXXXXXXXXXXXXXXXXXXXXXXXXXXXXXXXX   ###oooo%%&&&&",
"   ##########                                                      ####ooo%%&&&&",
"#############                                                      #####oo%%&&&&",
"##################. $$$$$$$$$$$$$@  @@$$$$@@  @$$$$$$$$$$$$$  ##########oo%%&&&&",
"###################  $$$$****$$$$@  @@$$$$@@  @$$$$****$$$$  ###########oo%%%&&&",
"###################  $$$$$****$$$@  @@$$$$@@  @$$$****$$$$$  ##########ooo%%%&&&",
"###################  $$$$$****$$$@  @@$$$$@@  @$$$****$$$$$  ###o######ooo%%%&&&",
"oooo###############  $$$$****$$$$@  @@$$$$@@  @$$$$****$$$$  ###o##oo##oo%%%%&&&",
"oooooo############   $$$$$$$$$$$$@  @@$$$$@@  @$$$$$$$$$$$$   o#o#oo###oo%%%&&&&",
"%%%%ooo###########  $$$$$$$$$$$$$@  @@$$$$@@  @$$$$$$$$$$$$$  o###oo###oo%%%&&&&",
"%%%%%oooo######### @@@@@@@@@@@@@@@  @@$$$$@@  @@@@@@@@@@@@@@@  ########oo%%%&&&&",
"&&%%%%ooo#######                    @@$$$$@@                    #######oo%%%&&&&",
"&&&%%%%oo######                     @@$$$$@@                     ######oo%%&&&&&",
"&&&&%%%oo#####   $$$$$$$$$$$$$$$$$  @@$$$$@@  $$$$$$$$$$$$$$$$$   #####oo%%&&&&&",
"&&&&&%%oo#####  $$$$$$$$$$$$$$$$$$  @@$$$$@@  $$$$$$$$$$$$$$$$$$  #####oo%%&&&&&",
"&&&&&%%oo#####  ******************  @@$$$$@@  ******************  #####oo%%&&&&&"
};
