/* XPM */
static char *result[] = {
/* columns rows colors chars-per-pixel */
"80 80 13 1 ",
"  c black",
". c gray12",
"X c #1F2133",
"o c #2A663A",
"O c #2C2E45",
"+ c #41445C",
"@ c #4E6353",
"# c #358F4E",
"$ c #65806B",
"% c #BA9865",
"& c #D4B07B",
"* c #839C88",
"= c #F5CE93",
/* pixels */
"&&&&&&&&&&&&&&&&&&&&&&&&&&&&&&&&&&&&&&&&&&&&&&&&&&&&&&&&&&&&&&&&&&&&&&&&&&&&&&&&",
"&&&&&&&&&&&&&&&&&&&&&&&&&&&&&&&&&&&&&&&&&&&&&&&&&&&&&&&&&&&&&&&&&&&&&&&&&&&&&&&&",
"&&&&&&&&&&&&%%%%%&&&&&&&&&&&&&&&&=&&&&&&&&&&&&&&&&&&&&&&&&&&&&&&%%%%%%%%%%&&&&&&",
"&&&&&&&&%%%%%%%%%%%%%&&&&&&&&&&&&&&&&&&&&&&&&&&&&&&&&&&&&&&&&%%%%%%%%%%%%%%%%%%%",
"&&&&%%%%%%%%%%%%%%%%%%%%%&&&&&&&&&&&&&&&&&&&&&&&&&&&&&&&&&&%%%%%%%%%%%%%%%%%%%%%",
"%%%%%%%%%%%%%%%%%%%%%%%%%%%%%%%&&&&&&&&&&&&&&&&&&&&&&%%%%%%%%%%%ooooooooooooo%%%",
"%%%%%%%%%oooooooooooooo%%%%%%%%%%%%%&&&&&&&&&&&%%%%%%%%%%%%%%%oooooooooooooooooo",
"ooooooooooooooooooooooooooo%%%%%%%%%%%&&&&&&&%%%%%%%%%%ooooooooooo#########ooooo",
"ooooooooooo############ooooooo%%%%%%%%%%%%%%%%%%%%oooooooooooo##################",
"##########################oooooooo%%%%%%%%%%%%%%ooooooooo#######################",
"#############################oooooooooooo%%%oooooooo############################",
"####o############################ooooooooooooooooo##############################",
"#####o#################################ooooooo##################################",
"#####o##oo###                                                      #############",
"   ##o#oo####                                                      ###########  ",
"    ###oo####   XXXXXXXXXXXXXXXXXXXXXXXXXXXXXXXXXXXXXXXXXXXXXXXX   #########    ",
"*$   ########  X XXXXXXXXXXXXXXXXXXXXXXXXXXXXXXXXXXXXXXXXXXXXXX X  ########   $*",
"*$$   #######  XX XXXOOOOOOOOOOOOOOOOOOOOOOOOOOOOOOOOOOOOOOXXX XX  #######   $$*",
"*$$     ####   XXX XXXOOOOOOOOOOOOOOOOOOOOOOOOOOOOOOOOOOOOXXX XXX   ####     $$*",
"*$$  @         XXXX XXXXXXXXXXXXXXXXXXXXXXXXXXXXXXXXXXXXXXXX XXXX         @  $$*",
"*$$  @$     $  XXXXX                                        XXXXX  $     $@  $$*",
"*$$  @$$$$$$$  XXOXX +OO  XXXXXXXXXXXXXXXXXXXXXXXXXXXX  OO+ XXOXX  $$$$$$$@  $$*",
"*$$  @$$$$$$$  XXOOX O+OO  OOOOOOOOOOOOOOOOOOOOOOOOOO  OO+O XOOXX  $$$$$$$@  $$*",
"*$$  @$$$$$$$  XXOOX OO+OO  OOOOOOOOOOOOOOOOOOOOOOOO  OO+OO XOOXX  $$$$$$$@  $$*",
"*$$  @$$$$$$$  XXOOX  OO+OO  OOOOOOOOOOOOOOOOOOOOOO  OO+OO  XOOXX  $$$$$$$@  $$*",
"*$$  @$$*$$*$  XXOOX   OO+OO  OOOOOOOOOOOOOOOOOOOO  OO+OO   XOOXX  $*$$*$$@  $$*",
"*$$  @$$****$  XXOOX X  OO+OO  OOOOO++++++++OOOOO  OO+OO  X XOOXX  $****$$@  $$*",
"*$$  @$$****$  XXOOX XO  OO+OO  OOOOO++++++OOOOO  OO+OO  OX XOOXX  $****$$@  $$*",
"*$$  @$$****$  XXOOX XOO  OO+OO  OOOOOOOOOOOOOO  OO+OO  OOX XOOXX  $****$$@  $$*",
"*$$  @$$$**$$  XXOOX XOOO  OO+OO  OOOO++++OOOO  OO+OO  OOOX XOOXX  $$**$$$@  $$*",
"*$$  @$$$$$$$  XXOOX XOOOO  OO+OO  OOOO++OOOO  OO+OO  OOOOX XOOXX  $$$$$$$@  $$*",
"*$$  @$$$$$$$  XXOOX XOOOOO  OO+OO  OOOOOOOO  OO+OO  OOOOOX XOOXX  $$$$$$$@  $$*",
"*$$  @$$$$$$$  XXOOX XOOOOOO  OO+OO  OOOOOO  OO+OO  OOOOOOX XOOXX  $$$$$$$@  $$*",
"*$$  @@@@@@@@  XXOOX XOOOOOOO  OO+OO  OOOO  OO+OO  OOOOOOOX XOOXX  @@@@@@@@  $$*",
"               XXOOX XOOOOOOOO  OO            OO  OOOOOOOOX XOOXX               ",
"               XXOOX XOOOOOOOOO  O  OOOOOOOO  O  OOOOOOOOOX XOOXX               ",
"@@@@@@@@@@@@@  XXOOX XOOOO+OOOOO   O O++++O O   OOOOO+OOOOX XOOXX  @@@@@@@@@@@@@",
"@@@@@@@@@@@@@  XXOOX XOOOO++OOOOO  OO O++O OO  OOOOO++OOOOX XOOXX  @@@@@@@@@@@@@",
"$$$$$$$$$$$$$  XXOOX XOOOO++O+OOOO O+O OO O+O OOOO+O++OOOOX XOOXX  $$$$$$$$$$$$$",
"$$$$$$$$$$$$$  XXOOX XOOOO++O++OOO O++O  O++O OOO++O++OOOOX XOOXX  $$$$$$$$$$$$$",
"$$$$$$$$$$$$$  XXOOX XOOOO++O++OOO O++O  O++O OOO++O++OOOOX XOOXX  $$$$$$$$$$$$$",
"$$$$$$$$$$$$$  XXOOX XOOOO++O+OOOO O+O OO O+O OOOO+O++OOOOX XOOXX  $$$$$$$$$$$$$",
"@@@@@@@@@@@@@  XXOOX XOOOO++OOOOO  OO O++O OO  OOOOO++OOOOX XOOXX  @@@@@@@@@@@@@",
"@@@@@@@@@@@@@  XXOOX XOOOO+OOOOO   O O++++O O   OOOOO+OOOOX XOOXX  @@@@@@@@@@@@@",
"               XXOOX XOOOOOOOOO  O  OOOOOOOO  O  OOOOOOOOOX XOOXX               ",
"               XXOOX XOOOOOOOO  OO            OO  OOOOOOOOX XOOXX               ",
"*$$  @@@@@@@@  XXOOX XOOOOOOO  OO+OO  OOOO  OO+OO  OOOOOOOX XOOXX  @@@@@@@@  $$*",
"*$$  @$$$$$$$  XXOOX XOOOOOO  OO+OO  OOOOOO  OO+OO  OOOOOOX XOOXX  $$$$$$$@  $$*",
"*$$  @$$$$$$$  XXOOX XOOOOO  OO+OO  OOOOOOOO  OO+OO  OOOOOX XOOXX  $$$$$$$@  $$*",
"*$$  @$$$$$$$  XXOOX XOOOO  OO+OO  OOOO++OOOO  OO+OO  OOOOX XOOXX  $$$$$$$@  $$*",
"*$$  @$$$**$$  XXOOX XOOO  OO+OO  OOOO++++OOOO  OO+OO  OOOX XOOXX  $$**$$$@  $$*",
"*$$  @$$****$  XXOOX XOO  OO+OO  OOOOOOOOOOOOOO  OO+OO  OOX XOOXX  $****$$@  $$*",
"*$$  @$$****$  XXOOX XO  OO+OO  OOOOO++++++OOOOO  OO+OO  OX XOOXX  $****$$@  $$*",
"*$$  @$$****$  XXOOX X  OO+OO  OOOOO++++++++OOOOO  OO+OO  X XOOXX  $****$$@  $$*",
"*$$  @$$*$$*$  XXOOX   OO+OO  OOOOOOOOOOOOOOOOOOOO  OO+OO   XOOXX  $*$$*$$@  $$*",
"*$$  @$$$$$$$  XXOOX  OO+OO  OOOOOOOOOOOOOOOOOOOOOO  OO+OO  XOOXX  $$$$$$$@  $$*",
"*$$  @$$$$$$$  XXOOX OO+OO  OOOOOOOOOOOOOOOOOOOOOOOO  OO+OO XOOXX  $$$$$$$@  $$*",
"*$$  @$$$$$$$  XXOOX O+OO  OOOOOOOOOOOOOOOOOOOOOOOOOO  OO+O XOOXX  $$$$$$$@  $$*",
"*$$  @$$$$$$$  XXOXX +OO  XXXXXXXXXXXXXXXXXXXXXXXXXXXX  OO+ XXOXX  $$$$$$$@  $$*",
"*$$  @$     $  XXXXX                                        XXXXX  $     $@  $$*",
"*$$  @         XXXX XXXXXXXXXXXXXXXXXXXXXXXXXXXXXXXXXXXXXXXX XXXX         @  $$*",
"*$$     ####.  XXX XXXOOOOOOOOOOOOOOOOOOOOOOOOOOOOOOOOOOOOXXX XXX   ####     $$*",
"*$$  ########  XX XXXOOOOOOOOOOOOOOOOOOOOOOOOOOOOOOOOOOOOOOXXX XX  #######   $$*",
"*$   ########  X XXXXXXXXXXXXXXXXXXXXXXXXXXXXXXXXXXXXXXXXXXXXXX X  ########   $*",
"    #########   XXXXXXXXXXXXXXXXXXXXXXXXXXXXXXXXXXXXXXXXXXXXXXXX   #########    ",
"   ##########                                                      ##########   ",
"#############                                                      #############",
"##################  $$$$$$$$$$$$$@  @@$$$$@@  @$$$$$$$$$$$$$  ##################",
"###################  $$$$****$$$$@  @@$$$$@@  @$$$$****$$$$  ###################",
"###################  $$$$$****$$$@  @@$$$$@@  @$$$****$$$$$  ####o##############",
"###################  $$$$$****$$$@  @@$$$$@@  @$$$****$$$$$  ####o##oo##########",
"oooooo#############  $$$$****$$$$@  @@$$$$@@  @$$$$****$$$$  ####o#oo########ooo",
"oooooo############   $$$$$$$$$$$$@  @@$$$$@@  @$$$$$$$$$$$$   #####oo#####oooooo",
"%%%%ooo###########  $$$$$$$$$$$$$@  @@$$$$@@  @$$$$$$$$$$$$$  ############oooo%%",
"%%%%%ooo#########  @@@@@@@@@@@@@@@  @@$$$$@@  @@@@@@@@@@@@@@@  ########ooooo%%%%",
"&&%%%%oo########                    @@$$$$@@                    ######oooooo%%&&",
"&&&%%%%oo######                     @@$$$$@@                     #####oo%%%%%%&&",
"&&&&%%%oo#####   $$$$$$$$$$$$$$$$$  @@$$$$@@  $$$$$$$$$$$$$$$$$   ####ooo%%%%&&&",
"&&&&&%%oo#####  $$$$$$$$$$$$$$$$$$  @@$$$$@@  $$$$$$$$$$$$$$$$$$  #####oo%%&&&&&",
"&&&&&%%oo#####  ******************  @@$$$$@@  ******************  #####oo%%&&&&&"
};
