/* XPM */
static char *TQ__[] = {
/* columns rows colors chars-per-pixel */
"60 60 5 1 ",
"  c #0D171F",
". c #3D1D16",
"X c #452113",
"o c #573129",
"O c #2E4659",
/* pixels */
"oooooooooooooooooooooooooooooooooooooooooooooooooooooooooooo",
"oooooooooooooooooooooooooooooooooooooooooooooooooooooooooooo",
"OOOOOOOOOOOOOOOOOOOOOOOOOOOOOOOOOOOOOOOOOOOOOOOOOOOOOOOOOOOO",
"                                                            ",
"                                                            ",
"                                                            ",
"                                                            ",
"                                                            ",
"OOOOO                                                  OOOOO",
"ooooO                                                  Ooooo",
"ooooO                                                  Ooooo",
"XXooO                                                  OooXX",
".XooO                                                  OooX.",
".XooO                                                  OooX.",
".XooO                                                  OooX.",
".XooO                                                  OooX.",
".XooO                                                  OooX.",
".XooO                                                  OooX.",
".XooO                                                  OooX.",
".XooO                                                  OooX.",
".XooO                                                  OooX.",
".XooO                                                  OooX.",
".XooO                                                  OooX.",
".XooO                                                  OooX.",
".XooO                                                  OooX.",
".XooO                                                  OooX.",
".XooO                                                  OooX.",
".XooO                                                  OooX.",
".XooO                                                  OooX.",
".XooO                                                  OooX.",
".XooO                                                  OooX.",
".XooO                                                  OooX.",
".XooO                                                  OooX.",
".XooO                                                  OooX.",
".XooO                                                  OooX.",
".XooO                                                  OooX.",
".XooO                                                  OooX.",
".XooO                                                  OooX.",
".XooO                                                  OooX.",
".XooO                                                  OooX.",
".XooO                                                  OooX.",
".XooO                                                  OooX.",
".XooO                                                  OooX.",
".XooO                                                  OooX.",
".XooO                                                  OooX.",
".XooO                                                  OooX.",
".XooO                                                  OooX.",
".XooO                                                  OooX.",
".XooO                                                  OooX.",
".XooO                                                  OooX.",
".XooO                                                  OooX.",
".XooO                                                  OooX.",
".XooO                                                  OooX.",
".XooO                                                  OooX.",
".XooO                                                  OooX.",
".XooO                                                  OooX.",
".XooO                                                  OooX.",
".XooO                                                  OooX.",
".XooO                                                  OooX.",
".XooO                                                  OooX."
};
