/* XPM */
static char *result[] = {
/* columns rows colors chars-per-pixel */
"80 80 11 1 ",
"  c black",
". c #1F2133",
"X c #2A663A",
"o c #2C2E45",
"O c #41445C",
"+ c #4E6353",
"@ c #358F4E",
"# c #65806B",
"$ c #BA9865",
"% c #D4B07B",
"& c #839C88",
/* pixels */
"@@X@@@@@@@@@@@@@@@@@@@@@@@@@@@@@@@@@@@@@@@@@@@@@@@@@@@XX@@X@@XX@@@@@@@@@@@@@@@@@",
"@@X@@XX@@@@@@@@@@@@@@@@@@@@@@@@@@@@@@@@@@@@@@@@@@@@@@@@XX@X@XX@@@@@@@@@@@@@@@@@@",
"X@X@XX@@@@@@@@@@@@@@@@@@@@@@@@@@@@@@@@@@@@@@@@@@@@@@@@@XX@@@XX@@@@@@@@@@@@@@@@@@",
"X@@@XX@@@@@@@@@@@@@@@@@@@@@@@@@@@@@@@@@@@@@@@@@@@@@@@@@@@@@@@@@@@@@@@@@@@@@@@@@@",
"@@@@@@@@@@@@@@@@@@@@@@@@@@@@@@@@@@@@@@@@@@@@@@@@@@@@@@@@@@@@@@@@@@@@@@@@@@@@@@@@",
"@@@@@@@@@@@@@@@@@@@@@@@@@@@@@@@@@@@@@@@@@@@@@@@@@@@@@@@@@@@@@@@@@@@@@@@@@@@@@@@@",
"@@@@@@@@@@@@@@@@@@@@@@@@@@@@@@@@@@@@@@@@@@@@@@@@@@@@@@@@@@@@@@@@@@@@@@@@@@@@@@@@",
"@@@@@@@@@@@@@@@@@@@@@@@@@@@@@@@@@@@@@@@X@@@@@@@@@@@@@@@@@@@@@@@@@@@@@@@@@@@@@@@@",
"@@@@@@@@@@@@@@@@@@@@@@@@@@@@@@@@@@@XX@@X@@XX@@@@@@@@@@@@@@@@@@@@@@@@@@@@@@@@@@@@",
"@@@@@@@@@@@@@@@@@@@@@@@@@@@@@@@@@@@@XX@X@XX@@@@@@@@@@@@@@@@@@@@@@@@@@@@@@@@@@@@@",
"@@@@@@@@@@@@@@@@@@@@@@@@@@@@@@@@@@@@XX@@@XX@@@@@@@@@@@@@@@@@@@@@@@@@@@@@@@@@@@@@",
"@@@@@@@@@@@@@@@@@@@@@@@@@@@@@@@@@@@@@@@@@@@@@@@@@@@@@@@@@@@@@@@@@@@@@@@@@@@@@@@@",
"@@@@@@@@@@@@@@@@@@@@@@@@@@@@@@@@@@@@@@@@@@@@@@@@@@@@@@@@@@@@@@@@@@@@@@@@@@@@@@@@",
"@@@@@@@@@@@@@                                                      @@@@@@@@@@@@@",
"@@@@@@@@@@@@@                                                      @@@@@@@@@@@  ",
"@@@@@@@@@@@@@   ................................................   @@X@@@@@@    ",
"@@@@@@@@@@@@@  . .............................................. .  @@X@@XX@   #&",
"@@@@@@@@@@@@@  .. ...oooooooooooooooooooooooooooooooooooooo... ..  X@X@XX@   ##&",
"@@@@@@@@@@@@@  ... ...oooooooooooooooooooooooooooooooooooo... ...   @@@X     ##&",
"@@@@@@@@@@@@@  .... ........................................ ....         +  ##&",
"@@@@@@@@@@@@@  .....                                        .....  #     #+  ##&",
"@@@@@@@@@@@@@  ..o.. Ooo  ............................  ooO ..o..  #######+  ##&",
"@@@@@@@@@@@@@  ..oo. oOoo  oooooooooooooooooooooooooo  ooOo .oo..  #######+  ##&",
"@@@@@@@@@@@@@  ..oo. ooOoo  oooooooooooooooooooooooo  ooOoo .oo..  #######+  ##&",
"@@@@@@@@@@@@X  ..oo.  ooOoo  oooooooooooooooooooooo  ooOoo  .oo..  #######+  ##&",
"@@@@@@@@XX@@X  ..oo.   ooOoo  oooooooooooooooooooo  ooOoo   .oo..  #&##&##+  ##&",
"@@@@@@@@@XX@X  ..oo. .  ooOoo  oooooOOOOOOOOooooo  ooOoo  . .oo..  #&&&&##+  ##&",
"@@@@@@@@@XX@@  ..oo. .o  ooOoo  oooooOOOOOOooooo  ooOoo  o. .oo..  #&&&&##+  ##&",
"@@@@@@@@@@@@@  ..oo. .oo  ooOoo  oooooooooooooo  ooOoo  oo. .oo..  #&&&&##+  ##&",
"@@@@@@@@@@@@@  ..oo. .ooo  ooOoo  ooooOOOOoooo  ooOoo  ooo. .oo..  ##&&###+  ##&",
"@@@@@@@@@@@@@  ..oo. .oooo  ooOoo  ooooOOoooo  ooOoo  oooo. .oo..  #######+  ##&",
"@@@@@@@@@@@@@  ..oo. .ooooo  ooOoo  oooooooo  ooOoo  ooooo. .oo..  #######+  ##&",
"@@@@@@@@@@@@@  ..oo. .oooooo  ooOoo  oooooo  ooOoo  oooooo. .oo..  #######+  ##&",
"@@@@@@@@@@@@@  ..oo. .ooooooo  ooOoo  oooo  ooOoo  ooooooo. .oo..  ++++++++  ##&",
"@@@@@@@@@@@@@  ..oo. .oooooooo  oo            oo  oooooooo. .oo..               ",
"@@@@@@@@@@@@@  ..oo. .ooooooooo  o  oooooooo  o  ooooooooo. .oo..               ",
"@@@@@@@@@@@@@  ..oo. .ooooOooooo   o oOOOOo o   oooooOoooo. .oo..  +++++++++++++",
"@@@@@@@@@@@@@  ..oo. .ooooOOooooo  oo oOOo oo  oooooOOoooo. .oo..  +++++++++++++",
"@@@@@@@@@@@@@  ..oo. .ooooOOoOoooo oOo oo oOo ooooOoOOoooo. .oo..  #############",
"@@@@@@@@@@@@@  ..oo. .ooooOOoOOooo oOOo  oOOo oooOOoOOoooo. .oo..  #############",
"@@@@@@@@@@@@@  ..oo. .ooooOOoOOooo oOOo  oOOo oooOOoOOoooo. .oo..  #############",
"@@@@@@@@@@@@@  ..oo. .ooooOOoOoooo oOo oo oOo ooooOoOOoooo. .oo..  #############",
"@@@@@@@@@@@@@  ..oo. .ooooOOooooo  oo oOOo oo  oooooOOoooo. .oo..  +++++++++++++",
"@@@@@@@@@@@@@  ..oo. .ooooOooooo   o oOOOOo o   oooooOoooo. .oo..  +++++++++++++",
"@@@@@@@@@@@@@  ..oo. .ooooooooo  o  oooooooo  o  ooooooooo. .oo..               ",
"@@@@@@@@@@@@@  ..oo. .oooooooo  oo            oo  oooooooo. .oo..               ",
"@@@@@@@@@@@@@  ..oo. .ooooooo  ooOoo  oooo  ooOoo  ooooooo. .oo..  ++++++++  ##&",
"@@@@@@@@@@@@@  ..oo. .oooooo  ooOoo  oooooo  ooOoo  oooooo. .oo..  #######+  ##&",
"@@@@@@@@@@@@@  ..oo. .ooooo  ooOoo  oooooooo  ooOoo  ooooo. .oo..  #######+  ##&",
"@@@@@@@@@@@@@  ..oo. .oooo  ooOoo  ooooOOoooo  ooOoo  oooo. .oo..  #######+  ##&",
"@@@@@@@@@@@@@  ..oo. .ooo  ooOoo  ooooOOOOoooo  ooOoo  ooo. .oo..  ##&&###+  ##&",
"@@@@@@@@@@@@@  ..oo. .oo  ooOoo  oooooooooooooo  ooOoo  oo. .oo..  #&&&&##+  ##&",
"@@@@@@@@@@@@@  ..oo. .o  ooOoo  oooooOOOOOOooooo  ooOoo  o. .oo..  #&&&&##+  ##&",
"@@@@@@@@@@@@@  ..oo. .  ooOoo  oooooOOOOOOOOooooo  ooOoo  . .oo..  #&&&&##+  ##&",
"@@@@@@@@@@@@@  ..oo.   ooOoo  oooooooooooooooooooo  ooOoo   .oo..  #&##&##+  ##&",
"@@@@@@@@@@@@@  ..oo.  ooOoo  oooooooooooooooooooooo  ooOoo  .oo..  #######+  ##&",
"@@@@@@@@@@@@@  ..oo. ooOoo  oooooooooooooooooooooooo  ooOoo .oo..  #######+  ##&",
"@@@@@@@@@@@@@  ..oo. oOoo  oooooooooooooooooooooooooo  ooOo .oo..  #######+  ##&",
"@@@@@@@@@@@@@  ..o.. Ooo  ............................  ooO ..o..  #######+  ##&",
"@@@@@@@@@@@@@  .....                                        .....  #     #+  ##&",
"@@@@@@@@@@@@@  .... ........................................ ....         +  ##&",
"@@@@@@@X@@@@@  ... ...oooooooooooooooooooooooooooooooooooo... ...   @@@@     ##&",
"@@@XX@@X@@XX@  .. ...oooooooooooooooooooooooooooooooooooooo... ..  @@@@@@@   ##&",
"@@@@XX@X@XX@@  . .............................................. .  @@@@@@@@   #&",
"@@@@XX@@@XX@@   ................................................   @@@@@@@@@    ",
"@@@@@@@@@@@@@                                                      @@@@@@@@@@   ",
"@@@@@@@@@@@@@                                                      @@@@@@@@@@@@@",
"@@@@@@@@@@@@@@@@@@  #############+  ++####++  +#############  @@@@@@@@@@@@@@@@@@",
"@@@@@@@@@@@@@@@@@@@  ####&&&&####+  ++####++  +####&&&&####  @@@@@@@@@@@@@@@@@@@",
"@@@@@@@@@@@@@@@@@@@  #####&&&&###+  ++####++  +###&&&&#####  @@@@@@@@@@@@@@@@@@@",
"@@@@@@@@@@@@@@@@@@@  #####&&&&###+  ++####++  +###&&&&#####  @@@@@@@@@@@@@@@@@@@",
"@@@@@@@@@@@@@@@@@@@  ####&&&&####+  ++####++  +####&&&&####  @@@@@@@@@@@@@@@@XXX",
"@@@@@@@@@@@@@@@@@@   ############+  ++####++  +############   @@@@@@@@@@@@XXXXXX",
"@@@@@@@@@@@@@@@@@@  #############+  ++####++  +#############  @@@@@@@@@@@@XXXX$$",
"@@@@@@@@@@@@@@@@@  +++++++++++++++  ++####++  +++++++++++++++  @@@@@@@@XXXXX$$$$",
"@@@@@@@@@@@@@@@@                    ++####++                    @@@@@@XXXXXX$$%%",
"@@@@@@@@@@@@@@@                     ++####++                     @@@@@XX$$$$$$%%",
"@@@@@@@@@@@@@@   #################  ++####++  #################   @@@@XXX$$$$%%%",
"@@@@@@@@@@@@@@  ##################  ++####++  ##################  @@@@@XX$$%%%%%",
"@@@@@@@@@@@@@@  &&&&&&&&&&&&&&&&&&  ++####++  &&&&&&&&&&&&&&&&&&  @@@@@XX$$%%%%%"
};
