/* XPM */
static char *result[] = {
/* columns rows colors chars-per-pixel */
"80 80 9 1 ",
"  c black",
". c #2A663A",
"X c #4E6353",
"o c #358F4E",
"O c #65806B",
"+ c #BA9865",
"@ c #D4B07B",
"# c #839C88",
"$ c #F5CE93",
/* pixels */
"@@@@@++..ooooo  ##################  XXOOOOXX  ##################  oooooooooooooo",
"@@@@@++..ooooo  OOOOOOOOOOOOOOOOOO  XXOOOOXX  OOOOOOOOOOOOOOOOOO  oooooooooooooo",
"@@@@@++..ooooo   OOOOOOOOOOOOOOOOO  XXOOOOXX  OOOOOOOOOOOOOOOOO  ooooooooooooooo",
"@@@@@++..oooooo                     XXOOOOXX                     ooooooooooooooo",
"@@@@@@+...oooooo                    XXOOOOXX                    oooooooooooooooo",
"@@@@@@++..oooooo.  XXXXXXXXXXXXXXX  XXOOOOXX  XXXXXXXXXXXXXXX  ooooooooooooooooo",
"@@@@@@++..oo..oo.o  OOOOOOOOOOOOOX  XXOOOOXX  XOOOOOOOOOOOOO  .oo..ooooooooooooo",
"@@@@@@++...oo..o.o   OOOOOOOOOOOOX  XXOOOOXX  XOOOOOOOOOOOO   .o..oooooooooooooo",
"@@@@@@+++..oo..oooo  OOOO####OOOOX  XXOOOOXX  XOOOO####OOOO  ooo..oooooooooooooo",
"@@@@@@+++...ooooooo  OOOOO####OOOX  XXOOOOXX  XOOO####OOOOO  ooooooooooooooooooo",
"@@@@@@+++...ooooooo  OOOOO####OOOX  XXOOOOXX  XOOO####OOOOO  ooooooooooooooooooo",
"@@@@@@++++..ooooooo  OOOO####OOOOX  XXOOOOXX  XOOOO####OOOO  ooooooooooooooooooo",
"@@@@@@@+++..oooooo  OOOOOOOOOOOOOX  XXOOOOXX  XOOOOOOOOOOOOO  oooooooooooooooooo",
"@@@@@@@+++..oooooo  OOOOOOOOOOOOOX  XXOOOOXX  XOOOOOOOOOOOOO  oooooooooooooooooo",
"@@@@@@@+++..ooooo  XXXXXXXXXXXXXXX  XXOOOOXX  XXXXXXXXXXXXXXX  ooooooooooooooooo",
"@@@@@@@+++..oooo                    XXOOOOXX                    oooooooooooooo.o",
"@@@@@@@+++..ooo                     XXOOOOXX                     ooooooooo..oo.o",
"@@@@@@@++...oo   OOOOOOOOOOOOOOOOO  XXOOOOXX  OOOOOOOOOOOOOOOOO   ooooooooo..o.o",
"@@@@@@@++..ooo  OOOOOOOOOOOOOOOOOO  XXOOOOXX  OOOOOOOOOOOOOOOOOO  ooooooooo..ooo",
"@@@@@@@++..ooo  ##################  XXOOOOXX  ##################  oooooooooooooo",
"@@@@@@@++..ooo  ##################  XXOOOOXX  ##################  oooooooooooooo",
"@@@@@@@++..ooo  OOOOOOOOOOOOOOOOOO  XXOOOOXX  OOOOOOOOOOOOOOOOOO  oooooooooooooo",
"@@@$@@@++..ooo   OOOOOOOOOOOOOOOOO  XXOOOOXX  OOOOOOOOOOOOOOOOO   oooooooooooooo",
"@@@@@@@++..oooo                     XXOOOOXX                     ooooooooooooooo",
"@@@@@@@++..ooooo                    XXOOOOXX                    oooooooooooooooo",
"@@@@@@@++..oooooo  XXXXXXXXXXXXXXX  XXOOOOXX  XXXXXXXXXXXXXXX  ooooooooooooooooo",
"@@@@@@@++..ooooooo  OOOOOOOOOOOOOX  XXOOOOXX  XOOOOOOOOOOOOO  oooooooooooooooooo",
"@@@@@@@++..ooooooo  OOOOOOOOOOOOOX  XXOOOOXX  XOOOOOOOOOOOOO  oooooooooooooooooo",
"@@@@@@@++..oooooooo  OOOO####OOOOX  XXOOOOXX  XOOOO####OOOO  oooooooo.oooooooooo",
"@@@@@@@++..oooooooo  OOOOO####OOOX  XXOOOOXX  XOOO####OOOOO  oooo..oo.oo..oooooo",
"@@@@@@@++..oooooooo  OOOOO####OOOX  XXOOOOXX  XOOO####OOOOO  ooooo..o.o..ooooooo",
"@@@@@@+++..oooooooo  OOOO####OOOOX  XXOOOOXX  XOOOO####OOOO  ooooo..ooo..ooooooo",
"@@@@@@+++..ooooooo  OOOOOOOOOOOOOX  XXOOOOXX  XOOOOOOOOOOOOO  oooooooooooooooooo",
"@@@@@@+++..ooooooo  OOOOOOOOOOOOOX  XXOOOOXX  XOOOOOOOOOOOOO  oooooooooooooooooo",
"@@@@@@++...oooooo  XXXXXXXXXXXXXXX  XXOOOOXX  XXXXXXXXXXXXXXX  ooooooooooooooooo",
"@@@@@+++...ooooo                    XXOOOOXX                    oooooooooooooooo",
"@@@@@+++..ooooo                     XXOOOOXX                     ooooooooooooooo",
"@@@@+++...oooo   OOOOOOOOOOOOOOOOO  XXOOOOXX  OOOOOOOOOOOOOOOOO   oooooooooooooo",
"@@@@+++..ooooo  OOOOOOOOOOOOOOOOOO  XXOOOOXX  OOOOOOOOOOOOOOOOOO  oooooooooooooo",
"@@@@++...ooooo  ##################  XXOOOOXX  ##################  oooooooooooooo",
"@@@@++..oooooo  ##################  XXOOOOXX  ##################  oooooooooooooo",
"@@@+++..oooooo  OOOOOOOOOOOOOOOOOO  XXOOOOXX  OOOOOOOOOOOOOOOOOO  oooooooooooooo",
"@@@++...oooooo   OOOOOOOOOOOOOOOOO  XXOOOOXX  OOOOOOOOOOOOOOOOO   oooooooooooooo",
"@@@++..oooooooo                     XXOOOOXX                     ooooooooooooooo",
"@@@++..ooooooooo                    XXOOOOXX                    oooooooooooooooo",
"@@@++..oooooooooo  XXXXXXXXXXXXXXX  XXOOOOXX  XXXXXXXXXXXXXXX  ooooooooooooooooo",
"@@@++..ooooooooooo  OOOOOOOOOOOOOX  XXOOOOXX  XOOOOOOOOOOOOO  oooooooooooooooooo",
"@@@++..ooooooooooo  OOOOOOOOOOOOOX  XXOOOOXX  XOOOOOOOOOOOOO  oooooooooooooooooo",
"@@@++..oooooooooooo  OOOO####OOOOX  XXOOOOXX  XOOOO####OOOO  ooooooooooooooooooo",
"@@@++..o.oooooooooo  OOOOO####OOOX  XXOOOOXX  XOOO####OOOOO  ooooooooooooooooooo",
"@@@++..o.oo..oooooo  OOOOO####OOOX  XXOOOOXX  XOOO####OOOOO  ooooooooooooooooooo",
"@@@++..o.o..ooooooo  OOOO####OOOOX  XXOOOOXX  XOOOO####OOOO  ooooooooooooooooooo",
"@@@++..ooo..oooooo  OOOOOOOOOOOOOX  XXOOOOXX  XOOOOOOOOOOOOO  oooooooooooooo.ooo",
"@@@++..ooooooooooo  OOOOOOOOOOOOOX  XXOOOOXX  XOOOOOOOOOOOOO  oooooooooo..oo.oo.",
"@@@++..oooooooooo  XXXXXXXXXXXXXXX  XXOOOOXX  XXXXXXXXXXXXXXX  oooooooooo..o.o..",
"@@@++..ooooooooo                    XXOOOOXX                    ooooooooo..ooo..",
"@@@++..oooooooo                     XXOOOOXX                     ooooooooooooooo",
"@@@++..ooooooo   OOOOOOOOOOOOOOOOO  XXOOOOXX  OOOOOOOOOOOOOOOOO   oooooooooooooo",
"@@@++...oooooo  OOOOOOOOOOOOOOOOOO  XXOOOOXX  OOOOOOOOOOOOOOOOOO  oooooooooooooo",
"@@@++...oooooo  ##################  XXOOOOXX  ##################  oooooooooooooo",
"@@@+++..oooooo  ##################  XXOOOOXX  ##################  oooooooooooooo",
"@@@@++..oooooo  OOOOOOOOOOOOOOOOOO  XXOOOOXX  OOOOOOOOOOOOOOOOOO  oooooooooooooo",
"@@@@++..oooooo   OOOOOOOOOOOOOOOOO  XXOOOOXX  OOOOOOOOOOOOOOOOO   oooooooooooooo",
"@@@@++..ooooooo                     XXOOOOXX                     ooooooooooooooo",
"@@@@++..oooooooo                    XXOOOOXX                    oooooooooooooooo",
"@@@@++..ooooooooo  XXXXXXXXXXXXXXX  XXOOOOXX  XXXXXXXXXXXXXXX  ooooooooooooooooo",
"@@@@++..oooooooooo  OOOOOOOOOOOOOX  XXOOOOXX  XOOOOOOOOOOOOO  oooooooooooooooooo",
"@@@@++..oooooooooo  OOOOOOOOOOOOOX  XXOOOOXX  XOOOOOOOOOOOOO  oooooooooooooooooo",
"@@@@++..ooooooooooo  OOOO####OOOOX  XXOOOOXX  XOOOO####OOOO  ooooooooooooooooooo",
"@@@@++..ooooooooooo  OOOOO####OOOX  XXOOOOXX  XOOO####OOOOO  ooooooooooooooooooo",
"@@@@++..ooooooooooo  OOOOO####OOOX  XXOOOOXX  XOOO####OOOOO  ooooooooooooooooooo",
"@@@@++..ooooooooooo  OOOO####OOOOX  XXOOOOXX  XOOOO####OOOO  o.ooooooooooooooooo",
"@@@@++..oooooooooo   OOOOOOOOOOOOX  XXOOOOXX  XOOOOOOOOOOOO   .oo..ooooooooooooo",
"@@@@++..oooooooooo  OOOOOOOOOOOOOX  XXOOOOXX  XOOOOOOOOOOOOO  .o..oooooooooooooo",
"@@@@++..ooooooooo  XXXXXXXXXXXXXXX  XXOOOOXX  XXXXXXXXXXXXXXX  o..oooooooooooooo",
"@@@@++..oooooooo                    XXOOOOXX                    oooooooooooooooo",
"@@@@++...oooooo                     XXOOOOXX                     ooooooooooooooo",
"@@@@++...ooooo   OOOOOOOOOOOOOOOOO  XXOOOOXX  OOOOOOOOOOOOOOOOO  ooooooooooooooo",
"@@@@+++..ooooo  OOOOOOOOOOOOOOOOOO  XXOOOOXX  OOOOOOOOOOOOOOOOOO  oooooooooooooo",
"@@@@@++..ooooo  ##################  XXOOOOXX  ##################  oooooooooooooo"
};
