/* XPM */
static char *result[] = {
/* columns rows colors chars-per-pixel */
"80 80 12 1 ",
"  c black",
". c #1F2133",
"X c #2A663A",
"o c #2C2E45",
"O c #41445C",
"+ c #4E6353",
"@ c #358F4E",
"# c #65806B",
"$ c #BA9865",
"% c #D4B07B",
"& c #839C88",
"* c #F5CE93",
/* pixels */
"%%%%%$$XX@@@@@  &&&&&&&&&&&&&&&&&&  ++####++  &&&&&&&&&&&&&&&&&&  @@@@@@@@@@@@@@",
"%%%%%$$XXX@@@@  ##################  ++####++  ##################  @@@@@@@@@@@@@@",
"%%%%%$$XXX@@@@   #################  ++####++  #################  @@@@@@@@@@@@@@X",
"%*%%%$$$XX@@@@@                     ++####++                     @@@@@@@@@@XX@@X",
"%%%%%$$$XX@@@@@@                    ++####++                    @@@@@@@@@@@@XX@X",
"$$$$$$$$XX@@@@@@@  +++++++++++++++  ++####++  +++++++++++++++  @@@@@@@@@@@@@XX@@",
"$$$$$$$$XX@@@@@@@@  #############+  ++####++  +#############  @@@@@@@@@@@@@@@@@@",
"XXX$$XXXXX@@@@@@@@   ############+  ++####++  +############   @@@@@@@@@@@@@@@@@@",
"XXXXXXXXX@@@@@@@@@@  ####&&&&####+  ++####++  +####&&&&####  @@@@@@@@@@@@@@@@@@@",
"@@XXXX@@@@@@@@@@@@@  #####&&&&###+  ++####++  +###&&&&#####  @@@@@@@@@@@@@@@@@@@",
"@@@@@@@@@@@@@@@@@@@  #####&&&&###+  ++####++  +###&&&&#####  @@@@@@@@@@@@@@@@@@@",
"@@@@@@@@@@@@@@@@@@@  ####&&&&####+  ++####++  +####&&&&####  @@@@@@@@@@@@@@@@@@@",
"@@@@@@@@@X@@@@@@@@  #############+  ++####++  +#############  @@@@@@@@@@@@@@@@@@",
"@@@@@XX@@X@@X                                                      @@@@@@@@@@@@@",
"   @@@XX@X@XX                                                      @@@@@@@@@@@@@",
"    @@XX@@@XX   ................................................   @@@@@@@@@@@@@",
"&#   @@@@@@@@  . .............................................. .  @@@@@@@@@@@@@",
"&##   @@@@@@@  .. ...oooooooooooooooooooooooooooooooooooooo... ..  @@@@@@@@@@@@@",
"&##     @@@@   ... ...oooooooooooooooooooooooooooooooooooo... ...  @@@@@@@@@@@@@",
"&##  +         .... ........................................ ....  @@@@@@@@@@@@@",
"&##  +#     #  .....                                        .....  X@@@@@@@@@@@@",
"&##  +#######  ..o.. Ooo  ............................  ooO ..o..  X@@XX@@@@@@@@",
"&##  +#######  ..oo. oOoo  oooooooooooooooooooooooooo  ooOo .oo..  X@XX@@@@@@@@@",
"&##  +#######  ..oo. ooOoo  oooooooooooooooooooooooo  ooOoo .oo..  @@XX@@@@@@@@@",
"&##  +#######  ..oo.  ooOoo  oooooooooooooooooooooo  ooOoo  .oo..  @@@@@@@@@@@@@",
"&##  +##&##&#  ..oo.   ooOoo  oooooooooooooooooooo  ooOoo   .oo..  @@@@@@@@@@@@@",
"&##  +##&&&&#  ..oo. .  ooOoo  oooooOOOOOOOOooooo  ooOoo  . .oo..  @@@@@@@@@@@@@",
"&##  +##&&&&#  ..oo. .o  ooOoo  oooooOOOOOOooooo  ooOoo  o. .oo..  @@@@@@@@@@@@@",
"&##  +##&&&&#  ..oo. .oo  ooOoo  oooooooooooooo  ooOoo  oo. .oo..  @@@@@@@@@@@@@",
"&##  +###&&##  ..oo. .ooo  ooOoo  ooooOOOOoooo  ooOoo  ooo. .oo..  @@@@@@@@@@@@@",
"&##  +#######  ..oo. .oooo  ooOoo  ooooOOoooo  ooOoo  oooo. .oo..  @@@@@@@@@@@@@",
"&##  +#######  ..oo. .ooooo  ooOoo  oooooooo  ooOoo  ooooo. .oo..  @@@@@@@@@@@@@",
"&##  +#######  ..oo. .oooooo  ooOoo  oooooo  ooOoo  oooooo. .oo..  @@@@@@@@@@@@@",
"&##  ++++++++  ..oo. .ooooooo  ooOoo  oooo  ooOoo  ooooooo. .oo..  @@@@@@@@@@@@@",
"               ..oo. .oooooooo  oo            oo  oooooooo. .oo..  @@@@@@@@@@@@@",
"               ..oo. .ooooooooo  o  oooooooo  o  ooooooooo. .oo..  @@@@@@@@@@@@@",
"+++++++++++++  ..oo. .ooooOooooo   o oOOOOo o   oooooOoooo. .oo..  @@@@@@@@@@@@@",
"+++++++++++++  ..oo. .ooooOOooooo  oo oOOo oo  oooooOOoooo. .oo..  @@@@@@@@@@@@@",
"#############  ..oo. .ooooOOoOoooo oOo oo oOo ooooOoOOoooo. .oo..  @@@@@@@@@@@@@",
"#############  ..oo. .ooooOOoOOooo oOOo  oOOo oooOOoOOoooo. .oo..  @@@@@@@@@@@@@",
"#############  ..oo. .ooooOOoOOooo oOOo  oOOo oooOOoOOoooo. .oo..  @@@@@@@@@@@@@",
"#############  ..oo. .ooooOOoOoooo oOo oo oOo ooooOoOOoooo. .oo..  @@@@@@@@@@@@@",
"+++++++++++++  ..oo. .ooooOOooooo  oo oOOo oo  oooooOOoooo. .oo..  @@@@@@@@@@@@@",
"+++++++++++++  ..oo. .ooooOooooo   o oOOOOo o   oooooOoooo. .oo..  @@@@@@@@@@@@@",
"               ..oo. .ooooooooo  o  oooooooo  o  ooooooooo. .oo..  @@@@@@@@@@@@@",
"               ..oo. .oooooooo  oo            oo  oooooooo. .oo..  @@@@@@@@@@@@@",
"&##  ++++++++  ..oo. .ooooooo  ooOoo  oooo  ooOoo  ooooooo. .oo..  @@@@@@@@@@@@@",
"&##  +#######  ..oo. .oooooo  ooOoo  oooooo  ooOoo  oooooo. .oo..  @@@@@X@@@@@@@",
"&##  +#######  ..oo. .ooooo  ooOoo  oooooooo  ooOoo  ooooo. .oo..  @XX@@X@@XX@@@",
"&##  +#######  ..oo. .oooo  ooOoo  ooooOOoooo  ooOoo  oooo. .oo..  @@XX@X@XX@@@@",
"&##  +###&&##  ..oo. .ooo  ooOoo  ooooOOOOoooo  ooOoo  ooo. .oo..  @@XX@@@XX@@@@",
"&##  +##&&&&#  ..oo. .oo  ooOoo  oooooooooooooo  ooOoo  oo. .oo..  @@@@@@@@@@@@@",
"&##  +##&&&&#  ..oo. .o  ooOoo  oooooOOOOOOooooo  ooOoo  o. .oo..  @@@@@@@@@@@@@",
"&##  +##&&&&#  ..oo. .  ooOoo  oooooOOOOOOOOooooo  ooOoo  . .oo..  @@@@@@@@@@@@@",
"&##  +##&##&#  ..oo.   ooOoo  oooooooooooooooooooo  ooOoo   .oo..  @@@@@@@@@@@@@",
"&##  +#######  ..oo.  ooOoo  oooooooooooooooooooooo  ooOoo  .oo..  @@@@@@@@@@@@@",
"&##  +#######  ..oo. ooOoo  oooooooooooooooooooooooo  ooOoo .oo..  @@@@@@@@@@@@@",
"&##  +#######  ..oo. oOoo  oooooooooooooooooooooooooo  ooOo .oo..  @@@@@@@@@@@@@",
"&##  +#######  ..o.. Ooo  ............................  ooO ..o..  @@@@@@@@@@@@@",
"&##  +#     #  .....                                        .....  @@@@@@@@@@@@@",
"&##  +         .... ........................................ ....  @@@@@@@@@@@@@",
"&##     @@@@   ... ...oooooooooooooooooooooooooooooooooooo... ...  @@@@@@@@@@@@@",
"&##   @@@@@@@  .. ...oooooooooooooooooooooooooooooooooooooo... ..  @@@@@@@@@@@@@",
"&#   @@@@@@@@  . .............................................. .  @@@@@@@@@@@@@",
"    @@@@@@@@@   ................................................   @@@@@@@@@@@@@",
"   @@@@@@@@@@                                                      @@@@@@@@@@@@@",
"@@@@@@@@@@@@@                                                      @@@@@@@@@@@@@",
"@@@@@@@@@@@@@@@@@@@@@@@@@@@@@@@@@@@@XX@X@XX@@@@@@@@@@@@@@@@@@@@@@@@@@@@@@@@@@@@@",
"@@@@@@@@@@@@@@@@@@@@@@@@@@@@@@@@@@@@XX@@@XX@@@@@@@@@@@@@@@@@@@@@@@@@@@@@@@@@@XX@",
"@@@@@@@@@@@@@@@@@@@@@@@@@@@@@@@@@@@@@@@@@@@@@@@@@@@@@@@@@@@@@@@@@@@@@@@@@@@@@@XX",
"@@@@@@@@@@@@@@@@@@@@@@@@@@@@@@@@@@@@@@@@@@@@@@@@@@@@@@@@@@@@@@@@@@@@@@@@@@@@@@XX",
"@@@@@@@@@@@@@@@@@X@@@@@@@@@@@@@@@@@@@@@@@@@@@@@@@@@@@@@@@@@@@@@@@@@@@@@@@@@@@@@@",
"@@@@@@@@@@@@@XX@@X@@XX@@@@@@@@@@@@@@@@@@@@@@@@@@@@@@@@@@@@@@@@@@@@@@@@@@@@@@@@@@",
"@@@@@@@@@@@@@@XX@X@XX@@@@@@@@@@@@@@@@@@@@@@@@@@@@@@@@@@@@@@@@@@@@@@@@@@@@@@@@@@@",
"@@@@@@@@@@@@@@XX@@@XX@@@@@@@@@@@@@@@@@@@@@@@@@@@@@@@@@@@@@@@@@@@@@@@@@@@@@@@@@@@",
"@@@@@@@@@@@@@@@@@@@@@@@@@@@@@@@@@@@@@@@@@@@@@@@@@@@@@@@@@@@@@@@@@@@@@@@@@@@@@@@@",
"@@@@@@@@@@@@@@@@@@@@@@@@@@@@@@@@@@@@@@@@@@@@@@@@@@@@@@@@@@@@@@@@@@@@@@@@@@@@@@@@",
"@@@@@@@@@@@@@@@@@@@@@@@@@@@@@@@@@@@@@@@@@@@@@@@@@@@@@@@@@@@@@@@@X@@@@@@@@@@@@@@@",
"@@@@@@@@@@@@@@@@@@@@@@@@@@@@@@@@@@@@@@@@@@@@@@@@@@@@@@@@@@@@XX@@X@@XX@@@@@@@@@@@",
"@@@@@@@@@@@@@@@@@@@@@@@@@@@@@@@@@@@@@@@@@@@@@@@@@@@@@@@@@@@@@XX@X@XX@@@@@@@@@@@@"
};
