/* XPM */
static char *_933c1886f2342b2bedc517e25050e84LVgajXUxRmmT6RfY[] = {
/* columns rows colors chars-per-pixel */
"60 60 8 1 ",
"  c black",
". c #2A663A",
"X c #4E6353",
"o c #358F4E",
"O c #65806B",
"+ c #BA9865",
"@ c #D4B07B",
"# c #839C88",
/* pixels */
"oooooo.o.o.ooooooooooooooooooooooooooooooooooooooooooooooooo",
"oooooo.ooo.ooooooooooooooooooooooooooooooooooooooooooooooooo",
"ooooooooooooooooooooooooooooooooooooooo.oo.oo.oooooooooooooo",
"oooooooooooooooooooooooooooooooooooooooo.o.o.ooooooooooooooo",
"oooooooooooooooooooooooooooooooooooooooo.ooo.ooooooooooooooo",
"oooooooooooooooooooooooooooooooooooooooooooooooooooooooooooo",
"oooooooooooooooooooooooooooooooooooooooooooooooooooooooooooo",
"oooooooooooooooooo.oo.oo.ooooooooooooooooooooooooooooooooooo",
"ooooooooooooooooooo.o.o.oooooooooooooooooooooooooooooooooooo",
"ooooooooooooooooooo.ooo.ooooooooooooooooooooooooo.oo.oo.oooo",
"oooooooooo   ooooooooooooooooooooooooooooooooooooo.o.o.ooooo",
"oooooooooo    oooooo    oooooooo    oooooooo    oo.ooo.o    ",
"oooooooooo  O   ooo      oooooo      oooooo      oooooo     ",
"ooooooooooo  O       ##   oooo   ##   oooo   ##   oooo   ## ",
"oooooooooooo  OO    O##O        O##O        O##O        O##O",
"oooooooooooo  OOOOO O##O O    O O##O O    O O##O O    O O##O",
"ooooooooooooo  OOOO O##O OOOOOO O##O OOOOOO O##O OOOOOO O##O",
"ooooooooooooo  OOOO O##O OOOOOO O##O OOOOOO O##O OOOOOO O##O",
"ooooooooooooo  OOOO O##O OOOOOO O##O OOOOOO O##O OOOOOO O##O",
"oooooooooooo        O##O OOOOOO O##O OOOOOO O##O OOOOOO O##O",
"ooooooooooo   OOOOOO ##O OOOOOO O##O OOOOOO O##O OOOOOO O##O",
"ooooooooooo  ######## #O OOOOOO O##O OOOOOO O##O OOOOOO O##O",
"ooooooooooo  ######### O OOOOOO O##O OOOOOO O##O OOOOOO O##O",
"ooooooooooo   OOOOOOOOO  OOOOOO O##O OOOOOO O##O OOOOOO O##O",
"oooooooooooo             OOOOOO O##O OOOOOO O##O OOOOOO O##O",
"oooooooooooooo OOOOOOOOOO OOOOO O##O OOOOOO O##O OOOOOO O##O",
"ooooo.oo.oo.oo  OOOOOOOOOO                                  ",
"oooooo.o.o.ooo  OOOOOOOOOO  XXXXXXXXXXXXXXXXXXXXXXXXXXXXXXXX",
"oooooo.ooo.ooo  OOOOOOOOOO X OOOOOOOOOOOOOOOOOOOOOOOOOOOOOOO",
"oooooooooooooo  OOOOOOOOOO XO OOOOOOOOOOOOOOOOOOOOOOOOOOOOOO",
"ooooooooooooo  OOOOOOOOOOO XOO XXXXXXXXXXXXXXXXXXXXXXXXXXXXX",
"oooooooooooo               XOOX                             ",
"ooooooooooo   OOOOOOOOOOOO XOOX  ##O OOOOOO O##O OOOOOO O##O",
"ooooooooooo  ############# XOOX # #O OOOOOO O##O OOOOOO O##O",
"ooooooooooo  ############# XOOX ## O OOOOOO O##O OOOOOO O##O",
"ooooooooooo   OOOOOOOOOOOO XOOX OOO  OOOOOO O##O OOOOOO O##O",
"oooooooooooo               XOOX      OOOOOO O##O OOOOOO O##O",
".oo.ooooooooo  OOOOOOOOOOO XOOX OOOOO OOOOO O##O OOOOOO O##O",
".o.ooooooooooo  OOOOOOOOOO XOOX OOOOOO OOOO O##O OOOOOO O##O",
"oo.ooooooooooo  OOOOOOOOOO XOOX OOOOOOO OOO O##O OOOOOO O##O",
"oooooooooooooo  OOOOOOOOOO XOOX OOOOOOOO OO O##O OOOOOO O##O",
"oooooooooooooo  OOOOOOOOOO XOOX OOOOOOOOO O O##O OOOOOO O##O",
"ooooooooooooo  OOOOOOOOOOO XOOX OOOOOOOOOO  O##O OOOOOO O##O",
"oooooooooooo               XOOX             O##O O    O O##O",
"ooooooooooo   OOOOOOOOOOOO XOOX OOOOOOOOOOOO #OO        O##O",
"ooooooooooo  ############# XOOX ############# O   oooo   ## ",
"ooooooooooo  ############# XOOX ############OO   oooooo     ",
"ooooooooooo   OOOOOOOOOOOO XOOX OOOOOOOOOOOOO   oooooooo    ",
"oooooooooooo               XOOX                ooooooooooooo",
"ooooooooooooo  OOOOOOOOOOO XOOX OOOOOOOOOOOO  oooooooooooooo",
"oooooooooooooo  OOOOOOOOOO XOOX OOOOOOOOOOO  oooooooooo.....",
"oooooooooooooo  OOOOOOOOOO XOOX OOOOOOOOOOO  oooooooo.......",
"oooooooooooooo  OOOOOOOOOO XOOX OOOOOOOOOOO  oooooo......+++",
"oooooooooooooo  OOOOOOOOOO XOOX OOOOOOOOOOO  ooooo.....+++++",
"ooooooooooooo  OOOOOOOOOOO XOOX OOOOOOOOOOOO  oooo...++++++@",
"oooooooooooo               XOOX                oo....++++@@@",
"oo.oo.oo.oo   OOOOOOOOOOOO XOOX OOOOOOOOOOOOO   o...+++@@@@@",
"ooo.o.o.ooo  ############# XOOX ##############  oo..++@@@@@@",
"ooo.ooo.ooo  ############# XOOX ##############  oo..++@@@@@@",
"ooooooooooo   OOOOOOOOOOOO XOOX OOOOOOOOOOOOO   oo..++@@@@@@"
};
