/* XPM */
static char *result[] = {
/* columns rows colors chars-per-pixel */
"80 80 9 1 ",
"  c black",
". c #2A663A",
"X c #4E6353",
"o c #358F4E",
"O c #65806B",
"+ c #BA9865",
"@ c #D4B07B",
"# c #839C88",
"$ c #F5CE93",
/* pixels */
"@@@@@@@@@@@@@@@@@@@@@@@@@@@@@@@@@@@@@@@@@@@@@@@@@@@@@@@@@@@@@@@@@@@@@@@@@@@@@@@@",
"@@@@@@@@@@@@@@@@@@@@@@@@@@@@@@@@@@@@@@@@@@@@@@@@@@@@@@@@@@@@@@@@@@@@@@@@@@@@@@@@",
"@@@@@@$@@@@@@@@@@@@@@@@@@@@@@@@@@@@@@@@@@@@@@@@@@@@@@@@@@@@@@@@@@@@@@@@@@@@@@@@@",
"@@@@@@@@@@@@@@@@@@@@@@@@@@@@@@@@@@@@@@@@@@@@@@@@@@@@@@@@@@@@@@@@@@@@@@@@@@@@@@@@",
"+++++++++@@@@@@@@@@@@@@@@@@@@@@@@@@@@@@@@@@@@@@@@@@@@@@@@@@@@@@@@$@@@@@@@@@@@@@@",
"+++++++++++++@@@@@@@@@@@@@@@@@@++++++++++++@@@@@@@@@@@@@@@@@@@@@@@@@@@@@@@@@@@@+",
"+++.....++++++++++@@@@@@@@@@@++++++++++++++++++++++++++@@@@@@@@@@@@@@@@@@@@+++++",
"..........+++++++++++++++++++++++++++++++++++++++++++++++++++++++++++++++++++++.",
"...oooo......+++++++++++++++++........++++++++++++++++++++++++++++++++++++++++..",
"ooooooooo.......++++.....++++......................++++.....++++.....+++++++...o",
"oooooooooooo....................ooooo...................................+++....o",
"ooooooooooooooo......ooo.....oooooooooooooooooooooo.....ooo......ooo.........ooo",
"oooooo.oooooooooooooooooooooooooooooooooooooooooooooooooooooooooooooooo....ooooo",
"oo..oo.oo..ooooooooooooooooooooooooooooooooooooooooooooooooooooooooooooooooooooo",
"   ..o.o..ooooooo      oooooooooooooo      oooooooooooooo      ooooooooooooooo  ",
"    .ooo..oooooo        oooooooooooo        oooooooooooo        oooooooooooo    ",
"#O   oooooooooo   O##O   oooooooooo   O##O   oooooooooo   O##O   oooooooooo   O#",
"#OO   oooooooo   OO##OO   oooooooo   OO##OO   oooooooo   OO##OO   ooo.oooo   OO#",
"#OO     oooo     OO##OO     oooo     OO##OO     oooo     OO##OO     o.o.     OO#",
"#OO  X        X  OO##OO  X        X  OO##OO  X        X  OO##OO  X        X  OO#",
"#OO  XO     OOX  OO##OO  XOO    OOX  OO##OO  XOO    OOX  OO##OO  XOO     OX  OO#",
"#OO  XOOOOOOOOX  OO##OO  XOOOOOOOOX  OO##OO  XOOOOOOOOX  OO##OO  XOOOOOOOOX  OO#",
"#OO  XOOOOOOOOX  OO##OO  XOOOOOOOOX  OO##OO  XOOOOOOOOX  OO##OO  XOOOOOOOOX  OO#",
"#OO  XOOOOOOOOX  OO##OO  XOOOOOOOOX  OO##OO  XOOOOOOOOX  OO##OO  XOOOOOOOOX  OO#",
"#OO  XOOOOOOOOX  OO##OO  XOOOOOOOOX  OO##OO  XOOOOOOOOX  OO##OO  XOOOOOOOOX  OO#",
"#OO  XOO#OO#OOX  OO##OO  XOO#OO#OOX  OO##OO  XOO#OO#OOX  OO##OO  XOO#OO#OOX  OO#",
"#OO  XOO####OOX  OO##OO  XOO####OOX  OO##OO  XOO####OOX  OO##OO  XOO####OOX  OO#",
"#OO  XOO####OOX  OO##OO  XOO####OOX  OO##OO  XOO####OOX  OO##OO  XOO####OOX  OO#",
"#OO  XOO####OOX  OO##OO  XOO####OOX  OO##OO  XOO####OOX  OO##OO  XOO####OOX  OO#",
"#OO  XOOO##OOOX  OO##OO  XOOO##OOOX  OO##OO  XOOO##OOOX  OO##OO  XOOO##OOOX  OO#",
"#OO  XOOOOOOOOX  OO##OO  XOOOOOOOOX  OO##OO  XOOOOOOOOX  OO##OO  XOOOOOOOOX  OO#",
"#OO  XOOOOOOOOX  OO##OO  XOOOOOOOOX  OO##OO  XOOOOOOOOX  OO##OO  XOOOOOOOOX  OO#",
"#OO  XOOOOOOOOX  OO##OO  XOOOOOOOOX  OO##OO  XOOOOOOOOX  OO##OO  XOOOOOOOOX  OO#",
"#OO  XXXXXXXXXX  OO##OO  XXXXXXXXXX  OO##OO  XXXXXXXXXX  OO##OO  XXXXXXXXXX  OO#",
"                                                                                ",
"                                                                                ",
"XXXXXXXXXXXXXXXXXXXXXXXXXXXXXXXXXXXXXXXXXXXXXXXXXXXXXXXXXXXXXXXXXXXXXXXXXXXXXXXX",
"XXXXXXXXXXXXXXXXXXXXXXXXXXXXXXXXXXXXXXXXXXXXXXXXXXXXXXXXXXXXXXXXXXXXXXXXXXXXXXXX",
"OOOOOOOOOOOOOOOOOOOOOOOOOOOOOOOOOOOOOOOOOOOOOOOOOOOOOOOOOOOOOOOOOOOOOOOOOOOOOOOO",
"OOOOOOOOOOOOOOOOOOOOOOOOOOOOOOOOOOOOOOOOOOOOOOOOOOOOOOOOOOOOOOOOOOOOOOOOOOOOOOOO",
"OOOOOOOOOOOOOOOOOOOOOOOOOOOOOOOOOOOOOOOOOOOOOOOOOOOOOOOOOOOOOOOOOOOOOOOOOOOOOOOO",
"OOOOOOOOOOOOOOOOOOOOOOOOOOOOOOOOOOOOOOOOOOOOOOOOOOOOOOOOOOOOOOOOOOOOOOOOOOOOOOOO",
"XXXXXXXXXXXXXXXXXXXXXXXXXXXXXXXXXXXXXXXXXXXXXXXXXXXXXXXXXXXXXXXXXXXXXXXXXXXXXXXX",
"XXXXXXXXXXXXXXXXXXXXXXXXXXXXXXXXXXXXXXXXXXXXXXXXXXXXXXXXXXXXXXXXXXXXXXXXXXXXXXXX",
"                                                                                ",
"                                                                                ",
"#OO  XXXXXXXXXX  OO##OO  XXXXXXXXXX  OO##OO  XXXXXXXXXX  OO##OO  XXXXXXXXXX  OO#",
"#OO  XOOOOOOOOX  OO##OO  XOOOOOOOOX  OO##OO  XOOOOOOOOX  OO##OO  XOOOOOOOOX  OO#",
"#OO  XOOOOOOOOX  OO##OO  XOOOOOOOOX  OO##OO  XOOOOOOOOX  OO##OO  XOOOOOOOOX  OO#",
"#OO  XOOOOOOOOX  OO##OO  XOOOOOOOOX  OO##OO  XOOOOOOOOX  OO##OO  XOOOOOOOOX  OO#",
"#OO  XOOO##OOOX  OO##OO  XOOO##OOOX  OO##OO  XOOO##OOOX  OO##OO  XOOO##OOOX  OO#",
"#OO  XOO####OOX  OO##OO  XOO####OOX  OO##OO  XOO####OOX  OO##OO  XOO####OOX  OO#",
"#OO  XOO####OOX  OO##OO  XOO####OOX  OO##OO  XOO####OOX  OO##OO  XOO####OOX  OO#",
"#OO  XOO####OOX  OO##OO  XOO####OOX  OO##OO  XOO####OOX  OO##OO  XOO####OOX  OO#",
"#OO  XOO#OO#OOX  OO##OO  XOO#OO#OOX  OO##OO  XOO#OO#OOX  OO##OO  XOO#OO#OOX  OO#",
"#OO  XOOOOOOOOX  OO##OO  XOOOOOOOOX  OO##OO  XOOOOOOOOX  OO##OO  XOOOOOOOOX  OO#",
"#OO  XOOOOOOOOX  OO##OO  XOOOOOOOOX  OO##OO  XOOOOOOOOX  OO##OO  XOOOOOOOOX  OO#",
"#OO  XOOOOOOOOX  OO##OO  XOOOOOOOOX  OO##OO  XOOOOOOOOX  OO##OO  XOOOOOOOOX  OO#",
"#OO  XOOOOOOOOX  OO##OO  XOOOOOOOOX  OO##OO  XOOOOOOOOX  OO##OO  XOOOOOOOOX  OO#",
"#OO  XO     OOX  OO##OO  XOO    OOX  OO##OO  XOO    OOX  OO##OO  XOO     OX  OO#",
"#OO  X        X  OO##OO  X        X  OO##OO  X        X  OO##OO  X        X  OO#",
"#OO     oooo     OO##OO     oooo     OO##OO     oooo     OO##OO     oooo     OO#",
"#OO   oooooooo   OO##OO   oooooooo   OO##OO   oooooooo   OO##OO   oooooooo   OO#",
"#O   oooooooooo   O##O   oooooooooo   O##O   oooooooooo   O##O   oooooooooo   O#",
"    oooooooooooo        oooooooooooo        oooooooooooo        oooooooooooo    ",
"   oooooooooooooo      oooooooooooooo      oooooooooooooo      .oo..ooooooooo   ",
"ooooooooooo.ooooooooooooooooooooooooooooooooooooooooooooooooooo.o..ooooooooooooo",
"ooooooo..oo.oo..ooooooooooooooooooooooooooooooooooooooooooooooooo..ooooooooooooo",
"oooooooo..o.o..ooooooooooooooooooooooooooooooooooooooooooooooooooooooooooooooooo",
"oooooooo..ooo..ooooooooooooooooooooooooooooooooooooooooooooooooooooooooooooooooo",
"oooooooooooooooooooooooooooooooooooooooooooooooooooo.ooooooooooooooooooooooooooo",
"oooooooooooooooooooooooooooooooooooooooooooooooo..oo.oo..ooooooooooooooooooooooo",
"ooooooooooooooooooooooooooooooooooooooooooooooooo..o.o..oooooooooooooooooooooooo",
"ooooooooooooooooooooooooooooooooooooooooooooooooo..ooo..oooooooooooooooooooooooo",
"ooooooooooooooooooooooooooooooooooooooooooooooooooooooooooooooooooooooooooo.oooo",
"oooo.oooooooooooooooooooooooooooooooooooooooooooooooooooooooooooooooooo..oo.oo..",
"..oo.oo..ooooooooooooooooooooooooooooooooooooooooooooooooooooooooooooooo..o.o..o",
"o..o.o..oooooooooooooooooooooooooooooo.ooooooooooooooooooooooooooooooooo..ooo..o",
"o..ooo..oooooooooooooooooooooooooo..oo.oo..ooooooooooooooooooooooooooooooooooooo",
"ooooooooooooooooooooooooooooooooooo..o.o..oooooooooooooooooooooooooooooooooooooo"
};
