/* XPM */
static char *b8e3c19d14de42a0b8d578ec3ef3346fhGeYjWnebJvmln7A[] = {
/* columns rows colors chars-per-pixel */
"60 60 9 1 ",
"  c black",
". c #2A663A",
"X c #4E6353",
"o c #358F4E",
"O c #65806B",
"+ c #BA9865",
"@ c #D4B07B",
"# c #839C88",
"$ c #F5CE93",
/* pixels */
"oooooo.o.o.ooooooooooooooooooooooooooooooooooooooooooooooooo",
"oooooo.ooo.ooooooooooooooooooooooooooooooooooooooooooooooooo",
"ooooooooooooooooooooooooooooooooooooooo.oo.oo.oooooooooooooo",
"oooooooooooooooooooooooooooooooooooooooo.o.o.ooooooooooooooo",
"oooooooooooooooooooooooooooooooooooooooo.ooo.ooooooooooooooo",
"oooooooooooooooooooooooooooooooooooooooooooooooooooooooooooo",
"oooooooooooooooooooooooooooooooooooooooooooooooooooooooooooo",
"oooooooooooooooooo.oo.oo.ooooooooooooooooooooooooooooooooooo",
"ooooooooooooooooooo.o.o.oooooooooooooooooooooooooooooooooooo",
"ooooooooooooooooooo.ooo.ooooooooooooooooooooooooo.oo.oo.oooo",
"oooooooooooooooooooooooooooooooooooooooooooooooooo.o.o.ooooo",
".oo.oo.o    oooooooo    oooooooo    oooooooo    oo.ooo.o    ",
" .o.o.o      oooooo      oooooo      oooooo      oooooo     ",
"  ooo.   ##   oooo   ##   oooo   ##   oooo   ##   oooo   ## ",
"        O##O        O##O        O##O        O##O        O##O",
" O    O O##O O    O O##O O    O O##O O    O O##O O    O O##O",
" OOOOOO O##O OOOOOO O##O OOOOOO O##O OOOOOO O##O OOOOOO O##O",
" OOOOOO O##O OOOOOO O##O OOOOOO O##O OOOOOO O##O OOOOOO O##O",
" OOOOOO O##O OOOOOO O##O OOOOOO O##O OOOOOO O##O OOOOOO O##O",
" OOOOOO O##O OOOOOO O##O OOOOOO O##O OOOOOO O##O OOOOOO O##O",
" OOOOOO O##O OOOOOO O##O OOOOOO O##O OOOOOO O##O OOOOOO O##O",
" OOOOOO O##O OOOOOO O##O OOOOOO O##O OOOOOO O##O OOOOOO O##O",
" OOOOOO O##O OOOOOO O##O OOOOOO O##O OOOOOO O##O OOOOOO O##O",
" OOOOOO O##O OOOOOO O##O OOOOOO O##O OOOOOO O##O OOOOOO O##O",
" OOOOOO O##O OOOOOO O##O OOOOOO O##O OOOOOO O##O OOOOOO O##O",
" OOOOOO O##O OOOOOO O##O OOOOOO O##O OOOOOO O##O OOOOOO O##O",
"                                                            ",
"XXXXXXXXXXXXXXXXXXXXXXXXXXXXXXXXXXXXXXXXXXXXXXXXXXXXXXXXXXXX",
"OOOOOOOOOOOOOOOOOOOOOOOOOOOOOOOOOOOOOOOOOOOOOOOOOOOOOOOOOOOO",
"OOOOOOOOOOOOOOOOOOOOOOOOOOOOOOOOOOOOOOOOOOOOOOOOOOOOOOOOOOOO",
"XXXXXXXXXXXXXXXXXXXXXXXXXXXXXXXXXXXXXXXXXXXXXXXXXXXXXXXXXXXX",
"                                                            ",
" OOOOOO O##O OOOOOO O##O OOOOOO O##O OOOOOO O##O OOOOOO O##O",
" OOOOOO O##O OOOOOO O##O OOOOOO O##O OOOOOO O##O OOOOOO O##O",
" OOOOOO O##O OOOOOO O##O OOOOOO O##O OOOOOO O##O OOOOOO O##O",
" OOOOOO O##O OOOOOO O##O OOOOOO O##O OOOOOO O##O OOOOOO O##O",
" OOOOOO O##O OOOOOO O##O OOOOOO O##O OOOOOO O##O OOOOOO O##O",
" OOOOOO O##O OOOOOO O##O OOOOOO O##O OOOOOO O##O OOOOOO O##O",
" OOOOOO O##O OOOOOO O##O OOOOOO O##O OOOOOO O##O OOOOOO O##O",
" OOOOOO O##O OOOOOO O##O OOOOOO O##O OOOOOO O##O OOOOOO O##O",
" OOOOOO O##O OOOOOO O##O OOOOOO O##O OOOOOO O##O OOOOOO O##O",
" OOOOOO O##O OOOOOO O##O OOOOOO O##O OOOOOO O##O OOOOOO O##O",
" O    O O##O O    O O##O OOOOOO O##O OOOOOO O##O OOOOOO O##O",
"        O##O        O##O O    O O##O O    O O##O O    O O##O",
"  oooo   ##   oooo   ##         O##O        O##O        O##O",
" oooooo      oooooo       oooo   ##   oooo   ##   oooo   ## ",
"oooooooo    oooooooo     o.oooo      oooooo      oooooo     ",
"ooooooooooooooooooooooooooo.o.o.    oooooooo    oooooooo    ",
"...oooooooooooooooooooooooo.o.o.oooooooooooooooooooooooo.oo.",
"...oooooo.oo.oo.oooooooooooooooooooooooo.....ooooooooooooooo",
"+..ooooooo.o.o.oooooo....ooooooooooooooo............oooo....",
"+....ooooo.ooo.ooooo......ooooo.....ooo...++................",
"@+.......ooooooooo........................+++++++++.......++",
"@+++.....oooooo......+++++......+++.....++++++++++++++++++++",
"@@+++++..ooooo....+++++++++++++++++++++++@@@@@@@@+++++++++@@",
"@@@@@++....oo...+++++@@@@@@+++++@@@@++++@@@@@@@@@@@@@@@@@@@@",
"@@@@@@++.......+++++@@@@@@@@@@@@@@@@@@@@@@@@@@@@@@@@$@@@@@@@",
"@@$@@@@+++....++@@@@@@$@@@@@@@@@@@@@@@@@@@@@@@@@@@@@@@@@@@@@",
"@@@@@@@@+++++++@@@@@@@@@@@@@@@@@@@@@@@@@@@@@@@@@@@@@@@@@@@@@",
"@@@@@@@@@+++++@@@@@@@@@@@@@@@@@@@@@@@@@@@@@@$@@@@@@@@@@@@@@@"
};
