/* XPM */
static char *result[] = {
/* columns rows colors chars-per-pixel */
"80 80 9 1 ",
"  c black",
". c #2A663A",
"X c #4E6353",
"o c #358F4E",
"O c #65806B",
"+ c #BA9865",
"@ c #D4B07B",
"# c #839C88",
"$ c #F5CE93",
/* pixels */
"oooooooooooooo  ##################  XXOOOOXX  ##################  ooooo..++@@@@@",
"oooooooooooooo  OOOOOOOOOOOOOOOOOO  XXOOOOXX  OOOOOOOOOOOOOOOOOO  ooooo..++@@@@@",
"oooooooooooooo   OOOOOOOOOOOOOOOOO  XXOOOOXX  OOOOOOOOOOOOOOOOO  oooooo..++@@@@@",
"ooooooooooooooo                     XXOOOOXX                     oooooo..++@@@@@",
"oooooooooooooooo                    XXOOOOXX                    ooooooo..++@@@@@",
"ooooooooooooooooo  XXXXXXXXXXXXXXX  XXOOOOXX  XXXXXXXXXXXXXXX  oooooooo..++@@@@@",
"oooooooooooooooooo  OOOOOOOOOOOOOX  XXOOOOXX  XOOOOOOOOOOOOO  ooooooooo..++@@@@@",
"oooooooooooooooooo   OOOOOOOOOOOOX  XXOOOOXX  XOOOOOOOOOOOO   ooooooooo..++@@@@@",
"ooooooo.ooooooooooo  OOOO####OOOOX  XXOOOOXX  XOOOO####OOOO  oooooooooo..++@@@@@",
"ooo..oo.oo..ooooooo  OOOOO####OOOX  XXOOOOXX  XOOO####OOOOO  oooooooooo..++@@@@@",
"oooo..o.o..oooooooo  OOOOO####OOOX  XXOOOOXX  XOOO####OOOOO  oooooooooo..++@@@@@",
"oooo..ooo..oooooooo  OOOO####OOOOX  XXOOOOXX  XOOOO####OOOO  oooooooooo..++@@@@@",
"oooooooooooooooooo  OOOOOOOOOOOOOX  XXOOOOXX  XOOOOOOOOOOOOO  ooooooooo..++@@@@@",
"oooooooooooooooooo  OOOOOOOOOOOOOX  XXOOOOXX  XOOOOOOOOOOOOO  ooooooooo..++@@@@@",
"ooooooooooooooooo  XXXXXXXXXXXXXXX  XXOOOOXX  XXXXXXXXXXXXXXX  ooooooo...++@@@@@",
"oooooooooooooooo                    XXOOOOXX                    oooooo..+++@@@@@",
"ooooooooooooooo                     XXOOOOXX                     ooooo..+++@@@@@",
"oooooooooooooo   OOOOOOOOOOOOOOOOO  XXOOOOXX  OOOOOOOOOOOOOOOOO   oooo..+++@@@@@",
"oooooooooooooo  OOOOOOOOOOOOOOOOOO  XXOOOOXX  OOOOOOOOOOOOOOOOOO  oooo..++@@@@@@",
"oooooooooooooo  ##################  XXOOOOXX  ##################  oooo..++@@@@@@",
"oooooooooooooo  ##################  XXOOOOXX  ##################  oooo..++@@@@@@",
"oooooooooooooo  OOOOOOOOOOOOOOOOOO  XXOOOOXX  OOOOOOOOOOOOOOOOOO  ooo...++@@@@@@",
"oooooooooooooo   OOOOOOOOOOOOOOOOO  XXOOOOXX  OOOOOOOOOOOOOOOOO   ooo...++@@@@@@",
"ooooooooooooooo                     XXOOOOXX                     oooo..+++@@@@@@",
"oooooooooooooooo                    XXOOOOXX                    ooooo..+++@@@@@@",
"ooooooooooooooooo  XXXXXXXXXXXXXXX  XXOOOOXX  XXXXXXXXXXXXXXX  oooooo..+++@$@@@@",
"ooooooooooooooo.oo  OOOOOOOOOOOOOX  XXOOOOXX  XOOOOOOOOOOOOO  ooooooo..+++@@@@@@",
"ooooooooooo..oo.oo  OOOOOOOOOOOOOX  XXOOOOXX  XOOOOOOOOOOOOO  ooooooo..+++@@@@@@",
"oooooooooooo..o.o..  OOOO####OOOOX  XXOOOOXX  XOOOO####OOOO  oooooooo..+++@@@@@@",
"oooooooooooo..ooo..  OOOOO####OOOX  XXOOOOXX  XOOO####OOOOO  oooo..oo..+++@@@@@@",
"ooooooooooooooooooo  OOOOO####OOOX  XXOOOOXX  XOOO####OOOOO  ooooo..o...+++@@@@@",
"ooooooooooooooooooo  OOOO####OOOOX  XXOOOOXX  XOOOO####OOOO  ooooo..oo..++++@@@@",
"oooooooooooooooooo  OOOOOOOOOOOOOX  XXOOOOXX  XOOOOOOOOOOOOO  oooooooo..++++@@@@",
"oooooooooooooooooo  OOOOOOOOOOOOOX  XXOOOOXX  XOOOOOOOOOOOOO  ooooooooo..+++@@@@",
".oooooooooooooooo  XXXXXXXXXXXXXXX  XXOOOOXX  XXXXXXXXXXXXXXX  oooooooo...++@@@@",
".oo..ooooooooooo                    XXOOOOXX                    ooooooo...++@@@@",
".o..ooooooooooo                     XXOOOOXX                     ooooooo..+++@@@",
"oo..oooooooooo   OOOOOOOOOOOOOOOOO  XXOOOOXX  OOOOOOOOOOOOOOOOO   oooooo..+++@@@",
"oooooooooooooo  OOOOOOOOOOOOOOOOOO  XXOOOOXX  OOOOOOOOOOOOOOOOOO  oooooo..+++@@@",
"oooooooooooooo  ##################  XXOOOOXX  ##################  oooooo..+++@@@",
"oooooooooooooo  ##################  XXOOOOXX  ##################  oooooo..+++@@@",
"oooooooooooooo  OOOOOOOOOOOOOOOOOO  XXOOOOXX  OOOOOOOOOOOOOOOOOO  oooooo..+++@@@",
"oooooooooooooo   OOOOOOOOOOOOOOOOO  XXOOOOXX  OOOOOOOOOOOOOOOOO   oooooo...++@@@",
"ooooooooooooooo                     XXOOOOXX                     ooooooo...++@@@",
"oooooooooooooooo                    XXOOOOXX                    ooooooooo..++@@@",
"ooooooooooooooooo  XXXXXXXXXXXXXXX  XXOOOOXX  XXXXXXXXXXXXXXX  oooooooooo..++@@@",
"oooooooooooooooooo  OOOOOOOOOOOOOX  XXOOOOXX  XOOOOOOOOOOOOO  ooooooooooo..++@@@",
"oooooooooooooooooo  OOOOOOOOOOOOOX  XXOOOOXX  XOOOOOOOOOOOOO  ooooooooooo..++@@@",
"ooooooooooooooooooo  OOOO####OOOOX  XXOOOOXX  XOOOO####OOOO  oooooooooooo..++@@@",
"oooooooo.oooooooooo  OOOOO####OOOX  XXOOOOXX  XOOO####OOOOO  oooooooooooo..++@@@",
"oooooooo.oo..oooooo  OOOOO####OOOX  XXOOOOXX  XOOO####OOOOO  oooooooooooo..++@@@",
"oooooooo.o..ooooooo  OOOO####OOOOX  XXOOOOXX  XOOOO####OOOO  oooooooooooo..++@@@",
"oooooooooo..oooooo  OOOOOOOOOOOOOX  XXOOOOXX  XOOOOOOOOOOOOO  ooooooooooo..++@@@",
"oooooooooooooooooo  OOOOOOOOOOOOOX  XXOOOOXX  XOOOOOOOOOOOOO  ooooooooooo..++@@@",
"ooooooooooooooooo  XXXXXXXXXXXXXXX  XXOOOOXX  XXXXXXXXXXXXXXX  ooooooooo...++@@@",
"oooooooooooooooo                    XXOOOOXX                    oooooooo..+++@@@",
"ooooooooooooooo                     XXOOOOXX                     ooooooo..+++@@@",
"oooooooooooooo   OOOOOOOOOOOOOOOOO  XXOOOOXX  OOOOOOOOOOOOOOOOO   oooooo..+++@@@",
"oooooooooooooo  OOOOOOOOOOOOOOOOOO  XXOOOOXX  OOOOOOOOOOOOOOOOOO  oooooo..++@@@@",
"oooooooooooooo  ##################  XXOOOOXX  ##################  oooooo..++@@@@",
"oooooooooooooo  ##################  XXOOOOXX  ##################  ooooo...++@@@@",
"oooooooooooooo  OOOOOOOOOOOOOOOOOO  XXOOOOXX  OOOOOOOOOOOOOOOOOO  ooooo...++@@@@",
"oooooooooooooo   OOOOOOOOOOOOOOOOO  XXOOOOXX  OOOOOOOOOOOOOOOOO   ooooo..+++@@@@",
"ooooooooooooooo                     XXOOOOXX                     oooooo..++@@@@@",
"oooooooooooooooo                    XXOOOOXX                    oooooo...++@@@@@",
"ooooooooooooooooo  XXXXXXXXXXXXXXX  XXOOOOXX  XXXXXXXXXXXXXXX  ooooooo..+++@@@@@",
"oooooooooooooooooo  OOOOOOOOOOOOOX  XXOOOOXX  XOOOOOOOOOOOOO  oooooooo..+++@@@@@",
"oooooooooooooooooo  OOOOOOOOOOOOOX  XXOOOOXX  XOOOOOOOOOOOOO  oooooooo..+++@@@@@",
"ooooooooooooooooooo  OOOO####OOOOX  XXOOOOXX  XOOOO####OOOO  ooooooooo...++@@@@@",
"o..oooooooooooooooo  OOOOO####OOOX  XXOOOOXX  XOOO####OOOOO  ooooooooo...++@@@@@",
"..ooooooooooooooooo  OOOOO####OOOX  XXOOOOXX  XOOO####OOOOO  oooooooooo..++@@@@@",
"..ooooooooooooooooo  OOOO####OOOOX  XXOOOOXX  XOOOO####OOOO  o.oooooooo..++@@@@@",
"oooooooooooooooooo   OOOOOOOOOOOOX  XXOOOOXX  XOOOOOOOOOOOO   .oo..oooo..++@@@@@",
"oooooooooooooooooo  OOOOOOOOOOOOOX  XXOOOOXX  XOOOOOOOOOOOOO  .o..ooooo..++@@@@@",
"ooooooooooooooooo  XXXXXXXXXXXXXXX  XXOOOOXX  XXXXXXXXXXXXXXX  o..ooooo..++@@@@@",
"oooooooooooooooo                    XXOOOOXX                    ooooooo..++@@@@@",
"ooooooooooooooo                     XXOOOOXX                     oooooo..++@@@@@",
"oooooooooooooo   OOOOOOOOOOOOOOOOO  XXOOOOXX  OOOOOOOOOOOOOOOOO  oooooo..++@@@@@",
"oooooooooooooo  OOOOOOOOOOOOOOOOOO  XXOOOOXX  OOOOOOOOOOOOOOOOOO  ooooo..++@@@@@",
"oooooooooooooo  ##################  XXOOOOXX  ##################  ooooo..++@@@@@"
};
