/* XPM */
static char *Wg__[] = {
/* columns rows colors chars-per-pixel */
"60 60 26 1 ",
"  c #060B0F",
". c #070A10",
"X c #060B10",
"o c #060A11",
"O c #070A11",
"+ c #060D10",
"@ c #070D10",
"# c #060C12",
"$ c #080C10",
"% c #0A0D11",
"& c #090D13",
"* c #0A0D12",
"= c #0A0E13",
"- c #0A0F15",
"; c #0B1017",
": c #0B1118",
"> c #0A1218",
", c #0C1118",
"< c #0C1119",
"1 c #0D1319",
"2 c #0D121A",
"3 c #0C131A",
"4 c #0D131A",
"5 c #0D151B",
"6 c #0E161D",
"7 c #0F171D",
/* pixels */
"777777777777777777777777777777777777775777776667777777777777",
"777777777677777777777777777777777777777577776667777777777777",
"777777776666766777777777777777777777777767776666777777777777",
"55555555537575757777777777777777777777:775575555777754747777",
"555555557:734777556365:655555:5775577::735555555:74757775577",
":4:::::::::::;4-7;;7735555555755:75:;4:-3;;;;;;;:;;--;4-4557",
"4444444444444444;1;;;;3;;:;;;;;;::::5:44555<5<5<7:444:4:4445",
"44444444444444443544;555555533734444454435<555<5444444474455",
"5555555555555444445544444444444444445555557:7::4755544445554",
"555555555555555555555555555555555555555555575577355547555555",
"444444447;444447555555745555555574444444:54437447::744777455",
"44444444444474445;;4444544;5444:444444445:4443::444:4444:7-5",
"4;-4-;-;-;-;;;;;-;;;;;;;;;;>;;;;:;;4;;;;;;;;;;;;-:--:-:;-:-5",
"--------------;-;;;;;;;;;;;;;;;;-:;;;;-:----;;;------:---4X-",
"-@X X X XXXXXXX @ $$            XXX X@XXXX@X  X @ XXXXXXX-X-",
"***---*--*-*--*-****$;*$*;*;**;*@*-**-***-*-**-*-**---*XX*-*",
"***-*@***@**- **** *** ******$@*****X-****@@***$$*- ****$%;$",
";**--*-*;$;***-*;**;*---***@;$*;*--**-*--*--*--*;*---*-X % ;",
" $* ***-**-**--**;;*-**-;;*;;*;**@---*-@-***@-** $*$ **X ; $",
"* * *X#X@** *X-X; $ @@*X  *  * $*X** * *X*X**XXX* * * -@ ; ;",
" @@@XXX@ XX@* @* **X-XX-X@X*$@* *X*XX*X**X*XXX    @X  *@ * ;",
"* X*XXXXXXXX@ XX  XXXX@X#+@X  XXXXXXXXXXXX  *******@**   ; *",
"-XXXXX@XXXX@$ $    @XXXX*XX@*@-X@X*@* #@* ** *  * X*; $  ;$*",
"X#X****X*-X*$    $@**X*XX-*XX* *@-@* *@* * ;**-****-$%$  *$;",
"*X*$**$*%%*%;%%%%     $$XXXX*XXX @ @@ @X @XX@@   X @XX*X ;$%",
" *-**--*$;;$$%%%%%;%$;$ X- *@@@*-***@+ *@***@*X*@***-@** ;$;",
"*-*--**-$%$;*;%;;$%%%%;$**  X@@X*@* @#--*--*X-**** *@* X *%;",
"*X***$**;$%%;$;$%;; ;;%%**-**X*-@* *@@@@ *X*X*-**** *#@X$% %",
"*  *****%%%;%%%%%%;$%%;%$;%$--****@**@*@* X@X*X*@ XX*X-X$ ;$",
";*;*$$**$;$%$%%%%%$%%%$;;%;$****@-*****@-*-**XX@X**X@XXX$$$;",
"$$$$; $ $ $% ;% $$%%$;$%%%;;*;;***-*****-**@*@@**XX*-XX@ ;$ ",
";%$$$ ;*$$;$;$%;$;$%;$%%%$%$$$**-**:**;***-**-***-*-**XX $% ",
"$%$$*;$ $ $ * $;-***$*%%$%%%*-******;$$$;$;%%%;%%;%%%;;$ $$%",
";%;$**;$*;;$ ;$$**$-*$$$;$*$@*@* ***%$$;%$$$;%;%%;%;%% %$;$$",
"%% $ -*-*$%%** %* *-* ;;%$*;**X*$$* ; %%%%%;$*$$%%;%;$$;$%;$",
";$; ****;$;%$;%$**-@ ***%;*$****;;**$%%$%%%%%$%%;%%%    ;% ;",
"%%@X**--****; % *#*X@**X%%@**--***%;$;%%%%%$$$$;; % ;$ $ %%;",
";%;@@*X@$*- $;  X;XXX**- $ ***@X;$$;$%%;;%;$;$;$ $ ; $%%%%% ",
"%%  XXX@  -*X*%%#XX@XX@X  -*@@-*$$$%%;%%$%$;%;$$$%;$$$$;$; ;",
"%% @XX-X*@@@*@ $X#X@#XXX@* ***X*$$*$$%$%;%;%$$%;$;$%$;%$*  %",
";    ;;$@*;$%* @ *$   @*$$*%$;$*%%$$$$$$$$;$%;$%;%%%%; %*$$;",
"$ *$% $%*- *$***;$$ @@@*$$;$; * %%;$%;$$%%$$$%$;$$$;%%;%*%%$",
"; $;;$$%** $**@-$%; ;***;$;$$$*;%;%;;$$;%$%;$$$$%%;%$;%%;$$%",
"$%$%%$;%*$-*$***$;  * -*$%$%$;$*%$$;%$%$%%%%%;$$%  $$%%;$;$;",
";$%$$%%$**$;;*;$%%%+;$$;*;$$*@**%%%%%%%%$;$ ;;$$;  %;$* %*$;",
"$;*$;$$;*$%%$$%%%$$ *$*$* *$ *-*$%%$%$%%$$$  %%;$;%;** ;%%;$",
";$$; ;%$**%%$;%%%;* *;$$@   ***X%+$;$$;$$%$;%$$;$%$;*;$* *$$",
"%;$$*$%$;$%%%$%%$; $$$;;* ***XXX $$  ;$%%%$$;$$$;$$*  %$;$%%",
"%;;  ;  @XXX**;$$ ;$$$$$*   ;**  ;$%;%;% * **;$*$$$$;%;%$$ $",
"%$%$$$%$X*-*****$; ; ;;$*$;*  X- %% %$;  *;$$$$%$*;$  %$**;;",
";$$$% $%*@* @**$%* *%$$ $$   X*@;%%; ;   **$$$$$$% $  $$$*%*",
"%%; ;$$;*-**#;**%$ ;%;$;$;  @X@*  %+ $$%$ ;$;$;$; ;$;%;%%$;$",
" ;   ; $X**-* $$   ;%%%%%%%$%%% $  %%%  $ $%$$$;@@   %% *%%$",
"%;  $ $$**@***-*$;$ %;;%%%%;$%%;%%;$%$%;;$;%;$; @ @ %$ ;%%$;",
"      %+ XX@  $ $ $$ $$;;%%;;%$%; ; $ %;$%$%$   X#    % $%%$",
"*;%;%%;%**-*@*%%$;$;*% %$;%$;%;%;%%$;;%%$;$%;%$%-*$$;%; %%%;",
"$%%%%$%%%%%*%$%%%%%%%%%%%*$%%%%;$;%%**;**;*$$; %****** *$**;",
";$$;%;;$;$$;$;;*;$%;%;;%$$%%%%;$%$%;$*$***$*$;%;#--***;$**$$",
"$;;$;% ;%;;%;$%;%;;$;$$;$ *$;$$%%$$$%;%%;%;$$$%%-**-;*$*%$;;",
"%%%%$%%;%$%%*%%$%%%%%$% ;;$; * $$%$$$%;%  ;$%;$  ****$**%; $"
};
