/* XPM */
static char *result[] = {
/* columns rows colors chars-per-pixel */
"80 80 5 1 ",
"  c black",
". c #191919",
"X c #EE151F",
"o c #FFDDC8",
"O c None",
/* pixels */
"OOOOOOOOOOOOOOOOOOOOOOOOOOOOOOOOOOOOOOOOOOOOOOOOOOOOOOOOOOOOOOOOOOOOOOOOOOOOOOOO",
"OOOOOOOOOOOOOOOOOOOOOOOOOOOOOOOOOOOOOOOOOOOOOOOOOOOOOOOOOOOOOOOOOOOOOOOOOOOOOOOO",
"OOOOOOOOOOOOOOOOOOOOOOOOOOOOOOOOOOOOOOOOOOOOOOOOOOOOOOOOOOOOOOOOOOOOOOOOOOOOOOOO",
"OOOOOOOOOOOOOOOOOOOOOOOOOOOOOOOOOOOOOOOOOOOOOOOOOOOOOOOOOOOOOOOOOOOOOOOOOOOOOOOO",
"OOOOOOOOOOOOOOOOOOOOOOOOOOOOOOOOOOOOOOOOOOOOOOOOOOOOOOOOOOOOOOOOOOOOOOOOOOOOOOOO",
"OOOOOOOOOOOOOOOOOOOOOOOOOOOOOOOOOOOOOOOOOOOOOOOOOOOOOOOOOOOOOOOOOOOOOOOOOOOOOOOO",
"OOOOOOOOOOOOOOOOOOOOOOOOOOOOOOOOOOOOOOOOOOOOOOOOOOOOOOOOOOOOOOOOOOOOOOOOOOOOOOOO",
"OOOOOOOOOOOOOOOOOOOOOOOOOOOOOOOOOOOOOOOOOOOOOOOOOOOOOOOOOOOOOOOOOOOOOOOOOOOOOOOO",
"OOOOOOOOOOOOOOOOOOOOOOOOOOOOOOOOOOOOOOOOOOOOOOOOOOOOOOOOOOOOOOOOOOOOOOOOOOOOOOOO",
"OOOOOOOOOOOOOOOOOOOOOOOOOOOOOOOOOOOOOOOOOOOOOOOOOOOOOOOOOOOOOOOOOOOOOOOOOOOOOOOO",
"OOOOOOOOOOOOOOOOOOOOOOOOOOOOOOOOOOOOOOOOOOOOOOOOOOOOOOOOOOOOOOOOOOOOOOOOOOOOOOOO",
"OOOOOOOOOOOOOOOOOOOOOOOOOOOOOOOOOOOOOOOOOOOOOOOOOOOOOOOOOOOOOOOOOOOOOOOOOOOOOOOO",
"OOOOOOOOOOOOOOOOOOOOOOOOOOOOOOOOOOOOOOOOOOOOOOOOOOOOOOOOOOOOOOOOOOOOOOOOOOOOOOOO",
"OOOOOOOOOOOOOOOOOOOOOOOOOOOOOOOOOOOOOOOOOOOOOOOOOOOOOOOOOOOOOOOOOOOOOOOOOOOOOOOO",
"OOOOOOOOOOOOOOOOOOOOOOOOOOOOOOOOOOOOOOOOOOOOOOOOOOOOOOOOOOOOOOOOOOOOOOOOOOOOOOOO",
"OOOOOOOOOOOOOOOOOOOOOOOOOOOOOOOOOOOOOOOOOOOOOOOOOOOOOOOOOOOOOOOOOOOOOOOOOOOOOOOO",
"OOOOOOOOOOOOOOOOOOOOOOOOOOOOOOOOOOOOOOOOOOOOOOOOOOOOOOOOOOOOOOOOOOOOOOOOOOOOOOOO",
"OOOOOOOOOOOOOOOOOOOOOOOOOOOOOOOOOOOOOOOOOOOOOOOOOOOOOOOOOOOOOOOOOOOOOOOOOOOOOOOO",
"OOOOOOOOOOOOOOOOOOOOOOOOOOOOOO       OOOOOO       OOOOOOOOOOOOOOOOOOOOOOOOOOOOOO",
"OOOOOOOOOOOOOOOOOOOOOOOOOOOOO         OOOO         OOOOOOOOOOOOOOOOOOOOOOOOOOOOO",
"OOOOOOOOOOOOOOOOOOOOOOOOOOOO   .....   OO   .....   OOOOOOOOOOOOOOOOOOOOOOOOOOOO",
"OOOOOOOOOOOOOOOOOOOOOOOOOOO   .......      .......   OOOOOOOOOOOOOOOOOOOOOOOOOOO",
"OOOOOOOOOOOOOOOOOOOOOOOOOOO   .....          .....   OOOOOOOOOOOOOOOOOOOOOOOOOOO",
"OOOOOOOOOOOOOOOOOOOOOOOOOOO   ..                ..   OOOOOOOOOOOOOOOOOOOOOOOOOOO",
"OOOOOOOOOOOOOOOOOOOOOOOOOOO        oooooooooo        OOOOOOOOOOOOOOOOOOOOOOOOOOO",
"OOOOOOOOOOOOOOOOOOOOOOOOO       oooooooooooooooo       OOOOOOOOOOOOOOOOOOOOOOOOO",
"OOOOOOOOOOOOOOOOOOOOOOOO     oooooooooooooooooooooo     OOOOOOOOOOOOOOOOOOOOOOOO",
"OOOOOOOOOOOOOOOOOOOOOOO    ooooooooo  oooo  ooooooooo    OOOOOOOOOOOOOOOOOOOOOOO",
"OOOOOOOOOOOOOOOOOOOOOO    ooooooo   oooooooo   ooooooo    OOOOOOOOOOOOOOOOOOOOOO",
"OOOOOOOOOOOOOOOOOO       ooooo   oooooooooooooo   ooooo       OOOOOOOOOOOOOOOOOO",
"OOOOOOOOOOOOOOOO        oooo  oooooooooooooooooooo  oooo        OOOOOOOOOOOOOOOO",
"OOOOOOOOOOOOOOO         oooooooooooooooooooooooooooooooo         OOOOOOOOOOOOOOO",
"OOOOOOOOOOOOOO    ooX  . oooooooooooooooooooooooooooooo .  Xoo    OOOOOOOOOOOOOO",
"OOOOOOOOOOOOO   oooX   .. ooooooo oooooooooooo ooooooo ..   Xooo   OOOOOOOOOOOOO",
"OOOOOOOOOOOO   ooooX  .... oo    oooooooooooooo    oo ....  Xoooo   OOOOOOOOOOOO",
"OOOOOOOOOOOO   oooo   .....  oooooooooooooooooooooo  .....   oooo   OOOOOOOOOOOO",
"OOOOOOOOOOOO   oooo  ........   oooooooooooooooo   ........  oooo   OOOOOOOOOOOO",
"OOOOOOOOOOOO   oooo  ...........   oooooooooo   ...........  oooo   OOOOOOOOOOOO",
"OOOOOOOOOOOOO   ooo  ..............          ..............  ooo   OOOOOOOOOOOOO",
"OOOOOOOOOOOOOO       ......................................       OOOOOOOOOOOOOO",
"OOOOOOOOOOOOOOO      ......................................      OOOOOOOOOOOOOOO",
"OOOOOOOOOOOOOOOO     ......................................     OOOOOOOOOOOOOOOO",
"OOOOOOOOOOOOOOOOOO   ......................................   OOOOOOOOOOOOOOOOOO",
"OOOOOOOOOOOOOOO         ................................         OOOOOOOOOOOOOOO",
"OOOOOOOOOOOOOO       XXX .............................. XXX       OOOOOOOOOOOOOO",
"OOOOOOOOOOOO     .... XX .............................. XX ....     OOOOOOOOOOOO",
"OOOOOOOOOOO    ...... XXX ............................ XXX ......    OOOOOOOOOOO",
"OOOOOOOOOOO   ........ XXX  ........................  XXX ........   OOOOOOOOOOO",
"OOOOOOOOOO   .......... XXX ........................ XXX ..........   OOOOOOOOOO",
"OOOOOOOOO   ...........  XXX ...................... XXX  ...........   OOOOOOOOO",
"OOOOOOOOO   ............. XXX   ................   XXX .............   OOOOOOOOO",
"OOOOOOOO   ............... XXXX ................ XXXX ...............   OOOOOOOO",
"OOOOOOOO   ................  XX ................ XX  ................   OOOOOOOO",
"OOOOOOOO   ..................   ................   ..................   OOOOOOOO",
"OOOOOOOO   ...................     ..........     ...................   OOOOOOOO",
"OOOOOOOO   ...................                    ...................   OOOOOOOO",
"OOOOOOOO   ...................                    ...................   OOOOOOOO",
"OOOOOOOO   ...................   OO          OO   ...................   OOOOOOOO",
"OOOOOOOOO   .................   OOOOOOOOOOOOOOOO   .................   OOOOOOOOO",
"OOOOOOOOO   .................   OOOOOOOOOOOOOOOO   .................   OOOOOOOOO",
"OOOOOOOOOO   ...............   OOOOOOOOOOOOOOOOOO   ...............   OOOOOOOOOO",
"OOOOOOOOOOO   .............   OOOOOOOOOOOOOOOOOOOO   .............   OOOOOOOOOOO",
"OOOOOOOOOOO    ...........    OOOOOOOOOOOOOOOOOOOO    ...........    OOOOOOOOOOO",
"OOOOOOOOOOOO     .......     OOOOOOOOOOOOOOOOOOOOOO     .......     OOOOOOOOOOOO",
"OOOOOOOOOOOOOO             OOOOOOOOOOOOOOOOOOOOOOOOOO             OOOOOOOOOOOOOO",
"OOOOOOOOOOOOOOO           OOOOOOOOOOOOOOOOOOOOOOOOOOOO           OOOOOOOOOOOOOOO",
"OOOOOOOOOOOOOOOOO       OOOOOOOOOOOOOOOOOOOOOOOOOOOOOOOO       OOOOOOOOOOOOOOOOO",
"OOOOOOOOOOOOOOOOOOOOOOOOOOOOOOOOOOOOOOOOOOOOOOOOOOOOOOOOOOOOOOOOOOOOOOOOOOOOOOOO",
"OOOOOOOOOOOOOOOOOOOOOOOOOOOOOOOOOOOOOOOOOOOOOOOOOOOOOOOOOOOOOOOOOOOOOOOOOOOOOOOO",
"OOOOOOOOOOOOOOOOOOOOOOOOOOOOOOOOOOOOOOOOOOOOOOOOOOOOOOOOOOOOOOOOOOOOOOOOOOOOOOOO",
"OOOOOOOOOOOOOOOOOOOOOOOOOOOOOOOOOOOOOOOOOOOOOOOOOOOOOOOOOOOOOOOOOOOOOOOOOOOOOOOO",
"OOOOOOOOOOOOOOOOOOOOOOOOOOOOOOOOOOOOOOOOOOOOOOOOOOOOOOOOOOOOOOOOOOOOOOOOOOOOOOOO",
"OOOOOOOOOOOOOOOOOOOOOOOOOOOOOOOOOOOOOOOOOOOOOOOOOOOOOOOOOOOOOOOOOOOOOOOOOOOOOOOO",
"OOOOOOOOOOOOOOOOOOOOOOOOOOOOOOOOOOOOOOOOOOOOOOOOOOOOOOOOOOOOOOOOOOOOOOOOOOOOOOOO",
"OOOOOOOOOOOOOOOOOOOOOOOOOOOOOOOOOOOOOOOOOOOOOOOOOOOOOOOOOOOOOOOOOOOOOOOOOOOOOOOO",
"OOOOOOOOOOOOOOOOOOOOOOOOOOOOOOOOOOOOOOOOOOOOOOOOOOOOOOOOOOOOOOOOOOOOOOOOOOOOOOOO",
"OOOOOOOOOOOOOOOOOOOOOOOOOOOOOOOOOOOOOOOOOOOOOOOOOOOOOOOOOOOOOOOOOOOOOOOOOOOOOOOO",
"OOOOOOOOOOOOOOOOOOOOOOOOOOOOOOOOOOOOOOOOOOOOOOOOOOOOOOOOOOOOOOOOOOOOOOOOOOOOOOOO",
"OOOOOOOOOOOOOOOOOOOOOOOOOOOOOOOOOOOOOOOOOOOOOOOOOOOOOOOOOOOOOOOOOOOOOOOOOOOOOOOO",
"OOOOOOOOOOOOOOOOOOOOOOOOOOOOOOOOOOOOOOOOOOOOOOOOOOOOOOOOOOOOOOOOOOOOOOOOOOOOOOOO"
};
