/* XPM */
static char *result[] = {
/* columns rows colors chars-per-pixel */
"80 80 5 1 ",
"  c black",
". c #191919",
"X c #EE151F",
"o c #FFDDC8",
"O c None",
/* pixels */
"OOOOOOOOOOOOOOOOOOOOOOOOOOOOOOOOOOOOOOOOOOOOOOOOOOOOOOOOOOOOOOOOOOOOOOOOOOOOOOOO",
"OOOOOOOOOOOOOOOOOOOOOOOOOOOOOOOOOOOOOOOOOOOOOOOOOOOOOOOOOOOOOOOOOOOOOOOOOOOOOOOO",
"OOOOOOOOOOOOOOOOOOOOOOOOOOOOOOOOOOOOOOOOOOOOOOOOOOOOOOOOOOOOOOOOOOOOOOOOOOOOOOOO",
"OOOOOOOOOOOOOOOOOOOOOOOOOOOOOOOOOOOOOOOOOOOOOOOOOOOOOOOOOOOOOOOOOOOOOOOOOOOOOOOO",
"OOOOOOOOOOOOOOOOOOOOOOOOOOOOOOOOOOOOOOOOOOOOOOOOOOOOOOOOOOOOOOOOOOOOOOOOOOOOOOOO",
"OOOOOOOOOOOOOOOOOOOOOOOOOOOOOOOOOOOOOOOOOOOOOOOOOOOOOOOOOOOOOOOOOOOOOOOOOOOOOOOO",
"OOOOOOOOOOOOOOOOOOOOOOOOOOOOOOOOOOOOOOOOOOOOOOOOOOOOOOOOOOOOOOOOOOOOOOOOOOOOOOOO",
"OOOOOOOOOOOOOOOOOOOOOOOOOOOOOOOOOOOOOOOOOOOOOOOOOOOOOOOOOOOOOOOOOOOOOOOOOOOOOOOO",
"OOOOOOOOOOOOOOOOOOOOOOOOOOOOOOOOOOOOOOOOOOOOOOOOOOOOOOOOOOOOOOOOOOOOOOOOOOOOOOOO",
"OOOOOOOOOOOOOOOOOOOOOOOOOOOOOOOOOOOOOOOOOOOOOOOOOOOOOOOOOOOOOOOOOOOOOOOOOOOOOOOO",
"OOOOOOOOOOOOOOOOOOOOOOOOOOOOOOOOOOOOOOOOOOOOOOOOOOOOOOOOOOOOOOOOOOOOOOOOOOOOOOOO",
"OOOOOOOOOOOOOOOOOOOOOOOOOOOOOOOOOOOOOOOOOOOOOOOOOOOOOOOOOOOOOOOOOOOOOOOOOOOOOOOO",
"OOOOOOOOOOOOOOOOOOOOOOOOOOOOOOOOOOOOOOOOOOOOOOOOOOOOOOOOOOOOOOOOOOOOOOOOOOOOOOOO",
"OOOOOOOOOOOOOOOOOOOOOOOOOOOOOOOOOOOOOOOOOOOOOOOOOOOOOOOOOOOOOOOOOOOOOOOOOOOOOOOO",
"OOOOOOOOOOOOOOOOOOOOOOOOOOOOOOOOOOOOOOOOOOOOOOOOOOOOOOOOOOOOOOOOOOOOOOOOOOOOOOOO",
"OOOOOOOOOOOOOOOOOOOOOOOOOOOOOOOOOOOOOOOOOOOOOOOOOOOOOOOOOOOOOOOOOOOOOOOOOOOOOOOO",
"OOOOOOOOOOOOOOOOOOOOOOOOOOOOOOOOOOOOOOOOOOOOOOOOOOOOOOOOOOOOOOOOOOOOOOOOOOOOOOOO",
"OOOOOOOOOOOOOOOOOOOOOOOOOOOOOOOOOOOOOOOOOOOOOOOOOOOOOOOOOOOOOOOOOOOOOOOOOOOOOOOO",
"OOOOOOOOOOOOOOOOOOOOOOOOOOOOOOOOOOOOOOOOOOO       OOOOOOOOOOOOOOOOOOOOOOOOOOOOOO",
"OOOOOOOOOOOOOOOOOOOOOOOOOOOOOOOOOOOOOOOOOO         OOOOOOOOOOOOOOOOOOOOOOOOOOOOO",
"OOOOOOOOOOOOOOOOOOOOOOOOOOOOOOOOOOOOOOOOO   .....   OOOOOOOOOOOOOOOOOOOOOOOOOOOO",
"OOOOOOOOOOOOOOOOOOOOOOOOOOOOOOOOOOOOOOOOO  .......   OOOOOOOOOOOOOOOOOOOOOOOOOOO",
"OOOOOOOOOOOOOOOOOOOOOOOOOOOOOOOOOO           .....   OOOOOOOOOOOOOOOOOOOOOOOOOOO",
"OOOOOOOOOOOOOOOOOOOOOOOOOOOOOOO                 ..   OOOOOOOOOOOOOOOOOOOOOOOOOOO",
"OOOOOOOOOOOOOOOOOOOOOOOOOOOO       oooooooooo        OOOOOOOOOOOOOOOOOOOOOOOOOOO",
"OOOOOOOOOOOOOOOOOOOOOOOOO       oooooooooooooooo       OOOOOOOOOOOOOOOOOOOOOOOOO",
"OOOOOOOOOOOOOOOOOOOOOOOO     oooooooooooooooooooooo     OOOOOOOOOOOOOOOOOOOOOOOO",
"OOOOOOOOOOOOOOOOO    O     ooooooooo  oooo  ooooooooo    OOOOOOOOOOOOOOOOOOOOOOO",
"OOOOOOOOOOOOOOOO          ooooooo   oooooooo   ooooooo    OOOOOOOOOOOOOOOOOOOOOO",
"OOOOOOOOOOOOOOO          ooooo   oooooooooooooo   ooooo    OOOOOOOOOOOOOOOOOOOOO",
"OOOOOOOOOOOOOO   oooo   oooo  oooooooooooooooooooo  oooo   OOOOOOOOOOOOOOOOOOOOO",
"OOOOOOOOOOOOO   ooooX   oooooooooooooooooooooooooooooooo   OOOOOOOOOOOOOOOOOOOOO",
"OOOOOOOOOOOOO   ooooX  . oooooooooooooooooooooooooooooo .   OOOOOOOOOOOOOOOOOOOO",
"OOOOOOOOOOOOO   oooo   .. ooooooo oooooooooooo ooooooo ..      OOOOOOOOOOOOOOOOO",
"OOOOOOOOOOOOO   oooo  .... oo    oooooooooooooo    oo ....      OOOOOOOOOOOOOOOO",
"OOOOOOOOOOOOOO   oo   .....  oooooooooooooooooooooo  .....       OOOOOOOOOOOOOOO",
"OOOOOOOOOOOOOOO      ........   oooooooooooooooo   ........  oo   OOOOOOOOOOOOOO",
"OOOOOOOOOOOOOOOO     ...........   oooooooooo   ...........  ooo   OOOOOOOOOOOOO",
"OOOOOOOOOOOOOOOOO    ..............          ..............  ooo   OOOOOOOOOOOOO",
"OOOOOOOOOOOOOOOOOO   ......................................  ooo   OOOOOOOOOOOOO",
"OOOOOOOOOOOOOOOOOO   ......................................  ooo   OOOOOOOOOOOOO",
"OOOOOOOOOOOOOOOOOO   ......................................  oo   OOOOOOOOOOOOOO",
"OOOOOOOOOOOOOOOOOO   ......................................      OOOOOOOOOOOOOOO",
"OOOOOOOOOOOOOOO         ................................         OOOOOOOOOOOOOOO",
"OOOOOOOOOOOOOO       XXX .............................. XXX       OOOOOOOOOOOOOO",
"OOOOOOOOOOOO     .... XX .............................. XX ....     OOOOOOOOOOOO",
"OOOOOOOOOOO    ...... XXX ............................ XXX ......    OOOOOOOOOOO",
"OOOOOOOOOOO   ........ XXX  ........................  XXX ........   OOOOOOOOOOO",
"OOOOOOOOOO   .......... XXX ........................ XXX ..........   OOOOOOOOOO",
"OOOOOOOOO   ...........  XXX ...................... XXX  ...........   OOOOOOOOO",
"OOOOOOOOO   ............. XXX   ................   XXX .............   OOOOOOOOO",
"OOOOOOOO   ............... XXXX ................ XXXX ...............   OOOOOOOO",
"OOOOOOOO   ................  XX ................ XX  ................   OOOOOOOO",
"OOOOOOOO   ..................   ................   ..................   OOOOOOOO",
"OOOOOOOO   ...................     ..........     ...................   OOOOOOOO",
"OOOOOOOO   ...................                    ...................   OOOOOOOO",
"OOOOOOOO   ...................                    ...................   OOOOOOOO",
"OOOOOOOO   ...................   OO          OO   ...................   OOOOOOOO",
"OOOOOOOOO   .................   OOOOOOOOOOOOOOOO   .................   OOOOOOOOO",
"OOOOOOOOO   .................   OOOOOOOOOOOOOOOO   .................   OOOOOOOOO",
"OOOOOOOOOO   ...............   OOOOOOOOOOOOOOOOOO   ...............   OOOOOOOOOO",
"OOOOOOOOOOO   .............   OOOOOOOOOOOOOOOOOOOO   .............   OOOOOOOOOOO",
"OOOOOOOOOOO    ...........    OOOOOOOOOOOOOOOOOOOO    ...........    OOOOOOOOOOO",
"OOOOOOOOOOOO     .......     OOOOOOOOOOOOOOOOOOOOOO     .......     OOOOOOOOOOOO",
"OOOOOOOOOOOOOO             OOOOOOOOOOOOOOOOOOOOOOOOOO             OOOOOOOOOOOOOO",
"OOOOOOOOOOOOOOO           OOOOOOOOOOOOOOOOOOOOOOOOOOOO           OOOOOOOOOOOOOOO",
"OOOOOOOOOOOOOOOOO       OOOOOOOOOOOOOOOOOOOOOOOOOOOOOOOO       OOOOOOOOOOOOOOOOO",
"OOOOOOOOOOOOOOOOOOOOOOOOOOOOOOOOOOOOOOOOOOOOOOOOOOOOOOOOOOOOOOOOOOOOOOOOOOOOOOOO",
"OOOOOOOOOOOOOOOOOOOOOOOOOOOOOOOOOOOOOOOOOOOOOOOOOOOOOOOOOOOOOOOOOOOOOOOOOOOOOOOO",
"OOOOOOOOOOOOOOOOOOOOOOOOOOOOOOOOOOOOOOOOOOOOOOOOOOOOOOOOOOOOOOOOOOOOOOOOOOOOOOOO",
"OOOOOOOOOOOOOOOOOOOOOOOOOOOOOOOOOOOOOOOOOOOOOOOOOOOOOOOOOOOOOOOOOOOOOOOOOOOOOOOO",
"OOOOOOOOOOOOOOOOOOOOOOOOOOOOOOOOOOOOOOOOOOOOOOOOOOOOOOOOOOOOOOOOOOOOOOOOOOOOOOOO",
"OOOOOOOOOOOOOOOOOOOOOOOOOOOOOOOOOOOOOOOOOOOOOOOOOOOOOOOOOOOOOOOOOOOOOOOOOOOOOOOO",
"OOOOOOOOOOOOOOOOOOOOOOOOOOOOOOOOOOOOOOOOOOOOOOOOOOOOOOOOOOOOOOOOOOOOOOOOOOOOOOOO",
"OOOOOOOOOOOOOOOOOOOOOOOOOOOOOOOOOOOOOOOOOOOOOOOOOOOOOOOOOOOOOOOOOOOOOOOOOOOOOOOO",
"OOOOOOOOOOOOOOOOOOOOOOOOOOOOOOOOOOOOOOOOOOOOOOOOOOOOOOOOOOOOOOOOOOOOOOOOOOOOOOOO",
"OOOOOOOOOOOOOOOOOOOOOOOOOOOOOOOOOOOOOOOOOOOOOOOOOOOOOOOOOOOOOOOOOOOOOOOOOOOOOOOO",
"OOOOOOOOOOOOOOOOOOOOOOOOOOOOOOOOOOOOOOOOOOOOOOOOOOOOOOOOOOOOOOOOOOOOOOOOOOOOOOOO",
"OOOOOOOOOOOOOOOOOOOOOOOOOOOOOOOOOOOOOOOOOOOOOOOOOOOOOOOOOOOOOOOOOOOOOOOOOOOOOOOO",
"OOOOOOOOOOOOOOOOOOOOOOOOOOOOOOOOOOOOOOOOOOOOOOOOOOOOOOOOOOOOOOOOOOOOOOOOOOOOOOOO"
};
