/* XPM */
static char *result[] = {
/* columns rows colors chars-per-pixel */
"80 80 5 1 ",
"  c black",
". c #191919",
"X c #EE151F",
"o c #FFDDC8",
"O c None",
/* pixels */
"OOOOOOOOOOOOOOOOOOOOOOOOOOOOOOOOOOOOOOOOOOOOOOOOOOOOOOOOOOOOOOOOOOOOOOOOOOOOOOOO",
"OOOOOOOOOOOOOOOOOOOOOOOOOOOOOOOOOOOOOOOOOOOOOOOOOOOOOOOOOOOOOOOOOOOOOOOOOOOOOOOO",
"OOOOOOOOOOOOOOOOOOOOOOOOOOOOOOOOOOOOOOOOOOOOOOOOOOOOOOOOOOOOOOOOOOOOOOOOOOOOOOOO",
"OOOOOOOOOOOOOOOOOOOOOOOOOOOOOOOOOOOOOOOOOOOOOOOOOOOOOOOOOOOOOOOOOOOOOOOOOOOOOOOO",
"OOOOOOOOOOOOOOOOOOOOOOOOOOOOOOOOOOOOOOOOOOOOOOOOOOOOOOOOOOOOOOOOOOOOOOOOOOOOOOOO",
"OOOOOOOOOOOOOOOOOOOOOOOOOOOOOOOOOOOOOOOOOOOOOOOOOOOOOOOOOOOOOOOOOOOOOOOOOOOOOOOO",
"OOOOOOOOOOOOOOOOOOOOOOOOOOOOOOOOOOOOOOOOOOOOOOOOOOOOOOOOOOOOOOOOOOOOOOOOOOOOOOOO",
"OOOOOOOOOOOOOOOOOOOOOOOOOOOOOOOOOOOOOOOOOOOOOOOOOOOOOOOOOOOOOOOOOOOOOOOOOOOOOOOO",
"OOOOOOOOOOOOOOOOOOOOOO       OOOOOOOOOOOOOOOOOOOOOOOOOOOOOOOOOOOOOOOOOOOOOOOOOOO",
"OOOOOOOOOOOOOOOOOOOO           OOOOOOOOOOOOOOOOOOOOOOOOOOOOOOOOOOOOOOOOOOOOOOOOO",
"OOOOOOOOOOOOOOOOOOO             OOOOOOOOOOOOOOOOOOOOOOOOOOOOOOOOOOOOOOOOOOOOOOOO",
"OOOOOOOOOOOOOOOOO     .......     OOOOOOOOOOOOOOOOOOOOOOOOOOOOOOOOOOOOOOOOOOOOOO",
"OOOOOOOOOOOOOOOO    ...........    OOOOOOO    OOOOOOOOOOOOOOOOOOOOOOOOOOOOOOOOOO",
"OOOOOOOOOOOOOOOO   .............   OOOOOO      OOOOOOOOOOOOOOOOOOOOOOOOOOOOOOOOO",
"OOOOOOOOOOOOOOO   ...............   OOOO        OOOOOOOOOOOOOOOOOOOOOOOOOOOOOOOO",
"OOOOOOOOOOOOOO   .................   OO   oooo   OOOOOOOOOOOOOOOOOOOOOOOOOOOOOOO",
"OOOOOOOOOOOOOO   .................   O   oooooo   OOOOOOOOOOOOOOOOOOOOOOOOOOOOOO",
"OOOOOOOOOOOOO   ...................  O   oooooo   OOOOOOOOOOOOOOOOOOOOOOOOOOOOOO",
"OOOOOOOOOOOOO   ...................      ooooooo   OOOOOOOOOOOOOOOOOOOOOOOOOOOOO",
"OOOOOOOOOOOOO   ...................          XXo   OOOOOOOOOOOOOOOOOOOOOOOOOOOOO",
"OOOOOOOOOOOOO   ...................            X   OOOOOOOOOOOOOOOOOOOOOOOOOOOOO",
"OOOOOOOOOOOOO   .................  X .......       OOOOOOOOOOOOOOOOOOOOOOOOOOOOO",
"OOOOOOOOOOOOO   ................ XXX .........      OOOOOOOOOOOOOOOOOOOOOOOOOOOO",
"OOOOOOOOOOOOO   ..............  XXXX ...........     OOOOOOOOOOOOOOOOOOOOOOOOOOO",
"OOOOOOOOOOOOOO   ............. XXX  ........... oo    OOOOOOOOOOOOOOOOOOOOOOOOOO",
"OOOOOOOOOOOOOO   ............ XXX ............ oooo    OOOOOOOOOOOOOOOOOOOOOOOOO",
"OOOOOOOOOOOOOOO   .......... XXX ............ oooooo   OOOOOOOOOOOOOOOOOOOOOOOOO",
"OOOOOOOOOOOOOOOO   ........ XXX  ........... oooooooo      OOOOOOOOOOOOOOOOOOOOO",
"OOOOOOOOOOOOOOOO    ....... XX ............. oooo ooo       OOOOOOOOOOOOOOOOOOOO",
"OOOOOOOOOOOOOOOOO     .... XX ............. o ooo oooo       OOOOOOOOOOOOOOOOOOO",
"OOOOOOOOOOOOOOOOOOO        XX ............. o oooo ooo  ...   OOOOOOOOOOOOOOOOOO",
"OOOOOOOOOOOOOOOOOOOO          ............. o oooo ooo  ....  OOOOOOOOOOOOOOOOOO",
"OOOOOOOOOOOOOOOOOOOOOO    ................ oo oooo oooo  ...  OOOOOOOOOOOOOOOOOO",
"OOOOOOOOOOOOOOOOOOOOOOO   ................ ooo oooo ooo  ...  OOOOOOOOOOOOOOOOOO",
"OOOOOOOOOOOOOOOOOOOOOOO   ................ oooooooo ooo  ...  OOOOOOOOOOOOOOOOOO",
"OOOOOOOOOOOOOOOOOOOOOO   ................ ooooooooo oooo  ..  OOOOOOOOOOOOOOOOOO",
"OOOOOOOOOOOOOOOOOOOOOO   ................ oooooooooo ooo  .   OOOOOOOOOOOOOOOOOO",
"OOOOOOOOOOOOOOOOOOOOOO   ................ oooooooooo ooo     OOOOOOOOOOOOOOOOOOO",
"OOOOOOOOOOOOOOOOOOOOOO   ................ oooooooooooooo    OOOOOOOOOOOOOOOOOOOO",
"OOOOOOOOOOOOOOOOOOOOOO   ................ oooooooooooooo   OOOOOOOOOOOOOOOOOOOOO",
"OOOOOOOOOOOOOOOOOOOOOO   ................ oooooooooooooo   OOOOOOOOOOOOOOOOOOOOO",
"OOOOOOOOOOOOOOOOOOOOOO   ................ oooooooooooooo    OOOOOOOOOOOOOOOOOOOO",
"OOOOOOOOOOOOOOOOOOOOOO   ................ oooooooooo ooo     OOOOOOOOOOOOOOOOOOO",
"OOOOOOOOOOOOOOOOOOOOOO   ................ oooooooooo ooo  .   OOOOOOOOOOOOOOOOOO",
"OOOOOOOOOOOOOOOOOOOOOO   ................ ooooooooo oooo  ..  OOOOOOOOOOOOOOOOOO",
"OOOOOOOOOOOOOOOOOOOOOOO   ................ oooooooo ooo  ...  OOOOOOOOOOOOOOOOOO",
"OOOOOOOOOOOOOOOOOOOOOOO   ................ ooo oooo ooo  ...  OOOOOOOOOOOOOOOOOO",
"OOOOOOOOOOOOOOOOOOOOOO    ................ oo oooo oooo  ...  OOOOOOOOOOOOOOOOOO",
"OOOOOOOOOOOOOOOOOOOO          ............. o oooo ooo  ....  OOOOOOOOOOOOOOOOOO",
"OOOOOOOOOOOOOOOOOOO        XX ............. o oooo ooo  ...   OOOOOOOOOOOOOOOOOO",
"OOOOOOOOOOOOOOOOO     .... XX ............. o ooo oooo       OOOOOOOOOOOOOOOOOOO",
"OOOOOOOOOOOOOOOO    ....... XX ............. oooo ooo       OOOOOOOOOOOOOOOOOOOO",
"OOOOOOOOOOOOOOOO   ........ XXX  ........... oooooooo      OOOOOOOOOOOOOOOOOOOOO",
"OOOOOOOOOOOOOOO   .......... XXX ............ oooooo   OOOOOOOOOOOOOOOOOOOOOOOOO",
"OOOOOOOOOOOOOO   ............ XXX ............ oooo    OOOOOOOOOOOOOOOOOOOOOOOOO",
"OOOOOOOOOOOOOO   ............. XXX  ........... oo    OOOOOOOOOOOOOOOOOOOOOOOOOO",
"OOOOOOOOOOOOO   ..............  XXXX ...........     OOOOOOOOOOOOOOOOOOOOOOOOOOO",
"OOOOOOOOOOOOO   ................ XXX .........      OOOOOOOOOOOOOOOOOOOOOOOOOOOO",
"OOOOOOOOOOOOO   .................  X .......       OOOOOOOOOOOOOOOOOOOOOOOOOOOOO",
"OOOOOOOOOOOOO   ...................            X   OOOOOOOOOOOOOOOOOOOOOOOOOOOOO",
"OOOOOOOOOOOOO   ...................          XXo   OOOOOOOOOOOOOOOOOOOOOOOOOOOOO",
"OOOOOOOOOOOOO   ...................      ooooooo   OOOOOOOOOOOOOOOOOOOOOOOOOOOOO",
"OOOOOOOOOOOOO   ...................  O   oooooo   OOOOOOOOOOOOOOOOOOOOOOOOOOOOOO",
"OOOOOOOOOOOOOO   .................   O   oooooo   OOOOOOOOOOOOOOOOOOOOOOOOOOOOOO",
"OOOOOOOOOOOOOO   .................   OO   oooo   OOOOOOOOOOOOOOOOOOOOOOOOOOOOOOO",
"OOOOOOOOOOOOOOO   ...............   OOOO        OOOOOOOOOOOOOOOOOOOOOOOOOOOOOOOO",
"OOOOOOOOOOOOOOOO   .............   OOOOOO      OOOOOOOOOOOOOOOOOOOOOOOOOOOOOOOOO",
"OOOOOOOOOOOOOOOO    ...........    OOOOOOO    OOOOOOOOOOOOOOOOOOOOOOOOOOOOOOOOOO",
"OOOOOOOOOOOOOOOOO     .......     OOOOOOOOOOOOOOOOOOOOOOOOOOOOOOOOOOOOOOOOOOOOOO",
"OOOOOOOOOOOOOOOOOOO             OOOOOOOOOOOOOOOOOOOOOOOOOOOOOOOOOOOOOOOOOOOOOOOO",
"OOOOOOOOOOOOOOOOOOOO           OOOOOOOOOOOOOOOOOOOOOOOOOOOOOOOOOOOOOOOOOOOOOOOOO",
"OOOOOOOOOOOOOOOOOOOOOO       OOOOOOOOOOOOOOOOOOOOOOOOOOOOOOOOOOOOOOOOOOOOOOOOOOO",
"OOOOOOOOOOOOOOOOOOOOOOOOOOOOOOOOOOOOOOOOOOOOOOOOOOOOOOOOOOOOOOOOOOOOOOOOOOOOOOOO",
"OOOOOOOOOOOOOOOOOOOOOOOOOOOOOOOOOOOOOOOOOOOOOOOOOOOOOOOOOOOOOOOOOOOOOOOOOOOOOOOO",
"OOOOOOOOOOOOOOOOOOOOOOOOOOOOOOOOOOOOOOOOOOOOOOOOOOOOOOOOOOOOOOOOOOOOOOOOOOOOOOOO",
"OOOOOOOOOOOOOOOOOOOOOOOOOOOOOOOOOOOOOOOOOOOOOOOOOOOOOOOOOOOOOOOOOOOOOOOOOOOOOOOO",
"OOOOOOOOOOOOOOOOOOOOOOOOOOOOOOOOOOOOOOOOOOOOOOOOOOOOOOOOOOOOOOOOOOOOOOOOOOOOOOOO",
"OOOOOOOOOOOOOOOOOOOOOOOOOOOOOOOOOOOOOOOOOOOOOOOOOOOOOOOOOOOOOOOOOOOOOOOOOOOOOOOO",
"OOOOOOOOOOOOOOOOOOOOOOOOOOOOOOOOOOOOOOOOOOOOOOOOOOOOOOOOOOOOOOOOOOOOOOOOOOOOOOOO",
"OOOOOOOOOOOOOOOOOOOOOOOOOOOOOOOOOOOOOOOOOOOOOOOOOOOOOOOOOOOOOOOOOOOOOOOOOOOOOOOO"
};
