/* XPM */
static char *result[] = {
/* columns rows colors chars-per-pixel */
"80 80 5 1 ",
"  c black",
". c #191919",
"X c #EE151F",
"o c #FFDDC8",
"O c None",
/* pixels */
"OOOOOOOOOOOOOOOOOOOOOOOOOOOOOOOOOOOOOOOOOOOOOOOOOOOOOOOOOOOOOOOOOOOOOOOOOOOOOOOO",
"OOOOOOOOOOOOOOOOOOOOOOOOOOOOOOOOOOOOOOOOOOOOOOOOOOOOOOOOOOOOOOOOOOOOOOOOOOOOOOOO",
"OOOOOOOOOOOOOOOOOOOOOOOOOOOOOOOOOOOOOOOOOOOOOOOOOOOOOOOOOOOOOOOOOOOOOOOOOOOOOOOO",
"OOOOOOOOOOOOOOOOOOOOOOOOOOOOOOOOOOOOOOOOOOOOOOOOOOOOOOOOOOOOOOOOOOOOOOOOOOOOOOOO",
"OOOOOOOOOOOOOOOOOOOOOOOOOOOOOOOOOOOOOOOOOOOOOOOOOOOOOOOOOOOOOOOOOOOOOOOOOOOOOOOO",
"OOOOOOOOOOOOOOOOOOOOOOOOOOOOOOOOOOOOOOOOOOOOOOOOOOOOOOOOOOOOOOOOOOOOOOOOOOOOOOOO",
"OOOOOOOOOOOOOOOOOOOOOOOOOOOOOOOOOOOOOOOOOOOOOOOOOOOOOOOOOOOOOOOOOOOOOOOOOOOOOOOO",
"OOOOOOOOOOOOOOOOOOOOOOOOOOOOOOOOOOOOOOOOOOOOOOOOOOOOOOOOOOOOOOOOOOOOOOOOOOOOOOOO",
"OOOOOOOOOOOOOOOOOOOOOO       OOOOOOOOOOOOOOOOOOOOOOOOOOOOOOOOOOOOOOOOOOOOOOOOOOO",
"OOOOOOOOOOOOOOOOOOOO           OOOOOOOOOOOOOOOOOOOOOOOOOOOOOOOOOOOOOOOOOOOOOOOOO",
"OOOOOOOOOOOOOOOOOOO             OOOOOOOOOOOOOOOOOOOOOOOOOOOOOOOOOOOOOOOOOOOOOOOO",
"OOOOOOOOOOOOOOOOO     .......     OOOOOOOOOOOOOOOOOOOOOOOOOOOOOOOOOOOOOOOOOOOOOO",
"OOOOOOOOOOOOOOOO    ...........    OOOOOOOOOOOOOOOOOOOOOOOOOOOOOOOOOOOOOOOOOOOOO",
"OOOOOOOOOOOOOOOO   .............   OOOOOOOOOO    OOOOOOOOOOOOOOOOOOOOOOOOOOOOOOO",
"OOOOOOOOOOOOOOO   ...............   OOOOOOOO      OOOOOOOOOOOOOOOOOOOOOOOOOOOOOO",
"OOOOOOOOOOOOOO   .................   OOOOOO        OOOOOOOOOOOOOOOOOOOOOOOOOOOOO",
"OOOOOOOOOOOOOO   .................   OOOOO   oooo   OOOOOOOOOOOOOOOOOOOOOOOOOOOO",
"OOOOOOOOOOOOO   ...................  OOOO   oooooo   OOOOOOOOOOOOOOOOOOOOOOOOOOO",
"OOOOOOOOOOOOO   ...................         oooooo   OOOOOOOOOOOOOOOOOOOOOOOOOOO",
"OOOOOOOOOOOOO   ...................          ooooo   OOOOOOOOOOOOOOOOOOOOOOOOOOO",
"OOOOOOOOOOOOO   ...................            XXo   OOOOOOOOOOOOOOOOOOOOOOOOOOO",
"OOOOOOOOOOOOO   .................  X .......        OOOOOOOOOOOOOOOOOOOOOOOOOOOO",
"OOOOOOOOOOOOO   ................ XXX .........       OOOOOOOOOOOOOOOOOOOOOOOOOOO",
"OOOOOOOOOOOOO   ..............  XXXX ...........     OOOOOOOOOOOOOOOOOOOOOOOOOOO",
"OOOOOOOOOOOOOO   ............. XXX  ........... oo    OOOOOOOOOOOOOOOOOOOOOOOOOO",
"OOOOOOOOOOOOOO   ............ XXX ............ oooo    OOOOOOOOOOOOOOOOOOOOOOOOO",
"OOOOOOOOOOOOOOO   .......... XXX ............ oooooo   OOOOOOOOOOOOOOOOOOOOOOOOO",
"OOOOOOOOOOOOOOOO   ........ XXX  ........... oooooooo  OOOOOOOOOOOOOOOOOOOOOOOOO",
"OOOOOOOOOOOOOOOO    ....... XX ............. oooo ooo   OOOOOOOOOOOOOOOOOOOOOOOO",
"OOOOOOOOOOOOOOOOO     .... XX ............. o ooo oooo  OOOOOOOOOOOOOOOOOOOOOOOO",
"OOOOOOOOOOOOOOOOOOO        XX ............. o oooo ooo  OOOOOOOOOOOOOOOOOOOOOOOO",
"OOOOOOOOOOOOOOOOOOOO          ............. o oooo ooo   OOOOOOOOOOOOOOOOOOOOOOO",
"OOOOOOOOOOOOOOOOOOOOOO    ................ oo oooo oooo  OOOOOOOOOOOOOOOOOOOOOOO",
"OOOOOOOOOOOOOOOOOOOOOOO   ................ ooo oooo ooo  OOOOOOOOOOOOOOOOOOOOOOO",
"OOOOOOOOOOOOOOOOOOOOOOO   ................ oooooooo ooo   OOOOOOOOOOOOOOOOOOOOOO",
"OOOOOOOOOOOOOOOOOOOOOO   ................ ooooooooo oooo  OOOOOOOOOOOOOOOOOOOOOO",
"OOOOOOOOOOOOOOOOOOOOOO   ................ oooooooooo ooo  OOOOOOOOOOOOOOOOOOOOOO",
"OOOOOOOOOOOOOOOOOOOOOO   ................ oooooooooo ooo  OOOOOOOOOOOOOOOOOOOOOO",
"OOOOOOOOOOOOOOOOOOOOOO   ................ oooooooooooooo  OOOOOOOOOOOOOOOOOOOOOO",
"OOOOOOOOOOOOOOOOOOOOOO   ................ oooooooooooooo  OOOOOOOOOOOOOOOOOOOOOO",
"OOOOOOOOOOOOOOOOOOOOOO   ................ oooooooooooooo  OOOOOOOOOOOOOOOOOOOOOO",
"OOOOOOOOOOOOOOOOOOOOOO   ................ oooooooooooooo    OOOOOOOOOOOOOOOOOOOO",
"OOOOOOOOOOOOOOOOOOOOOO   ................ oooooooooo ooo     OOOOOOOOOOOOOOOOOOO",
"OOOOOOOOOOOOOOOOOOOOOO   ................ oooooooooo ooo  .   OOOOOOOOOOOOOOOOOO",
"OOOOOOOOOOOOOOOOOOOOOO   ................ ooooooooo oooo  ..  OOOOOOOOOOOOOOOOOO",
"OOOOOOOOOOOOOOOOOOOOOOO   ................ oooooooo ooo  ...  OOOOOOOOOOOOOOOOOO",
"OOOOOOOOOOOOOOOOOOOOOOO   ................ ooo oooo ooo  ...  OOOOOOOOOOOOOOOOOO",
"OOOOOOOOOOOOOOOOOOOOOO    ................ oo oooo oooo  ...  OOOOOOOOOOOOOOOOOO",
"OOOOOOOOOOOOOOOOOOOO          ............. o oooo ooo  ....  OOOOOOOOOOOOOOOOOO",
"OOOOOOOOOOOOOOOOOOO        XX ............. o oooo ooo  ...   OOOOOOOOOOOOOOOOOO",
"OOOOOOOOOOOOOOOOO     .... XX ............. o ooo oooo       OOOOOOOOOOOOOOOOOOO",
"OOOOOOOOOOOOOOOO    ....... XX ............. oooo ooo       OOOOOOOOOOOOOOOOOOOO",
"OOOOOOOOOOOOOOOO   ........ XXX  ........... oooooooo      OOOOOOOOOOOOOOOOOOOOO",
"OOOOOOOOOOOOOOO   .......... XXX ............ oooooo   OOOOOOOOOOOOOOOOOOOOOOOOO",
"OOOOOOOOOOOOOO   ............ XXX ............ oooo    OOOOOOOOOOOOOOOOOOOOOOOOO",
"OOOOOOOOOOOOOO   ............. XXX  ........... oo    OOOOOOOOOOOOOOOOOOOOOOOOOO",
"OOOOOOOOOOOOO   ..............  XXXX ...........     OOOOOOOOOOOOOOOOOOOOOOOOOOO",
"OOOOOOOOOOOOO   ................ XXX .........      OOOOOOOOOOOOOOOOOOOOOOOOOOOO",
"OOOOOOOOOOOOO   .................  X .......       OOOOOOOOOOOOOOOOOOOOOOOOOOOOO",
"OOOOOOOOOOOOO   ...................             OOOOOOOOOOOOOOOOOOOOOOOOOOOOOOOO",
"OOOOOOOOOOOOO   ...................            OOOOOOOOOOOOOOOOOOOOOOOOOOOOOOOOO",
"OOOOOOOOOOOOO   ...................   oooooo   OOOOOOOOOOOOOOOOOOOOOOOOOOOOOOOOO",
"OOOOOOOOOOOOO   ...................   oooooo   OOOOOOOOOOOOOOOOOOOOOOOOOOOOOOOOO",
"OOOOOOOOOOOOOO   .................     oooo   OOOOOOOOOOOOOOOOOOOOOOOOOOOOOOOOOO",
"OOOOOOOOOOOOOO   .................           OOOOOOOOOOOOOOOOOOOOOOOOOOOOOOOOOOO",
"OOOOOOOOOOOOOOO   ...............   OO      OOOOOOOOOOOOOOOOOOOOOOOOOOOOOOOOOOOO",
"OOOOOOOOOOOOOOOO   .............   OOOO    OOOOOOOOOOOOOOOOOOOOOOOOOOOOOOOOOOOOO",
"OOOOOOOOOOOOOOOO    ...........    OOOOOOOOOOOOOOOOOOOOOOOOOOOOOOOOOOOOOOOOOOOOO",
"OOOOOOOOOOOOOOOOO     .......     OOOOOOOOOOOOOOOOOOOOOOOOOOOOOOOOOOOOOOOOOOOOOO",
"OOOOOOOOOOOOOOOOOOO             OOOOOOOOOOOOOOOOOOOOOOOOOOOOOOOOOOOOOOOOOOOOOOOO",
"OOOOOOOOOOOOOOOOOOOO           OOOOOOOOOOOOOOOOOOOOOOOOOOOOOOOOOOOOOOOOOOOOOOOOO",
"OOOOOOOOOOOOOOOOOOOOOO       OOOOOOOOOOOOOOOOOOOOOOOOOOOOOOOOOOOOOOOOOOOOOOOOOOO",
"OOOOOOOOOOOOOOOOOOOOOOOOOOOOOOOOOOOOOOOOOOOOOOOOOOOOOOOOOOOOOOOOOOOOOOOOOOOOOOOO",
"OOOOOOOOOOOOOOOOOOOOOOOOOOOOOOOOOOOOOOOOOOOOOOOOOOOOOOOOOOOOOOOOOOOOOOOOOOOOOOOO",
"OOOOOOOOOOOOOOOOOOOOOOOOOOOOOOOOOOOOOOOOOOOOOOOOOOOOOOOOOOOOOOOOOOOOOOOOOOOOOOOO",
"OOOOOOOOOOOOOOOOOOOOOOOOOOOOOOOOOOOOOOOOOOOOOOOOOOOOOOOOOOOOOOOOOOOOOOOOOOOOOOOO",
"OOOOOOOOOOOOOOOOOOOOOOOOOOOOOOOOOOOOOOOOOOOOOOOOOOOOOOOOOOOOOOOOOOOOOOOOOOOOOOOO",
"OOOOOOOOOOOOOOOOOOOOOOOOOOOOOOOOOOOOOOOOOOOOOOOOOOOOOOOOOOOOOOOOOOOOOOOOOOOOOOOO",
"OOOOOOOOOOOOOOOOOOOOOOOOOOOOOOOOOOOOOOOOOOOOOOOOOOOOOOOOOOOOOOOOOOOOOOOOOOOOOOOO",
"OOOOOOOOOOOOOOOOOOOOOOOOOOOOOOOOOOOOOOOOOOOOOOOOOOOOOOOOOOOOOOOOOOOOOOOOOOOOOOOO"
};
