/* XPM */
static char *result[] = {
/* columns rows colors chars-per-pixel */
"80 80 5 1 ",
"  c black",
". c gray12",
"X c #ED1C24",
"o c #FFDCC7",
"O c None",
/* pixels */
"OOOOOOOOOOOOOOOOOOOOOOOOOOOOOOOOOOOOOOOOOOOOOOOOOOOOOOOOOOOOOOOOOOOOOOOOOOOOOOOO",
"OOOOOOOOOOOOOOOOOOOOOOOOOOOOOOOOOOOOOOOOOOOOOOOOOOOOOOOOOOOOOOOOOOOOOOOOOOOOOOOO",
"OOOOOOOOOOOOOOOOOOOOOOOOOOOOOOOOOOOOOOOOOOOOOOOOOOOOOOOOOOOOOOOOOOOOOOOOOOOOOOOO",
"OOOOOOOOOOOOOOOOOOOOOOOOOOOOOOOOOOOOOOOOOOOOOOOOOOOOOOOOOOOOOOOOOOOOOOOOOOOOOOOO",
"OOOOOOOOOOOOOOOOOOOOOOOOOOOOOOOOOOOOOOOOOOOOOOOOOOOOOOOOOOOOOOOOOOOOOOOOOOOOOOOO",
"OOOOOOOOOOOOOOOOOOOOOOOOOOOOOOOOOOOOOOOOOOOOOOOOOOOOOOOOOOOOOOOOOOOOOOOOOOOOOOOO",
"OOOOOOOOOOOOOOOOOOOOOOOOOOOOOOOOOOOOOOOOOOOOOOOOOOOOOOOOOOOOOOOOOOOOOOOOOOOOOOOO",
"OOOOOOOOOOOOOOOOOOOOOOOOOOOOOOOOOOOOOOOOOOOOOOOOOOOOOOOOOOOOOOOOOOOOOOOOOOOOOOOO",
"OOOOOOOOOOOOOOOOOOOOOOOOOOOOOOOOOOOOOOOOOOOOOOOOOOOOOOOOOOOOOOOOOOOOOOOOOOOOOOOO",
"OOOOOOOOOOOOOOOOOOOOOOOOOOOOOOOOOOOOOOOOOOOOOOOOOOOOOOOOOOOOOOOOOOOOOOOOOOOOOOOO",
"OOOOOOOOOOOOOOOOOOOOOOOOOOOOOOOOOOOOOOOOOOOOOOOOOOOOOOOOOOOOOOOOOOOOOOOOOOOOOOOO",
"OOOOOOOOOOOOOOOOOOOOOOOOOOOOOOOOOOOOOOOOOOOOOOOOOOOOOOOOOOOOOOOOOOOOOOOOOOOOOOOO",
"OOOOOOOOOOOOOOOOOOOOOOOOOOOOOOOOOOOOOOOOOOOOOOOOOOOOOOOOOOOOOOOOOOOOOOOOOOOOOOOO",
"OOOOOOOOOOOOOOOOO       OOOOOOOOOOOOOOOOOOOOOOOOOOOOOOOO       OOOOOOOOOOOOOOOOO",
"OOOOOOOOOOOOOOO           OOOOOOOOOOOOOOOOOOOOOOOOOOOO           OOOOOOOOOOOOOOO",
"OOOOOOOOOOOOOO             OOOOOOOOOOOOOOOOOOOOOOOOOO             OOOOOOOOOOOOOO",
"OOOOOOOOOOOO     .......     OOOOOOOOOOOOOOOOOOOOOO     .......     OOOOOOOOOOOO",
"OOOOOOOOOOO    ...........    OOOOOOOOOOOOOOOOOOOO    ...........    OOOOOOOOOOO",
"OOOOOOOOOOO   .............   OOOOOOOOOOOOOOOOOOOO   .............   OOOOOOOOOOO",
"OOOOOOOOOO   ...............   OOOOOOOOOOOOOOOOOO   ...............   OOOOOOOOOO",
"OOOOOOOOO   .................   OOOOOOOOOOOOOOOO   .................   OOOOOOOOO",
"OOOOOOOOO   .................   OOOOOOOOOOOOOOOO   .................   OOOOOOOOO",
"OOOOOOOO   ...................   OO          OO   ...................   OOOOOOOO",
"OOOOOOOO   ...................                    ...................   OOOOOOOO",
"OOOOOOOO   ...................                    ...................   OOOOOOOO",
"OOOOOOOO   ...................     ..........     ...................   OOOOOOOO",
"OOOOOOOO   ..................   ................   ..................   OOOOOOOO",
"OOOOOOOO   ................  XX ................ XX  ................   OOOOOOOO",
"OOOOOOOO   ............... XXXX ................ XXXX ...............   OOOOOOOO",
"OOOOOOOOO   ............. XXX   ................   XXX .............   OOOOOOOOO",
"OOOOOOOOO   ...........  XXX ...................... XXX  ...........   OOOOOOOOO",
"OOOOOOOOOO   .......... XXX ........................ XXX ..........   OOOOOOOOOO",
"OOOOOOOOOOO   ........ XXX  ........................  XXX ........   OOOOOOOOOOO",
"OOOOOOOOOOO    ...... XXX ............................ XXX ......    OOOOOOOOOOO",
"OOOOOOOOOOOO     .... XX .............................. XX ....     OOOOOOOOOOOO",
"OOOOOOOOOOOOOO       XXX .............................. XXX       OOOOOOOOOOOOOO",
"OOOOOOOOOOOOOOO         ................................         OOOOOOOOOOOOOOO",
"OOOOOOOOOOOOOOOOOO   ......................................   OOOOOOOOOOOOOOOOOO",
"OOOOOOOOOOOOOOOO     ......................................     OOOOOOOOOOOOOOOO",
"OOOOOOOOOOOOOOO      ......................................      OOOOOOOOOOOOOOO",
"OOOOOOOOOOOOOO       ......................................       OOOOOOOOOOOOOO",
"OOOOOOOOOOOOO   ooo  ..............          ..............  ooo   OOOOOOOOOOOOO",
"OOOOOOOOOOOO   oooo  ...........   oooooooooo   ...........  oooo   OOOOOOOOOOOO",
"OOOOOOOOOOOO   oooo  ........   oooooooooooooooo   ........  oooo   OOOOOOOOOOOO",
"OOOOOOOOOOOO   oooo   .....  oooooooooooooooooooooo  .....   oooo   OOOOOOOOOOOO",
"OOOOOOOOOOOO   ooooX  .... oo    oooooooooooooo    oo ....  Xoooo   OOOOOOOOOOOO",
"OOOOOOOOOOOOO   oooX   .. ooooooo oooooooooooo ooooooo ..   Xooo   OOOOOOOOOOOOO",
"OOOOOOOOOOOOOO    ooX  . oooooooooooooooooooooooooooooo .  Xoo    OOOOOOOOOOOOOO",
"OOOOOOOOOOOOOOO         oooooooooooooooooooooooooooooooo         OOOOOOOOOOOOOOO",
"OOOOOOOOOOOOOOOO        oooo  oooooooooooooooooooo  oooo        OOOOOOOOOOOOOOOO",
"OOOOOOOOOOOOOOOOOO       ooooo   oooooooooooooo   ooooo       OOOOOOOOOOOOOOOOOO",
"OOOOOOOOOOOOOOOOOOOOOO    ooooooo   oooooooo   ooooooo    OOOOOOOOOOOOOOOOOOOOOO",
"OOOOOOOOOOOOOOOOOOOOOOO    ooooooooo  oooo  ooooooooo    OOOOOOOOOOOOOOOOOOOOOOO",
"OOOOOOOOOOOOOOOOOOOOOOOO     oooooooooooooooooooooo     OOOOOOOOOOOOOOOOOOOOOOOO",
"OOOOOOOOOOOOOOOOOOOOOOOOO       oooooooooooooooo       OOOOOOOOOOOOOOOOOOOOOOOOO",
"OOOOOOOOOOOOOOOOOOOOOOOOOOO        oooooooooo        OOOOOOOOOOOOOOOOOOOOOOOOOOO",
"OOOOOOOOOOOOOOOOOOOOOOOOOOO   ..                ..   OOOOOOOOOOOOOOOOOOOOOOOOOOO",
"OOOOOOOOOOOOOOOOOOOOOOOOOOO   .....          .....   OOOOOOOOOOOOOOOOOOOOOOOOOOO",
"OOOOOOOOOOOOOOOOOOOOOOOOOOO   .......      .......   OOOOOOOOOOOOOOOOOOOOOOOOOOO",
"OOOOOOOOOOOOOOOOOOOOOOOOOOOO   .....   OO   .....   OOOOOOOOOOOOOOOOOOOOOOOOOOOO",
"OOOOOOOOOOOOOOOOOOOOOOOOOOOOO         OOOO         OOOOOOOOOOOOOOOOOOOOOOOOOOOOO",
"OOOOOOOOOOOOOOOOOOOOOOOOOOOOOO       OOOOOO       OOOOOOOOOOOOOOOOOOOOOOOOOOOOOO",
"OOOOOOOOOOOOOOOOOOOOOOOOOOOOOOOOOOOOOOOOOOOOOOOOOOOOOOOOOOOOOOOOOOOOOOOOOOOOOOOO",
"OOOOOOOOOOOOOOOOOOOOOOOOOOOOOOOOOOOOOOOOOOOOOOOOOOOOOOOOOOOOOOOOOOOOOOOOOOOOOOOO",
"OOOOOOOOOOOOOOOOOOOOOOOOOOOOOOOOOOOOOOOOOOOOOOOOOOOOOOOOOOOOOOOOOOOOOOOOOOOOOOOO",
"OOOOOOOOOOOOOOOOOOOOOOOOOOOOOOOOOOOOOOOOOOOOOOOOOOOOOOOOOOOOOOOOOOOOOOOOOOOOOOOO",
"OOOOOOOOOOOOOOOOOOOOOOOOOOOOOOOOOOOOOOOOOOOOOOOOOOOOOOOOOOOOOOOOOOOOOOOOOOOOOOOO",
"OOOOOOOOOOOOOOOOOOOOOOOOOOOOOOOOOOOOOOOOOOOOOOOOOOOOOOOOOOOOOOOOOOOOOOOOOOOOOOOO",
"OOOOOOOOOOOOOOOOOOOOOOOOOOOOOOOOOOOOOOOOOOOOOOOOOOOOOOOOOOOOOOOOOOOOOOOOOOOOOOOO",
"OOOOOOOOOOOOOOOOOOOOOOOOOOOOOOOOOOOOOOOOOOOOOOOOOOOOOOOOOOOOOOOOOOOOOOOOOOOOOOOO",
"OOOOOOOOOOOOOOOOOOOOOOOOOOOOOOOOOOOOOOOOOOOOOOOOOOOOOOOOOOOOOOOOOOOOOOOOOOOOOOOO",
"OOOOOOOOOOOOOOOOOOOOOOOOOOOOOOOOOOOOOOOOOOOOOOOOOOOOOOOOOOOOOOOOOOOOOOOOOOOOOOOO",
"OOOOOOOOOOOOOOOOOOOOOOOOOOOOOOOOOOOOOOOOOOOOOOOOOOOOOOOOOOOOOOOOOOOOOOOOOOOOOOOO",
"OOOOOOOOOOOOOOOOOOOOOOOOOOOOOOOOOOOOOOOOOOOOOOOOOOOOOOOOOOOOOOOOOOOOOOOOOOOOOOOO",
"OOOOOOOOOOOOOOOOOOOOOOOOOOOOOOOOOOOOOOOOOOOOOOOOOOOOOOOOOOOOOOOOOOOOOOOOOOOOOOOO",
"OOOOOOOOOOOOOOOOOOOOOOOOOOOOOOOOOOOOOOOOOOOOOOOOOOOOOOOOOOOOOOOOOOOOOOOOOOOOOOOO",
"OOOOOOOOOOOOOOOOOOOOOOOOOOOOOOOOOOOOOOOOOOOOOOOOOOOOOOOOOOOOOOOOOOOOOOOOOOOOOOOO",
"OOOOOOOOOOOOOOOOOOOOOOOOOOOOOOOOOOOOOOOOOOOOOOOOOOOOOOOOOOOOOOOOOOOOOOOOOOOOOOOO",
"OOOOOOOOOOOOOOOOOOOOOOOOOOOOOOOOOOOOOOOOOOOOOOOOOOOOOOOOOOOOOOOOOOOOOOOOOOOOOOOO",
"OOOOOOOOOOOOOOOOOOOOOOOOOOOOOOOOOOOOOOOOOOOOOOOOOOOOOOOOOOOOOOOOOOOOOOOOOOOOOOOO"
};
