/* XPM */
static char *result[] = {
/* columns rows colors chars-per-pixel */
"80 80 5 1 ",
"  c black",
". c #191919",
"X c #EE151F",
"o c #FFDDC8",
"O c None",
/* pixels */
"OOOOOOOOOOOOOOOOOOOOOOOOOOOOOOOOOOOOOOOOOOOOOOOOOOOOOOOOOOOOOOOOOOOOOOOOOOOOOOOO",
"OOOOOOOOOOOOOOOOOOOOOOOOOOOOOOOOOOOOOOOOOOOOOOOOOOOOOOOOOOOOOOOOOOOOOOOOOOOOOOOO",
"OOOOOOOOOOOOOOOOOOOOOOOOOOOOOOOOOOOOOOOOOOOOOOOOOOOOOOOOOOOOOOOOOOOOOOOOOOOOOOOO",
"OOOOOOOOOOOOOOOOOOOOOOOOOOOOOOOOOOOOOOOOOOOOOOOOOOOOOOOOOOOOOOOOOOOOOOOOOOOOOOOO",
"OOOOOOOOOOOOOOOOOOOOOOOOOOOOOOOOOOOOOOOOOOOOOOOOOOOOOOOOOOOOOOOOOOOOOOOOOOOOOOOO",
"OOOOOOOOOOOOOOOOOOOOOOOOOOOOOOOOOOOOOOOOOOOOOOOOOOOOOOOOOOOOOOOOOOOOOOOOOOOOOOOO",
"OOOOOOOOOOOOOOOOOOOOOOOOOOOOOOOOOOOOOOOOOOOOOOOOOOOOOOOOOOOOOOOOOOOOOOOOOOOOOOOO",
"OOOOOOOOOOOOOOOOOOOOOOOOOOOOOOOOOOOOOOOOOOOOOOOOOOOOOOOOOOOOOOOOOOOOOOOOOOOOOOOO",
"OOOOOOOOOOOOOOOOOOOOOOOOOOOOOOOOOOOOOOOOOOOOOOOOOOOOOOOOOOOOOOOOOOOOOOOOOOOOOOOO",
"OOOOOOOOOOOOOOOOOOOOOOOOOOOOOOOOOOOOOOOOOOOOOOOOOOOOOOOOOOOOOOOOOOOOOOOOOOOOOOOO",
"OOOOOOOOOOOOOOOOOOOOOOOOOOOOOOOOOOOOOOOOOOOOOOOOOOOOOOOOOOOOOOOOOOOOOOOOOOOOOOOO",
"OOOOOOOOOOOOOOOOOOOOOOOOOOOOOOOOOOOOOOOOOOOOOOOOOOOOOOOOOOOOOOOOOOOOOOOOOOOOOOOO",
"OOOOOOOOOOOOOOOOOOOOOOOOOOOOOOOOOOOOOOOOOOOOOOOOOOOOOOOOOOOOOOOOOOOOOOOOOOOOOOOO",
"OOOOOOOOOOOOOOOOO       OOOOOOOOOOOOOOOOOOOOOOOOOOOOOOOO       OOOOOOOOOOOOOOOOO",
"OOOOOOOOOOOOOOO           OOOOOOOOOOOOOOOOOOOOOOOOOOOO           OOOOOOOOOOOOOOO",
"OOOOOOOOOOOOOO             OOOOOOOOOOOOOOOOOOOOOOOOOO             OOOOOOOOOOOOOO",
"OOOOOOOOOOOO     .......     OOOOOOOOOOOOOOOOOOOOOO     .......     OOOOOOOOOOOO",
"OOOOOOOOOOO    ...........    OOOOOOOOOOOOOOOOOOOO    ...........    OOOOOOOOOOO",
"OOOOOOOOOOO   .............   OOOOOOOOOOOOOOOOOOOO   .............   OOOOOOOOOOO",
"OOOOOOOOOO   ...............   OOOOOOOOOOOOOOOOOO   ...............   OOOOOOOOOO",
"OOOOOOOOO   .................   OOOOOOOOOOOOOOOO   .................   OOOOOOOOO",
"OOOOOOOOO   .................   OOOOOOOOOOOOOOOO   .................   OOOOOOOOO",
"OOOOOOOO   ...................   OO          OO   ...................   OOOOOOOO",
"OOOOOOOO   ...................                    ...................   OOOOOOOO",
"OOOOOOOO   ...................                    ...................   OOOOOOOO",
"OOOOOOOO   ...................     ..........     ...................   OOOOOOOO",
"OOOOOOOO   ..................   ................   ..................   OOOOOOOO",
"OOOOOOOO   ................  XX ................ XX  ................   OOOOOOOO",
"OOOOOOOO   ............... XXXX ................ XXXX ...............   OOOOOOOO",
"OOOOOOOOO   ............. XXX   ................   XXX .............   OOOOOOOOO",
"OOOOOOOOO   ...........  XXX ...................... XXX  ...........   OOOOOOOOO",
"OOOOOOOOOO   .......... XXX ........................ XXX ..........   OOOOOOOOOO",
"OOOOOOOOOOO   ........ XXX  ........................  XXX ........   OOOOOOOOOOO",
"OOOOOOOOOOO    ...... XXX ............................ XXX ......    OOOOOOOOOOO",
"OOOOOOOOOOOO     .... XX .............................. XX ....     OOOOOOOOOOOO",
"OOOOOOOOOOOOOO       XXX .............................. XXX       OOOOOOOOOOOOOO",
"OOOOOOOOOOOOOOO         ................................         OOOOOOOOOOOOOOO",
"OOOOOOOOOOOOOOOOOO   ......................................      OOOOOOOOOOOOOOO",
"OOOOOOOOOOOOOOOOOO   ......................................  oo   OOOOOOOOOOOOOO",
"OOOOOOOOOOOOOOOOOO   ......................................  ooo   OOOOOOOOOOOOO",
"OOOOOOOOOOOOOOOOOO   ......................................  ooo   OOOOOOOOOOOOO",
"OOOOOOOOOOOOOOOOO    ..............          ..............  ooo   OOOOOOOOOOOOO",
"OOOOOOOOOOOOOOOO     ...........   oooooooooo   ...........  ooo   OOOOOOOOOOOOO",
"OOOOOOOOOOOOOOO      ........   oooooooooooooooo   ........  oo   OOOOOOOOOOOOOO",
"OOOOOOOOOOOOOO   oo   .....  oooooooooooooooooooooo  .....       OOOOOOOOOOOOOOO",
"OOOOOOOOOOOOO   oooo  .... oo    oooooooooooooo    oo ....      OOOOOOOOOOOOOOOO",
"OOOOOOOOOOOOO   oooo   .. ooooooo oooooooooooo ooooooo ..      OOOOOOOOOOOOOOOOO",
"OOOOOOOOOOOOO   ooooX  . oooooooooooooooooooooooooooooo .   OOOOOOOOOOOOOOOOOOOO",
"OOOOOOOOOOOOO   ooooX   oooooooooooooooooooooooooooooooo   OOOOOOOOOOOOOOOOOOOOO",
"OOOOOOOOOOOOOO   oooo   oooo  oooooooooooooooooooo  oooo   OOOOOOOOOOOOOOOOOOOOO",
"OOOOOOOOOOOOOOO          ooooo   oooooooooooooo   ooooo    OOOOOOOOOOOOOOOOOOOOO",
"OOOOOOOOOOOOOOOO          ooooooo   oooooooo   ooooooo    OOOOOOOOOOOOOOOOOOOOOO",
"OOOOOOOOOOOOOOOOO    O     ooooooooo  oooo  ooooooooo    OOOOOOOOOOOOOOOOOOOOOOO",
"OOOOOOOOOOOOOOOOOOOOOOOO     oooooooooooooooooooooo     OOOOOOOOOOOOOOOOOOOOOOOO",
"OOOOOOOOOOOOOOOOOOOOOOOOO       oooooooooooooooo       OOOOOOOOOOOOOOOOOOOOOOOOO",
"OOOOOOOOOOOOOOOOOOOOOOOOOOOO       oooooooooo        OOOOOOOOOOOOOOOOOOOOOOOOOOO",
"OOOOOOOOOOOOOOOOOOOOOOOOOOOOOOO                 ..   OOOOOOOOOOOOOOOOOOOOOOOOOOO",
"OOOOOOOOOOOOOOOOOOOOOOOOOOOOOOOOOO           .....   OOOOOOOOOOOOOOOOOOOOOOOOOOO",
"OOOOOOOOOOOOOOOOOOOOOOOOOOOOOOOOOOOOOOOOO  .......   OOOOOOOOOOOOOOOOOOOOOOOOOOO",
"OOOOOOOOOOOOOOOOOOOOOOOOOOOOOOOOOOOOOOOOO   .....   OOOOOOOOOOOOOOOOOOOOOOOOOOOO",
"OOOOOOOOOOOOOOOOOOOOOOOOOOOOOOOOOOOOOOOOOO         OOOOOOOOOOOOOOOOOOOOOOOOOOOOO",
"OOOOOOOOOOOOOOOOOOOOOOOOOOOOOOOOOOOOOOOOOOO       OOOOOOOOOOOOOOOOOOOOOOOOOOOOOO",
"OOOOOOOOOOOOOOOOOOOOOOOOOOOOOOOOOOOOOOOOOOOOOOOOOOOOOOOOOOOOOOOOOOOOOOOOOOOOOOOO",
"OOOOOOOOOOOOOOOOOOOOOOOOOOOOOOOOOOOOOOOOOOOOOOOOOOOOOOOOOOOOOOOOOOOOOOOOOOOOOOOO",
"OOOOOOOOOOOOOOOOOOOOOOOOOOOOOOOOOOOOOOOOOOOOOOOOOOOOOOOOOOOOOOOOOOOOOOOOOOOOOOOO",
"OOOOOOOOOOOOOOOOOOOOOOOOOOOOOOOOOOOOOOOOOOOOOOOOOOOOOOOOOOOOOOOOOOOOOOOOOOOOOOOO",
"OOOOOOOOOOOOOOOOOOOOOOOOOOOOOOOOOOOOOOOOOOOOOOOOOOOOOOOOOOOOOOOOOOOOOOOOOOOOOOOO",
"OOOOOOOOOOOOOOOOOOOOOOOOOOOOOOOOOOOOOOOOOOOOOOOOOOOOOOOOOOOOOOOOOOOOOOOOOOOOOOOO",
"OOOOOOOOOOOOOOOOOOOOOOOOOOOOOOOOOOOOOOOOOOOOOOOOOOOOOOOOOOOOOOOOOOOOOOOOOOOOOOOO",
"OOOOOOOOOOOOOOOOOOOOOOOOOOOOOOOOOOOOOOOOOOOOOOOOOOOOOOOOOOOOOOOOOOOOOOOOOOOOOOOO",
"OOOOOOOOOOOOOOOOOOOOOOOOOOOOOOOOOOOOOOOOOOOOOOOOOOOOOOOOOOOOOOOOOOOOOOOOOOOOOOOO",
"OOOOOOOOOOOOOOOOOOOOOOOOOOOOOOOOOOOOOOOOOOOOOOOOOOOOOOOOOOOOOOOOOOOOOOOOOOOOOOOO",
"OOOOOOOOOOOOOOOOOOOOOOOOOOOOOOOOOOOOOOOOOOOOOOOOOOOOOOOOOOOOOOOOOOOOOOOOOOOOOOOO",
"OOOOOOOOOOOOOOOOOOOOOOOOOOOOOOOOOOOOOOOOOOOOOOOOOOOOOOOOOOOOOOOOOOOOOOOOOOOOOOOO",
"OOOOOOOOOOOOOOOOOOOOOOOOOOOOOOOOOOOOOOOOOOOOOOOOOOOOOOOOOOOOOOOOOOOOOOOOOOOOOOOO",
"OOOOOOOOOOOOOOOOOOOOOOOOOOOOOOOOOOOOOOOOOOOOOOOOOOOOOOOOOOOOOOOOOOOOOOOOOOOOOOOO",
"OOOOOOOOOOOOOOOOOOOOOOOOOOOOOOOOOOOOOOOOOOOOOOOOOOOOOOOOOOOOOOOOOOOOOOOOOOOOOOOO",
"OOOOOOOOOOOOOOOOOOOOOOOOOOOOOOOOOOOOOOOOOOOOOOOOOOOOOOOOOOOOOOOOOOOOOOOOOOOOOOOO",
"OOOOOOOOOOOOOOOOOOOOOOOOOOOOOOOOOOOOOOOOOOOOOOOOOOOOOOOOOOOOOOOOOOOOOOOOOOOOOOOO",
"OOOOOOOOOOOOOOOOOOOOOOOOOOOOOOOOOOOOOOOOOOOOOOOOOOOOOOOOOOOOOOOOOOOOOOOOOOOOOOOO"
};
