/* XPM */
static char *result[] = {
/* columns rows colors chars-per-pixel */
"80 80 5 1 ",
"  c black",
". c #191919",
"X c #EE151F",
"o c #FFDDC8",
"O c None",
/* pixels */
"OOOOOOOOOOOOOOOOOOOOOOOOOOOOOOOOOOOOOOOOOOOOOOOOOOOOOOOOOOOOOOOOOOOOOOOOOOOOOOOO",
"OOOOOOOOOOOOOOOOOOOOOOOOOOOOOOOOOOOOOOOOOOOOOOOOOOOOOOOOOOOOOOOOOOOOOOOOOOOOOOOO",
"OOOOOOOOOOOOOOOOOOOOOOOOOOOOOOOOOOOOOOOOOOOOOOOOOOOOOOOOOOOOOOOOOOOOOOOOOOOOOOOO",
"OOOOOOOOOOOOOOOOOOOOOOOOOOOOOOOOOOOOOOOOOOOOOOOOOOOOOOOOOOOOOOOOOOOOOOOOOOOOOOOO",
"OOOOOOOOOOOOOOOOOOOOOOOOOOOOOOOOOOOOOOOOOOOOOOOOOOOOOOOOOOOOOOOOOOOOOOOOOOOOOOOO",
"OOOOOOOOOOOOOOOOOOOOOOOOOOOOOOOOOOOOOOOOOOOOOOOOOOOOOOOOOOOOOOOOOOOOOOOOOOOOOOOO",
"OOOOOOOOOOOOOOOOOOOOOOOOOOOOOOOOOOOOOOOOOOOOOOOOOOOOOOOOOOOOOOOOOOOOOOOOOOOOOOOO",
"OOOOOOOOOOOOOOOOOOOOOOOOOOOOOOOOOOOOOOOOOOOOOOOOOOOOOOOOOOOOOOOOOOOOOOOOOOOOOOOO",
"OOOOOOOOOOOOOOOOOOOOOOOOOOOOOOOOOOOOOOOOOOOOOOOOOOO       OOOOOOOOOOOOOOOOOOOOOO",
"OOOOOOOOOOOOOOOOOOOOOOOOOOOOOOOOOOOOOOOOOOOOOOOOO           OOOOOOOOOOOOOOOOOOOO",
"OOOOOOOOOOOOOOOOOOOOOOOOOOOOOOOOOOOOOOOOOOOOOOOO             OOOOOOOOOOOOOOOOOOO",
"OOOOOOOOOOOOOOOOOOOOOOOOOOOOOOOOOOOOOOOOOOOOOO     .......     OOOOOOOOOOOOOOOOO",
"OOOOOOOOOOOOOOOOOOOOOOOOOOOOOOOOOOOOOOOOOOOOO    ...........    OOOOOOOOOOOOOOOO",
"OOOOOOOOOOOOOOOOOOOOOOOOOOOOOOO    OOOOOOOOOO   .............   OOOOOOOOOOOOOOOO",
"OOOOOOOOOOOOOOOOOOOOOOOOOOOOOO      OOOOOOOO   ...............   OOOOOOOOOOOOOOO",
"OOOOOOOOOOOOOOOOOOOOOOOOOOOOO        OOOOOO   .................   OOOOOOOOOOOOOO",
"OOOOOOOOOOOOOOOOOOOOOOOOOOOO   oooo   OOOOO   .................   OOOOOOOOOOOOOO",
"OOOOOOOOOOOOOOOOOOOOOOOOOOO   oooooo   OOOO  ...................   OOOOOOOOOOOOO",
"OOOOOOOOOOOOOOOOOOOOOOOOOOO   oooooo         ...................   OOOOOOOOOOOOO",
"OOOOOOOOOOOOOOOOOOOOOOOOOOO   ooooo          ...................   OOOOOOOOOOOOO",
"OOOOOOOOOOOOOOOOOOOOOOOOOOO   oXX            ...................   OOOOOOOOOOOOO",
"OOOOOOOOOOOOOOOOOOOOOOOOOOOO        ....... X  .................   OOOOOOOOOOOOO",
"OOOOOOOOOOOOOOOOOOOOOOOOOOO       ......... XXX ................   OOOOOOOOOOOOO",
"OOOOOOOOOOOOOOOOOOOOOOOOOOO     ........... XXXX  ..............   OOOOOOOOOOOOO",
"OOOOOOOOOOOOOOOOOOOOOOOOOO    oo ...........  XXX .............   OOOOOOOOOOOOOO",
"OOOOOOOOOOOOOOOOOOOOOOOOO    oooo ............ XXX ............   OOOOOOOOOOOOOO",
"OOOOOOOOOOOOOOOOOOOOOOOOO   oooooo ............ XXX ..........   OOOOOOOOOOOOOOO",
"OOOOOOOOOOOOOOOOOOOOOOOOO  oooooooo ...........  XXX ........   OOOOOOOOOOOOOOOO",
"OOOOOOOOOOOOOOOOOOOOOOOO   ooo oooo ............. XX .......    OOOOOOOOOOOOOOOO",
"OOOOOOOOOOOOOOOOOOOOOOOO  oooo ooo o ............. XX ....     OOOOOOOOOOOOOOOOO",
"OOOOOOOOOOOOOOOOOOOOOOOO  ooo oooo o ............. XX        OOOOOOOOOOOOOOOOOOO",
"OOOOOOOOOOOOOOOOOOOOOOO   ooo oooo o .............          OOOOOOOOOOOOOOOOOOOO",
"OOOOOOOOOOOOOOOOOOOOOOO  oooo oooo oo ................    OOOOOOOOOOOOOOOOOOOOOO",
"OOOOOOOOOOOOOOOOOOOOOOO  ooo oooo ooo ................   OOOOOOOOOOOOOOOOOOOOOOO",
"OOOOOOOOOOOOOOOOOOOOOO   ooo oooooooo ................   OOOOOOOOOOOOOOOOOOOOOOO",
"OOOOOOOOOOOOOOOOOOOOOO  oooo ooooooooo ................   OOOOOOOOOOOOOOOOOOOOOO",
"OOOOOOOOOOOOOOOOOOOOOO  ooo oooooooooo ................   OOOOOOOOOOOOOOOOOOOOOO",
"OOOOOOOOOOOOOOOOOOOOOO  ooo oooooooooo ................   OOOOOOOOOOOOOOOOOOOOOO",
"OOOOOOOOOOOOOOOOOOOOOO  oooooooooooooo ................   OOOOOOOOOOOOOOOOOOOOOO",
"OOOOOOOOOOOOOOOOOOOOOO  oooooooooooooo ................   OOOOOOOOOOOOOOOOOOOOOO",
"OOOOOOOOOOOOOOOOOOOOOO  oooooooooooooo ................   OOOOOOOOOOOOOOOOOOOOOO",
"OOOOOOOOOOOOOOOOOOOO    oooooooooooooo ................   OOOOOOOOOOOOOOOOOOOOOO",
"OOOOOOOOOOOOOOOOOOO     ooo oooooooooo ................   OOOOOOOOOOOOOOOOOOOOOO",
"OOOOOOOOOOOOOOOOOO   .  ooo oooooooooo ................   OOOOOOOOOOOOOOOOOOOOOO",
"OOOOOOOOOOOOOOOOOO  ..  oooo ooooooooo ................   OOOOOOOOOOOOOOOOOOOOOO",
"OOOOOOOOOOOOOOOOOO  ...  ooo oooooooo ................   OOOOOOOOOOOOOOOOOOOOOOO",
"OOOOOOOOOOOOOOOOOO  ...  ooo oooo ooo ................   OOOOOOOOOOOOOOOOOOOOOOO",
"OOOOOOOOOOOOOOOOOO  ...  oooo oooo oo ................    OOOOOOOOOOOOOOOOOOOOOO",
"OOOOOOOOOOOOOOOOOO  ....  ooo oooo o .............          OOOOOOOOOOOOOOOOOOOO",
"OOOOOOOOOOOOOOOOOO   ...  ooo oooo o ............. XX        OOOOOOOOOOOOOOOOOOO",
"OOOOOOOOOOOOOOOOOOO       oooo ooo o ............. XX ....     OOOOOOOOOOOOOOOOO",
"OOOOOOOOOOOOOOOOOOOO       ooo oooo ............. XX .......    OOOOOOOOOOOOOOOO",
"OOOOOOOOOOOOOOOOOOOOO      oooooooo ...........  XXX ........   OOOOOOOOOOOOOOOO",
"OOOOOOOOOOOOOOOOOOOOOOOOO   oooooo ............ XXX ..........   OOOOOOOOOOOOOOO",
"OOOOOOOOOOOOOOOOOOOOOOOOO    oooo ............ XXX ............   OOOOOOOOOOOOOO",
"OOOOOOOOOOOOOOOOOOOOOOOOOO    oo ...........  XXX .............   OOOOOOOOOOOOOO",
"OOOOOOOOOOOOOOOOOOOOOOOOOOO     ........... XXXX  ..............   OOOOOOOOOOOOO",
"OOOOOOOOOOOOOOOOOOOOOOOOOOOO      ......... XXX ................   OOOOOOOOOOOOO",
"OOOOOOOOOOOOOOOOOOOOOOOOOOOOO       ....... X  .................   OOOOOOOOOOOOO",
"OOOOOOOOOOOOOOOOOOOOOOOOOOOOOOOO             ...................   OOOOOOOOOOOOO",
"OOOOOOOOOOOOOOOOOOOOOOOOOOOOOOOOO            ...................   OOOOOOOOOOOOO",
"OOOOOOOOOOOOOOOOOOOOOOOOOOOOOOOOO   oooooo   ...................   OOOOOOOOOOOOO",
"OOOOOOOOOOOOOOOOOOOOOOOOOOOOOOOOO   oooooo   ...................   OOOOOOOOOOOOO",
"OOOOOOOOOOOOOOOOOOOOOOOOOOOOOOOOOO   oooo     .................   OOOOOOOOOOOOOO",
"OOOOOOOOOOOOOOOOOOOOOOOOOOOOOOOOOOO           .................   OOOOOOOOOOOOOO",
"OOOOOOOOOOOOOOOOOOOOOOOOOOOOOOOOOOOO      OO   ...............   OOOOOOOOOOOOOOO",
"OOOOOOOOOOOOOOOOOOOOOOOOOOOOOOOOOOOOO    OOOO   .............   OOOOOOOOOOOOOOOO",
"OOOOOOOOOOOOOOOOOOOOOOOOOOOOOOOOOOOOOOOOOOOOO    ...........    OOOOOOOOOOOOOOOO",
"OOOOOOOOOOOOOOOOOOOOOOOOOOOOOOOOOOOOOOOOOOOOOO     .......     OOOOOOOOOOOOOOOOO",
"OOOOOOOOOOOOOOOOOOOOOOOOOOOOOOOOOOOOOOOOOOOOOOOO             OOOOOOOOOOOOOOOOOOO",
"OOOOOOOOOOOOOOOOOOOOOOOOOOOOOOOOOOOOOOOOOOOOOOOOO           OOOOOOOOOOOOOOOOOOOO",
"OOOOOOOOOOOOOOOOOOOOOOOOOOOOOOOOOOOOOOOOOOOOOOOOOOO       OOOOOOOOOOOOOOOOOOOOOO",
"OOOOOOOOOOOOOOOOOOOOOOOOOOOOOOOOOOOOOOOOOOOOOOOOOOOOOOOOOOOOOOOOOOOOOOOOOOOOOOOO",
"OOOOOOOOOOOOOOOOOOOOOOOOOOOOOOOOOOOOOOOOOOOOOOOOOOOOOOOOOOOOOOOOOOOOOOOOOOOOOOOO",
"OOOOOOOOOOOOOOOOOOOOOOOOOOOOOOOOOOOOOOOOOOOOOOOOOOOOOOOOOOOOOOOOOOOOOOOOOOOOOOOO",
"OOOOOOOOOOOOOOOOOOOOOOOOOOOOOOOOOOOOOOOOOOOOOOOOOOOOOOOOOOOOOOOOOOOOOOOOOOOOOOOO",
"OOOOOOOOOOOOOOOOOOOOOOOOOOOOOOOOOOOOOOOOOOOOOOOOOOOOOOOOOOOOOOOOOOOOOOOOOOOOOOOO",
"OOOOOOOOOOOOOOOOOOOOOOOOOOOOOOOOOOOOOOOOOOOOOOOOOOOOOOOOOOOOOOOOOOOOOOOOOOOOOOOO",
"OOOOOOOOOOOOOOOOOOOOOOOOOOOOOOOOOOOOOOOOOOOOOOOOOOOOOOOOOOOOOOOOOOOOOOOOOOOOOOOO",
"OOOOOOOOOOOOOOOOOOOOOOOOOOOOOOOOOOOOOOOOOOOOOOOOOOOOOOOOOOOOOOOOOOOOOOOOOOOOOOOO"
};
