/* XPM */
static char *result[] = {
/* columns rows colors chars-per-pixel */
"80 80 7 1 ",
"  c black",
". c #191919",
"X c #EE151F",
"o c #ED1C24",
"O c #FFDCC7",
"+ c #FFDDC8",
"@ c None",
/* pixels */
"@@@@@@@@@@@@@@@@@@@@@@@@@@@@@@@@@@@@@@@@@@@@@@@@@@@@@@@@@@@@@@@@@@@@@@@@@@@@@@@@",
"@@@@@@@@@@@@@@@@@@@@@@@@@@@@@@@@@@@@@@@@@@@@@@@@@@@@@@@@@@@@@@@@@@@@@@@@@@@@@@@@",
"@@@@@@@@@@@@@@@@@@@@@@@@@@@@@@@@@@@@@@@@@@@@@@@@@@@@@@@@@@@@@@@@@@@@@@@@@@@@@@@@",
"@@@@@@@@@@@@@@@@@@@@@@@@@@@@@@@@@@@@@@@@@@@@@@@@@@@@@@@@@@@@@@@@@@@@@@@@@@@@@@@@",
"@@@@@@@@@@@@@@@@@@@@@@@@@@@@@@@@@@@@@@@@@@@@@@@@@@@@@@@@@@@@@@@@@@@@@@@@@@@@@@@@",
"@@@@@@@@@@@@@@@@@@@@@@@@@@@@@@@@@@@@@@@@@@@@@@@@@@@@@@@@@@@@@@@@@@@@@@@@@@@@@@@@",
"@@@@@@@@@@@@@@@@@@@@@@@@@@@@@@@@@@@@@@@@@@@@@@@@@@@@@@@@@@@@@@@@@@@@@@@@@@@@@@@@",
"@@@@@@@@@@@@@@@@@@@@@@@@@@@@@@@@@@@@@@@@@@@@@@@@@@@@@@@@@@@@@@@@@@@@@@@@@@@@@@@@",
"@@@@@@@@@@@@@@@@@@@@@@@@@@@@@@@@@@@@@@@@@@@@@@@@@@@       @@@@@@@@@@@@@@@@@@@@@@",
"@@@@@@@@@@@@@@@@@@@@@@@@@@@@@@@@@@@@@@@@@@@@@@@@@           @@@@@@@@@@@@@@@@@@@@",
"@@@@@@@@@@@@@@@@@@@@@@@@@@@@@@@@@@@@@@@@@@@@@@@@             @@@@@@@@@@@@@@@@@@@",
"@@@@@@@@@@@@@@@@@@@@@@@@@@@@@@@@@@@@@@@@@@@@@@     .......     @@@@@@@@@@@@@@@@@",
"@@@@@@@@@@@@@@@@@@@@@@@@@@@@@@@@@@@@@@@@@@@@@    ...........    @@@@@@@@@@@@@@@@",
"@@@@@@@@@@@@@@@@@@@@@@@@@@@@@@@@@@@@@@@@@@@@@   .............   @@@@@@@@@@@@@@@@",
"@@@@@@@@@@@@@@@@@@@@@@@@@@@@@@@@@@@@@@@@@@@@   ...............   @@@@@@@@@@@@@@@",
"@@@@@@@@@@@@@@@@@@@@@@@@@@@@    @@@@@@@@@@@   .................   @@@@@@@@@@@@@@",
"@@@@@@@@@@@@@@@@@@@@@@@@@@@      @@@@@@@@@@   .................   @@@@@@@@@@@@@@",
"@@@@@@@@@@@@@@@@@@@@@@@@@@        @@@@@@@@@  ...................   @@@@@@@@@@@@@",
"@@@@@@@@@@@@@@@@@@@@@@@@@   ++++             ...................   @@@@@@@@@@@@@",
"@@@@@@@@@@@@@@@@@@@@@@@@@  +++++O            ...................   @@@@@@@@@@@@@",
"@@@@@@@@@@@@@@@@@@@@@@@@   +++++             ...................   @@@@@@@@@@@@@",
"@@@@@@@@@@@@@@@@@@@@@@@@   Oo       ....... X  .................   @@@@@@@@@@@@@",
"@@@@@@@@@@@@@@@@@@@@@@@@   o      ......... XXX ................   @@@@@@@@@@@@@",
"@@@@@@@@@@@@@@@@@@@@@@@@        ........... XXXX  ..............   @@@@@@@@@@@@@",
"@@@@@@@@@@@@@@@@@@@@@@@@@     ++ ...........  XXX .............   @@@@@@@@@@@@@@",
"@@@@@@@@@@@@@@@@@@@@@@@@@    ++++ ............ XXX ............   @@@@@@@@@@@@@@",
"@@@@@@@@@@@@@@@@@@@@@@@@@   ++++++ ............ XXX ..........   @@@@@@@@@@@@@@@",
"@@@@@@@@@@@@@@@@@@@@@@@@@  ++++++++ ...........  XXX ........   @@@@@@@@@@@@@@@@",
"@@@@@@@@@@@@@@@@@@@@@@@@   +++ ++++ ............. XX .......    @@@@@@@@@@@@@@@@",
"@@@@@@@@@@@@@@@@@@@@@@@@  ++++ +++ + ............. XX ....     @@@@@@@@@@@@@@@@@",
"@@@@@@@@@@@@@@@@@@@@@@@@  +++ ++++ + ............. XX        @@@@@@@@@@@@@@@@@@@",
"@@@@@@@@@@@@@@@@@@@@@@@   +++ ++++ + .............          @@@@@@@@@@@@@@@@@@@@",
"@@@@@@@@@@@@@@@@@@@@@@@  ++++ ++++ ++ ................       @@@@@@@@@@@@@@@@@@@",
"@@@@@@@@@@@@@@@@@@@@@@@  +++ ++++ +++ ................   ..  @@@@@@@@@@@@@@@@@@@",
"@@@@@@@@@@@@@@@@@@@@@@   +++ ++++++++ ................   ..  @@@@@@@@@@@@@@@@@@@",
"@@@@@@@@@@@@@@@@@@@@@@  ++++ +++++++++ ................  ..  @@@@@@@@@@@@@@@@@@@",
"@@@@@@@@@@@@@@@@@@@@@@  +++ ++++++++++ ................  ..  @@@@@@@@@@@@@@@@@@@",
"@@@@@@@@@@@@@@@@@@@@@@  +++ ++++++++++ ................  .   @@@@@@@@@@@@@@@@@@@",
"@@@@@@@@@@@@@@@@@@@@@@  ++++++++++++++ ................     @@@@@@@@@@@@@@@@@@@@",
"@@@@@@@@@@@@@@@@@@@@@@  ++++++++++++++ ................    @@@@@@@@@@@@@@@@@@@@@",
"@@@@@@@@@@@@@@@@@@@@@@  ++++++++++++++ ................   @@@@@@@@@@@@@@@@@@@@@@",
"@@@@@@@@@@@@@@@@@@@@    ++++++++++++++ ................   @@@@@@@@@@@@@@@@@@@@@@",
"@@@@@@@@@@@@@@@@@@@     +++ ++++++++++ ................   @@@@@@@@@@@@@@@@@@@@@@",
"@@@@@@@@@@@@@@@@@@   .  +++ ++++++++++ ................   @@@@@@@@@@@@@@@@@@@@@@",
"@@@@@@@@@@@@@@@@@@  ..  ++++ +++++++++ ................   @@@@@@@@@@@@@@@@@@@@@@",
"@@@@@@@@@@@@@@@@@@  ...  +++ ++++++++ ................   @@@@@@@@@@@@@@@@@@@@@@@",
"@@@@@@@@@@@@@@@@@@  ...  +++ ++++ +++ ................   @@@@@@@@@@@@@@@@@@@@@@@",
"@@@@@@@@@@@@@@@@@@  ...  ++++ ++++ ++ ................    @@@@@@@@@@@@@@@@@@@@@@",
"@@@@@@@@@@@@@@@@@@  ....  +++ ++++ + .............          @@@@@@@@@@@@@@@@@@@@",
"@@@@@@@@@@@@@@@@@@   ...  +++ ++++ + ............. XX        @@@@@@@@@@@@@@@@@@@",
"@@@@@@@@@@@@@@@@@@@       ++++ +++ + ............. XX ....     @@@@@@@@@@@@@@@@@",
"@@@@@@@@@@@@@@@@@@@@       +++ ++++ ............. XX .......    @@@@@@@@@@@@@@@@",
"@@@@@@@@@@@@@@@@@@@@@      ++++++++ ...........  XXX ........   @@@@@@@@@@@@@@@@",
"@@@@@@@@@@@@@@@@@@@@@@@@@   ++++++ ............ XXX ..........   @@@@@@@@@@@@@@@",
"@@@@@@@@@@@@@@@@@@@@@@@@@    ++++ ............ XXX ............   @@@@@@@@@@@@@@",
"@@@@@@@@@@@@@@@@@@@@@@@@@@    ++ ...........  XXX .............   @@@@@@@@@@@@@@",
"@@@@@@@@@@@@@@@@@@@@@@@@@@@     ........... XXXX  ..............   @@@@@@@@@@@@@",
"@@@@@@@@@@@@@@@@@@@@@@@@@@@@      ......... XXX ................   @@@@@@@@@@@@@",
"@@@@@@@@@@@@@@@@@@@@@@@@@@@@@       ....... X  .................   @@@@@@@@@@@@@",
"@@@@@@@@@@@@@@@@@@@@@@@@@@@@@@@@@            ...................   @@@@@@@@@@@@@",
"@@@@@@@@@@@@@@@@@@@@@@@@@@@@@@@@@@@          ...................   @@@@@@@@@@@@@",
"@@@@@@@@@@@@@@@@@@@@@@@@@@@@@@@@@@@@   OOOO  ...................   @@@@@@@@@@@@@",
"@@@@@@@@@@@@@@@@@@@@@@@@@@@@@@@@@@@@   ++++  ...................   @@@@@@@@@@@@@",
"@@@@@@@@@@@@@@@@@@@@@@@@@@@@@@@@@@@@@   +++O  .................   @@@@@@@@@@@@@@",
"@@@@@@@@@@@@@@@@@@@@@@@@@@@@@@@@@@@@@@        .................   @@@@@@@@@@@@@@",
"@@@@@@@@@@@@@@@@@@@@@@@@@@@@@@@@@@@@@@@        ...............   @@@@@@@@@@@@@@@",
"@@@@@@@@@@@@@@@@@@@@@@@@@@@@@@@@@@@@@@@@    @   .............   @@@@@@@@@@@@@@@@",
"@@@@@@@@@@@@@@@@@@@@@@@@@@@@@@@@@@@@@@@@@@@@@    ...........    @@@@@@@@@@@@@@@@",
"@@@@@@@@@@@@@@@@@@@@@@@@@@@@@@@@@@@@@@@@@@@@@@     .......     @@@@@@@@@@@@@@@@@",
"@@@@@@@@@@@@@@@@@@@@@@@@@@@@@@@@@@@@@@@@@@@@@@@@             @@@@@@@@@@@@@@@@@@@",
"@@@@@@@@@@@@@@@@@@@@@@@@@@@@@@@@@@@@@@@@@@@@@@@@@           @@@@@@@@@@@@@@@@@@@@",
"@@@@@@@@@@@@@@@@@@@@@@@@@@@@@@@@@@@@@@@@@@@@@@@@@@@       @@@@@@@@@@@@@@@@@@@@@@",
"@@@@@@@@@@@@@@@@@@@@@@@@@@@@@@@@@@@@@@@@@@@@@@@@@@@@@@@@@@@@@@@@@@@@@@@@@@@@@@@@",
"@@@@@@@@@@@@@@@@@@@@@@@@@@@@@@@@@@@@@@@@@@@@@@@@@@@@@@@@@@@@@@@@@@@@@@@@@@@@@@@@",
"@@@@@@@@@@@@@@@@@@@@@@@@@@@@@@@@@@@@@@@@@@@@@@@@@@@@@@@@@@@@@@@@@@@@@@@@@@@@@@@@",
"@@@@@@@@@@@@@@@@@@@@@@@@@@@@@@@@@@@@@@@@@@@@@@@@@@@@@@@@@@@@@@@@@@@@@@@@@@@@@@@@",
"@@@@@@@@@@@@@@@@@@@@@@@@@@@@@@@@@@@@@@@@@@@@@@@@@@@@@@@@@@@@@@@@@@@@@@@@@@@@@@@@",
"@@@@@@@@@@@@@@@@@@@@@@@@@@@@@@@@@@@@@@@@@@@@@@@@@@@@@@@@@@@@@@@@@@@@@@@@@@@@@@@@",
"@@@@@@@@@@@@@@@@@@@@@@@@@@@@@@@@@@@@@@@@@@@@@@@@@@@@@@@@@@@@@@@@@@@@@@@@@@@@@@@@",
"@@@@@@@@@@@@@@@@@@@@@@@@@@@@@@@@@@@@@@@@@@@@@@@@@@@@@@@@@@@@@@@@@@@@@@@@@@@@@@@@"
};
