/* XPM */
static char *result[] = {
/* columns rows colors chars-per-pixel */
"80 80 5 1 ",
"  c black",
". c #191919",
"X c #EE151F",
"o c #FFDDC8",
"O c None",
/* pixels */
"OOOOOOOOOOOOOOOOOOOOOOOOOOOOOOOOOOOOOOOOOOOOOOOOOOOOOOOOOOOOOOOOOOOOOOOOOOOOOOOO",
"OOOOOOOOOOOOOOOOOOOOOOOOOOOOOOOOOOOOOOOOOOOOOOOOOOOOOOOOOOOOOOOOOOOOOOOOOOOOOOOO",
"OOOOOOOOOOOOOOOOOOOOOOOOOOOOOOOOOOOOOOOOOOOOOOOOOOOOOOOOOOOOOOOOOOOOOOOOOOOOOOOO",
"OOOOOOOOOOOOOOOOOOOOOOOOOOOOOOOOOOOOOOOOOOOOOOOOOOOOOOOOOOOOOOOOOOOOOOOOOOOOOOOO",
"OOOOOOOOOOOOOOOOOOOOOOOOOOOOOOOOOOOOOOOOOOOOOOOOOOOOOOOOOOOOOOOOOOOOOOOOOOOOOOOO",
"OOOOOOOOOOOOOOOOOOOOOOOOOOOOOOOOOOOOOOOOOOOOOOOOOOOOOOOOOOOOOOOOOOOOOOOOOOOOOOOO",
"OOOOOOOOOOOOOOOOOOOOOOOOOOOOOOOOOOOOOOOOOOOOOOOOOOOOOOOOOOOOOOOOOOOOOOOOOOOOOOOO",
"OOOOOOOOOOOOOOOOOOOOOOOOOOOOOOOOOOOOOOOOOOOOOOOOOOOOOOOOOOOOOOOOOOOOOOOOOOOOOOOO",
"OOOOOOOOOOOOOOOOOOOOOOOOOOOOOOOOOOOOOOOOOOOOOOOOOOO       OOOOOOOOOOOOOOOOOOOOOO",
"OOOOOOOOOOOOOOOOOOOOOOOOOOOOOOOOOOOOOOOOOOOOOOOOO           OOOOOOOOOOOOOOOOOOOO",
"OOOOOOOOOOOOOOOOOOOOOOOOOOOOOOOOOOOOOOOOOOOOOOOO             OOOOOOOOOOOOOOOOOOO",
"OOOOOOOOOOOOOOOOOOOOOOOOOOOOOOOOOOOOOOOOOOOOOO     .......     OOOOOOOOOOOOOOOOO",
"OOOOOOOOOOOOOOOOOOOOOOOOOOOOOOOOOO    OOOOOOO    ...........    OOOOOOOOOOOOOOOO",
"OOOOOOOOOOOOOOOOOOOOOOOOOOOOOOOOO      OOOOOO   .............   OOOOOOOOOOOOOOOO",
"OOOOOOOOOOOOOOOOOOOOOOOOOOOOOOOO        OOOO   ...............   OOOOOOOOOOOOOOO",
"OOOOOOOOOOOOOOOOOOOOOOOOOOOOOOO   oooo   OO   .................   OOOOOOOOOOOOOO",
"OOOOOOOOOOOOOOOOOOOOOOOOOOOOOO   oooooo   O   .................   OOOOOOOOOOOOOO",
"OOOOOOOOOOOOOOOOOOOOOOOOOOOOOO   oooooo   O  ...................   OOOOOOOOOOOOO",
"OOOOOOOOOOOOOOOOOOOOOOOOOOOOO   ooooooo      ...................   OOOOOOOOOOOOO",
"OOOOOOOOOOOOOOOOOOOOOOOOOOOOO   oXX          ...................   OOOOOOOOOOOOO",
"OOOOOOOOOOOOOOOOOOOOOOOOOOOOO   X            ...................   OOOOOOOOOOOOO",
"OOOOOOOOOOOOOOOOOOOOOOOOOOOOO       ....... X  .................   OOOOOOOOOOOOO",
"OOOOOOOOOOOOOOOOOOOOOOOOOOOO      ......... XXX ................   OOOOOOOOOOOOO",
"OOOOOOOOOOOOOOOOOOOOOOOOOOO     ........... XXXX  ..............   OOOOOOOOOOOOO",
"OOOOOOOOOOOOOOOOOOOOOOOOOO    oo ...........  XXX .............   OOOOOOOOOOOOOO",
"OOOOOOOOOOOOOOOOOOOOOOOOO    oooo ............ XXX ............   OOOOOOOOOOOOOO",
"OOOOOOOOOOOOOOOOOOOOOOOOO   oooooo ............ XXX ..........   OOOOOOOOOOOOOOO",
"OOOOOOOOOOOOOOOOOOOOO      oooooooo ...........  XXX ........   OOOOOOOOOOOOOOOO",
"OOOOOOOOOOOOOOOOOOOO       ooo oooo ............. XX .......    OOOOOOOOOOOOOOOO",
"OOOOOOOOOOOOOOOOOOO       oooo ooo o ............. XX ....     OOOOOOOOOOOOOOOOO",
"OOOOOOOOOOOOOOOOOO   ...  ooo oooo o ............. XX        OOOOOOOOOOOOOOOOOOO",
"OOOOOOOOOOOOOOOOOO  ....  ooo oooo o .............          OOOOOOOOOOOOOOOOOOOO",
"OOOOOOOOOOOOOOOOOO  ...  oooo oooo oo ................    OOOOOOOOOOOOOOOOOOOOOO",
"OOOOOOOOOOOOOOOOOO  ...  ooo oooo ooo ................   OOOOOOOOOOOOOOOOOOOOOOO",
"OOOOOOOOOOOOOOOOOO  ...  ooo oooooooo ................   OOOOOOOOOOOOOOOOOOOOOOO",
"OOOOOOOOOOOOOOOOOO  ..  oooo ooooooooo ................   OOOOOOOOOOOOOOOOOOOOOO",
"OOOOOOOOOOOOOOOOOO   .  ooo oooooooooo ................   OOOOOOOOOOOOOOOOOOOOOO",
"OOOOOOOOOOOOOOOOOOO     ooo oooooooooo ................   OOOOOOOOOOOOOOOOOOOOOO",
"OOOOOOOOOOOOOOOOOOOO    oooooooooooooo ................   OOOOOOOOOOOOOOOOOOOOOO",
"OOOOOOOOOOOOOOOOOOOOO   oooooooooooooo ................   OOOOOOOOOOOOOOOOOOOOOO",
"OOOOOOOOOOOOOOOOOOOOO   oooooooooooooo ................   OOOOOOOOOOOOOOOOOOOOOO",
"OOOOOOOOOOOOOOOOOOOO    oooooooooooooo ................   OOOOOOOOOOOOOOOOOOOOOO",
"OOOOOOOOOOOOOOOOOOO     ooo oooooooooo ................   OOOOOOOOOOOOOOOOOOOOOO",
"OOOOOOOOOOOOOOOOOO   .  ooo oooooooooo ................   OOOOOOOOOOOOOOOOOOOOOO",
"OOOOOOOOOOOOOOOOOO  ..  oooo ooooooooo ................   OOOOOOOOOOOOOOOOOOOOOO",
"OOOOOOOOOOOOOOOOOO  ...  ooo oooooooo ................   OOOOOOOOOOOOOOOOOOOOOOO",
"OOOOOOOOOOOOOOOOOO  ...  ooo oooo ooo ................   OOOOOOOOOOOOOOOOOOOOOOO",
"OOOOOOOOOOOOOOOOOO  ...  oooo oooo oo ................    OOOOOOOOOOOOOOOOOOOOOO",
"OOOOOOOOOOOOOOOOOO  ....  ooo oooo o .............          OOOOOOOOOOOOOOOOOOOO",
"OOOOOOOOOOOOOOOOOO   ...  ooo oooo o ............. XX        OOOOOOOOOOOOOOOOOOO",
"OOOOOOOOOOOOOOOOOOO       oooo ooo o ............. XX ....     OOOOOOOOOOOOOOOOO",
"OOOOOOOOOOOOOOOOOOOO       ooo oooo ............. XX .......    OOOOOOOOOOOOOOOO",
"OOOOOOOOOOOOOOOOOOOOO      oooooooo ...........  XXX ........   OOOOOOOOOOOOOOOO",
"OOOOOOOOOOOOOOOOOOOOOOOOO   oooooo ............ XXX ..........   OOOOOOOOOOOOOOO",
"OOOOOOOOOOOOOOOOOOOOOOOOO    oooo ............ XXX ............   OOOOOOOOOOOOOO",
"OOOOOOOOOOOOOOOOOOOOOOOOOO    oo ...........  XXX .............   OOOOOOOOOOOOOO",
"OOOOOOOOOOOOOOOOOOOOOOOOOOO     ........... XXXX  ..............   OOOOOOOOOOOOO",
"OOOOOOOOOOOOOOOOOOOOOOOOOOOO      ......... XXX ................   OOOOOOOOOOOOO",
"OOOOOOOOOOOOOOOOOOOOOOOOOOOOO       ....... X  .................   OOOOOOOOOOOOO",
"OOOOOOOOOOOOOOOOOOOOOOOOOOOOO   X            ...................   OOOOOOOOOOOOO",
"OOOOOOOOOOOOOOOOOOOOOOOOOOOOO   oXX          ...................   OOOOOOOOOOOOO",
"OOOOOOOOOOOOOOOOOOOOOOOOOOOOO   ooooooo      ...................   OOOOOOOOOOOOO",
"OOOOOOOOOOOOOOOOOOOOOOOOOOOOOO   oooooo   O  ...................   OOOOOOOOOOOOO",
"OOOOOOOOOOOOOOOOOOOOOOOOOOOOOO   oooooo   O   .................   OOOOOOOOOOOOOO",
"OOOOOOOOOOOOOOOOOOOOOOOOOOOOOOO   oooo   OO   .................   OOOOOOOOOOOOOO",
"OOOOOOOOOOOOOOOOOOOOOOOOOOOOOOOO        OOOO   ...............   OOOOOOOOOOOOOOO",
"OOOOOOOOOOOOOOOOOOOOOOOOOOOOOOOOO      OOOOOO   .............   OOOOOOOOOOOOOOOO",
"OOOOOOOOOOOOOOOOOOOOOOOOOOOOOOOOOO    OOOOOOO    ...........    OOOOOOOOOOOOOOOO",
"OOOOOOOOOOOOOOOOOOOOOOOOOOOOOOOOOOOOOOOOOOOOOO     .......     OOOOOOOOOOOOOOOOO",
"OOOOOOOOOOOOOOOOOOOOOOOOOOOOOOOOOOOOOOOOOOOOOOOO             OOOOOOOOOOOOOOOOOOO",
"OOOOOOOOOOOOOOOOOOOOOOOOOOOOOOOOOOOOOOOOOOOOOOOOO           OOOOOOOOOOOOOOOOOOOO",
"OOOOOOOOOOOOOOOOOOOOOOOOOOOOOOOOOOOOOOOOOOOOOOOOOOO       OOOOOOOOOOOOOOOOOOOOOO",
"OOOOOOOOOOOOOOOOOOOOOOOOOOOOOOOOOOOOOOOOOOOOOOOOOOOOOOOOOOOOOOOOOOOOOOOOOOOOOOOO",
"OOOOOOOOOOOOOOOOOOOOOOOOOOOOOOOOOOOOOOOOOOOOOOOOOOOOOOOOOOOOOOOOOOOOOOOOOOOOOOOO",
"OOOOOOOOOOOOOOOOOOOOOOOOOOOOOOOOOOOOOOOOOOOOOOOOOOOOOOOOOOOOOOOOOOOOOOOOOOOOOOOO",
"OOOOOOOOOOOOOOOOOOOOOOOOOOOOOOOOOOOOOOOOOOOOOOOOOOOOOOOOOOOOOOOOOOOOOOOOOOOOOOOO",
"OOOOOOOOOOOOOOOOOOOOOOOOOOOOOOOOOOOOOOOOOOOOOOOOOOOOOOOOOOOOOOOOOOOOOOOOOOOOOOOO",
"OOOOOOOOOOOOOOOOOOOOOOOOOOOOOOOOOOOOOOOOOOOOOOOOOOOOOOOOOOOOOOOOOOOOOOOOOOOOOOOO",
"OOOOOOOOOOOOOOOOOOOOOOOOOOOOOOOOOOOOOOOOOOOOOOOOOOOOOOOOOOOOOOOOOOOOOOOOOOOOOOOO",
"OOOOOOOOOOOOOOOOOOOOOOOOOOOOOOOOOOOOOOOOOOOOOOOOOOOOOOOOOOOOOOOOOOOOOOOOOOOOOOOO"
};
