/* XPM */
static char *result[] = {
/* columns rows colors chars-per-pixel */
"80 80 5 1 ",
"  c black",
". c #191919",
"X c #EE151F",
"o c #FFDDC8",
"O c None",
/* pixels */
"OOOOOOOOOOOOOOOOOOOOOOOOOOOOOOOOOOOOOOOOOOOOOOOOOOOOOOOOOOOOOOOOOOOOOOOOOOOOOOOO",
"OOOOOOOOOOOOOOOOOOOOOOOOOOOOOOOOOOOOOOOOOOOOOOOOOOOOOOOOOOOOOOOOOOOOOOOOOOOOOOOO",
"OOOOOOOOOOOOOOOOOOOOOOOOOOOOOOOOOOOOOOOOOOOOOOOOOOOOOOOOOOOOOOOOOOOOOOOOOOOOOOOO",
"OOOOOOOOOOOOOOOOOOOOOOOOOOOOOOOOOOOOOOOOOOOOOOOOOOOOOOOOOOOOOOOOOOOOOOOOOOOOOOOO",
"OOOOOOOOOOOOOOOOOOOOOOOOOOOOOOOOOOOOOOOOOOOOOOOOOOOOOOOOOOOOOOOOOOOOOOOOOOOOOOOO",
"OOOOOOOOOOOOOOOOOOOOOOOOOOOOOOOOOOOOOOOOOOOOOOOOOOOOOOOOOOOOOOOOOOOOOOOOOOOOOOOO",
"OOOOOOOOOOOOOOOOOOOOOOOOOOOOOOOOOOOOOOOOOOOOOOOOOOOOOOOOOOOOOOOOOOOOOOOOOOOOOOOO",
"OOOOOOOOOOOOOOOOOOOOOOOOOOOOOOOOOOOOOOOOOOOOOOOOOOOOOOOOOOOOOOOOOOOOOOOOOOOOOOOO",
"OOOOOOOOOOOOOOOOOOOOOOOOOOOOOOOOOOOOOOOOOOOOOOOOOOO       OOOOOOOOOOOOOOOOOOOOOO",
"OOOOOOOOOOOOOOOOOOOOOOOOOOOOOOOOOOOOOOOOOOOOOOOOO           OOOOOOOOOOOOOOOOOOOO",
"OOOOOOOOOOOOOOOOOOOOOOOOOOOOOOOOOOOOOOOOOOOOOOOO             OOOOOOOOOOOOOOOOOOO",
"OOOOOOOOOOOOOOOOOOOOOOOOOOOOOOOOOOOOOOOOOOOOOO     .......     OOOOOOOOOOOOOOOOO",
"OOOOOOOOOOOOOOOOOOOOOOOOOOOOOOOOOOOOOOOOOOOOO    ...........    OOOOOOOOOOOOOOOO",
"OOOOOOOOOOOOOOOOOOOOOOOOOOOOOOOOOOOOO    OOOO   .............   OOOOOOOOOOOOOOOO",
"OOOOOOOOOOOOOOOOOOOOOOOOOOOOOOOOOOOO      OO   ...............   OOOOOOOOOOOOOOO",
"OOOOOOOOOOOOOOOOOOOOOOOOOOOOOOOOOOO           .................   OOOOOOOOOOOOOO",
"OOOOOOOOOOOOOOOOOOOOOOOOOOOOOOOOOO   oooo     .................   OOOOOOOOOOOOOO",
"OOOOOOOOOOOOOOOOOOOOOOOOOOOOOOOOO   oooooo   ...................   OOOOOOOOOOOOO",
"OOOOOOOOOOOOOOOOOOOOOOOOOOOOOOOOO   oooooo   ...................   OOOOOOOOOOOOO",
"OOOOOOOOOOOOOOOOOOOOOOOOOOOOOOOOO            ...................   OOOOOOOOOOOOO",
"OOOOOOOOOOOOOOOOOOOOOOOOOOOOOOOO             ...................   OOOOOOOOOOOOO",
"OOOOOOOOOOOOOOOOOOOOOOOOOOOOO       ....... X  .................   OOOOOOOOOOOOO",
"OOOOOOOOOOOOOOOOOOOOOOOOOOOO      ......... XXX ................   OOOOOOOOOOOOO",
"OOOOOOOOOOOOOOOOOOOOOOOOOOO     ........... XXXX  ..............   OOOOOOOOOOOOO",
"OOOOOOOOOOOOOOOOOOOOOOOOOO    oo ...........  XXX .............   OOOOOOOOOOOOOO",
"OOOOOOOOOOOOOOOOOOOOOOOOO    oooo ............ XXX ............   OOOOOOOOOOOOOO",
"OOOOOOOOOOOOOOOOOOOOOOOOO   oooooo ............ XXX ..........   OOOOOOOOOOOOOOO",
"OOOOOOOOOOOOOOOOOOOOO      oooooooo ...........  XXX ........   OOOOOOOOOOOOOOOO",
"OOOOOOOOOOOOOOOOOOOO       ooo oooo ............. XX .......    OOOOOOOOOOOOOOOO",
"OOOOOOOOOOOOOOOOOOO       oooo ooo o ............. XX ....     OOOOOOOOOOOOOOOOO",
"OOOOOOOOOOOOOOOOOO   ...  ooo oooo o ............. XX        OOOOOOOOOOOOOOOOOOO",
"OOOOOOOOOOOOOOOOOO  ....  ooo oooo o .............          OOOOOOOOOOOOOOOOOOOO",
"OOOOOOOOOOOOOOOOOO  ...  oooo oooo oo ................    OOOOOOOOOOOOOOOOOOOOOO",
"OOOOOOOOOOOOOOOOOO  ...  ooo oooo ooo ................   OOOOOOOOOOOOOOOOOOOOOOO",
"OOOOOOOOOOOOOOOOOO  ...  ooo oooooooo ................   OOOOOOOOOOOOOOOOOOOOOOO",
"OOOOOOOOOOOOOOOOOO  ..  oooo ooooooooo ................   OOOOOOOOOOOOOOOOOOOOOO",
"OOOOOOOOOOOOOOOOOO   .  ooo oooooooooo ................   OOOOOOOOOOOOOOOOOOOOOO",
"OOOOOOOOOOOOOOOOOOO     ooo oooooooooo ................   OOOOOOOOOOOOOOOOOOOOOO",
"OOOOOOOOOOOOOOOOOOOO    oooooooooooooo ................   OOOOOOOOOOOOOOOOOOOOOO",
"OOOOOOOOOOOOOOOOOOOOOO  oooooooooooooo ................   OOOOOOOOOOOOOOOOOOOOOO",
"OOOOOOOOOOOOOOOOOOOOOO  oooooooooooooo ................   OOOOOOOOOOOOOOOOOOOOOO",
"OOOOOOOOOOOOOOOOOOOOOO  oooooooooooooo ................   OOOOOOOOOOOOOOOOOOOOOO",
"OOOOOOOOOOOOOOOOOOOOOO  ooo oooooooooo ................   OOOOOOOOOOOOOOOOOOOOOO",
"OOOOOOOOOOOOOOOOOOOOOO  ooo oooooooooo ................   OOOOOOOOOOOOOOOOOOOOOO",
"OOOOOOOOOOOOOOOOOOOOOO  oooo ooooooooo ................   OOOOOOOOOOOOOOOOOOOOOO",
"OOOOOOOOOOOOOOOOOOOOOO   ooo oooooooo ................   OOOOOOOOOOOOOOOOOOOOOOO",
"OOOOOOOOOOOOOOOOOOOOOOO  ooo oooo ooo ................   OOOOOOOOOOOOOOOOOOOOOOO",
"OOOOOOOOOOOOOOOOOOOOOOO  oooo oooo oo ................    OOOOOOOOOOOOOOOOOOOOOO",
"OOOOOOOOOOOOOOOOOOOOOOO   ooo oooo o .............          OOOOOOOOOOOOOOOOOOOO",
"OOOOOOOOOOOOOOOOOOOOOOOO  ooo oooo o ............. XX        OOOOOOOOOOOOOOOOOOO",
"OOOOOOOOOOOOOOOOOOOOOOOO  oooo ooo o ............. XX ....     OOOOOOOOOOOOOOOOO",
"OOOOOOOOOOOOOOOOOOOOOOOO   ooo oooo ............. XX .......    OOOOOOOOOOOOOOOO",
"OOOOOOOOOOOOOOOOOOOOOOOOO  oooooooo ...........  XXX ........   OOOOOOOOOOOOOOOO",
"OOOOOOOOOOOOOOOOOOOOOOOOO   oooooo ............ XXX ..........   OOOOOOOOOOOOOOO",
"OOOOOOOOOOOOOOOOOOOOOOOOO    oooo ............ XXX ............   OOOOOOOOOOOOOO",
"OOOOOOOOOOOOOOOOOOOOOOOOOO    oo ...........  XXX .............   OOOOOOOOOOOOOO",
"OOOOOOOOOOOOOOOOOOOOOOOOOOO     ........... XXXX  ..............   OOOOOOOOOOOOO",
"OOOOOOOOOOOOOOOOOOOOOOOOOOO       ......... XXX ................   OOOOOOOOOOOOO",
"OOOOOOOOOOOOOOOOOOOOOOOOOOOO        ....... X  .................   OOOOOOOOOOOOO",
"OOOOOOOOOOOOOOOOOOOOOOOOOOO   oXX            ...................   OOOOOOOOOOOOO",
"OOOOOOOOOOOOOOOOOOOOOOOOOOO   ooooo          ...................   OOOOOOOOOOOOO",
"OOOOOOOOOOOOOOOOOOOOOOOOOOO   oooooo         ...................   OOOOOOOOOOOOO",
"OOOOOOOOOOOOOOOOOOOOOOOOOOO   oooooo   OOOO  ...................   OOOOOOOOOOOOO",
"OOOOOOOOOOOOOOOOOOOOOOOOOOOO   oooo   OOOOO   .................   OOOOOOOOOOOOOO",
"OOOOOOOOOOOOOOOOOOOOOOOOOOOOO        OOOOOO   .................   OOOOOOOOOOOOOO",
"OOOOOOOOOOOOOOOOOOOOOOOOOOOOOO      OOOOOOOO   ...............   OOOOOOOOOOOOOOO",
"OOOOOOOOOOOOOOOOOOOOOOOOOOOOOOO    OOOOOOOOOO   .............   OOOOOOOOOOOOOOOO",
"OOOOOOOOOOOOOOOOOOOOOOOOOOOOOOOOOOOOOOOOOOOOO    ...........    OOOOOOOOOOOOOOOO",
"OOOOOOOOOOOOOOOOOOOOOOOOOOOOOOOOOOOOOOOOOOOOOO     .......     OOOOOOOOOOOOOOOOO",
"OOOOOOOOOOOOOOOOOOOOOOOOOOOOOOOOOOOOOOOOOOOOOOOO             OOOOOOOOOOOOOOOOOOO",
"OOOOOOOOOOOOOOOOOOOOOOOOOOOOOOOOOOOOOOOOOOOOOOOOO           OOOOOOOOOOOOOOOOOOOO",
"OOOOOOOOOOOOOOOOOOOOOOOOOOOOOOOOOOOOOOOOOOOOOOOOOOO       OOOOOOOOOOOOOOOOOOOOOO",
"OOOOOOOOOOOOOOOOOOOOOOOOOOOOOOOOOOOOOOOOOOOOOOOOOOOOOOOOOOOOOOOOOOOOOOOOOOOOOOOO",
"OOOOOOOOOOOOOOOOOOOOOOOOOOOOOOOOOOOOOOOOOOOOOOOOOOOOOOOOOOOOOOOOOOOOOOOOOOOOOOOO",
"OOOOOOOOOOOOOOOOOOOOOOOOOOOOOOOOOOOOOOOOOOOOOOOOOOOOOOOOOOOOOOOOOOOOOOOOOOOOOOOO",
"OOOOOOOOOOOOOOOOOOOOOOOOOOOOOOOOOOOOOOOOOOOOOOOOOOOOOOOOOOOOOOOOOOOOOOOOOOOOOOOO",
"OOOOOOOOOOOOOOOOOOOOOOOOOOOOOOOOOOOOOOOOOOOOOOOOOOOOOOOOOOOOOOOOOOOOOOOOOOOOOOOO",
"OOOOOOOOOOOOOOOOOOOOOOOOOOOOOOOOOOOOOOOOOOOOOOOOOOOOOOOOOOOOOOOOOOOOOOOOOOOOOOOO",
"OOOOOOOOOOOOOOOOOOOOOOOOOOOOOOOOOOOOOOOOOOOOOOOOOOOOOOOOOOOOOOOOOOOOOOOOOOOOOOOO",
"OOOOOOOOOOOOOOOOOOOOOOOOOOOOOOOOOOOOOOOOOOOOOOOOOOOOOOOOOOOOOOOOOOOOOOOOOOOOOOOO"
};
