/* XPM */
static char *ede824b77a704c49c66d9634f278f59cA3N2405NIiYMEfcH[] = {
/* columns rows colors chars-per-pixel */
"60 60 5 1 ",
"  c None",
". c black",
"X c gray12",
"o c #C40424",
"O c #FFDCC7",
/* pixels */
"                                                            ",
"                                                            ",
"                                                            ",
"                                                            ",
"                                                            ",
"                                                            ",
"                                                            ",
"                                                            ",
"                                                            ",
"          .....                               .....         ",
"         ........                           .........       ",
"       ...........                         ...........      ",
"      .............       .........       .............     ",
"     .....XXXXXX....   ...............   ....XXXXXX.....    ",
"    .....XXXXXXX.............................XXXXXXX.....   ",
"    ...XXXXXXXXXXX.........XXXXXXX.........XXXXXXXXXXX...   ",
"   ....XXXXXXXXXXX......XXXXXXXXXXXXX......XXXXXXXXXXX....  ",
"  ....XXXXXXXXXXXX....XXXXXXXXXXXXXXXXX....XXXXXXXXXXXX.... ",
" .....XXXXXXXXXXXXooXXXXXXXXXXXXXXXXXXXXXooXXXXXXXXXXXX.... ",
" ....XXXXXXXXXXXXXoXXXXXXXXXXXXXXXXXXXXXXXoXXXXXXXXXXXXX... ",
" ....XXXXXXXXXXXXooXXXXXXXXXXXXXXXXXXXXXXXooXXXXXXXXXXXX... ",
" ....XXXXXXXXXXXooXXXXXXXXXXXXXXXXXXXXXXXXXooXXXXXXXXXXX... ",
" ....XXXXXXXXXXXoXXXXXXXXXXXXXXXXXXXXXXXXXXXoXXXXXXXXXXX... ",
" ....XXXXXXXXXXooXXXXXXXXXXXXXXXXXXXXXXXXXXXooXXXXXXXXXX... ",
" .....XXXXXXXXXoXXXXXXXXXXXXXXXXXXXXXXXXXXXXXoXXXXXXXXX.... ",
"  ....XXXXXXXXXoXXXXXXXXXXXXXXXXXXXXXXXXXXXXXoXXXXXXXXX.... ",
"   ....XXXXXXXooXXXXXXXXXXXXXXXXXXXXXXXXXXXXXooXXXXXXX....  ",
"    ....XXXXXXoXXXXXXXXXXXXXXXXXXXXXXXXXXXXXXXoXXXXXX.....  ",
"    .....XXXXXoXXXXXXXXXXXXXXXXXXXXXXXXXXXXXXXoXXXXX.....   ",
"     ..........XXXXXXXXXXXXXXXXXXXXXXXXXXXXXXX..........    ",
"      ....oooo..XXXXXXXXXXXXXXXXXXXXXXXXXXXXX..oooo....     ",
"      ...ooooo..XXXXXXXXXXXXXXXXXXXXXXXXXXXXX..ooooo...     ",
"      ...ooooo..XXXXXXXXXX.........XXXXXXXXXX..ooooo...     ",
"      ...oooooo..XXXXXX...OOOOOOOOO...XXXXXX..oooooo...     ",
"      ...oooooo..XXXX..OOOOOOOOOOOOOOO..XXXX..oooooo...     ",
"      ....ooooo..XXX.OO...OOOOOOOOO...OO.XXX..ooooo....     ",
"      ....ooooo...X.OOOOOO.OOOOOOO.OOOOOO.X...ooooo....     ",
"       ....ooooo...OOOOOOOOOOOOOOOOOOOOOOO...ooooo....      ",
"        .....oooo..OOOOOOOOOOOOOOOOOOOOOOO..oooo.....       ",
"        ........o...OO.OOOOOOOOOOOOOOO.OO...o........       ",
"          ...........OO..OOOOOOOOOOO..OO...........         ",
"           ...........OOO...OOOOO...OOO...........          ",
"               .........OOOO.OOO.OOOO.........              ",
"                    .......OOOOOOO.......                   ",
"                     ...................                    ",
"                       ...............                      ",
"                          .........                         ",
"                                                            ",
"                                                            ",
"                                                            ",
"                                                            ",
"                                                            ",
"                                                            ",
"                                                            ",
"                                                            ",
"                                                            ",
"                                                            ",
"                                                            ",
"                                                            ",
"                                                            "
};
