/* XPM */
static char *result[] = {
/* columns rows colors chars-per-pixel */
"60 60 21 1 ",
"  c #331A19",
". c #341A25",
"X c #3C1E2B",
"o c #4D2D2C",
"O c #452432",
"+ c #4F2A3A",
"@ c #5C3747",
"# c #442B61",
"$ c #7C5969",
"% c red",
"& c #CE2038",
"* c #8A0B41",
"= c #8A767E",
"- c #331685",
"; c #432792",
": c #5F4181",
"> c #9E7688",
", c #97828A",
"< c #97828B",
"1 c #BEACB3",
"2 c None",
/* pixels */
"222222222222222222222222222222222222222222222222222222222222",
"222222222222222222222222222222222222222222222222222222222222",
"222222222222222222222222222222222222222222222222222222222222",
"222222222222222222222222222222222222222222222222222222222222",
"222222222222222222222222222222222222222222222222222222222222",
"222222222222222222222222222222222222222222222222222222222222",
"222222222222222222222222222222222222222222222222222222222222",
"222222222222222222222222222222222222222222222222222222222222",
"22222222222222222222222222222222+OO2222222222222222222222222",
"2222222222222222222222222222222++OOOO22222222222222222222222",
"2222222222222222222222222222222+++OOOO2222222222222222222222",
"2222222222222222222222222222222++++OOOOO22222222222222222222",
"22222222222222222222222222222222++++OOOOOO222222222222222222",
"222222222222222222222222222222222++++OOOOOO22222222222222222",
"2222222222222222222222222222222222++++OOOOOO2222222222222222",
"22222222222222222222222222222222222++++OOOOOOO22222222222222",
"222222222222222222222222222222222222++++OOOOOOO2222222222222",
"2222222222222222222222222222222222222+XXXOOOOOOO222222222222",
"22222222222222222222222222222222222222X=XXXOOOOOO22222222222",
"2222222222222222222222222&&&&&&&&&&222X%=XXXOOOOOO2222222222",
"2222222222222222222222&&&&******&*&&**X1<=XXXXOOOOO222222222",
"22222222222222222222&&&*****XXXX***&**XX1<22XXXXXXX222222222",
"222222222222222222&&*******@@@@XXX**&**X**2222XXXX2222222222",
"222222222222222222*********@@@@XXXX,,*****&22222222222222222",
"22222222222222222222****22@@@@XXXX,,,,**&&&&2222222222222222",
"2222222222222222222****222@@@@X,,,,1111,..*&2222222222222222",
"2222222222222222222**2222@@@@XX,,111111, ..*&222222222222222",
"2222222222222222222222222@@@@XX,11111,,  @@..222222222222222",
"2222222222222222222222222X@@XXX1111,,,@@@@@@.222222222222222",
"2222222222222222222222222XXXXXX111,  .@@@....222222222222222",
"22222222222222222222222222XXXX$$1, 11........222222222222222",
"2222222222222222222222222222,$>>>;->>.......2222222222222222",
"2222222222222222222222:::::::#$$>>-$$$$....22222222222222222",
"222222222222::::::::::::########$$,$$$2222222222222222222222",
"22222::::::::###########222,,,,, ,,,222222222222222222222222",
"22222#########22222222222221,, o   oo22222222222222222222222",
"2222222222222222222222222221,, o    oo2222222222222222222222",
"2222222222222222222222222221,, o     oo222222222222222222222",
"2222222222222222222222222221,, oo    oo222222222222222222222",
"2222222222222222222222222211,  ooo    oo22222222222222222222",
"22222222222222222222222221,,,  ooo     o22222222222222222222",
"2222222222222222222222221,,,  ooo  oooooo2222222222222222222",
"222222222222222222222211,,,   oooooooooooo222222222222222222",
"222222222222222222222,,,,,    oooooo  oooo222222222222222222",
"22222222222222222222o       oooooo   oooooo22222222222222222",
"22222222222222222222    ooooooooo   oo  ooo22222222222222222",
"22222222222222222222      ooooo   ooo   ooo22222222222222222",
"222222222222222222222      oo    o       ooo2222222222222222",
"22222222222222222222222       o o  oooo   oo2222222222222222",
"22222222222222222222222       oooooo      oo2222222222222222",
"222222222222222222222222                   oo222222222222222",
"222222222222222222222222                   oo222222222222222",
"2222222222222222222222222                  oo222222222222222",
"2222222222222222222222222                ooo2222222222222222",
"22222222222222222222222222            ooo2222222222222222222",
"222222222222222222222222222          22222222222222222222222",
"222222222222222222222222222222222222222222222222222222222222",
"222222222222222222222222222222222222222222222222222222222222",
"222222222222222222222222222222222222222222222222222222222222",
"222222222222222222222222222222222222222222222222222222222222"
};
